{"eventList": [{"pitch": 42, "on": 0.15625, "duration": 0.25, "tagsIdx": [4], "velocity": 31}, {"pitch": 36, "on": 0.40625, "duration": 1.0, "tagsIdx": [7], "velocity": 127}, {"pitch": 42, "on": 0.40625, "duration": 0.25, "tagsIdx": [4], "velocity": 102}, {"pitch": 42, "on": 0.65625, "duration": 0.25, "tagsIdx": [4], "velocity": 49}, {"pitch": 38, "on": 0.90625, "duration": 2.0, "tagsIdx": [5], "velocity": 127}, {"pitch": 42, "on": 0.90625, "duration": 0.25, "tagsIdx": [4], "velocity": 113}, {"pitch": 42, "on": 1.15625, "duration": 0.25, "tagsIdx": [4], "velocity": 33}, {"pitch": 36, "on": 1.40625, "duration": 0.25, "tagsIdx": [7], "velocity": 115}, {"pitch": 42, "on": 1.40625, "duration": 0.25, "tagsIdx": [4], "velocity": 84}, {"pitch": 36, "on": 1.65625, "duration": 0.5, "tagsIdx": [7], "velocity": 127}, {"pitch": 42, "on": 1.65625, "duration": 0.25, "tagsIdx": [4], "velocity": 89}, {"pitch": 42, "on": 1.90625, "duration": 0.5, "tagsIdx": [4], "velocity": 49}, {"pitch": 36, "on": 2.15625, "duration": 1.5, "tagsIdx": [7], "velocity": 127}, {"pitch": 42, "on": 2.40625, "duration": 0.25, "tagsIdx": [4], "velocity": 26}, {"pitch": 42, "on": 2.65625, "duration": 0.25, "tagsIdx": [4], "velocity": 52}, {"pitch": 38, "on": 2.90625, "duration": 2.0, "tagsIdx": [5], "velocity": 127}, {"pitch": 42, "on": 2.90625, "duration": 0.25, "tagsIdx": [4], "velocity": 120}, {"pitch": 42, "on": 3.15625, "duration": 0.25, "tagsIdx": [4], "velocity": 26}, {"pitch": 42, "on": 3.40625, "duration": 0.5, "tagsIdx": [4], "velocity": 59}, {"pitch": 36, "on": 3.65625, "duration": 0.25, "tagsIdx": [7], "velocity": 127}, {"pitch": 46, "on": 3.65625, "duration": 8.0, "tagsIdx": [2], "velocity": 124}, {"pitch": 36, "on": 3.90625, "duration": 0.5, "tagsIdx": [7], "velocity": 124}, {"pitch": 42, "on": 3.90625, "duration": 0.25, "tagsIdx": [4], "velocity": 103}], "eventTags": ["Clap", "LowConga", "OpenHH", "Rimshot", "ClosedHH", "Snare", "HiConga", "Kick"], "timeInfo": {"loopLength": 0, "length": 4, "bpm": 120.0, "timeSignature": [4, 4]}, "metadata": {"name": "funkyfresh", "idx": 22}}
