{"eventList": [{"pitch": 42, "on": 0.1572916666666515, "duration": 0.25, "tagsIdx": [4], "velocity": 21}, {"pitch": 36, "on": 0.4072916666666515, "duration": 1.25, "tagsIdx": [7], "velocity": 127}, {"pitch": 42, "on": 0.4072916666666515, "duration": 0.25, "tagsIdx": [4], "velocity": 115}, {"pitch": 42, "on": 0.6572916666666515, "duration": 0.25, "tagsIdx": [4], "velocity": 37}, {"pitch": 38, "on": 0.9072916666666515, "duration": 2.0, "tagsIdx": [5], "velocity": 127}, {"pitch": 42, "on": 0.9072916666666515, "duration": 0.25, "tagsIdx": [4], "velocity": 127}, {"pitch": 42, "on": 1.1572916666666515, "duration": 0.25, "tagsIdx": [4], "velocity": 24}, {"pitch": 42, "on": 1.4072916666666515, "duration": 0.5, "tagsIdx": [4], "velocity": 88}, {"pitch": 36, "on": 1.6572916666666515, "duration": 0.25, "tagsIdx": [7], "velocity": 59}, {"pitch": 36, "on": 1.9072916666666515, "duration": 0.5, "tagsIdx": [7], "velocity": 127}, {"pitch": 42, "on": 1.9072916666666515, "duration": 0.25, "tagsIdx": [4], "velocity": 127}, {"pitch": 42, "on": 2.1572916666666515, "duration": 0.25, "tagsIdx": [4], "velocity": 16}, {"pitch": 36, "on": 2.4072916666666515, "duration": 1.25, "tagsIdx": [7], "velocity": 124}, {"pitch": 42, "on": 2.4072916666666515, "duration": 0.25, "tagsIdx": [4], "velocity": 115}, {"pitch": 42, "on": 2.6572916666666515, "duration": 0.25, "tagsIdx": [4], "velocity": 19}, {"pitch": 38, "on": 2.9072916666666515, "duration": 2.0, "tagsIdx": [5], "velocity": 127}, {"pitch": 42, "on": 2.9072916666666515, "duration": 0.25, "tagsIdx": [4], "velocity": 120}, {"pitch": 42, "on": 3.1572916666666515, "duration": 0.25, "tagsIdx": [4], "velocity": 31}, {"pitch": 42, "on": 3.4072916666666515, "duration": 0.5, "tagsIdx": [4], "velocity": 62}, {"pitch": 36, "on": 3.6572916666666515, "duration": 0.25, "tagsIdx": [7], "velocity": 52}, {"pitch": 36, "on": 3.9072916666666515, "duration": 0.5, "tagsIdx": [7], "velocity": 127}, {"pitch": 42, "on": 3.9072916666666515, "duration": 0.25, "tagsIdx": [4], "velocity": 127}], "eventTags": ["Clap", "LowConga", "OpenHH", "Rimshot", "ClosedHH", "Snare", "HiConga", "Kick"], "timeInfo": {"loopLength": 0, "length": 4, "bpm": 120.0, "timeSignature": [4, 4]}, "metadata": {"name": "funkyfresh", "idx": 164}}
