{"patternList": [{"eventList": [{"duration": 0.125, "on": 0.0, "velocity": 100, "tagsIdx": [0], "pitch": 42}, {"duration": 0.125, "on": 0.5, "velocity": 100, "tagsIdx": [0], "pitch": 42}, {"duration": 0.125, "on": 1.0, "velocity": 100, "tagsIdx": [1], "pitch": 36}, {"duration": 0.125, "on": 1.0, "velocity": 100, "tagsIdx": [0], "pitch": 42}, {"duration": 0.125, "on": 1.0, "velocity": 100, "tagsIdx": [2], "pitch": 39}, {"duration": 0.125, "on": 1.5, "velocity": 100, "tagsIdx": [0], "pitch": 42}, {"duration": 0.125, "on": 2.0, "velocity": 100, "tagsIdx": [0], "pitch": 42}, {"duration": 0.125, "on": 2.5, "velocity": 100, "tagsIdx": [0], "pitch": 42}, {"duration": 0.125, "on": 3.0, "velocity": 100, "tagsIdx": [0], "pitch": 42}, {"duration": 0.125, "on": 3.0, "velocity": 100, "tagsIdx": [1], "pitch": 36}, {"duration": 0.125, "on": 3.0, "velocity": 100, "tagsIdx": [2], "pitch": 39}, {"duration": 0.125, "on": 3.5, "velocity": 100, "tagsIdx": [0], "pitch": 42}, {"duration": 0.125, "on": 3.75, "velocity": 100, "tagsIdx": [0], "pitch": 42}], "eventTags": ["ClosedHH", "Kick", "Clap"], "timeInfo": {"duration": 4, "bpm": 120.0}}, {"eventList": [{"duration": 0.125, "on": 0.0, "velocity": 100, "tagsIdx": [0], "pitch": 42}, {"duration": 0.125, "on": 0.5, "velocity": 100, "tagsIdx": [0], "pitch": 42}, {"duration": 0.125, "on": 1.0, "velocity": 100, "tagsIdx": [1], "pitch": 36}, {"duration": 0.125, "on": 1.0, "velocity": 100, "tagsIdx": [0], "pitch": 42}, {"duration": 0.125, "on": 1.0, "velocity": 100, "tagsIdx": [2], "pitch": 39}, {"duration": 0.125, "on": 1.5, "velocity": 100, "tagsIdx": [0], "pitch": 42}, {"duration": 0.125, "on": 2.0, "velocity": 100, "tagsIdx": [0], "pitch": 42}, {"duration": 0.125, "on": 2.5, "velocity": 100, "tagsIdx": [0], "pitch": 42}, {"duration": 0.125, "on": 3.0, "velocity": 100, "tagsIdx": [0], "pitch": 42}, {"duration": 0.125, "on": 3.0, "velocity": 100, "tagsIdx": [1], "pitch": 36}, {"duration": 0.125, "on": 3.0, "velocity": 100, "tagsIdx": [2], "pitch": 39}, {"duration": 0.125, "on": 3.5, "velocity": 100, "tagsIdx": [0], "pitch": 42}, {"duration": 0.125, "on": 3.75, "velocity": 100, "tagsIdx": [0], "pitch": 42}], "eventTags": ["ClosedHH", "Kick", "Clap"], "timeInfo": {"duration": 4, "bpm": 120.0}}, {"eventList": [{"duration": 0.125, "on": 0.0, "velocity": 100, "tagsIdx": [0], "pitch": 42}, {"duration": 0.125, "on": 0.5, "velocity": 100, "tagsIdx": [0], "pitch": 42}, {"duration": 0.125, "on": 1.0, "velocity": 100, "tagsIdx": [1], "pitch": 36}, {"duration": 0.125, "on": 1.0, "velocity": 100, "tagsIdx": [0], "pitch": 42}, {"duration": 0.125, "on": 1.0, "velocity": 100, "tagsIdx": [2], "pitch": 39}, {"duration": 0.125, "on": 1.5, "velocity": 100, "tagsIdx": [0], "pitch": 42}, {"duration": 0.125, "on": 2.0, "velocity": 100, "tagsIdx": [0], "pitch": 42}, {"duration": 0.125, "on": 2.5, "velocity": 100, "tagsIdx": [0], "pitch": 42}, {"duration": 0.125, "on": 3.0, "velocity": 100, "tagsIdx": [0], "pitch": 42}, {"duration": 0.125, "on": 3.0, "velocity": 100, "tagsIdx": [1], "pitch": 36}, {"duration": 0.125, "on": 3.0, "velocity": 100, "tagsIdx": [2], "pitch": 39}, {"duration": 0.125, "on": 3.5, "velocity": 100, "tagsIdx": [0], "pitch": 42}, {"duration": 0.125, "on": 3.75, "velocity": 100, "tagsIdx": [0], "pitch": 42}], "eventTags": ["ClosedHH", "Kick", "Clap"], "timeInfo": {"duration": 4, "bpm": 120.0}}, {"eventList": [{"duration": 0.125, "on": 0.0, "velocity": 100, "tagsIdx": [0], "pitch": 42}, {"duration": 0.125, "on": 0.5, "velocity": 100, "tagsIdx": [0], "pitch": 42}, {"duration": 0.125, "on": 1.0, "velocity": 100, "tagsIdx": [1], "pitch": 36}, {"duration": 0.125, "on": 1.0, "velocity": 100, "tagsIdx": [0], "pitch": 42}, {"duration": 0.125, "on": 1.0, "velocity": 100, "tagsIdx": [2], "pitch": 39}, {"duration": 0.125, "on": 1.5, "velocity": 100, "tagsIdx": [0], "pitch": 42}, {"duration": 0.125, "on": 2.0, "velocity": 100, "tagsIdx": [0], "pitch": 42}, {"duration": 0.125, "on": 2.5, "velocity": 100, "tagsIdx": [0], "pitch": 42}, {"duration": 0.125, "on": 3.0, "velocity": 100, "tagsIdx": [0], "pitch": 42}, {"duration": 0.125, "on": 3.0, "velocity": 100, "tagsIdx": [1], "pitch": 36}, {"duration": 0.125, "on": 3.0, "velocity": 100, "tagsIdx": [2], "pitch": 39}, {"duration": 0.125, "on": 3.5, "velocity": 100, "tagsIdx": [0], "pitch": 42}, {"duration": 0.125, "on": 3.75, "velocity": 100, "tagsIdx": [0], "pitch": 42}], "eventTags": ["ClosedHH", "Kick", "Clap"], "timeInfo": {"duration": 4, "bpm": 120.0}}, {"eventList": [{"duration": 0.125, "on": 0.0, "velocity": 100, "tagsIdx": [0], "pitch": 42}, {"duration": 0.125, "on": 0.5, "velocity": 100, "tagsIdx": [0], "pitch": 42}, {"duration": 0.125, "on": 1.0, "velocity": 100, "tagsIdx": [1], "pitch": 36}, {"duration": 0.125, "on": 1.0, "velocity": 100, "tagsIdx": [0], "pitch": 42}, {"duration": 0.125, "on": 1.0, "velocity": 100, "tagsIdx": [2], "pitch": 39}, {"duration": 0.125, "on": 1.5, "velocity": 100, "tagsIdx": [0], "pitch": 42}, {"duration": 0.125, "on": 2.0, "velocity": 100, "tagsIdx": [0], "pitch": 42}, {"duration": 0.125, "on": 2.5, "velocity": 100, "tagsIdx": [0], "pitch": 42}, {"duration": 0.125, "on": 3.0, "velocity": 100, "tagsIdx": [0], "pitch": 42}, {"duration": 0.125, "on": 3.0, "velocity": 100, "tagsIdx": [1], "pitch": 36}, {"duration": 0.125, "on": 3.0, "velocity": 100, "tagsIdx": [2], "pitch": 39}, {"duration": 0.125, "on": 3.5, "velocity": 100, "tagsIdx": [0], "pitch": 42}, {"duration": 0.125, "on": 3.75, "velocity": 100, "tagsIdx": [0], "pitch": 42}], "eventTags": ["ClosedHH", "Kick", "Clap"], "timeInfo": {"duration": 4, "bpm": 120.0}}, {"eventList": [{"duration": 0.125, "on": 0.0, "velocity": 100, "tagsIdx": [0], "pitch": 42}, {"duration": 0.125, "on": 0.5, "velocity": 100, "tagsIdx": [0], "pitch": 42}, {"duration": 0.125, "on": 1.0, "velocity": 100, "tagsIdx": [1], "pitch": 36}, {"duration": 0.125, "on": 1.0, "velocity": 100, "tagsIdx": [0], "pitch": 42}, {"duration": 0.125, "on": 1.0, "velocity": 100, "tagsIdx": [2], "pitch": 39}, {"duration": 0.125, "on": 1.5, "velocity": 100, "tagsIdx": [0], "pitch": 42}, {"duration": 0.125, "on": 2.0, "velocity": 100, "tagsIdx": [0], "pitch": 42}, {"duration": 0.125, "on": 2.5, "velocity": 100, "tagsIdx": [0], "pitch": 42}, {"duration": 0.125, "on": 3.0, "velocity": 100, "tagsIdx": [0], "pitch": 42}, {"duration": 0.125, "on": 3.0, "velocity": 100, "tagsIdx": [1], "pitch": 36}, {"duration": 0.125, "on": 3.0, "velocity": 100, "tagsIdx": [2], "pitch": 39}, {"duration": 0.125, "on": 3.5, "velocity": 100, "tagsIdx": [0], "pitch": 42}, {"duration": 0.125, "on": 3.75, "velocity": 100, "tagsIdx": [0], "pitch": 42}], "eventTags": ["ClosedHH", "Kick", "Clap"], "timeInfo": {"duration": 4, "bpm": 120.0}}, {"eventList": [{"duration": 0.125, "on": 0.0, "velocity": 100, "tagsIdx": [0], "pitch": 42}, {"duration": 0.125, "on": 0.5, "velocity": 100, "tagsIdx": [0], "pitch": 42}, {"duration": 0.125, "on": 1.0, "velocity": 100, "tagsIdx": [1], "pitch": 36}, {"duration": 0.125, "on": 1.0, "velocity": 100, "tagsIdx": [0], "pitch": 42}, {"duration": 0.125, "on": 1.0, "velocity": 100, "tagsIdx": [2], "pitch": 39}, {"duration": 0.125, "on": 1.5, "velocity": 100, "tagsIdx": [0], "pitch": 42}, {"duration": 0.125, "on": 2.0, "velocity": 100, "tagsIdx": [0], "pitch": 42}, {"duration": 0.125, "on": 2.5, "velocity": 100, "tagsIdx": [0], "pitch": 42}, {"duration": 0.125, "on": 3.0, "velocity": 100, "tagsIdx": [0], "pitch": 42}, {"duration": 0.125, "on": 3.0, "velocity": 100, "tagsIdx": [1], "pitch": 36}, {"duration": 0.125, "on": 3.0, "velocity": 100, "tagsIdx": [2], "pitch": 39}, {"duration": 0.125, "on": 3.5, "velocity": 100, "tagsIdx": [0], "pitch": 42}, {"duration": 0.125, "on": 3.75, "velocity": 100, "tagsIdx": [0], "pitch": 42}], "eventTags": ["ClosedHH", "Kick", "Clap"], "timeInfo": {"duration": 4, "bpm": 120.0}}, {"eventList": [{"duration": 0.125, "on": 0.0, "velocity": 100, "tagsIdx": [0], "pitch": 42}, {"duration": 0.125, "on": 0.5, "velocity": 100, "tagsIdx": [0], "pitch": 42}, {"duration": 0.125, "on": 1.0, "velocity": 100, "tagsIdx": [1], "pitch": 36}, {"duration": 0.125, "on": 1.0, "velocity": 100, "tagsIdx": [0], "pitch": 42}, {"duration": 0.125, "on": 1.0, "velocity": 100, "tagsIdx": [2], "pitch": 39}, {"duration": 0.125, "on": 1.5, "velocity": 100, "tagsIdx": [0], "pitch": 42}, {"duration": 0.125, "on": 2.0, "velocity": 100, "tagsIdx": [0], "pitch": 42}, {"duration": 0.125, "on": 2.5, "velocity": 100, "tagsIdx": [0], "pitch": 42}, {"duration": 0.125, "on": 3.0, "velocity": 100, "tagsIdx": [0], "pitch": 42}, {"duration": 0.125, "on": 3.0, "velocity": 100, "tagsIdx": [1], "pitch": 36}, {"duration": 0.125, "on": 3.0, "velocity": 100, "tagsIdx": [2], "pitch": 39}, {"duration": 0.125, "on": 3.5, "velocity": 100, "tagsIdx": [0], "pitch": 42}, {"duration": 0.125, "on": 3.75, "velocity": 100, "tagsIdx": [0], "pitch": 42}], "eventTags": ["ClosedHH", "Kick", "Clap"], "timeInfo": {"duration": 4, "bpm": 120.0}}, {"eventList": [{"duration": 0.25, "on": 0.0, "velocity": 95, "tagsIdx": [0], "pitch": 46}, {"duration": 0.25, "on": 0.25, "velocity": 95, "tagsIdx": [1], "pitch": 42}, {"duration": 0.25, "on": 0.5, "velocity": 95, "tagsIdx": [1], "pitch": 42}, {"duration": 0.25, "on": 0.75, "velocity": 95, "tagsIdx": [1], "pitch": 42}, {"duration": 0.25, "on": 1.0, "velocity": 95, "tagsIdx": [0], "pitch": 46}, {"duration": 0.25, "on": 1.0, "velocity": 95, "tagsIdx": [2], "pitch": 39}, {"duration": 0.25, "on": 1.0, "velocity": 95, "tagsIdx": [3], "pitch": 40}, {"duration": 0.25, "on": 1.25, "velocity": 95, "tagsIdx": [1], "pitch": 42}, {"duration": 0.25, "on": 1.5, "velocity": 95, "tagsIdx": [1], "pitch": 42}, {"duration": 0.25, "on": 1.75, "velocity": 95, "tagsIdx": [1], "pitch": 42}, {"duration": 0.25, "on": 2.0, "velocity": 95, "tagsIdx": [0], "pitch": 46}, {"duration": 0.25, "on": 2.25, "velocity": 95, "tagsIdx": [1], "pitch": 42}, {"duration": 0.25, "on": 2.5, "velocity": 95, "tagsIdx": [1], "pitch": 42}, {"duration": 0.25, "on": 2.75, "velocity": 95, "tagsIdx": [1], "pitch": 42}, {"duration": 0.25, "on": 3.0, "velocity": 95, "tagsIdx": [0], "pitch": 46}, {"duration": 0.25, "on": 3.0, "velocity": 95, "tagsIdx": [2], "pitch": 39}, {"duration": 0.25, "on": 3.0, "velocity": 95, "tagsIdx": [3], "pitch": 40}, {"duration": 0.25, "on": 3.25, "velocity": 95, "tagsIdx": [1], "pitch": 42}, {"duration": 0.25, "on": 3.5, "velocity": 95, "tagsIdx": [1], "pitch": 42}, {"duration": 0.25, "on": 3.75, "velocity": 95, "tagsIdx": [1], "pitch": 42}], "eventTags": ["OpenHH", "ClosedHH", "Clap", "Clave"], "timeInfo": {"duration": 4, "bpm": 120.0}}, {"eventList": [{"duration": 0.25, "on": 0.0, "velocity": 95, "tagsIdx": [0], "pitch": 38}, {"duration": 0.25, "on": 0.0, "velocity": 95, "tagsIdx": [1], "pitch": 42}, {"duration": 0.25, "on": 0.0, "velocity": 63, "tagsIdx": [2], "pitch": 39}, {"duration": 0.25, "on": 0.25, "velocity": 111, "tagsIdx": [3], "pitch": 36}, {"duration": 0.25, "on": 0.25, "velocity": 95, "tagsIdx": [1], "pitch": 42}, {"duration": 0.25, "on": 0.5, "velocity": 95, "tagsIdx": [1], "pitch": 42}, {"duration": 0.25, "on": 0.75, "velocity": 95, "tagsIdx": [1], "pitch": 42}, {"duration": 0.25, "on": 1.0, "velocity": 111, "tagsIdx": [3], "pitch": 36}, {"duration": 0.25, "on": 1.0, "velocity": 127, "tagsIdx": [1], "pitch": 42}, {"duration": 0.25, "on": 1.25, "velocity": 127, "tagsIdx": [1], "pitch": 42}, {"duration": 0.25, "on": 1.5, "velocity": 127, "tagsIdx": [1], "pitch": 42}, {"duration": 0.25, "on": 1.75, "velocity": 95, "tagsIdx": [1], "pitch": 42}, {"duration": 0.25, "on": 2.0, "velocity": 95, "tagsIdx": [0], "pitch": 38}, {"duration": 0.25, "on": 2.0, "velocity": 95, "tagsIdx": [1], "pitch": 42}, {"duration": 0.25, "on": 2.0, "velocity": 63, "tagsIdx": [2], "pitch": 39}, {"duration": 0.25, "on": 2.25, "velocity": 95, "tagsIdx": [1], "pitch": 42}, {"duration": 0.25, "on": 2.5, "velocity": 95, "tagsIdx": [1], "pitch": 42}, {"duration": 0.25, "on": 2.75, "velocity": 95, "tagsIdx": [1], "pitch": 42}, {"duration": 0.25, "on": 3.0, "velocity": 111, "tagsIdx": [3], "pitch": 36}, {"duration": 0.25, "on": 3.0, "velocity": 95, "tagsIdx": [1], "pitch": 42}, {"duration": 0.25, "on": 3.25, "velocity": 95, "tagsIdx": [1], "pitch": 42}, {"duration": 0.25, "on": 3.5, "velocity": 111, "tagsIdx": [3], "pitch": 36}, {"duration": 0.25, "on": 3.5, "velocity": 79, "tagsIdx": [4], "pitch": 49}, {"duration": 0.25, "on": 3.5, "velocity": 111, "tagsIdx": [1], "pitch": 42}, {"duration": 0.25, "on": 3.5, "velocity": 111, "tagsIdx": [5], "pitch": 46}, {"duration": 0.25, "on": 3.75, "velocity": 95, "tagsIdx": [1], "pitch": 42}], "eventTags": ["Snare", "ClosedHH", "Clap", "Kick", "Cymbal", "OpenHH"], "timeInfo": {"duration": 4, "bpm": 120.0}}, {"eventList": [{"duration": 0.25, "on": 0.0, "velocity": 95, "tagsIdx": [0], "pitch": 38}, {"duration": 0.25, "on": 0.0, "velocity": 95, "tagsIdx": [1], "pitch": 42}, {"duration": 0.25, "on": 0.0, "velocity": 63, "tagsIdx": [2], "pitch": 39}, {"duration": 0.25, "on": 0.25, "velocity": 111, "tagsIdx": [3], "pitch": 36}, {"duration": 0.25, "on": 0.25, "velocity": 95, "tagsIdx": [1], "pitch": 42}, {"duration": 0.25, "on": 0.5, "velocity": 95, "tagsIdx": [1], "pitch": 42}, {"duration": 0.25, "on": 0.75, "velocity": 95, "tagsIdx": [1], "pitch": 42}, {"duration": 0.25, "on": 1.0, "velocity": 111, "tagsIdx": [3], "pitch": 36}, {"duration": 0.25, "on": 1.0, "velocity": 127, "tagsIdx": [1], "pitch": 42}, {"duration": 0.25, "on": 1.25, "velocity": 127, "tagsIdx": [1], "pitch": 42}, {"duration": 0.25, "on": 1.5, "velocity": 111, "tagsIdx": [1], "pitch": 42}, {"duration": 0.25, "on": 1.75, "velocity": 95, "tagsIdx": [1], "pitch": 42}, {"duration": 0.25, "on": 2.0, "velocity": 95, "tagsIdx": [0], "pitch": 38}, {"duration": 0.25, "on": 2.0, "velocity": 95, "tagsIdx": [1], "pitch": 42}, {"duration": 0.25, "on": 2.0, "velocity": 63, "tagsIdx": [2], "pitch": 39}, {"duration": 0.25, "on": 2.25, "velocity": 63, "tagsIdx": [1], "pitch": 42}, {"duration": 0.25, "on": 2.5, "velocity": 95, "tagsIdx": [1], "pitch": 42}, {"duration": 0.25, "on": 2.75, "velocity": 95, "tagsIdx": [1], "pitch": 42}, {"duration": 0.25, "on": 3.0, "velocity": 95, "tagsIdx": [1], "pitch": 42}, {"duration": 0.25, "on": 3.25, "velocity": 95, "tagsIdx": [1], "pitch": 42}, {"duration": 0.25, "on": 3.5, "velocity": 95, "tagsIdx": [3], "pitch": 36}, {"duration": 0.25, "on": 3.5, "velocity": 95, "tagsIdx": [1], "pitch": 42}, {"duration": 0.25, "on": 3.5, "velocity": 111, "tagsIdx": [4], "pitch": 46}, {"duration": 0.25, "on": 3.75, "velocity": 95, "tagsIdx": [1], "pitch": 42}], "eventTags": ["Snare", "ClosedHH", "Clap", "Kick", "OpenHH"], "timeInfo": {"duration": 4, "bpm": 120.0}}, {"eventList": [{"duration": 0.125, "on": 0.0, "velocity": 100, "tagsIdx": [0], "pitch": 42}, {"duration": 0.125, "on": 0.5, "velocity": 100, "tagsIdx": [0], "pitch": 42}, {"duration": 0.125, "on": 1.0, "velocity": 100, "tagsIdx": [1], "pitch": 36}, {"duration": 0.125, "on": 1.0, "velocity": 100, "tagsIdx": [0], "pitch": 42}, {"duration": 0.125, "on": 1.0, "velocity": 100, "tagsIdx": [2], "pitch": 39}, {"duration": 0.125, "on": 1.5, "velocity": 100, "tagsIdx": [0], "pitch": 42}, {"duration": 0.125, "on": 2.0, "velocity": 100, "tagsIdx": [0], "pitch": 42}, {"duration": 0.125, "on": 2.5, "velocity": 100, "tagsIdx": [0], "pitch": 42}, {"duration": 0.125, "on": 3.0, "velocity": 100, "tagsIdx": [0], "pitch": 42}, {"duration": 0.125, "on": 3.0, "velocity": 100, "tagsIdx": [1], "pitch": 36}, {"duration": 0.125, "on": 3.0, "velocity": 100, "tagsIdx": [2], "pitch": 39}, {"duration": 0.125, "on": 3.5, "velocity": 100, "tagsIdx": [0], "pitch": 42}, {"duration": 0.125, "on": 3.75, "velocity": 100, "tagsIdx": [0], "pitch": 42}], "eventTags": ["ClosedHH", "Kick", "Clap"], "timeInfo": {"duration": 4, "bpm": 120.0}}, {"eventList": [{"duration": 0.125, "on": 0.0, "velocity": 100, "tagsIdx": [0], "pitch": 42}, {"duration": 0.125, "on": 0.5, "velocity": 100, "tagsIdx": [0], "pitch": 42}, {"duration": 0.125, "on": 1.0, "velocity": 100, "tagsIdx": [1], "pitch": 36}, {"duration": 0.125, "on": 1.0, "velocity": 100, "tagsIdx": [0], "pitch": 42}, {"duration": 0.125, "on": 1.0, "velocity": 100, "tagsIdx": [2], "pitch": 39}, {"duration": 0.125, "on": 1.5, "velocity": 100, "tagsIdx": [0], "pitch": 42}, {"duration": 0.125, "on": 2.0, "velocity": 100, "tagsIdx": [0], "pitch": 42}, {"duration": 0.125, "on": 2.5, "velocity": 100, "tagsIdx": [0], "pitch": 42}, {"duration": 0.125, "on": 3.0, "velocity": 100, "tagsIdx": [0], "pitch": 42}, {"duration": 0.125, "on": 3.0, "velocity": 100, "tagsIdx": [1], "pitch": 36}, {"duration": 0.125, "on": 3.0, "velocity": 100, "tagsIdx": [2], "pitch": 39}, {"duration": 0.125, "on": 3.5, "velocity": 100, "tagsIdx": [0], "pitch": 42}, {"duration": 0.125, "on": 3.75, "velocity": 100, "tagsIdx": [0], "pitch": 42}], "eventTags": ["ClosedHH", "Kick", "Clap"], "timeInfo": {"duration": 4, "bpm": 120.0}}, {"eventList": [{"duration": 0.5, "on": 0.0, "velocity": 95, "tagsIdx": [0], "pitch": 42}, {"duration": 0.5, "on": 0.5, "velocity": 95, "tagsIdx": [0], "pitch": 42}, {"duration": 0.5, "on": 1.0, "velocity": 95, "tagsIdx": [0], "pitch": 42}, {"duration": 0.5, "on": 1.0, "velocity": 95, "tagsIdx": [1], "pitch": 39}, {"duration": 0.5, "on": 1.0, "velocity": 95, "tagsIdx": [2], "pitch": 40}, {"duration": 0.5, "on": 1.5, "velocity": 95, "tagsIdx": [0], "pitch": 42}, {"duration": 0.5, "on": 2.0, "velocity": 95, "tagsIdx": [0], "pitch": 42}, {"duration": 0.5, "on": 2.5, "velocity": 95, "tagsIdx": [0], "pitch": 42}, {"duration": 0.5, "on": 3.0, "velocity": 95, "tagsIdx": [0], "pitch": 42}, {"duration": 0.5, "on": 3.0, "velocity": 95, "tagsIdx": [1], "pitch": 39}, {"duration": 0.5, "on": 3.0, "velocity": 95, "tagsIdx": [2], "pitch": 40}, {"duration": 0.25, "on": 3.5, "velocity": 95, "tagsIdx": [0], "pitch": 42}, {"duration": 0.25, "on": 3.75, "velocity": 95, "tagsIdx": [0], "pitch": 42}], "eventTags": ["ClosedHH", "Clap", "Clave"], "timeInfo": {"duration": 4, "bpm": 120.0}}, {"eventList": [{"duration": 0.5, "on": 0.0, "velocity": 95, "tagsIdx": [0], "pitch": 42}, {"duration": 0.5, "on": 0.5, "velocity": 95, "tagsIdx": [0], "pitch": 42}, {"duration": 0.5, "on": 1.0, "velocity": 95, "tagsIdx": [0], "pitch": 42}, {"duration": 0.5, "on": 1.0, "velocity": 95, "tagsIdx": [1], "pitch": 39}, {"duration": 0.5, "on": 1.0, "velocity": 95, "tagsIdx": [2], "pitch": 40}, {"duration": 0.5, "on": 1.5, "velocity": 95, "tagsIdx": [0], "pitch": 42}, {"duration": 0.5, "on": 2.0, "velocity": 95, "tagsIdx": [0], "pitch": 42}, {"duration": 0.5, "on": 2.5, "velocity": 95, "tagsIdx": [0], "pitch": 42}, {"duration": 0.5, "on": 3.0, "velocity": 95, "tagsIdx": [0], "pitch": 42}, {"duration": 0.5, "on": 3.0, "velocity": 95, "tagsIdx": [1], "pitch": 39}, {"duration": 0.5, "on": 3.0, "velocity": 95, "tagsIdx": [2], "pitch": 40}, {"duration": 0.25, "on": 3.5, "velocity": 95, "tagsIdx": [0], "pitch": 42}, {"duration": 0.25, "on": 3.75, "velocity": 95, "tagsIdx": [0], "pitch": 42}], "eventTags": ["ClosedHH", "Clap", "Clave"], "timeInfo": {"duration": 4, "bpm": 120.0}}, {"eventList": [{"duration": 0.5, "on": 0.0, "velocity": 95, "tagsIdx": [0], "pitch": 42}, {"duration": 0.5, "on": 0.5, "velocity": 95, "tagsIdx": [0], "pitch": 42}, {"duration": 0.5, "on": 1.0, "velocity": 95, "tagsIdx": [0], "pitch": 42}, {"duration": 0.5, "on": 1.0, "velocity": 95, "tagsIdx": [1], "pitch": 39}, {"duration": 0.5, "on": 1.0, "velocity": 95, "tagsIdx": [2], "pitch": 40}, {"duration": 0.5, "on": 1.5, "velocity": 95, "tagsIdx": [0], "pitch": 42}, {"duration": 0.25, "on": 2.0, "velocity": 47, "tagsIdx": [0], "pitch": 42}, {"duration": 0.25, "on": 2.25, "velocity": 95, "tagsIdx": [0], "pitch": 42}, {"duration": 0.5, "on": 2.5, "velocity": 47, "tagsIdx": [0], "pitch": 42}, {"duration": 0.5, "on": 3.0, "velocity": 95, "tagsIdx": [0], "pitch": 42}, {"duration": 0.5, "on": 3.0, "velocity": 95, "tagsIdx": [1], "pitch": 39}, {"duration": 0.5, "on": 3.0, "velocity": 95, "tagsIdx": [2], "pitch": 40}, {"duration": 0.5, "on": 3.5, "velocity": 95, "tagsIdx": [3], "pitch": 46}], "eventTags": ["ClosedHH", "Clap", "Clave", "OpenHH"], "timeInfo": {"duration": 4, "bpm": 120.0}}, {"eventList": [{"duration": 0.5, "on": 0.0, "velocity": 95, "tagsIdx": [0], "pitch": 42}, {"duration": 0.5, "on": 0.5, "velocity": 95, "tagsIdx": [0], "pitch": 42}, {"duration": 0.5, "on": 1.0, "velocity": 95, "tagsIdx": [0], "pitch": 42}, {"duration": 0.5, "on": 1.0, "velocity": 95, "tagsIdx": [1], "pitch": 39}, {"duration": 0.5, "on": 1.0, "velocity": 95, "tagsIdx": [2], "pitch": 40}, {"duration": 0.5, "on": 1.5, "velocity": 95, "tagsIdx": [0], "pitch": 42}, {"duration": 0.5, "on": 2.0, "velocity": 95, "tagsIdx": [0], "pitch": 42}, {"duration": 0.5, "on": 2.5, "velocity": 95, "tagsIdx": [0], "pitch": 42}, {"duration": 0.5, "on": 3.0, "velocity": 95, "tagsIdx": [0], "pitch": 42}, {"duration": 0.5, "on": 3.0, "velocity": 95, "tagsIdx": [1], "pitch": 39}, {"duration": 0.5, "on": 3.0, "velocity": 95, "tagsIdx": [2], "pitch": 40}, {"duration": 0.25, "on": 3.5, "velocity": 95, "tagsIdx": [0], "pitch": 42}, {"duration": 0.25, "on": 3.75, "velocity": 95, "tagsIdx": [0], "pitch": 42}], "eventTags": ["ClosedHH", "Clap", "Clave"], "timeInfo": {"duration": 4, "bpm": 120.0}}, {"eventList": [{"duration": 0.5, "on": 0.0, "velocity": 95, "tagsIdx": [0], "pitch": 42}, {"duration": 0.5, "on": 0.5, "velocity": 95, "tagsIdx": [0], "pitch": 42}, {"duration": 0.5, "on": 1.0, "velocity": 95, "tagsIdx": [0], "pitch": 42}, {"duration": 0.5, "on": 1.0, "velocity": 95, "tagsIdx": [1], "pitch": 39}, {"duration": 0.5, "on": 1.0, "velocity": 95, "tagsIdx": [2], "pitch": 40}, {"duration": 0.5, "on": 1.5, "velocity": 95, "tagsIdx": [0], "pitch": 42}, {"duration": 0.5, "on": 2.0, "velocity": 95, "tagsIdx": [0], "pitch": 42}, {"duration": 0.5, "on": 2.5, "velocity": 95, "tagsIdx": [0], "pitch": 42}, {"duration": 0.5, "on": 3.0, "velocity": 95, "tagsIdx": [0], "pitch": 42}, {"duration": 0.5, "on": 3.0, "velocity": 95, "tagsIdx": [1], "pitch": 39}, {"duration": 0.5, "on": 3.0, "velocity": 95, "tagsIdx": [2], "pitch": 40}, {"duration": 0.25, "on": 3.5, "velocity": 95, "tagsIdx": [0], "pitch": 42}, {"duration": 0.25, "on": 3.75, "velocity": 95, "tagsIdx": [0], "pitch": 42}], "eventTags": ["ClosedHH", "Clap", "Clave"], "timeInfo": {"duration": 4, "bpm": 120.0}}, {"eventList": [{"duration": 0.5, "on": 0.0, "velocity": 95, "tagsIdx": [0], "pitch": 49}, {"duration": 0.5, "on": 0.5, "velocity": 95, "tagsIdx": [1], "pitch": 42}, {"duration": 0.5, "on": 1.0, "velocity": 95, "tagsIdx": [1], "pitch": 42}, {"duration": 0.5, "on": 1.0, "velocity": 95, "tagsIdx": [2], "pitch": 39}, {"duration": 0.5, "on": 1.0, "velocity": 95, "tagsIdx": [3], "pitch": 40}, {"duration": 0.5, "on": 1.5, "velocity": 95, "tagsIdx": [1], "pitch": 42}, {"duration": 0.5, "on": 2.0, "velocity": 95, "tagsIdx": [1], "pitch": 42}, {"duration": 0.5, "on": 2.5, "velocity": 95, "tagsIdx": [1], "pitch": 42}, {"duration": 0.5, "on": 3.0, "velocity": 95, "tagsIdx": [1], "pitch": 42}, {"duration": 0.5, "on": 3.0, "velocity": 95, "tagsIdx": [2], "pitch": 39}, {"duration": 0.5, "on": 3.0, "velocity": 95, "tagsIdx": [3], "pitch": 40}, {"duration": 0.25, "on": 3.5, "velocity": 95, "tagsIdx": [1], "pitch": 42}, {"duration": 0.25, "on": 3.75, "velocity": 95, "tagsIdx": [1], "pitch": 42}], "eventTags": ["Cymbal", "ClosedHH", "Clap", "Clave"], "timeInfo": {"duration": 4, "bpm": 120.0}}, {"eventList": [{"duration": 0.5, "on": 0.0, "velocity": 95, "tagsIdx": [0], "pitch": 42}, {"duration": 0.5, "on": 0.5, "velocity": 95, "tagsIdx": [0], "pitch": 42}, {"duration": 0.5, "on": 1.0, "velocity": 95, "tagsIdx": [0], "pitch": 42}, {"duration": 0.5, "on": 1.0, "velocity": 95, "tagsIdx": [1], "pitch": 39}, {"duration": 0.5, "on": 1.0, "velocity": 95, "tagsIdx": [2], "pitch": 40}, {"duration": 0.5, "on": 1.5, "velocity": 95, "tagsIdx": [0], "pitch": 42}, {"duration": 0.5, "on": 2.0, "velocity": 95, "tagsIdx": [0], "pitch": 42}, {"duration": 0.5, "on": 2.5, "velocity": 95, "tagsIdx": [3], "pitch": 46}, {"duration": 0.25, "on": 3.0, "velocity": 95, "tagsIdx": [1], "pitch": 39}, {"duration": 0.25, "on": 3.0, "velocity": 95, "tagsIdx": [2], "pitch": 40}, {"duration": 0.25, "on": 3.25, "velocity": 95, "tagsIdx": [0], "pitch": 42}, {"duration": 0.5, "on": 3.5, "velocity": 95, "tagsIdx": [3], "pitch": 46}], "eventTags": ["ClosedHH", "Clap", "Clave", "OpenHH"], "timeInfo": {"duration": 4, "bpm": 120.0}}, {"eventList": [{"duration": 0.5, "on": 0.0, "velocity": 95, "tagsIdx": [0], "pitch": 42}, {"duration": 0.5, "on": 0.5, "velocity": 95, "tagsIdx": [0], "pitch": 42}, {"duration": 0.5, "on": 1.0, "velocity": 95, "tagsIdx": [0], "pitch": 42}, {"duration": 0.5, "on": 1.0, "velocity": 95, "tagsIdx": [1], "pitch": 39}, {"duration": 0.5, "on": 1.0, "velocity": 95, "tagsIdx": [2], "pitch": 40}, {"duration": 0.5, "on": 1.5, "velocity": 95, "tagsIdx": [0], "pitch": 42}, {"duration": 0.5, "on": 2.0, "velocity": 95, "tagsIdx": [0], "pitch": 42}, {"duration": 0.5, "on": 2.5, "velocity": 95, "tagsIdx": [0], "pitch": 42}, {"duration": 0.5, "on": 3.0, "velocity": 95, "tagsIdx": [0], "pitch": 42}, {"duration": 0.5, "on": 3.0, "velocity": 95, "tagsIdx": [1], "pitch": 39}, {"duration": 0.5, "on": 3.0, "velocity": 95, "tagsIdx": [2], "pitch": 40}, {"duration": 0.25, "on": 3.5, "velocity": 95, "tagsIdx": [0], "pitch": 42}, {"duration": 0.25, "on": 3.75, "velocity": 95, "tagsIdx": [0], "pitch": 42}], "eventTags": ["ClosedHH", "Clap", "Clave"], "timeInfo": {"duration": 4, "bpm": 120.0}}, {"eventList": [{"duration": 0.5, "on": 0.0, "velocity": 95, "tagsIdx": [0], "pitch": 42}, {"duration": 0.5, "on": 0.5, "velocity": 95, "tagsIdx": [0], "pitch": 42}, {"duration": 0.5, "on": 1.0, "velocity": 95, "tagsIdx": [0], "pitch": 42}, {"duration": 0.5, "on": 1.0, "velocity": 95, "tagsIdx": [1], "pitch": 39}, {"duration": 0.5, "on": 1.0, "velocity": 95, "tagsIdx": [2], "pitch": 40}, {"duration": 0.5, "on": 1.5, "velocity": 95, "tagsIdx": [0], "pitch": 42}, {"duration": 0.25, "on": 2.0, "velocity": 47, "tagsIdx": [0], "pitch": 42}, {"duration": 0.25, "on": 2.25, "velocity": 95, "tagsIdx": [0], "pitch": 42}, {"duration": 0.5, "on": 2.5, "velocity": 47, "tagsIdx": [0], "pitch": 42}, {"duration": 0.5, "on": 3.0, "velocity": 95, "tagsIdx": [0], "pitch": 42}, {"duration": 0.5, "on": 3.0, "velocity": 95, "tagsIdx": [1], "pitch": 39}, {"duration": 0.5, "on": 3.0, "velocity": 95, "tagsIdx": [2], "pitch": 40}, {"duration": 0.5, "on": 3.5, "velocity": 95, "tagsIdx": [3], "pitch": 46}], "eventTags": ["ClosedHH", "Clap", "Clave", "OpenHH"], "timeInfo": {"duration": 4, "bpm": 120.0}}, {"eventList": [{"duration": 0.5, "on": 0.0, "velocity": 95, "tagsIdx": [0], "pitch": 42}, {"duration": 0.5, "on": 0.5, "velocity": 95, "tagsIdx": [0], "pitch": 42}, {"duration": 0.5, "on": 1.0, "velocity": 95, "tagsIdx": [0], "pitch": 42}, {"duration": 0.5, "on": 1.0, "velocity": 95, "tagsIdx": [1], "pitch": 39}, {"duration": 0.5, "on": 1.0, "velocity": 95, "tagsIdx": [2], "pitch": 40}, {"duration": 0.5, "on": 1.5, "velocity": 95, "tagsIdx": [0], "pitch": 42}, {"duration": 0.5, "on": 2.0, "velocity": 95, "tagsIdx": [0], "pitch": 42}, {"duration": 0.5, "on": 2.5, "velocity": 95, "tagsIdx": [0], "pitch": 42}, {"duration": 0.5, "on": 3.0, "velocity": 95, "tagsIdx": [0], "pitch": 42}, {"duration": 0.5, "on": 3.0, "velocity": 95, "tagsIdx": [1], "pitch": 39}, {"duration": 0.5, "on": 3.0, "velocity": 95, "tagsIdx": [2], "pitch": 40}, {"duration": 0.25, "on": 3.5, "velocity": 95, "tagsIdx": [0], "pitch": 42}, {"duration": 0.25, "on": 3.75, "velocity": 95, "tagsIdx": [0], "pitch": 42}], "eventTags": ["ClosedHH", "Clap", "Clave"], "timeInfo": {"duration": 4, "bpm": 120.0}}, {"eventList": [{"duration": 0.25, "on": 0.0, "velocity": 95, "tagsIdx": [0], "pitch": 46}, {"duration": 0.25, "on": 0.25, "velocity": 95, "tagsIdx": [1], "pitch": 42}, {"duration": 0.25, "on": 0.5, "velocity": 95, "tagsIdx": [1], "pitch": 42}, {"duration": 0.25, "on": 0.75, "velocity": 95, "tagsIdx": [1], "pitch": 42}, {"duration": 0.25, "on": 1.0, "velocity": 95, "tagsIdx": [0], "pitch": 46}, {"duration": 0.25, "on": 1.0, "velocity": 95, "tagsIdx": [2], "pitch": 39}, {"duration": 0.25, "on": 1.0, "velocity": 95, "tagsIdx": [3], "pitch": 40}, {"duration": 0.25, "on": 1.25, "velocity": 95, "tagsIdx": [1], "pitch": 42}, {"duration": 0.25, "on": 1.5, "velocity": 95, "tagsIdx": [1], "pitch": 42}, {"duration": 0.25, "on": 1.75, "velocity": 95, "tagsIdx": [1], "pitch": 42}, {"duration": 0.25, "on": 2.0, "velocity": 95, "tagsIdx": [0], "pitch": 46}, {"duration": 0.25, "on": 2.25, "velocity": 95, "tagsIdx": [1], "pitch": 42}, {"duration": 0.25, "on": 2.5, "velocity": 95, "tagsIdx": [1], "pitch": 42}, {"duration": 0.25, "on": 2.75, "velocity": 95, "tagsIdx": [1], "pitch": 42}, {"duration": 0.25, "on": 3.0, "velocity": 95, "tagsIdx": [0], "pitch": 46}, {"duration": 0.25, "on": 3.0, "velocity": 95, "tagsIdx": [2], "pitch": 39}, {"duration": 0.25, "on": 3.0, "velocity": 95, "tagsIdx": [3], "pitch": 40}, {"duration": 0.25, "on": 3.25, "velocity": 95, "tagsIdx": [1], "pitch": 42}, {"duration": 0.25, "on": 3.5, "velocity": 95, "tagsIdx": [1], "pitch": 42}, {"duration": 0.25, "on": 3.75, "velocity": 95, "tagsIdx": [1], "pitch": 42}], "eventTags": ["OpenHH", "ClosedHH", "Clap", "Clave"], "timeInfo": {"duration": 4, "bpm": 120.0}}, {"eventList": [{"duration": 0.11249999999999716, "on": 0.0, "velocity": 120, "tagsIdx": [0], "pitch": 36}, {"duration": 0.11249999999999716, "on": 1.0, "velocity": 120, "tagsIdx": [1], "pitch": 40}, {"duration": 0.11249999999999716, "on": 1.0, "velocity": 120, "tagsIdx": [2], "pitch": 39}, {"duration": 0.11249999999999716, "on": 2.0, "velocity": 120, "tagsIdx": [0], "pitch": 36}, {"duration": 0.11249999999999716, "on": 3.0, "velocity": 120, "tagsIdx": [2], "pitch": 39}, {"duration": 0.11249999999999716, "on": 3.0, "velocity": 120, "tagsIdx": [1], "pitch": 40}], "eventTags": ["Kick", "Clave", "Clap"], "timeInfo": {"duration": 4, "bpm": 120.0}}, {"eventList": [{"duration": 0.11249999999999716, "on": 0.0, "velocity": 120, "tagsIdx": [0], "pitch": 36}, {"duration": 0.11249999999999716, "on": 1.0, "velocity": 120, "tagsIdx": [1], "pitch": 40}, {"duration": 0.11249999999999716, "on": 1.0, "velocity": 120, "tagsIdx": [2], "pitch": 39}, {"duration": 0.11249999999999716, "on": 2.0, "velocity": 120, "tagsIdx": [0], "pitch": 36}, {"duration": 0.11249999999999716, "on": 3.0, "velocity": 120, "tagsIdx": [2], "pitch": 39}, {"duration": 0.11249999999999716, "on": 3.0, "velocity": 120, "tagsIdx": [1], "pitch": 40}], "eventTags": ["Kick", "Clave", "Clap"], "timeInfo": {"duration": 4, "bpm": 120.0}}, {"eventList": [{"duration": 0.11249999999999716, "on": 0.0, "velocity": 120, "tagsIdx": [0], "pitch": 36}, {"duration": 0.11249999999999716, "on": 1.0, "velocity": 120, "tagsIdx": [1], "pitch": 40}, {"duration": 0.11249999999999716, "on": 1.0, "velocity": 120, "tagsIdx": [2], "pitch": 39}, {"duration": 0.11249999999999716, "on": 2.0, "velocity": 120, "tagsIdx": [0], "pitch": 36}, {"duration": 0.11249999999999716, "on": 3.0, "velocity": 120, "tagsIdx": [2], "pitch": 39}, {"duration": 0.11249999999999716, "on": 3.0, "velocity": 120, "tagsIdx": [1], "pitch": 40}], "eventTags": ["Kick", "Clave", "Clap"], "timeInfo": {"duration": 4, "bpm": 120.0}}, {"eventList": [{"duration": 0.11249999999999716, "on": 0.0, "velocity": 120, "tagsIdx": [0], "pitch": 36}, {"duration": 0.11249999999999716, "on": 1.0, "velocity": 120, "tagsIdx": [1], "pitch": 40}, {"duration": 0.11249999999999716, "on": 1.0, "velocity": 120, "tagsIdx": [2], "pitch": 39}, {"duration": 0.11249999999999716, "on": 2.0, "velocity": 120, "tagsIdx": [0], "pitch": 36}, {"duration": 0.11249999999999716, "on": 3.0, "velocity": 120, "tagsIdx": [2], "pitch": 39}, {"duration": 0.11249999999999716, "on": 3.0, "velocity": 120, "tagsIdx": [1], "pitch": 40}, {"duration": 1.0, "on": 3.0, "velocity": 120, "tagsIdx": [3], "pitch": 46}], "eventTags": ["Kick", "Clave", "Clap", "OpenHH"], "timeInfo": {"duration": 4, "bpm": 120.0}}, {"eventList": [{"duration": 0.11249999999999716, "on": 0.0, "velocity": 120, "tagsIdx": [0], "pitch": 36}, {"duration": 0.11249999999999716, "on": 1.0, "velocity": 120, "tagsIdx": [1], "pitch": 40}, {"duration": 0.11249999999999716, "on": 1.0, "velocity": 120, "tagsIdx": [2], "pitch": 39}, {"duration": 0.11249999999999716, "on": 2.0, "velocity": 120, "tagsIdx": [0], "pitch": 36}, {"duration": 0.11249999999999716, "on": 3.0, "velocity": 120, "tagsIdx": [2], "pitch": 39}, {"duration": 0.11249999999999716, "on": 3.0, "velocity": 120, "tagsIdx": [1], "pitch": 40}], "eventTags": ["Kick", "Clave", "Clap"], "timeInfo": {"duration": 4, "bpm": 120.0}}, {"eventList": [{"duration": 0.11249999999999716, "on": 0.0, "velocity": 120, "tagsIdx": [0], "pitch": 36}, {"duration": 0.11249999999999716, "on": 1.0, "velocity": 120, "tagsIdx": [1], "pitch": 40}, {"duration": 0.11249999999999716, "on": 1.0, "velocity": 120, "tagsIdx": [2], "pitch": 39}, {"duration": 0.11249999999999716, "on": 2.0, "velocity": 120, "tagsIdx": [0], "pitch": 36}, {"duration": 0.11249999999999716, "on": 3.0, "velocity": 120, "tagsIdx": [2], "pitch": 39}, {"duration": 0.11249999999999716, "on": 3.0, "velocity": 120, "tagsIdx": [1], "pitch": 40}], "eventTags": ["Kick", "Clave", "Clap"], "timeInfo": {"duration": 4, "bpm": 120.0}}, {"eventList": [{"duration": 0.11249999999999716, "on": 0.0, "velocity": 120, "tagsIdx": [0], "pitch": 36}, {"duration": 0.11249999999999716, "on": 1.0, "velocity": 120, "tagsIdx": [1], "pitch": 40}, {"duration": 0.11249999999999716, "on": 1.0, "velocity": 120, "tagsIdx": [2], "pitch": 39}, {"duration": 0.11249999999999716, "on": 2.0, "velocity": 120, "tagsIdx": [0], "pitch": 36}, {"duration": 0.11249999999999716, "on": 3.0, "velocity": 120, "tagsIdx": [2], "pitch": 39}, {"duration": 0.11249999999999716, "on": 3.0, "velocity": 120, "tagsIdx": [1], "pitch": 40}], "eventTags": ["Kick", "Clave", "Clap"], "timeInfo": {"duration": 4, "bpm": 120.0}}, {"eventList": [{"duration": 0.11249999999999716, "on": 0.0, "velocity": 120, "tagsIdx": [0], "pitch": 36}, {"duration": 0.11249999999999716, "on": 1.0, "velocity": 120, "tagsIdx": [1], "pitch": 40}, {"duration": 0.11249999999999716, "on": 1.0, "velocity": 120, "tagsIdx": [2], "pitch": 39}, {"duration": 0.11249999999999716, "on": 2.0, "velocity": 120, "tagsIdx": [0], "pitch": 36}, {"duration": 0.11249999999999716, "on": 3.0, "velocity": 120, "tagsIdx": [2], "pitch": 39}, {"duration": 0.11249999999999716, "on": 3.0, "velocity": 120, "tagsIdx": [1], "pitch": 40}], "eventTags": ["Kick", "Clave", "Clap"], "timeInfo": {"duration": 4, "bpm": 120.0}}, {"eventList": [{"duration": 0.25, "on": 0.0, "velocity": 95, "tagsIdx": [0], "pitch": 49}, {"duration": 0.25, "on": 0.0, "velocity": 95, "tagsIdx": [1], "pitch": 46}, {"duration": 0.25, "on": 0.25, "velocity": 95, "tagsIdx": [2], "pitch": 42}, {"duration": 0.25, "on": 0.5, "velocity": 95, "tagsIdx": [2], "pitch": 42}, {"duration": 0.25, "on": 0.75, "velocity": 95, "tagsIdx": [2], "pitch": 42}, {"duration": 0.25, "on": 1.0, "velocity": 95, "tagsIdx": [1], "pitch": 46}, {"duration": 0.25, "on": 1.0, "velocity": 95, "tagsIdx": [3], "pitch": 39}, {"duration": 0.25, "on": 1.0, "velocity": 95, "tagsIdx": [4], "pitch": 40}, {"duration": 0.25, "on": 1.25, "velocity": 95, "tagsIdx": [2], "pitch": 42}, {"duration": 0.25, "on": 1.5, "velocity": 95, "tagsIdx": [2], "pitch": 42}, {"duration": 0.25, "on": 1.75, "velocity": 95, "tagsIdx": [2], "pitch": 42}, {"duration": 0.25, "on": 2.0, "velocity": 95, "tagsIdx": [1], "pitch": 46}, {"duration": 0.25, "on": 2.25, "velocity": 95, "tagsIdx": [2], "pitch": 42}, {"duration": 0.25, "on": 2.5, "velocity": 95, "tagsIdx": [2], "pitch": 42}, {"duration": 0.25, "on": 2.75, "velocity": 95, "tagsIdx": [2], "pitch": 42}, {"duration": 0.25, "on": 3.0, "velocity": 95, "tagsIdx": [1], "pitch": 46}, {"duration": 0.25, "on": 3.0, "velocity": 95, "tagsIdx": [3], "pitch": 39}, {"duration": 0.25, "on": 3.0, "velocity": 95, "tagsIdx": [4], "pitch": 40}, {"duration": 0.25, "on": 3.25, "velocity": 95, "tagsIdx": [2], "pitch": 42}, {"duration": 0.25, "on": 3.5, "velocity": 95, "tagsIdx": [2], "pitch": 42}, {"duration": 0.25, "on": 3.75, "velocity": 95, "tagsIdx": [2], "pitch": 42}], "eventTags": ["Cymbal", "OpenHH", "ClosedHH", "Clap", "Clave"], "timeInfo": {"duration": 4, "bpm": 120.0}}, {"eventList": [{"duration": 0.11249999999999716, "on": 0.0, "velocity": 120, "tagsIdx": [0], "pitch": 36}, {"duration": 0.11249999999999716, "on": 0.5, "velocity": 120, "tagsIdx": [1], "pitch": 44}, {"duration": 0.11249999999999716, "on": 1.0, "velocity": 120, "tagsIdx": [2], "pitch": 40}, {"duration": 0.11249999999999716, "on": 1.0, "velocity": 120, "tagsIdx": [3], "pitch": 39}, {"duration": 0.11249999999999716, "on": 1.5, "velocity": 120, "tagsIdx": [1], "pitch": 44}, {"duration": 0.11249999999999716, "on": 2.0, "velocity": 120, "tagsIdx": [0], "pitch": 36}, {"duration": 0.11249999999999716, "on": 2.5, "velocity": 120, "tagsIdx": [1], "pitch": 44}, {"duration": 0.11249999999999716, "on": 3.0, "velocity": 120, "tagsIdx": [3], "pitch": 39}, {"duration": 0.11249999999999716, "on": 3.0, "velocity": 120, "tagsIdx": [2], "pitch": 40}, {"duration": 0.11249999999999716, "on": 3.5, "velocity": 120, "tagsIdx": [1], "pitch": 44}], "eventTags": ["Kick", "Shake", "Clave", "Clap"], "timeInfo": {"duration": 4, "bpm": 120.0}}, {"eventList": [{"duration": 0.11249999999999716, "on": 0.0, "velocity": 120, "tagsIdx": [0], "pitch": 36}, {"duration": 0.11249999999999716, "on": 0.5, "velocity": 120, "tagsIdx": [1], "pitch": 44}, {"duration": 0.11249999999999716, "on": 1.0, "velocity": 120, "tagsIdx": [2], "pitch": 40}, {"duration": 0.11249999999999716, "on": 1.0, "velocity": 120, "tagsIdx": [3], "pitch": 39}, {"duration": 0.11249999999999716, "on": 1.5, "velocity": 120, "tagsIdx": [1], "pitch": 44}, {"duration": 0.11249999999999716, "on": 2.0, "velocity": 120, "tagsIdx": [0], "pitch": 36}, {"duration": 0.11249999999999716, "on": 2.5, "velocity": 120, "tagsIdx": [1], "pitch": 44}, {"duration": 0.11249999999999716, "on": 3.0, "velocity": 120, "tagsIdx": [3], "pitch": 39}, {"duration": 0.11249999999999716, "on": 3.0, "velocity": 120, "tagsIdx": [2], "pitch": 40}, {"duration": 0.11249999999999716, "on": 3.5, "velocity": 120, "tagsIdx": [1], "pitch": 44}], "eventTags": ["Kick", "Shake", "Clave", "Clap"], "timeInfo": {"duration": 4, "bpm": 120.0}}, {"eventList": [{"duration": 0.25, "on": 0.0, "velocity": 95, "tagsIdx": [0], "pitch": 46}, {"duration": 0.25, "on": 0.25, "velocity": 95, "tagsIdx": [1], "pitch": 42}, {"duration": 0.25, "on": 0.5, "velocity": 95, "tagsIdx": [1], "pitch": 42}, {"duration": 0.25, "on": 0.75, "velocity": 95, "tagsIdx": [1], "pitch": 42}, {"duration": 0.25, "on": 1.0, "velocity": 95, "tagsIdx": [0], "pitch": 46}, {"duration": 0.25, "on": 1.0, "velocity": 95, "tagsIdx": [2], "pitch": 39}, {"duration": 0.25, "on": 1.0, "velocity": 95, "tagsIdx": [3], "pitch": 40}, {"duration": 0.25, "on": 1.25, "velocity": 95, "tagsIdx": [1], "pitch": 42}, {"duration": 0.25, "on": 1.5, "velocity": 95, "tagsIdx": [1], "pitch": 42}, {"duration": 0.25, "on": 1.75, "velocity": 95, "tagsIdx": [1], "pitch": 42}, {"duration": 0.25, "on": 2.0, "velocity": 95, "tagsIdx": [0], "pitch": 46}, {"duration": 0.25, "on": 2.25, "velocity": 95, "tagsIdx": [1], "pitch": 42}, {"duration": 0.25, "on": 2.5, "velocity": 95, "tagsIdx": [1], "pitch": 42}, {"duration": 0.25, "on": 2.75, "velocity": 95, "tagsIdx": [1], "pitch": 42}, {"duration": 0.25, "on": 3.0, "velocity": 95, "tagsIdx": [0], "pitch": 46}, {"duration": 0.25, "on": 3.0, "velocity": 95, "tagsIdx": [2], "pitch": 39}, {"duration": 0.25, "on": 3.0, "velocity": 95, "tagsIdx": [3], "pitch": 40}, {"duration": 0.25, "on": 3.25, "velocity": 95, "tagsIdx": [1], "pitch": 42}, {"duration": 0.25, "on": 3.5, "velocity": 95, "tagsIdx": [1], "pitch": 42}, {"duration": 0.25, "on": 3.75, "velocity": 95, "tagsIdx": [1], "pitch": 42}], "eventTags": ["OpenHH", "ClosedHH", "Clap", "Clave"], "timeInfo": {"duration": 4, "bpm": 120.0}}, {"eventList": [{"duration": 0.1125, "on": 0.0, "velocity": 120, "tagsIdx": [0], "pitch": 36}, {"duration": 0.1125, "on": 0.0, "velocity": 127, "tagsIdx": [1], "pitch": 44}, {"duration": 0.11250000000000004, "on": 0.5, "velocity": 127, "tagsIdx": [1], "pitch": 44}, {"duration": 0.11250000000000004, "on": 1.0, "velocity": 120, "tagsIdx": [2], "pitch": 39}, {"duration": 0.11250000000000004, "on": 1.0, "velocity": 120, "tagsIdx": [3], "pitch": 40}, {"duration": 0.11250000000000004, "on": 1.0, "velocity": 127, "tagsIdx": [1], "pitch": 44}, {"duration": 0.11250000000000004, "on": 1.5, "velocity": 127, "tagsIdx": [1], "pitch": 44}, {"duration": 0.11249999999999982, "on": 2.0, "velocity": 120, "tagsIdx": [0], "pitch": 36}, {"duration": 0.11249999999999982, "on": 2.0, "velocity": 127, "tagsIdx": [1], "pitch": 44}, {"duration": 0.11249999999999982, "on": 2.5, "velocity": 127, "tagsIdx": [1], "pitch": 44}, {"duration": 0.11249999999999982, "on": 3.0, "velocity": 120, "tagsIdx": [2], "pitch": 39}, {"duration": 0.11249999999999982, "on": 3.0, "velocity": 120, "tagsIdx": [3], "pitch": 40}, {"duration": 0.11249999999999982, "on": 3.0, "velocity": 127, "tagsIdx": [1], "pitch": 44}, {"duration": 0.11249999999999982, "on": 3.5, "velocity": 127, "tagsIdx": [1], "pitch": 44}], "eventTags": ["Kick", "Shake", "Clap", "Clave"], "timeInfo": {"duration": 4, "bpm": 120.0}}, {"eventList": [{"duration": 0.11250000000000071, "on": 0.0, "velocity": 120, "tagsIdx": [0], "pitch": 36}, {"duration": 0.11250000000000071, "on": 0.5, "velocity": 120, "tagsIdx": [1], "pitch": 44}, {"duration": 0.11250000000000071, "on": 1.0, "velocity": 120, "tagsIdx": [2], "pitch": 40}, {"duration": 0.11250000000000071, "on": 1.0, "velocity": 120, "tagsIdx": [3], "pitch": 39}, {"duration": 0.11250000000000071, "on": 1.5, "velocity": 120, "tagsIdx": [1], "pitch": 44}, {"duration": 0.11250000000000071, "on": 2.0, "velocity": 120, "tagsIdx": [0], "pitch": 36}, {"duration": 0.11250000000000071, "on": 2.5, "velocity": 120, "tagsIdx": [1], "pitch": 44}, {"duration": 0.11250000000000071, "on": 3.0, "velocity": 120, "tagsIdx": [3], "pitch": 39}, {"duration": 0.11250000000000071, "on": 3.0, "velocity": 120, "tagsIdx": [2], "pitch": 40}, {"duration": 0.11250000000000071, "on": 3.5, "velocity": 120, "tagsIdx": [1], "pitch": 44}], "eventTags": ["Kick", "Shake", "Clave", "Clap"], "timeInfo": {"duration": 4, "bpm": 120.0}}, {"eventList": [{"duration": 0.11249999999999716, "on": 0.0, "velocity": 120, "tagsIdx": [0], "pitch": 36}, {"duration": 0.11249999999999716, "on": 0.5, "velocity": 120, "tagsIdx": [1], "pitch": 44}, {"duration": 0.11249999999999716, "on": 1.0, "velocity": 120, "tagsIdx": [2], "pitch": 40}, {"duration": 0.11249999999999716, "on": 1.0, "velocity": 120, "tagsIdx": [3], "pitch": 39}, {"duration": 0.11249999999999716, "on": 1.5, "velocity": 120, "tagsIdx": [1], "pitch": 44}, {"duration": 0.11249999999999716, "on": 2.0, "velocity": 120, "tagsIdx": [0], "pitch": 36}, {"duration": 0.11249999999999716, "on": 2.5, "velocity": 120, "tagsIdx": [1], "pitch": 44}, {"duration": 0.11249999999999716, "on": 3.0, "velocity": 120, "tagsIdx": [3], "pitch": 39}, {"duration": 0.11249999999999716, "on": 3.0, "velocity": 120, "tagsIdx": [2], "pitch": 40}, {"duration": 0.11249999999999716, "on": 3.5, "velocity": 120, "tagsIdx": [1], "pitch": 44}], "eventTags": ["Kick", "Shake", "Clave", "Clap"], "timeInfo": {"duration": 4, "bpm": 120.0}}, {"eventList": [{"duration": 0.25, "on": 0.0, "velocity": 95, "tagsIdx": [0], "pitch": 46}, {"duration": 0.25, "on": 0.25, "velocity": 95, "tagsIdx": [1], "pitch": 42}, {"duration": 0.25, "on": 0.5, "velocity": 95, "tagsIdx": [1], "pitch": 42}, {"duration": 0.25, "on": 0.75, "velocity": 95, "tagsIdx": [1], "pitch": 42}, {"duration": 0.25, "on": 1.0, "velocity": 95, "tagsIdx": [0], "pitch": 46}, {"duration": 0.25, "on": 1.0, "velocity": 95, "tagsIdx": [2], "pitch": 39}, {"duration": 0.25, "on": 1.0, "velocity": 95, "tagsIdx": [3], "pitch": 40}, {"duration": 0.25, "on": 1.25, "velocity": 95, "tagsIdx": [1], "pitch": 42}, {"duration": 0.25, "on": 1.5, "velocity": 95, "tagsIdx": [1], "pitch": 42}, {"duration": 0.25, "on": 1.75, "velocity": 95, "tagsIdx": [1], "pitch": 42}, {"duration": 0.25, "on": 2.0, "velocity": 95, "tagsIdx": [0], "pitch": 46}, {"duration": 0.25, "on": 2.25, "velocity": 95, "tagsIdx": [1], "pitch": 42}, {"duration": 0.25, "on": 2.5, "velocity": 95, "tagsIdx": [1], "pitch": 42}, {"duration": 0.25, "on": 2.75, "velocity": 95, "tagsIdx": [1], "pitch": 42}, {"duration": 0.25, "on": 3.0, "velocity": 95, "tagsIdx": [0], "pitch": 46}, {"duration": 0.25, "on": 3.0, "velocity": 95, "tagsIdx": [2], "pitch": 39}, {"duration": 0.25, "on": 3.0, "velocity": 95, "tagsIdx": [3], "pitch": 40}, {"duration": 0.25, "on": 3.25, "velocity": 95, "tagsIdx": [1], "pitch": 42}, {"duration": 0.5, "on": 3.5, "velocity": 95, "tagsIdx": [0], "pitch": 46}], "eventTags": ["OpenHH", "ClosedHH", "Clap", "Clave"], "timeInfo": {"duration": 4, "bpm": 120.0}}, {"eventList": [{"duration": 0.5, "on": 0.0, "velocity": 95, "tagsIdx": [0], "pitch": 42}, {"duration": 0.5, "on": 0.5, "velocity": 95, "tagsIdx": [0], "pitch": 42}, {"duration": 0.5, "on": 1.0, "velocity": 95, "tagsIdx": [0], "pitch": 42}, {"duration": 0.5, "on": 1.0, "velocity": 95, "tagsIdx": [1], "pitch": 39}, {"duration": 0.5, "on": 1.0, "velocity": 95, "tagsIdx": [2], "pitch": 40}, {"duration": 0.5, "on": 1.5, "velocity": 95, "tagsIdx": [0], "pitch": 42}, {"duration": 0.5, "on": 2.0, "velocity": 95, "tagsIdx": [0], "pitch": 42}, {"duration": 0.5, "on": 2.5, "velocity": 95, "tagsIdx": [3], "pitch": 46}, {"duration": 0.25, "on": 3.0, "velocity": 95, "tagsIdx": [1], "pitch": 39}, {"duration": 0.25, "on": 3.0, "velocity": 95, "tagsIdx": [2], "pitch": 40}, {"duration": 0.25, "on": 3.25, "velocity": 95, "tagsIdx": [0], "pitch": 42}, {"duration": 0.5, "on": 3.5, "velocity": 95, "tagsIdx": [3], "pitch": 46}], "eventTags": ["ClosedHH", "Clap", "Clave", "OpenHH"], "timeInfo": {"duration": 4, "bpm": 120.0}}, {"eventList": [{"duration": 0.25, "on": 0.0, "velocity": 95, "tagsIdx": [0], "pitch": 38}, {"duration": 0.25, "on": 0.0, "velocity": 95, "tagsIdx": [1], "pitch": 42}, {"duration": 0.25, "on": 0.0, "velocity": 63, "tagsIdx": [2], "pitch": 39}, {"duration": 0.25, "on": 0.25, "velocity": 111, "tagsIdx": [3], "pitch": 36}, {"duration": 0.25, "on": 0.25, "velocity": 95, "tagsIdx": [1], "pitch": 42}, {"duration": 0.25, "on": 0.5, "velocity": 95, "tagsIdx": [1], "pitch": 42}, {"duration": 0.25, "on": 0.75, "velocity": 95, "tagsIdx": [1], "pitch": 42}, {"duration": 0.25, "on": 1.0, "velocity": 111, "tagsIdx": [3], "pitch": 36}, {"duration": 0.25, "on": 1.0, "velocity": 127, "tagsIdx": [1], "pitch": 42}, {"duration": 0.25, "on": 1.25, "velocity": 127, "tagsIdx": [1], "pitch": 42}, {"duration": 0.25, "on": 1.5, "velocity": 127, "tagsIdx": [1], "pitch": 42}, {"duration": 0.25, "on": 1.75, "velocity": 95, "tagsIdx": [1], "pitch": 42}, {"duration": 0.25, "on": 2.0, "velocity": 95, "tagsIdx": [0], "pitch": 38}, {"duration": 0.25, "on": 2.0, "velocity": 95, "tagsIdx": [1], "pitch": 42}, {"duration": 0.25, "on": 2.0, "velocity": 63, "tagsIdx": [2], "pitch": 39}, {"duration": 0.25, "on": 2.25, "velocity": 95, "tagsIdx": [1], "pitch": 42}, {"duration": 0.25, "on": 2.5, "velocity": 95, "tagsIdx": [1], "pitch": 42}, {"duration": 0.25, "on": 2.75, "velocity": 95, "tagsIdx": [1], "pitch": 42}, {"duration": 0.25, "on": 3.0, "velocity": 111, "tagsIdx": [3], "pitch": 36}, {"duration": 0.25, "on": 3.0, "velocity": 95, "tagsIdx": [1], "pitch": 42}, {"duration": 0.25, "on": 3.25, "velocity": 95, "tagsIdx": [1], "pitch": 42}, {"duration": 0.25, "on": 3.5, "velocity": 111, "tagsIdx": [3], "pitch": 36}, {"duration": 0.25, "on": 3.5, "velocity": 79, "tagsIdx": [4], "pitch": 49}, {"duration": 0.25, "on": 3.5, "velocity": 111, "tagsIdx": [1], "pitch": 42}, {"duration": 0.25, "on": 3.5, "velocity": 111, "tagsIdx": [5], "pitch": 46}, {"duration": 0.25, "on": 3.75, "velocity": 95, "tagsIdx": [1], "pitch": 42}], "eventTags": ["Snare", "ClosedHH", "Clap", "Kick", "Cymbal", "OpenHH"], "timeInfo": {"duration": 4, "bpm": 120.0}}, {"eventList": [{"duration": 0.5, "on": 0.0, "velocity": 95, "tagsIdx": [0], "pitch": 49}, {"duration": 0.5, "on": 0.5, "velocity": 95, "tagsIdx": [1], "pitch": 42}, {"duration": 0.5, "on": 1.0, "velocity": 95, "tagsIdx": [1], "pitch": 42}, {"duration": 0.5, "on": 1.0, "velocity": 95, "tagsIdx": [2], "pitch": 39}, {"duration": 0.5, "on": 1.0, "velocity": 95, "tagsIdx": [3], "pitch": 40}, {"duration": 0.5, "on": 1.5, "velocity": 95, "tagsIdx": [1], "pitch": 42}, {"duration": 0.5, "on": 2.0, "velocity": 95, "tagsIdx": [1], "pitch": 42}, {"duration": 0.5, "on": 2.5, "velocity": 95, "tagsIdx": [1], "pitch": 42}, {"duration": 0.5, "on": 3.0, "velocity": 95, "tagsIdx": [1], "pitch": 42}, {"duration": 0.5, "on": 3.0, "velocity": 95, "tagsIdx": [2], "pitch": 39}, {"duration": 0.5, "on": 3.0, "velocity": 95, "tagsIdx": [3], "pitch": 40}, {"duration": 0.25, "on": 3.5, "velocity": 95, "tagsIdx": [1], "pitch": 42}, {"duration": 0.25, "on": 3.75, "velocity": 95, "tagsIdx": [1], "pitch": 42}], "eventTags": ["Cymbal", "ClosedHH", "Clap", "Clave"], "timeInfo": {"duration": 4, "bpm": 120.0}}, {"eventList": [{"duration": 0.5, "on": 0.0, "velocity": 95, "tagsIdx": [0], "pitch": 42}, {"duration": 0.5, "on": 0.5, "velocity": 95, "tagsIdx": [0], "pitch": 42}, {"duration": 0.5, "on": 1.0, "velocity": 95, "tagsIdx": [0], "pitch": 42}, {"duration": 0.5, "on": 1.0, "velocity": 95, "tagsIdx": [1], "pitch": 39}, {"duration": 0.5, "on": 1.0, "velocity": 95, "tagsIdx": [2], "pitch": 40}, {"duration": 0.5, "on": 1.5, "velocity": 95, "tagsIdx": [0], "pitch": 42}, {"duration": 0.5, "on": 2.0, "velocity": 95, "tagsIdx": [0], "pitch": 42}, {"duration": 0.5, "on": 2.5, "velocity": 95, "tagsIdx": [0], "pitch": 42}, {"duration": 0.5, "on": 3.0, "velocity": 95, "tagsIdx": [0], "pitch": 42}, {"duration": 0.5, "on": 3.0, "velocity": 95, "tagsIdx": [1], "pitch": 39}, {"duration": 0.5, "on": 3.0, "velocity": 95, "tagsIdx": [2], "pitch": 40}, {"duration": 0.25, "on": 3.5, "velocity": 95, "tagsIdx": [0], "pitch": 42}, {"duration": 0.25, "on": 3.75, "velocity": 95, "tagsIdx": [0], "pitch": 42}], "eventTags": ["ClosedHH", "Clap", "Clave"], "timeInfo": {"duration": 4, "bpm": 120.0}}, {"eventList": [{"duration": 0.5, "on": 0.0, "velocity": 95, "tagsIdx": [0], "pitch": 42}, {"duration": 0.5, "on": 0.5, "velocity": 95, "tagsIdx": [0], "pitch": 42}, {"duration": 0.5, "on": 1.0, "velocity": 95, "tagsIdx": [0], "pitch": 42}, {"duration": 0.5, "on": 1.0, "velocity": 95, "tagsIdx": [1], "pitch": 39}, {"duration": 0.5, "on": 1.0, "velocity": 95, "tagsIdx": [2], "pitch": 40}, {"duration": 0.5, "on": 1.5, "velocity": 95, "tagsIdx": [0], "pitch": 42}, {"duration": 0.5, "on": 2.0, "velocity": 95, "tagsIdx": [0], "pitch": 42}, {"duration": 0.5, "on": 2.5, "velocity": 95, "tagsIdx": [0], "pitch": 42}, {"duration": 0.5, "on": 3.0, "velocity": 95, "tagsIdx": [0], "pitch": 42}, {"duration": 0.5, "on": 3.0, "velocity": 95, "tagsIdx": [1], "pitch": 39}, {"duration": 0.5, "on": 3.0, "velocity": 95, "tagsIdx": [2], "pitch": 40}, {"duration": 0.25, "on": 3.5, "velocity": 95, "tagsIdx": [0], "pitch": 42}, {"duration": 0.25, "on": 3.75, "velocity": 95, "tagsIdx": [0], "pitch": 42}], "eventTags": ["ClosedHH", "Clap", "Clave"], "timeInfo": {"duration": 4, "bpm": 120.0}}, {"eventList": [{"duration": 0.5, "on": 0.0, "velocity": 95, "tagsIdx": [0], "pitch": 42}, {"duration": 0.5, "on": 0.5, "velocity": 95, "tagsIdx": [0], "pitch": 42}, {"duration": 0.5, "on": 1.0, "velocity": 95, "tagsIdx": [0], "pitch": 42}, {"duration": 0.5, "on": 1.0, "velocity": 95, "tagsIdx": [1], "pitch": 39}, {"duration": 0.5, "on": 1.0, "velocity": 95, "tagsIdx": [2], "pitch": 40}, {"duration": 0.5, "on": 1.5, "velocity": 95, "tagsIdx": [0], "pitch": 42}, {"duration": 0.25, "on": 2.0, "velocity": 47, "tagsIdx": [0], "pitch": 42}, {"duration": 0.25, "on": 2.25, "velocity": 95, "tagsIdx": [0], "pitch": 42}, {"duration": 0.5, "on": 2.5, "velocity": 47, "tagsIdx": [0], "pitch": 42}, {"duration": 0.5, "on": 3.0, "velocity": 95, "tagsIdx": [0], "pitch": 42}, {"duration": 0.5, "on": 3.0, "velocity": 95, "tagsIdx": [1], "pitch": 39}, {"duration": 0.5, "on": 3.0, "velocity": 95, "tagsIdx": [2], "pitch": 40}, {"duration": 0.5, "on": 3.5, "velocity": 95, "tagsIdx": [3], "pitch": 46}], "eventTags": ["ClosedHH", "Clap", "Clave", "OpenHH"], "timeInfo": {"duration": 4, "bpm": 120.0}}, {"eventList": [{"duration": 0.5, "on": 0.0, "velocity": 95, "tagsIdx": [0], "pitch": 42}, {"duration": 0.5, "on": 0.5, "velocity": 95, "tagsIdx": [0], "pitch": 42}, {"duration": 0.5, "on": 1.0, "velocity": 95, "tagsIdx": [0], "pitch": 42}, {"duration": 0.5, "on": 1.0, "velocity": 95, "tagsIdx": [1], "pitch": 39}, {"duration": 0.5, "on": 1.0, "velocity": 95, "tagsIdx": [2], "pitch": 40}, {"duration": 0.5, "on": 1.5, "velocity": 95, "tagsIdx": [0], "pitch": 42}, {"duration": 0.5, "on": 2.0, "velocity": 95, "tagsIdx": [0], "pitch": 42}, {"duration": 0.5, "on": 2.5, "velocity": 95, "tagsIdx": [0], "pitch": 42}, {"duration": 0.5, "on": 3.0, "velocity": 95, "tagsIdx": [0], "pitch": 42}, {"duration": 0.5, "on": 3.0, "velocity": 95, "tagsIdx": [1], "pitch": 39}, {"duration": 0.5, "on": 3.0, "velocity": 95, "tagsIdx": [2], "pitch": 40}, {"duration": 0.25, "on": 3.5, "velocity": 95, "tagsIdx": [0], "pitch": 42}, {"duration": 0.25, "on": 3.75, "velocity": 95, "tagsIdx": [0], "pitch": 42}], "eventTags": ["ClosedHH", "Clap", "Clave"], "timeInfo": {"duration": 4, "bpm": 120.0}}, {"eventList": [{"duration": 0.5, "on": 0.0, "velocity": 95, "tagsIdx": [0], "pitch": 42}, {"duration": 0.5, "on": 0.5, "velocity": 95, "tagsIdx": [0], "pitch": 42}, {"duration": 0.5, "on": 1.0, "velocity": 95, "tagsIdx": [0], "pitch": 42}, {"duration": 0.5, "on": 1.0, "velocity": 95, "tagsIdx": [1], "pitch": 39}, {"duration": 0.5, "on": 1.0, "velocity": 95, "tagsIdx": [2], "pitch": 40}, {"duration": 0.5, "on": 1.5, "velocity": 95, "tagsIdx": [0], "pitch": 42}, {"duration": 0.5, "on": 2.0, "velocity": 95, "tagsIdx": [0], "pitch": 42}, {"duration": 0.5, "on": 2.5, "velocity": 95, "tagsIdx": [0], "pitch": 42}, {"duration": 0.5, "on": 3.0, "velocity": 95, "tagsIdx": [0], "pitch": 42}, {"duration": 0.5, "on": 3.0, "velocity": 95, "tagsIdx": [1], "pitch": 39}, {"duration": 0.5, "on": 3.0, "velocity": 95, "tagsIdx": [2], "pitch": 40}, {"duration": 0.25, "on": 3.5, "velocity": 95, "tagsIdx": [0], "pitch": 42}, {"duration": 0.25, "on": 3.75, "velocity": 95, "tagsIdx": [0], "pitch": 42}], "eventTags": ["ClosedHH", "Clap", "Clave"], "timeInfo": {"duration": 4, "bpm": 120.0}}, {"eventList": [{"duration": 0.5, "on": 0.0, "velocity": 95, "tagsIdx": [0], "pitch": 42}, {"duration": 0.5, "on": 0.5, "velocity": 95, "tagsIdx": [0], "pitch": 42}, {"duration": 0.5, "on": 1.0, "velocity": 95, "tagsIdx": [0], "pitch": 42}, {"duration": 0.5, "on": 1.0, "velocity": 95, "tagsIdx": [1], "pitch": 39}, {"duration": 0.5, "on": 1.0, "velocity": 95, "tagsIdx": [2], "pitch": 40}, {"duration": 0.5, "on": 1.5, "velocity": 95, "tagsIdx": [0], "pitch": 42}, {"duration": 0.5, "on": 2.0, "velocity": 95, "tagsIdx": [0], "pitch": 42}, {"duration": 0.5, "on": 2.5, "velocity": 95, "tagsIdx": [0], "pitch": 42}, {"duration": 0.5, "on": 3.0, "velocity": 95, "tagsIdx": [0], "pitch": 42}, {"duration": 0.5, "on": 3.0, "velocity": 95, "tagsIdx": [1], "pitch": 39}, {"duration": 0.5, "on": 3.0, "velocity": 95, "tagsIdx": [2], "pitch": 40}, {"duration": 0.25, "on": 3.5, "velocity": 95, "tagsIdx": [0], "pitch": 42}, {"duration": 0.25, "on": 3.75, "velocity": 95, "tagsIdx": [0], "pitch": 42}], "eventTags": ["ClosedHH", "Clap", "Clave"], "timeInfo": {"duration": 4, "bpm": 120.0}}, {"eventList": [{"duration": 0.5, "on": 0.0, "velocity": 95, "tagsIdx": [0], "pitch": 42}, {"duration": 0.5, "on": 0.5, "velocity": 95, "tagsIdx": [0], "pitch": 42}, {"duration": 0.5, "on": 1.0, "velocity": 95, "tagsIdx": [0], "pitch": 42}, {"duration": 0.5, "on": 1.0, "velocity": 95, "tagsIdx": [1], "pitch": 39}, {"duration": 0.5, "on": 1.0, "velocity": 95, "tagsIdx": [2], "pitch": 40}, {"duration": 0.5, "on": 1.5, "velocity": 95, "tagsIdx": [0], "pitch": 42}, {"duration": 0.5, "on": 2.0, "velocity": 95, "tagsIdx": [0], "pitch": 42}, {"duration": 0.5, "on": 2.5, "velocity": 95, "tagsIdx": [3], "pitch": 46}, {"duration": 0.25, "on": 3.0, "velocity": 95, "tagsIdx": [1], "pitch": 39}, {"duration": 0.25, "on": 3.0, "velocity": 95, "tagsIdx": [2], "pitch": 40}, {"duration": 0.25, "on": 3.25, "velocity": 95, "tagsIdx": [0], "pitch": 42}, {"duration": 0.5, "on": 3.5, "velocity": 95, "tagsIdx": [3], "pitch": 46}], "eventTags": ["ClosedHH", "Clap", "Clave", "OpenHH"], "timeInfo": {"duration": 4, "bpm": 120.0}}, {"eventList": [{"duration": 0.5, "on": 0.0, "velocity": 95, "tagsIdx": [0], "pitch": 49}, {"duration": 0.5, "on": 0.5, "velocity": 95, "tagsIdx": [1], "pitch": 42}, {"duration": 0.5, "on": 1.0, "velocity": 95, "tagsIdx": [1], "pitch": 42}, {"duration": 0.5, "on": 1.0, "velocity": 95, "tagsIdx": [2], "pitch": 39}, {"duration": 0.5, "on": 1.0, "velocity": 95, "tagsIdx": [3], "pitch": 40}, {"duration": 0.5, "on": 1.5, "velocity": 95, "tagsIdx": [1], "pitch": 42}, {"duration": 0.5, "on": 2.0, "velocity": 95, "tagsIdx": [1], "pitch": 42}, {"duration": 0.5, "on": 2.5, "velocity": 95, "tagsIdx": [1], "pitch": 42}, {"duration": 0.5, "on": 3.0, "velocity": 95, "tagsIdx": [1], "pitch": 42}, {"duration": 0.5, "on": 3.0, "velocity": 95, "tagsIdx": [2], "pitch": 39}, {"duration": 0.5, "on": 3.0, "velocity": 95, "tagsIdx": [3], "pitch": 40}, {"duration": 0.25, "on": 3.5, "velocity": 95, "tagsIdx": [1], "pitch": 42}, {"duration": 0.25, "on": 3.75, "velocity": 95, "tagsIdx": [1], "pitch": 42}], "eventTags": ["Cymbal", "ClosedHH", "Clap", "Clave"], "timeInfo": {"duration": 4, "bpm": 120.0}}, {"eventList": [{"duration": 0.5, "on": 0.0, "velocity": 95, "tagsIdx": [0], "pitch": 42}, {"duration": 0.5, "on": 0.5, "velocity": 95, "tagsIdx": [0], "pitch": 42}, {"duration": 0.5, "on": 1.0, "velocity": 95, "tagsIdx": [0], "pitch": 42}, {"duration": 0.5, "on": 1.0, "velocity": 95, "tagsIdx": [1], "pitch": 39}, {"duration": 0.5, "on": 1.0, "velocity": 95, "tagsIdx": [2], "pitch": 40}, {"duration": 0.5, "on": 1.5, "velocity": 95, "tagsIdx": [0], "pitch": 42}, {"duration": 0.5, "on": 2.0, "velocity": 95, "tagsIdx": [0], "pitch": 42}, {"duration": 0.5, "on": 2.5, "velocity": 95, "tagsIdx": [0], "pitch": 42}, {"duration": 0.5, "on": 3.0, "velocity": 95, "tagsIdx": [0], "pitch": 42}, {"duration": 0.5, "on": 3.0, "velocity": 95, "tagsIdx": [1], "pitch": 39}, {"duration": 0.5, "on": 3.0, "velocity": 95, "tagsIdx": [2], "pitch": 40}, {"duration": 0.25, "on": 3.5, "velocity": 95, "tagsIdx": [0], "pitch": 42}, {"duration": 0.25, "on": 3.75, "velocity": 95, "tagsIdx": [0], "pitch": 42}], "eventTags": ["ClosedHH", "Clap", "Clave"], "timeInfo": {"duration": 4, "bpm": 120.0}}, {"eventList": [{"duration": 0.25, "on": 0.0, "velocity": 95, "tagsIdx": [0], "pitch": 46}, {"duration": 0.25, "on": 0.25, "velocity": 95, "tagsIdx": [1], "pitch": 42}, {"duration": 0.25, "on": 0.5, "velocity": 95, "tagsIdx": [1], "pitch": 42}, {"duration": 0.25, "on": 0.75, "velocity": 95, "tagsIdx": [1], "pitch": 42}, {"duration": 0.25, "on": 1.0, "velocity": 95, "tagsIdx": [0], "pitch": 46}, {"duration": 0.25, "on": 1.0, "velocity": 95, "tagsIdx": [2], "pitch": 39}, {"duration": 0.25, "on": 1.0, "velocity": 95, "tagsIdx": [3], "pitch": 40}, {"duration": 0.25, "on": 1.25, "velocity": 95, "tagsIdx": [1], "pitch": 42}, {"duration": 0.25, "on": 1.5, "velocity": 95, "tagsIdx": [1], "pitch": 42}, {"duration": 0.25, "on": 1.75, "velocity": 95, "tagsIdx": [1], "pitch": 42}, {"duration": 0.25, "on": 2.0, "velocity": 95, "tagsIdx": [0], "pitch": 46}, {"duration": 0.25, "on": 2.25, "velocity": 95, "tagsIdx": [1], "pitch": 42}, {"duration": 0.25, "on": 2.5, "velocity": 95, "tagsIdx": [1], "pitch": 42}, {"duration": 0.25, "on": 2.75, "velocity": 95, "tagsIdx": [1], "pitch": 42}, {"duration": 0.25, "on": 3.0, "velocity": 95, "tagsIdx": [0], "pitch": 46}, {"duration": 0.25, "on": 3.0, "velocity": 95, "tagsIdx": [2], "pitch": 39}, {"duration": 0.25, "on": 3.0, "velocity": 95, "tagsIdx": [3], "pitch": 40}, {"duration": 0.25, "on": 3.25, "velocity": 95, "tagsIdx": [1], "pitch": 42}, {"duration": 0.5, "on": 3.5, "velocity": 95, "tagsIdx": [0], "pitch": 46}], "eventTags": ["OpenHH", "ClosedHH", "Clap", "Clave"], "timeInfo": {"duration": 4, "bpm": 120.0}}, {"eventList": [{"duration": 0.5, "on": 0.0, "velocity": 95, "tagsIdx": [0], "pitch": 42}, {"duration": 0.5, "on": 0.5, "velocity": 95, "tagsIdx": [0], "pitch": 42}, {"duration": 0.5, "on": 1.0, "velocity": 95, "tagsIdx": [0], "pitch": 42}, {"duration": 0.5, "on": 1.0, "velocity": 95, "tagsIdx": [1], "pitch": 39}, {"duration": 0.5, "on": 1.0, "velocity": 95, "tagsIdx": [2], "pitch": 40}, {"duration": 0.5, "on": 1.5, "velocity": 95, "tagsIdx": [0], "pitch": 42}, {"duration": 0.5, "on": 2.0, "velocity": 95, "tagsIdx": [0], "pitch": 42}, {"duration": 0.5, "on": 2.5, "velocity": 95, "tagsIdx": [0], "pitch": 42}, {"duration": 0.5, "on": 3.0, "velocity": 95, "tagsIdx": [0], "pitch": 42}, {"duration": 0.5, "on": 3.0, "velocity": 95, "tagsIdx": [1], "pitch": 39}, {"duration": 0.5, "on": 3.0, "velocity": 95, "tagsIdx": [2], "pitch": 40}, {"duration": 0.25, "on": 3.5, "velocity": 95, "tagsIdx": [0], "pitch": 42}, {"duration": 0.25, "on": 3.75, "velocity": 95, "tagsIdx": [0], "pitch": 42}], "eventTags": ["ClosedHH", "Clap", "Clave"], "timeInfo": {"duration": 4, "bpm": 120.0}}, {"eventList": [{"duration": 0.11249999999998295, "on": 0.0, "velocity": 120, "tagsIdx": [0], "pitch": 36}, {"duration": 0.11249999999998295, "on": 0.5, "velocity": 120, "tagsIdx": [1], "pitch": 44}, {"duration": 0.11249999999998295, "on": 1.0, "velocity": 120, "tagsIdx": [2], "pitch": 39}, {"duration": 0.11249999999998295, "on": 1.0, "velocity": 120, "tagsIdx": [3], "pitch": 40}, {"duration": 0.11249999999998295, "on": 1.5, "velocity": 120, "tagsIdx": [1], "pitch": 44}, {"duration": 0.11249999999998295, "on": 2.0, "velocity": 120, "tagsIdx": [0], "pitch": 36}, {"duration": 0.11249999999998295, "on": 2.5, "velocity": 120, "tagsIdx": [1], "pitch": 44}, {"duration": 0.11249999999998295, "on": 3.0, "velocity": 120, "tagsIdx": [2], "pitch": 39}, {"duration": 0.11249999999998295, "on": 3.0, "velocity": 120, "tagsIdx": [3], "pitch": 40}, {"duration": 0.11249999999998295, "on": 3.5, "velocity": 120, "tagsIdx": [1], "pitch": 44}], "eventTags": ["Kick", "Shake", "Clap", "Clave"], "timeInfo": {"duration": 4, "bpm": 120.0}}, {"eventList": [{"duration": 0.11249999999998295, "on": 0.0, "velocity": 120, "tagsIdx": [0], "pitch": 36}, {"duration": 0.11249999999998295, "on": 0.5, "velocity": 120, "tagsIdx": [1], "pitch": 44}, {"duration": 0.11249999999998295, "on": 1.0, "velocity": 120, "tagsIdx": [2], "pitch": 39}, {"duration": 0.11249999999998295, "on": 1.0, "velocity": 120, "tagsIdx": [3], "pitch": 40}, {"duration": 0.11249999999998295, "on": 1.5, "velocity": 120, "tagsIdx": [1], "pitch": 44}, {"duration": 0.11249999999998295, "on": 2.0, "velocity": 120, "tagsIdx": [0], "pitch": 36}, {"duration": 0.11249999999998295, "on": 2.5, "velocity": 120, "tagsIdx": [1], "pitch": 44}, {"duration": 0.11249999999998295, "on": 3.0, "velocity": 120, "tagsIdx": [2], "pitch": 39}, {"duration": 0.11249999999998295, "on": 3.0, "velocity": 120, "tagsIdx": [3], "pitch": 40}, {"duration": 0.11249999999998295, "on": 3.5, "velocity": 120, "tagsIdx": [1], "pitch": 44}], "eventTags": ["Kick", "Shake", "Clap", "Clave"], "timeInfo": {"duration": 4, "bpm": 120.0}}, {"eventList": [{"duration": 0.11249999999998295, "on": 0.0, "velocity": 120, "tagsIdx": [0], "pitch": 36}, {"duration": 0.11249999999998295, "on": 0.5, "velocity": 120, "tagsIdx": [1], "pitch": 44}, {"duration": 0.11249999999998295, "on": 1.0, "velocity": 120, "tagsIdx": [2], "pitch": 39}, {"duration": 0.11249999999998295, "on": 1.0, "velocity": 120, "tagsIdx": [3], "pitch": 40}, {"duration": 0.11249999999998295, "on": 1.5, "velocity": 120, "tagsIdx": [1], "pitch": 44}, {"duration": 0.11249999999998295, "on": 2.0, "velocity": 120, "tagsIdx": [0], "pitch": 36}, {"duration": 0.11249999999998295, "on": 2.5, "velocity": 120, "tagsIdx": [1], "pitch": 44}, {"duration": 0.11249999999998295, "on": 3.0, "velocity": 120, "tagsIdx": [2], "pitch": 39}, {"duration": 0.11249999999998295, "on": 3.0, "velocity": 120, "tagsIdx": [3], "pitch": 40}, {"duration": 0.11249999999998295, "on": 3.5, "velocity": 120, "tagsIdx": [1], "pitch": 44}], "eventTags": ["Kick", "Shake", "Clap", "Clave"], "timeInfo": {"duration": 4, "bpm": 120.0}}, {"eventList": [{"duration": 0.11249999999998295, "on": 0.0, "velocity": 120, "tagsIdx": [0], "pitch": 36}, {"duration": 0.11249999999998295, "on": 0.5, "velocity": 120, "tagsIdx": [1], "pitch": 44}, {"duration": 0.11249999999998295, "on": 1.0, "velocity": 120, "tagsIdx": [2], "pitch": 39}, {"duration": 0.11249999999998295, "on": 1.0, "velocity": 120, "tagsIdx": [3], "pitch": 40}, {"duration": 0.11249999999998295, "on": 1.5, "velocity": 120, "tagsIdx": [1], "pitch": 44}, {"duration": 0.11249999999998295, "on": 2.0, "velocity": 120, "tagsIdx": [0], "pitch": 36}, {"duration": 0.11249999999998295, "on": 2.5, "velocity": 120, "tagsIdx": [1], "pitch": 44}, {"duration": 0.11249999999998295, "on": 3.0, "velocity": 120, "tagsIdx": [2], "pitch": 39}, {"duration": 0.11249999999998295, "on": 3.0, "velocity": 120, "tagsIdx": [3], "pitch": 40}, {"duration": 0.11249999999998295, "on": 3.5, "velocity": 120, "tagsIdx": [1], "pitch": 44}], "eventTags": ["Kick", "Shake", "Clap", "Clave"], "timeInfo": {"duration": 4, "bpm": 120.0}}, {"eventList": [{"duration": 0.11249999999998295, "on": 0.0, "velocity": 120, "tagsIdx": [0], "pitch": 36}, {"duration": 0.11249999999998295, "on": 0.5, "velocity": 120, "tagsIdx": [1], "pitch": 44}, {"duration": 0.11249999999998295, "on": 1.0, "velocity": 120, "tagsIdx": [2], "pitch": 39}, {"duration": 0.11249999999998295, "on": 1.0, "velocity": 120, "tagsIdx": [3], "pitch": 40}, {"duration": 0.11249999999998295, "on": 1.5, "velocity": 120, "tagsIdx": [1], "pitch": 44}, {"duration": 0.11249999999998295, "on": 2.0, "velocity": 120, "tagsIdx": [0], "pitch": 36}, {"duration": 0.11249999999998295, "on": 2.5, "velocity": 120, "tagsIdx": [1], "pitch": 44}, {"duration": 0.11249999999998295, "on": 3.0, "velocity": 120, "tagsIdx": [2], "pitch": 39}, {"duration": 0.11249999999998295, "on": 3.0, "velocity": 120, "tagsIdx": [3], "pitch": 40}, {"duration": 0.11249999999998295, "on": 3.5, "velocity": 120, "tagsIdx": [1], "pitch": 44}], "eventTags": ["Kick", "Shake", "Clap", "Clave"], "timeInfo": {"duration": 4, "bpm": 120.0}}, {"eventList": [{"duration": 0.11249999999998295, "on": 0.0, "velocity": 120, "tagsIdx": [0], "pitch": 36}, {"duration": 0.11249999999998295, "on": 0.5, "velocity": 120, "tagsIdx": [1], "pitch": 44}, {"duration": 0.11249999999998295, "on": 1.0, "velocity": 120, "tagsIdx": [2], "pitch": 39}, {"duration": 0.11249999999998295, "on": 1.0, "velocity": 120, "tagsIdx": [3], "pitch": 40}, {"duration": 0.11249999999998295, "on": 1.5, "velocity": 120, "tagsIdx": [1], "pitch": 44}, {"duration": 0.11249999999998295, "on": 2.0, "velocity": 120, "tagsIdx": [0], "pitch": 36}, {"duration": 0.11249999999998295, "on": 2.5, "velocity": 120, "tagsIdx": [1], "pitch": 44}, {"duration": 0.11249999999998295, "on": 3.0, "velocity": 120, "tagsIdx": [2], "pitch": 39}, {"duration": 0.11249999999998295, "on": 3.0, "velocity": 120, "tagsIdx": [3], "pitch": 40}, {"duration": 0.11249999999998295, "on": 3.5, "velocity": 120, "tagsIdx": [1], "pitch": 44}], "eventTags": ["Kick", "Shake", "Clap", "Clave"], "timeInfo": {"duration": 4, "bpm": 120.0}}, {"eventList": [{"duration": 0.11250000000001137, "on": 0.0, "velocity": 120, "tagsIdx": [0], "pitch": 36}, {"duration": 0.11250000000001137, "on": 0.5, "velocity": 120, "tagsIdx": [1], "pitch": 44}, {"duration": 0.11249999999998295, "on": 1.0, "velocity": 120, "tagsIdx": [2], "pitch": 40}, {"duration": 0.11249999999998295, "on": 1.0, "velocity": 120, "tagsIdx": [3], "pitch": 39}, {"duration": 0.11249999999998295, "on": 1.5, "velocity": 120, "tagsIdx": [1], "pitch": 44}, {"duration": 0.11249999999998295, "on": 2.0, "velocity": 120, "tagsIdx": [0], "pitch": 36}, {"duration": 0.11249999999998295, "on": 2.5, "velocity": 120, "tagsIdx": [1], "pitch": 44}, {"duration": 0.11249999999998295, "on": 3.0, "velocity": 120, "tagsIdx": [3], "pitch": 39}, {"duration": 0.11249999999998295, "on": 3.0, "velocity": 120, "tagsIdx": [2], "pitch": 40}, {"duration": 0.11249999999998295, "on": 3.5, "velocity": 120, "tagsIdx": [1], "pitch": 44}], "eventTags": ["Kick", "Shake", "Clave", "Clap"], "timeInfo": {"duration": 4, "bpm": 120.0}}, {"eventList": [{"duration": 0.11250000000001137, "on": 0.0, "velocity": 120, "tagsIdx": [0], "pitch": 36}, {"duration": 0.11250000000001137, "on": 0.5, "velocity": 120, "tagsIdx": [1], "pitch": 44}, {"duration": 0.11250000000001137, "on": 1.0, "velocity": 120, "tagsIdx": [2], "pitch": 40}, {"duration": 0.11250000000001137, "on": 1.0, "velocity": 120, "tagsIdx": [3], "pitch": 39}, {"duration": 0.11250000000001137, "on": 1.5, "velocity": 120, "tagsIdx": [1], "pitch": 44}, {"duration": 0.11250000000001137, "on": 2.0, "velocity": 120, "tagsIdx": [0], "pitch": 36}, {"duration": 0.11250000000001137, "on": 2.5, "velocity": 120, "tagsIdx": [1], "pitch": 44}, {"duration": 0.11250000000001137, "on": 3.0, "velocity": 120, "tagsIdx": [3], "pitch": 39}, {"duration": 0.11250000000001137, "on": 3.0, "velocity": 120, "tagsIdx": [2], "pitch": 40}, {"duration": 0.11250000000001137, "on": 3.5, "velocity": 120, "tagsIdx": [1], "pitch": 44}], "eventTags": ["Kick", "Shake", "Clave", "Clap"], "timeInfo": {"duration": 4, "bpm": 120.0}}, {"eventList": [{"duration": 0.11249999999998295, "on": 0.0, "velocity": 120, "tagsIdx": [0], "pitch": 36}, {"duration": 0.11249999999998295, "on": 0.5, "velocity": 120, "tagsIdx": [1], "pitch": 44}, {"duration": 0.11249999999998295, "on": 1.0, "velocity": 120, "tagsIdx": [2], "pitch": 39}, {"duration": 0.11249999999998295, "on": 1.0, "velocity": 120, "tagsIdx": [3], "pitch": 40}, {"duration": 0.11249999999998295, "on": 1.5, "velocity": 120, "tagsIdx": [1], "pitch": 44}, {"duration": 0.11249999999998295, "on": 2.0, "velocity": 120, "tagsIdx": [0], "pitch": 36}, {"duration": 0.11249999999998295, "on": 2.5, "velocity": 120, "tagsIdx": [1], "pitch": 44}, {"duration": 0.11249999999998295, "on": 3.0, "velocity": 120, "tagsIdx": [2], "pitch": 39}, {"duration": 0.11249999999998295, "on": 3.0, "velocity": 120, "tagsIdx": [3], "pitch": 40}, {"duration": 0.11249999999998295, "on": 3.5, "velocity": 120, "tagsIdx": [1], "pitch": 44}], "eventTags": ["Kick", "Shake", "Clap", "Clave"], "timeInfo": {"duration": 4, "bpm": 120.0}}, {"eventList": [{"duration": 0.11249999999998295, "on": 0.0, "velocity": 120, "tagsIdx": [0], "pitch": 36}, {"duration": 0.11249999999998295, "on": 0.5, "velocity": 120, "tagsIdx": [1], "pitch": 44}, {"duration": 0.11249999999998295, "on": 1.0, "velocity": 120, "tagsIdx": [2], "pitch": 39}, {"duration": 0.11249999999998295, "on": 1.0, "velocity": 120, "tagsIdx": [3], "pitch": 40}, {"duration": 0.11249999999998295, "on": 1.5, "velocity": 120, "tagsIdx": [1], "pitch": 44}, {"duration": 0.11249999999998295, "on": 2.0, "velocity": 120, "tagsIdx": [0], "pitch": 36}, {"duration": 0.11249999999998295, "on": 2.5, "velocity": 120, "tagsIdx": [1], "pitch": 44}, {"duration": 0.11249999999998295, "on": 3.0, "velocity": 120, "tagsIdx": [2], "pitch": 39}, {"duration": 0.11249999999998295, "on": 3.0, "velocity": 120, "tagsIdx": [3], "pitch": 40}, {"duration": 0.11249999999998295, "on": 3.5, "velocity": 120, "tagsIdx": [1], "pitch": 44}], "eventTags": ["Kick", "Shake", "Clap", "Clave"], "timeInfo": {"duration": 4, "bpm": 120.0}}, {"eventList": [{"duration": 0.25, "on": 0.0, "velocity": 95, "tagsIdx": [0], "pitch": 38}, {"duration": 0.25, "on": 0.0, "velocity": 95, "tagsIdx": [1], "pitch": 42}, {"duration": 0.25, "on": 0.0, "velocity": 63, "tagsIdx": [2], "pitch": 39}, {"duration": 0.25, "on": 0.25, "velocity": 111, "tagsIdx": [3], "pitch": 36}, {"duration": 0.25, "on": 0.25, "velocity": 95, "tagsIdx": [1], "pitch": 42}, {"duration": 0.25, "on": 0.5, "velocity": 95, "tagsIdx": [1], "pitch": 42}, {"duration": 0.25, "on": 0.75, "velocity": 95, "tagsIdx": [1], "pitch": 42}, {"duration": 0.25, "on": 1.0, "velocity": 111, "tagsIdx": [3], "pitch": 36}, {"duration": 0.25, "on": 1.0, "velocity": 127, "tagsIdx": [1], "pitch": 42}, {"duration": 0.25, "on": 1.25, "velocity": 127, "tagsIdx": [1], "pitch": 42}, {"duration": 0.25, "on": 1.5, "velocity": 111, "tagsIdx": [1], "pitch": 42}, {"duration": 0.25, "on": 1.75, "velocity": 95, "tagsIdx": [1], "pitch": 42}, {"duration": 0.25, "on": 2.0, "velocity": 95, "tagsIdx": [0], "pitch": 38}, {"duration": 0.25, "on": 2.0, "velocity": 95, "tagsIdx": [1], "pitch": 42}, {"duration": 0.25, "on": 2.0, "velocity": 63, "tagsIdx": [2], "pitch": 39}, {"duration": 0.25, "on": 2.25, "velocity": 63, "tagsIdx": [1], "pitch": 42}, {"duration": 0.25, "on": 2.5, "velocity": 95, "tagsIdx": [1], "pitch": 42}, {"duration": 0.25, "on": 2.75, "velocity": 95, "tagsIdx": [1], "pitch": 42}, {"duration": 0.25, "on": 3.0, "velocity": 95, "tagsIdx": [1], "pitch": 42}, {"duration": 0.25, "on": 3.25, "velocity": 95, "tagsIdx": [1], "pitch": 42}, {"duration": 0.25, "on": 3.5, "velocity": 95, "tagsIdx": [3], "pitch": 36}, {"duration": 0.25, "on": 3.5, "velocity": 95, "tagsIdx": [1], "pitch": 42}, {"duration": 0.25, "on": 3.5, "velocity": 111, "tagsIdx": [4], "pitch": 46}, {"duration": 0.25, "on": 3.75, "velocity": 95, "tagsIdx": [1], "pitch": 42}], "eventTags": ["Snare", "ClosedHH", "Clap", "Kick", "OpenHH"], "timeInfo": {"duration": 4, "bpm": 120.0}}, {"eventList": [{"duration": 0.25, "on": 0.0, "velocity": 95, "tagsIdx": [0], "pitch": 49}, {"duration": 0.25, "on": 0.0, "velocity": 95, "tagsIdx": [1], "pitch": 46}, {"duration": 0.25, "on": 0.25, "velocity": 95, "tagsIdx": [2], "pitch": 42}, {"duration": 0.25, "on": 0.5, "velocity": 95, "tagsIdx": [2], "pitch": 42}, {"duration": 0.25, "on": 0.75, "velocity": 95, "tagsIdx": [2], "pitch": 42}, {"duration": 0.25, "on": 1.0, "velocity": 95, "tagsIdx": [1], "pitch": 46}, {"duration": 0.25, "on": 1.0, "velocity": 95, "tagsIdx": [3], "pitch": 39}, {"duration": 0.25, "on": 1.0, "velocity": 95, "tagsIdx": [4], "pitch": 40}, {"duration": 0.25, "on": 1.25, "velocity": 95, "tagsIdx": [2], "pitch": 42}, {"duration": 0.25, "on": 1.5, "velocity": 95, "tagsIdx": [2], "pitch": 42}, {"duration": 0.25, "on": 1.75, "velocity": 95, "tagsIdx": [2], "pitch": 42}, {"duration": 0.25, "on": 2.0, "velocity": 95, "tagsIdx": [1], "pitch": 46}, {"duration": 0.25, "on": 2.25, "velocity": 95, "tagsIdx": [2], "pitch": 42}, {"duration": 0.25, "on": 2.5, "velocity": 95, "tagsIdx": [2], "pitch": 42}, {"duration": 0.25, "on": 2.75, "velocity": 95, "tagsIdx": [2], "pitch": 42}, {"duration": 0.25, "on": 3.0, "velocity": 95, "tagsIdx": [1], "pitch": 46}, {"duration": 0.25, "on": 3.0, "velocity": 95, "tagsIdx": [3], "pitch": 39}, {"duration": 0.25, "on": 3.0, "velocity": 95, "tagsIdx": [4], "pitch": 40}, {"duration": 0.25, "on": 3.25, "velocity": 95, "tagsIdx": [2], "pitch": 42}, {"duration": 0.25, "on": 3.5, "velocity": 95, "tagsIdx": [2], "pitch": 42}, {"duration": 0.25, "on": 3.75, "velocity": 95, "tagsIdx": [2], "pitch": 42}], "eventTags": ["Cymbal", "OpenHH", "ClosedHH", "Clap", "Clave"], "timeInfo": {"duration": 4, "bpm": 120.0}}, {"eventList": [{"duration": 0.125, "on": 0.0, "velocity": 100, "tagsIdx": [0], "pitch": 42}, {"duration": 0.125, "on": 0.5, "velocity": 100, "tagsIdx": [0], "pitch": 42}, {"duration": 0.125, "on": 1.0, "velocity": 100, "tagsIdx": [1], "pitch": 36}, {"duration": 0.125, "on": 1.0, "velocity": 100, "tagsIdx": [0], "pitch": 42}, {"duration": 0.125, "on": 1.0, "velocity": 100, "tagsIdx": [2], "pitch": 39}, {"duration": 0.125, "on": 1.5, "velocity": 100, "tagsIdx": [0], "pitch": 42}, {"duration": 0.125, "on": 2.0, "velocity": 100, "tagsIdx": [0], "pitch": 42}, {"duration": 0.125, "on": 2.5, "velocity": 100, "tagsIdx": [0], "pitch": 42}, {"duration": 0.125, "on": 3.0, "velocity": 100, "tagsIdx": [0], "pitch": 42}, {"duration": 0.125, "on": 3.0, "velocity": 100, "tagsIdx": [1], "pitch": 36}, {"duration": 0.125, "on": 3.0, "velocity": 100, "tagsIdx": [2], "pitch": 39}, {"duration": 0.25, "on": 3.5, "velocity": 100, "tagsIdx": [0], "pitch": 42}, {"duration": 0.25, "on": 3.75, "velocity": 100, "tagsIdx": [0], "pitch": 42}], "eventTags": ["ClosedHH", "Kick", "Clap"], "timeInfo": {"duration": 4, "bpm": 120.0}}, {"eventList": [{"duration": 0.125, "on": 0.0, "velocity": 100, "tagsIdx": [0], "pitch": 42}, {"duration": 0.125, "on": 0.5, "velocity": 100, "tagsIdx": [0], "pitch": 42}, {"duration": 0.125, "on": 1.0, "velocity": 100, "tagsIdx": [1], "pitch": 36}, {"duration": 0.125, "on": 1.0, "velocity": 100, "tagsIdx": [0], "pitch": 42}, {"duration": 0.125, "on": 1.0, "velocity": 100, "tagsIdx": [2], "pitch": 39}, {"duration": 0.125, "on": 1.5, "velocity": 100, "tagsIdx": [0], "pitch": 42}, {"duration": 0.125, "on": 2.0, "velocity": 100, "tagsIdx": [0], "pitch": 42}, {"duration": 0.125, "on": 2.5, "velocity": 100, "tagsIdx": [0], "pitch": 42}, {"duration": 0.125, "on": 3.0, "velocity": 100, "tagsIdx": [0], "pitch": 42}, {"duration": 0.125, "on": 3.0, "velocity": 100, "tagsIdx": [1], "pitch": 36}, {"duration": 0.125, "on": 3.0, "velocity": 100, "tagsIdx": [2], "pitch": 39}, {"duration": 0.25, "on": 3.5, "velocity": 100, "tagsIdx": [0], "pitch": 42}, {"duration": 0.25, "on": 3.75, "velocity": 100, "tagsIdx": [0], "pitch": 42}], "eventTags": ["ClosedHH", "Kick", "Clap"], "timeInfo": {"duration": 4, "bpm": 120.0}}, {"eventList": [{"duration": 0.25, "on": 0.0, "velocity": 95, "tagsIdx": [0], "pitch": 46}, {"duration": 0.25, "on": 0.25, "velocity": 95, "tagsIdx": [1], "pitch": 42}, {"duration": 0.25, "on": 0.5, "velocity": 95, "tagsIdx": [1], "pitch": 42}, {"duration": 0.25, "on": 0.75, "velocity": 95, "tagsIdx": [1], "pitch": 42}, {"duration": 0.25, "on": 1.0, "velocity": 95, "tagsIdx": [0], "pitch": 46}, {"duration": 0.25, "on": 1.0, "velocity": 95, "tagsIdx": [2], "pitch": 39}, {"duration": 0.25, "on": 1.0, "velocity": 95, "tagsIdx": [3], "pitch": 40}, {"duration": 0.25, "on": 1.25, "velocity": 95, "tagsIdx": [1], "pitch": 42}, {"duration": 0.25, "on": 1.5, "velocity": 95, "tagsIdx": [1], "pitch": 42}, {"duration": 0.25, "on": 1.75, "velocity": 95, "tagsIdx": [1], "pitch": 42}, {"duration": 0.25, "on": 2.0, "velocity": 95, "tagsIdx": [0], "pitch": 46}, {"duration": 0.25, "on": 2.25, "velocity": 95, "tagsIdx": [1], "pitch": 42}, {"duration": 0.5, "on": 2.5, "velocity": 95, "tagsIdx": [0], "pitch": 46}, {"duration": 0.25, "on": 3.0, "velocity": 95, "tagsIdx": [1], "pitch": 42}, {"duration": 0.25, "on": 3.0, "velocity": 95, "tagsIdx": [2], "pitch": 39}, {"duration": 0.25, "on": 3.0, "velocity": 95, "tagsIdx": [3], "pitch": 40}, {"duration": 0.25, "on": 3.25, "velocity": 95, "tagsIdx": [1], "pitch": 42}, {"duration": 0.5, "on": 3.5, "velocity": 95, "tagsIdx": [0], "pitch": 46}], "eventTags": ["OpenHH", "ClosedHH", "Clap", "Clave"], "timeInfo": {"duration": 4, "bpm": 120.0}}, {"eventList": [{"duration": 0.125, "on": 0.0, "velocity": 100, "tagsIdx": [0], "pitch": 42}, {"duration": 0.125, "on": 0.5, "velocity": 100, "tagsIdx": [0], "pitch": 42}, {"duration": 0.125, "on": 1.0, "velocity": 100, "tagsIdx": [1], "pitch": 36}, {"duration": 0.125, "on": 1.0, "velocity": 100, "tagsIdx": [0], "pitch": 42}, {"duration": 0.125, "on": 1.0, "velocity": 100, "tagsIdx": [2], "pitch": 39}, {"duration": 0.125, "on": 1.5, "velocity": 100, "tagsIdx": [0], "pitch": 42}, {"duration": 0.125, "on": 2.0, "velocity": 100, "tagsIdx": [0], "pitch": 42}, {"duration": 0.125, "on": 2.5, "velocity": 100, "tagsIdx": [0], "pitch": 42}, {"duration": 0.125, "on": 3.0, "velocity": 100, "tagsIdx": [0], "pitch": 42}, {"duration": 0.125, "on": 3.0, "velocity": 100, "tagsIdx": [1], "pitch": 36}, {"duration": 0.125, "on": 3.0, "velocity": 100, "tagsIdx": [2], "pitch": 39}, {"duration": 0.25, "on": 3.5, "velocity": 100, "tagsIdx": [0], "pitch": 42}, {"duration": 0.25, "on": 3.75, "velocity": 100, "tagsIdx": [0], "pitch": 42}], "eventTags": ["ClosedHH", "Kick", "Clap"], "timeInfo": {"duration": 4, "bpm": 120.0}}, {"eventList": [{"duration": 0.125, "on": 0.0, "velocity": 100, "tagsIdx": [0], "pitch": 42}, {"duration": 0.125, "on": 0.5, "velocity": 100, "tagsIdx": [0], "pitch": 42}, {"duration": 0.125, "on": 1.0, "velocity": 100, "tagsIdx": [1], "pitch": 36}, {"duration": 0.125, "on": 1.0, "velocity": 100, "tagsIdx": [0], "pitch": 42}, {"duration": 0.125, "on": 1.0, "velocity": 100, "tagsIdx": [2], "pitch": 39}, {"duration": 0.125, "on": 1.5, "velocity": 100, "tagsIdx": [0], "pitch": 42}, {"duration": 0.125, "on": 2.0, "velocity": 100, "tagsIdx": [0], "pitch": 42}, {"duration": 0.125, "on": 2.5, "velocity": 100, "tagsIdx": [0], "pitch": 42}, {"duration": 0.125, "on": 3.0, "velocity": 100, "tagsIdx": [0], "pitch": 42}, {"duration": 0.125, "on": 3.0, "velocity": 100, "tagsIdx": [1], "pitch": 36}, {"duration": 0.125, "on": 3.0, "velocity": 100, "tagsIdx": [2], "pitch": 39}, {"duration": 0.25, "on": 3.5, "velocity": 100, "tagsIdx": [0], "pitch": 42}, {"duration": 0.25, "on": 3.75, "velocity": 100, "tagsIdx": [0], "pitch": 42}], "eventTags": ["ClosedHH", "Kick", "Clap"], "timeInfo": {"duration": 4, "bpm": 120.0}}, {"eventList": [{"duration": 0.125, "on": 0.0, "velocity": 100, "tagsIdx": [0], "pitch": 42}, {"duration": 0.125, "on": 0.5, "velocity": 100, "tagsIdx": [0], "pitch": 42}, {"duration": 0.125, "on": 1.0, "velocity": 100, "tagsIdx": [1], "pitch": 36}, {"duration": 0.125, "on": 1.0, "velocity": 100, "tagsIdx": [0], "pitch": 42}, {"duration": 0.125, "on": 1.0, "velocity": 100, "tagsIdx": [2], "pitch": 39}, {"duration": 0.125, "on": 1.5, "velocity": 100, "tagsIdx": [0], "pitch": 42}, {"duration": 0.125, "on": 2.0, "velocity": 100, "tagsIdx": [0], "pitch": 42}, {"duration": 0.125, "on": 2.5, "velocity": 100, "tagsIdx": [0], "pitch": 42}, {"duration": 0.125, "on": 3.0, "velocity": 100, "tagsIdx": [0], "pitch": 42}, {"duration": 0.125, "on": 3.0, "velocity": 100, "tagsIdx": [1], "pitch": 36}, {"duration": 0.125, "on": 3.0, "velocity": 100, "tagsIdx": [2], "pitch": 39}, {"duration": 0.25, "on": 3.5, "velocity": 100, "tagsIdx": [0], "pitch": 42}, {"duration": 0.25, "on": 3.75, "velocity": 100, "tagsIdx": [0], "pitch": 42}], "eventTags": ["ClosedHH", "Kick", "Clap"], "timeInfo": {"duration": 4, "bpm": 120.0}}, {"eventList": [{"duration": 0.125, "on": 0.0, "velocity": 100, "tagsIdx": [0], "pitch": 42}, {"duration": 0.125, "on": 0.5, "velocity": 100, "tagsIdx": [0], "pitch": 42}, {"duration": 0.125, "on": 1.0, "velocity": 100, "tagsIdx": [1], "pitch": 36}, {"duration": 0.125, "on": 1.0, "velocity": 100, "tagsIdx": [0], "pitch": 42}, {"duration": 0.125, "on": 1.0, "velocity": 100, "tagsIdx": [2], "pitch": 39}, {"duration": 0.125, "on": 1.5, "velocity": 100, "tagsIdx": [0], "pitch": 42}, {"duration": 0.125, "on": 2.0, "velocity": 100, "tagsIdx": [0], "pitch": 42}, {"duration": 0.125, "on": 2.5, "velocity": 100, "tagsIdx": [0], "pitch": 42}, {"duration": 0.125, "on": 3.0, "velocity": 100, "tagsIdx": [0], "pitch": 42}, {"duration": 0.125, "on": 3.0, "velocity": 100, "tagsIdx": [1], "pitch": 36}, {"duration": 0.125, "on": 3.0, "velocity": 100, "tagsIdx": [2], "pitch": 39}, {"duration": 0.25, "on": 3.5, "velocity": 100, "tagsIdx": [0], "pitch": 42}, {"duration": 0.25, "on": 3.75, "velocity": 100, "tagsIdx": [0], "pitch": 42}], "eventTags": ["ClosedHH", "Kick", "Clap"], "timeInfo": {"duration": 4, "bpm": 120.0}}, {"eventList": [{"duration": 0.25, "on": 0.0, "velocity": 95, "tagsIdx": [0], "pitch": 46}, {"duration": 0.25, "on": 0.25, "velocity": 95, "tagsIdx": [1], "pitch": 42}, {"duration": 0.25, "on": 0.5, "velocity": 95, "tagsIdx": [1], "pitch": 42}, {"duration": 0.25, "on": 0.75, "velocity": 95, "tagsIdx": [1], "pitch": 42}, {"duration": 0.25, "on": 1.0, "velocity": 95, "tagsIdx": [0], "pitch": 46}, {"duration": 0.25, "on": 1.0, "velocity": 95, "tagsIdx": [2], "pitch": 39}, {"duration": 0.25, "on": 1.0, "velocity": 95, "tagsIdx": [3], "pitch": 40}, {"duration": 0.25, "on": 1.25, "velocity": 95, "tagsIdx": [1], "pitch": 42}, {"duration": 0.25, "on": 1.5, "velocity": 95, "tagsIdx": [1], "pitch": 42}, {"duration": 0.25, "on": 1.75, "velocity": 95, "tagsIdx": [1], "pitch": 42}, {"duration": 0.25, "on": 2.0, "velocity": 95, "tagsIdx": [0], "pitch": 46}, {"duration": 0.25, "on": 2.25, "velocity": 95, "tagsIdx": [1], "pitch": 42}, {"duration": 0.25, "on": 2.5, "velocity": 95, "tagsIdx": [1], "pitch": 42}, {"duration": 0.25, "on": 2.75, "velocity": 95, "tagsIdx": [1], "pitch": 42}, {"duration": 0.25, "on": 3.0, "velocity": 95, "tagsIdx": [0], "pitch": 46}, {"duration": 0.25, "on": 3.0, "velocity": 95, "tagsIdx": [2], "pitch": 39}, {"duration": 0.25, "on": 3.0, "velocity": 95, "tagsIdx": [3], "pitch": 40}, {"duration": 0.25, "on": 3.25, "velocity": 95, "tagsIdx": [1], "pitch": 42}, {"duration": 0.25, "on": 3.5, "velocity": 95, "tagsIdx": [1], "pitch": 42}, {"duration": 0.25, "on": 3.75, "velocity": 95, "tagsIdx": [1], "pitch": 42}], "eventTags": ["OpenHH", "ClosedHH", "Clap", "Clave"], "timeInfo": {"duration": 4, "bpm": 120.0}}, {"eventList": [{"duration": 0.5, "on": 0.0, "velocity": 95, "tagsIdx": [0], "pitch": 42}, {"duration": 0.5, "on": 0.5, "velocity": 95, "tagsIdx": [0], "pitch": 42}, {"duration": 0.5, "on": 1.0, "velocity": 95, "tagsIdx": [0], "pitch": 42}, {"duration": 0.5, "on": 1.0, "velocity": 95, "tagsIdx": [1], "pitch": 39}, {"duration": 0.5, "on": 1.0, "velocity": 95, "tagsIdx": [2], "pitch": 40}, {"duration": 0.5, "on": 1.5, "velocity": 95, "tagsIdx": [0], "pitch": 42}, {"duration": 0.25, "on": 2.0, "velocity": 47, "tagsIdx": [0], "pitch": 42}, {"duration": 0.25, "on": 2.25, "velocity": 95, "tagsIdx": [0], "pitch": 42}, {"duration": 0.5, "on": 2.5, "velocity": 95, "tagsIdx": [0], "pitch": 42}, {"duration": 0.5, "on": 3.0, "velocity": 95, "tagsIdx": [0], "pitch": 42}, {"duration": 0.5, "on": 3.0, "velocity": 95, "tagsIdx": [1], "pitch": 39}, {"duration": 0.5, "on": 3.0, "velocity": 95, "tagsIdx": [2], "pitch": 40}, {"duration": 0.5, "on": 3.5, "velocity": 95, "tagsIdx": [3], "pitch": 46}], "eventTags": ["ClosedHH", "Clap", "Clave", "OpenHH"], "timeInfo": {"duration": 4, "bpm": 120.0}}, {"eventList": [{"duration": 0.5, "on": 0.0, "velocity": 95, "tagsIdx": [0], "pitch": 42}, {"duration": 0.5, "on": 0.5, "velocity": 95, "tagsIdx": [0], "pitch": 42}, {"duration": 0.5, "on": 1.0, "velocity": 95, "tagsIdx": [0], "pitch": 42}, {"duration": 0.5, "on": 1.0, "velocity": 95, "tagsIdx": [1], "pitch": 39}, {"duration": 0.5, "on": 1.0, "velocity": 95, "tagsIdx": [2], "pitch": 40}, {"duration": 0.5, "on": 1.5, "velocity": 95, "tagsIdx": [0], "pitch": 42}, {"duration": 0.5, "on": 2.0, "velocity": 95, "tagsIdx": [0], "pitch": 42}, {"duration": 0.5, "on": 2.5, "velocity": 95, "tagsIdx": [0], "pitch": 42}, {"duration": 0.5, "on": 3.0, "velocity": 95, "tagsIdx": [0], "pitch": 42}, {"duration": 0.5, "on": 3.0, "velocity": 95, "tagsIdx": [1], "pitch": 39}, {"duration": 0.5, "on": 3.0, "velocity": 95, "tagsIdx": [2], "pitch": 40}, {"duration": 0.25, "on": 3.5, "velocity": 95, "tagsIdx": [0], "pitch": 42}, {"duration": 0.25, "on": 3.75, "velocity": 95, "tagsIdx": [0], "pitch": 42}], "eventTags": ["ClosedHH", "Clap", "Clave"], "timeInfo": {"duration": 4, "bpm": 120.0}}, {"eventList": [{"duration": 0.125, "on": 0.0, "velocity": 100, "tagsIdx": [0], "pitch": 42}, {"duration": 0.125, "on": 0.5, "velocity": 100, "tagsIdx": [0], "pitch": 42}, {"duration": 0.125, "on": 1.0, "velocity": 100, "tagsIdx": [1], "pitch": 36}, {"duration": 0.125, "on": 1.0, "velocity": 100, "tagsIdx": [0], "pitch": 42}, {"duration": 0.125, "on": 1.0, "velocity": 100, "tagsIdx": [2], "pitch": 39}, {"duration": 0.125, "on": 1.5, "velocity": 100, "tagsIdx": [0], "pitch": 42}, {"duration": 0.125, "on": 2.0, "velocity": 100, "tagsIdx": [0], "pitch": 42}, {"duration": 0.125, "on": 2.5, "velocity": 100, "tagsIdx": [0], "pitch": 42}, {"duration": 0.125, "on": 3.0, "velocity": 100, "tagsIdx": [0], "pitch": 42}, {"duration": 0.125, "on": 3.0, "velocity": 100, "tagsIdx": [1], "pitch": 36}, {"duration": 0.125, "on": 3.0, "velocity": 100, "tagsIdx": [2], "pitch": 39}, {"duration": 0.25, "on": 3.5, "velocity": 100, "tagsIdx": [0], "pitch": 42}, {"duration": 0.25, "on": 3.75, "velocity": 100, "tagsIdx": [0], "pitch": 42}], "eventTags": ["ClosedHH", "Kick", "Clap"], "timeInfo": {"duration": 4, "bpm": 120.0}}, {"eventList": [{"duration": 0.125, "on": 0.0, "velocity": 100, "tagsIdx": [0], "pitch": 42}, {"duration": 0.125, "on": 0.5, "velocity": 100, "tagsIdx": [0], "pitch": 42}, {"duration": 0.125, "on": 1.0, "velocity": 100, "tagsIdx": [1], "pitch": 36}, {"duration": 0.125, "on": 1.0, "velocity": 100, "tagsIdx": [0], "pitch": 42}, {"duration": 0.125, "on": 1.0, "velocity": 100, "tagsIdx": [2], "pitch": 39}, {"duration": 0.125, "on": 1.5, "velocity": 100, "tagsIdx": [0], "pitch": 42}, {"duration": 0.125, "on": 2.0, "velocity": 100, "tagsIdx": [0], "pitch": 42}, {"duration": 0.125, "on": 2.5, "velocity": 100, "tagsIdx": [0], "pitch": 42}, {"duration": 0.125, "on": 3.0, "velocity": 100, "tagsIdx": [0], "pitch": 42}, {"duration": 0.125, "on": 3.0, "velocity": 100, "tagsIdx": [1], "pitch": 36}, {"duration": 0.125, "on": 3.0, "velocity": 100, "tagsIdx": [2], "pitch": 39}, {"duration": 0.25, "on": 3.5, "velocity": 100, "tagsIdx": [0], "pitch": 42}, {"duration": 0.25, "on": 3.75, "velocity": 100, "tagsIdx": [0], "pitch": 42}], "eventTags": ["ClosedHH", "Kick", "Clap"], "timeInfo": {"duration": 4, "bpm": 120.0}}, {"eventList": [{"duration": 0.5, "on": 0.0, "velocity": 95, "tagsIdx": [0], "pitch": 42}, {"duration": 0.5, "on": 0.5, "velocity": 95, "tagsIdx": [0], "pitch": 42}, {"duration": 0.5, "on": 1.0, "velocity": 95, "tagsIdx": [0], "pitch": 42}, {"duration": 0.5, "on": 1.0, "velocity": 95, "tagsIdx": [1], "pitch": 39}, {"duration": 0.5, "on": 1.0, "velocity": 95, "tagsIdx": [2], "pitch": 40}, {"duration": 0.5, "on": 1.5, "velocity": 95, "tagsIdx": [0], "pitch": 42}, {"duration": 0.25, "on": 2.0, "velocity": 47, "tagsIdx": [0], "pitch": 42}, {"duration": 0.25, "on": 2.25, "velocity": 95, "tagsIdx": [0], "pitch": 42}, {"duration": 0.5, "on": 2.5, "velocity": 47, "tagsIdx": [0], "pitch": 42}, {"duration": 0.5, "on": 3.0, "velocity": 95, "tagsIdx": [0], "pitch": 42}, {"duration": 0.5, "on": 3.0, "velocity": 95, "tagsIdx": [1], "pitch": 39}, {"duration": 0.5, "on": 3.0, "velocity": 95, "tagsIdx": [2], "pitch": 40}, {"duration": 0.5, "on": 3.5, "velocity": 95, "tagsIdx": [3], "pitch": 46}], "eventTags": ["ClosedHH", "Clap", "Clave", "OpenHH"], "timeInfo": {"duration": 4, "bpm": 120.0}}, {"eventList": [{"duration": 0.5, "on": 0.0, "velocity": 95, "tagsIdx": [0], "pitch": 42}, {"duration": 0.5, "on": 0.5, "velocity": 95, "tagsIdx": [0], "pitch": 42}, {"duration": 0.5, "on": 1.0, "velocity": 95, "tagsIdx": [0], "pitch": 42}, {"duration": 0.5, "on": 1.0, "velocity": 95, "tagsIdx": [1], "pitch": 39}, {"duration": 0.5, "on": 1.0, "velocity": 95, "tagsIdx": [2], "pitch": 40}, {"duration": 0.5, "on": 1.5, "velocity": 95, "tagsIdx": [0], "pitch": 42}, {"duration": 0.5, "on": 2.0, "velocity": 95, "tagsIdx": [0], "pitch": 42}, {"duration": 0.5, "on": 2.5, "velocity": 95, "tagsIdx": [0], "pitch": 42}, {"duration": 0.5, "on": 3.0, "velocity": 95, "tagsIdx": [0], "pitch": 42}, {"duration": 0.5, "on": 3.0, "velocity": 95, "tagsIdx": [1], "pitch": 39}, {"duration": 0.5, "on": 3.0, "velocity": 95, "tagsIdx": [2], "pitch": 40}, {"duration": 0.25, "on": 3.5, "velocity": 95, "tagsIdx": [0], "pitch": 42}, {"duration": 0.25, "on": 3.75, "velocity": 95, "tagsIdx": [0], "pitch": 42}], "eventTags": ["ClosedHH", "Clap", "Clave"], "timeInfo": {"duration": 4, "bpm": 120.0}}, {"eventList": [{"duration": 0.5, "on": 0.0, "velocity": 95, "tagsIdx": [0], "pitch": 49}, {"duration": 0.5, "on": 0.5, "velocity": 95, "tagsIdx": [1], "pitch": 42}, {"duration": 0.5, "on": 1.0, "velocity": 95, "tagsIdx": [1], "pitch": 42}, {"duration": 0.5, "on": 1.0, "velocity": 95, "tagsIdx": [2], "pitch": 39}, {"duration": 0.5, "on": 1.0, "velocity": 95, "tagsIdx": [3], "pitch": 40}, {"duration": 0.5, "on": 1.5, "velocity": 95, "tagsIdx": [1], "pitch": 42}, {"duration": 0.5, "on": 2.0, "velocity": 95, "tagsIdx": [1], "pitch": 42}, {"duration": 0.5, "on": 2.5, "velocity": 95, "tagsIdx": [1], "pitch": 42}, {"duration": 0.5, "on": 3.0, "velocity": 95, "tagsIdx": [1], "pitch": 42}, {"duration": 0.5, "on": 3.0, "velocity": 95, "tagsIdx": [2], "pitch": 39}, {"duration": 0.5, "on": 3.0, "velocity": 95, "tagsIdx": [3], "pitch": 40}, {"duration": 0.25, "on": 3.5, "velocity": 95, "tagsIdx": [1], "pitch": 42}, {"duration": 0.25, "on": 3.75, "velocity": 95, "tagsIdx": [1], "pitch": 42}], "eventTags": ["Cymbal", "ClosedHH", "Clap", "Clave"], "timeInfo": {"duration": 4, "bpm": 120.0}}, {"eventList": [{"duration": 0.5, "on": 0.0, "velocity": 95, "tagsIdx": [0], "pitch": 42}, {"duration": 0.5, "on": 0.5, "velocity": 95, "tagsIdx": [0], "pitch": 42}, {"duration": 0.5, "on": 1.0, "velocity": 95, "tagsIdx": [0], "pitch": 42}, {"duration": 0.5, "on": 1.0, "velocity": 95, "tagsIdx": [1], "pitch": 39}, {"duration": 0.5, "on": 1.0, "velocity": 95, "tagsIdx": [2], "pitch": 40}, {"duration": 0.5, "on": 1.5, "velocity": 95, "tagsIdx": [0], "pitch": 42}, {"duration": 0.5, "on": 2.0, "velocity": 95, "tagsIdx": [0], "pitch": 42}, {"duration": 0.5, "on": 2.5, "velocity": 95, "tagsIdx": [0], "pitch": 42}, {"duration": 0.5, "on": 3.0, "velocity": 95, "tagsIdx": [0], "pitch": 42}, {"duration": 0.5, "on": 3.0, "velocity": 95, "tagsIdx": [1], "pitch": 39}, {"duration": 0.5, "on": 3.0, "velocity": 95, "tagsIdx": [2], "pitch": 40}, {"duration": 0.25, "on": 3.5, "velocity": 95, "tagsIdx": [0], "pitch": 42}, {"duration": 0.25, "on": 3.75, "velocity": 95, "tagsIdx": [0], "pitch": 42}], "eventTags": ["ClosedHH", "Clap", "Clave"], "timeInfo": {"duration": 4, "bpm": 120.0}}, {"eventList": [{"duration": 0.5, "on": 0.0, "velocity": 95, "tagsIdx": [0], "pitch": 42}, {"duration": 0.5, "on": 0.5, "velocity": 95, "tagsIdx": [0], "pitch": 42}, {"duration": 0.5, "on": 1.0, "velocity": 95, "tagsIdx": [0], "pitch": 42}, {"duration": 0.5, "on": 1.0, "velocity": 95, "tagsIdx": [1], "pitch": 39}, {"duration": 0.5, "on": 1.0, "velocity": 95, "tagsIdx": [2], "pitch": 40}, {"duration": 0.5, "on": 1.5, "velocity": 95, "tagsIdx": [0], "pitch": 42}, {"duration": 0.5, "on": 2.0, "velocity": 95, "tagsIdx": [0], "pitch": 42}, {"duration": 0.5, "on": 2.5, "velocity": 95, "tagsIdx": [3], "pitch": 46}, {"duration": 0.25, "on": 3.0, "velocity": 95, "tagsIdx": [1], "pitch": 39}, {"duration": 0.25, "on": 3.0, "velocity": 95, "tagsIdx": [2], "pitch": 40}, {"duration": 0.25, "on": 3.25, "velocity": 95, "tagsIdx": [0], "pitch": 42}, {"duration": 0.5, "on": 3.5, "velocity": 95, "tagsIdx": [3], "pitch": 46}], "eventTags": ["ClosedHH", "Clap", "Clave", "OpenHH"], "timeInfo": {"duration": 4, "bpm": 120.0}}, {"eventList": [{"duration": 0.5, "on": 0.0, "velocity": 95, "tagsIdx": [0], "pitch": 42}, {"duration": 0.5, "on": 0.5, "velocity": 95, "tagsIdx": [0], "pitch": 42}, {"duration": 0.5, "on": 1.0, "velocity": 95, "tagsIdx": [0], "pitch": 42}, {"duration": 0.5, "on": 1.0, "velocity": 95, "tagsIdx": [1], "pitch": 39}, {"duration": 0.5, "on": 1.0, "velocity": 95, "tagsIdx": [2], "pitch": 40}, {"duration": 0.5, "on": 1.5, "velocity": 95, "tagsIdx": [0], "pitch": 42}, {"duration": 0.5, "on": 2.0, "velocity": 95, "tagsIdx": [0], "pitch": 42}, {"duration": 0.5, "on": 2.5, "velocity": 95, "tagsIdx": [0], "pitch": 42}, {"duration": 0.5, "on": 3.0, "velocity": 95, "tagsIdx": [0], "pitch": 42}, {"duration": 0.5, "on": 3.0, "velocity": 95, "tagsIdx": [1], "pitch": 39}, {"duration": 0.5, "on": 3.0, "velocity": 95, "tagsIdx": [2], "pitch": 40}, {"duration": 0.25, "on": 3.5, "velocity": 95, "tagsIdx": [0], "pitch": 42}, {"duration": 0.25, "on": 3.75, "velocity": 95, "tagsIdx": [0], "pitch": 42}], "eventTags": ["ClosedHH", "Clap", "Clave"], "timeInfo": {"duration": 4, "bpm": 120.0}}, {"eventList": [{"duration": 0.5, "on": 0.0, "velocity": 95, "tagsIdx": [0], "pitch": 42}, {"duration": 0.5, "on": 0.5, "velocity": 95, "tagsIdx": [0], "pitch": 42}, {"duration": 0.5, "on": 1.0, "velocity": 95, "tagsIdx": [0], "pitch": 42}, {"duration": 0.5, "on": 1.0, "velocity": 95, "tagsIdx": [1], "pitch": 39}, {"duration": 0.5, "on": 1.0, "velocity": 95, "tagsIdx": [2], "pitch": 40}, {"duration": 0.5, "on": 1.5, "velocity": 95, "tagsIdx": [0], "pitch": 42}, {"duration": 0.5, "on": 2.0, "velocity": 95, "tagsIdx": [0], "pitch": 42}, {"duration": 0.5, "on": 2.5, "velocity": 95, "tagsIdx": [0], "pitch": 42}, {"duration": 0.5, "on": 3.0, "velocity": 95, "tagsIdx": [0], "pitch": 42}, {"duration": 0.5, "on": 3.0, "velocity": 95, "tagsIdx": [1], "pitch": 39}, {"duration": 0.5, "on": 3.0, "velocity": 95, "tagsIdx": [2], "pitch": 40}, {"duration": 0.25, "on": 3.5, "velocity": 95, "tagsIdx": [0], "pitch": 42}, {"duration": 0.25, "on": 3.75, "velocity": 95, "tagsIdx": [0], "pitch": 42}], "eventTags": ["ClosedHH", "Clap", "Clave"], "timeInfo": {"duration": 4, "bpm": 120.0}}, {"eventList": [{"duration": 0.5, "on": 0.0, "velocity": 95, "tagsIdx": [0], "pitch": 49}, {"duration": 0.5, "on": 0.5, "velocity": 95, "tagsIdx": [1], "pitch": 42}, {"duration": 0.5, "on": 1.0, "velocity": 95, "tagsIdx": [1], "pitch": 42}, {"duration": 0.5, "on": 1.0, "velocity": 95, "tagsIdx": [2], "pitch": 39}, {"duration": 0.5, "on": 1.0, "velocity": 95, "tagsIdx": [3], "pitch": 40}, {"duration": 0.5, "on": 1.5, "velocity": 95, "tagsIdx": [1], "pitch": 42}, {"duration": 0.5, "on": 2.0, "velocity": 95, "tagsIdx": [1], "pitch": 42}, {"duration": 0.5, "on": 2.5, "velocity": 95, "tagsIdx": [1], "pitch": 42}, {"duration": 0.5, "on": 3.0, "velocity": 95, "tagsIdx": [1], "pitch": 42}, {"duration": 0.5, "on": 3.0, "velocity": 95, "tagsIdx": [2], "pitch": 39}, {"duration": 0.5, "on": 3.0, "velocity": 95, "tagsIdx": [3], "pitch": 40}, {"duration": 0.25, "on": 3.5, "velocity": 95, "tagsIdx": [1], "pitch": 42}, {"duration": 0.25, "on": 3.75, "velocity": 95, "tagsIdx": [1], "pitch": 42}], "eventTags": ["Cymbal", "ClosedHH", "Clap", "Clave"], "timeInfo": {"duration": 4, "bpm": 120.0}}, {"eventList": [{"duration": 0.5, "on": 0.0, "velocity": 95, "tagsIdx": [0], "pitch": 42}, {"duration": 0.5, "on": 0.5, "velocity": 95, "tagsIdx": [0], "pitch": 42}, {"duration": 0.5, "on": 1.0, "velocity": 95, "tagsIdx": [0], "pitch": 42}, {"duration": 0.5, "on": 1.0, "velocity": 95, "tagsIdx": [1], "pitch": 39}, {"duration": 0.5, "on": 1.0, "velocity": 95, "tagsIdx": [2], "pitch": 40}, {"duration": 0.5, "on": 1.5, "velocity": 95, "tagsIdx": [0], "pitch": 42}, {"duration": 0.5, "on": 2.0, "velocity": 95, "tagsIdx": [0], "pitch": 42}, {"duration": 0.5, "on": 2.5, "velocity": 95, "tagsIdx": [0], "pitch": 42}, {"duration": 0.5, "on": 3.0, "velocity": 95, "tagsIdx": [0], "pitch": 42}, {"duration": 0.5, "on": 3.0, "velocity": 95, "tagsIdx": [1], "pitch": 39}, {"duration": 0.5, "on": 3.0, "velocity": 95, "tagsIdx": [2], "pitch": 40}, {"duration": 0.25, "on": 3.5, "velocity": 95, "tagsIdx": [0], "pitch": 42}, {"duration": 0.25, "on": 3.75, "velocity": 95, "tagsIdx": [0], "pitch": 42}], "eventTags": ["ClosedHH", "Clap", "Clave"], "timeInfo": {"duration": 4, "bpm": 120.0}}, {"eventList": [{"duration": 0.5, "on": 0.0, "velocity": 95, "tagsIdx": [0], "pitch": 42}, {"duration": 0.5, "on": 0.5, "velocity": 95, "tagsIdx": [0], "pitch": 42}, {"duration": 0.5, "on": 1.0, "velocity": 95, "tagsIdx": [0], "pitch": 42}, {"duration": 0.5, "on": 1.0, "velocity": 95, "tagsIdx": [1], "pitch": 39}, {"duration": 0.5, "on": 1.0, "velocity": 95, "tagsIdx": [2], "pitch": 40}, {"duration": 0.5, "on": 1.5, "velocity": 95, "tagsIdx": [0], "pitch": 42}, {"duration": 0.25, "on": 2.0, "velocity": 47, "tagsIdx": [0], "pitch": 42}, {"duration": 0.25, "on": 2.25, "velocity": 95, "tagsIdx": [0], "pitch": 42}, {"duration": 0.5, "on": 2.5, "velocity": 95, "tagsIdx": [0], "pitch": 42}, {"duration": 0.5, "on": 3.0, "velocity": 95, "tagsIdx": [0], "pitch": 42}, {"duration": 0.5, "on": 3.0, "velocity": 95, "tagsIdx": [1], "pitch": 39}, {"duration": 0.5, "on": 3.0, "velocity": 95, "tagsIdx": [2], "pitch": 40}, {"duration": 0.5, "on": 3.5, "velocity": 95, "tagsIdx": [3], "pitch": 46}], "eventTags": ["ClosedHH", "Clap", "Clave", "OpenHH"], "timeInfo": {"duration": 4, "bpm": 120.0}}, {"eventList": [{"duration": 0.5, "on": 0.0, "velocity": 95, "tagsIdx": [0], "pitch": 49}, {"duration": 0.5, "on": 0.5, "velocity": 95, "tagsIdx": [1], "pitch": 42}, {"duration": 0.5, "on": 1.0, "velocity": 95, "tagsIdx": [1], "pitch": 42}, {"duration": 0.5, "on": 1.0, "velocity": 95, "tagsIdx": [2], "pitch": 39}, {"duration": 0.5, "on": 1.0, "velocity": 95, "tagsIdx": [3], "pitch": 40}, {"duration": 0.5, "on": 1.5, "velocity": 95, "tagsIdx": [1], "pitch": 42}, {"duration": 0.5, "on": 2.0, "velocity": 95, "tagsIdx": [1], "pitch": 42}, {"duration": 0.5, "on": 2.5, "velocity": 95, "tagsIdx": [1], "pitch": 42}, {"duration": 0.5, "on": 3.0, "velocity": 95, "tagsIdx": [1], "pitch": 42}, {"duration": 0.5, "on": 3.0, "velocity": 95, "tagsIdx": [2], "pitch": 39}, {"duration": 0.5, "on": 3.0, "velocity": 95, "tagsIdx": [3], "pitch": 40}, {"duration": 0.25, "on": 3.5, "velocity": 95, "tagsIdx": [1], "pitch": 42}, {"duration": 0.25, "on": 3.75, "velocity": 95, "tagsIdx": [1], "pitch": 42}], "eventTags": ["Cymbal", "ClosedHH", "Clap", "Clave"], "timeInfo": {"duration": 4, "bpm": 120.0}}, {"eventList": [{"duration": 0.5, "on": 0.0, "velocity": 95, "tagsIdx": [0], "pitch": 42}, {"duration": 0.5, "on": 0.5, "velocity": 95, "tagsIdx": [0], "pitch": 42}, {"duration": 0.5, "on": 1.0, "velocity": 95, "tagsIdx": [0], "pitch": 42}, {"duration": 0.5, "on": 1.0, "velocity": 95, "tagsIdx": [1], "pitch": 39}, {"duration": 0.5, "on": 1.0, "velocity": 95, "tagsIdx": [2], "pitch": 40}, {"duration": 0.5, "on": 1.5, "velocity": 95, "tagsIdx": [0], "pitch": 42}, {"duration": 0.5, "on": 2.0, "velocity": 95, "tagsIdx": [0], "pitch": 42}, {"duration": 0.5, "on": 2.5, "velocity": 95, "tagsIdx": [0], "pitch": 42}, {"duration": 0.5, "on": 3.0, "velocity": 95, "tagsIdx": [0], "pitch": 42}, {"duration": 0.5, "on": 3.0, "velocity": 95, "tagsIdx": [1], "pitch": 39}, {"duration": 0.5, "on": 3.0, "velocity": 95, "tagsIdx": [2], "pitch": 40}, {"duration": 0.25, "on": 3.5, "velocity": 95, "tagsIdx": [0], "pitch": 42}, {"duration": 0.25, "on": 3.75, "velocity": 95, "tagsIdx": [0], "pitch": 42}], "eventTags": ["ClosedHH", "Clap", "Clave"], "timeInfo": {"duration": 4, "bpm": 120.0}}, {"eventList": [{"duration": 0.5, "on": 0.0, "velocity": 95, "tagsIdx": [0], "pitch": 42}, {"duration": 0.5, "on": 0.5, "velocity": 95, "tagsIdx": [0], "pitch": 42}, {"duration": 0.5, "on": 1.0, "velocity": 95, "tagsIdx": [0], "pitch": 42}, {"duration": 0.5, "on": 1.0, "velocity": 95, "tagsIdx": [1], "pitch": 39}, {"duration": 0.5, "on": 1.0, "velocity": 95, "tagsIdx": [2], "pitch": 40}, {"duration": 0.5, "on": 1.5, "velocity": 95, "tagsIdx": [0], "pitch": 42}, {"duration": 0.5, "on": 2.0, "velocity": 95, "tagsIdx": [0], "pitch": 42}, {"duration": 0.5, "on": 2.5, "velocity": 95, "tagsIdx": [0], "pitch": 42}, {"duration": 0.5, "on": 3.0, "velocity": 95, "tagsIdx": [0], "pitch": 42}, {"duration": 0.5, "on": 3.0, "velocity": 95, "tagsIdx": [1], "pitch": 39}, {"duration": 0.5, "on": 3.0, "velocity": 95, "tagsIdx": [2], "pitch": 40}, {"duration": 0.25, "on": 3.5, "velocity": 95, "tagsIdx": [0], "pitch": 42}, {"duration": 0.25, "on": 3.75, "velocity": 95, "tagsIdx": [0], "pitch": 42}], "eventTags": ["ClosedHH", "Clap", "Clave"], "timeInfo": {"duration": 4, "bpm": 120.0}}, {"eventList": [{"duration": 0.5, "on": 0.0, "velocity": 95, "tagsIdx": [0], "pitch": 42}, {"duration": 0.5, "on": 0.5, "velocity": 95, "tagsIdx": [0], "pitch": 42}, {"duration": 0.5, "on": 1.0, "velocity": 95, "tagsIdx": [0], "pitch": 42}, {"duration": 0.5, "on": 1.0, "velocity": 95, "tagsIdx": [1], "pitch": 39}, {"duration": 0.5, "on": 1.0, "velocity": 95, "tagsIdx": [2], "pitch": 40}, {"duration": 0.5, "on": 1.5, "velocity": 95, "tagsIdx": [0], "pitch": 42}, {"duration": 0.5, "on": 2.0, "velocity": 95, "tagsIdx": [0], "pitch": 42}, {"duration": 0.5, "on": 2.5, "velocity": 95, "tagsIdx": [3], "pitch": 46}, {"duration": 0.25, "on": 3.0, "velocity": 95, "tagsIdx": [1], "pitch": 39}, {"duration": 0.25, "on": 3.0, "velocity": 95, "tagsIdx": [2], "pitch": 40}, {"duration": 0.25, "on": 3.25, "velocity": 95, "tagsIdx": [0], "pitch": 42}, {"duration": 0.5, "on": 3.5, "velocity": 95, "tagsIdx": [3], "pitch": 46}], "eventTags": ["ClosedHH", "Clap", "Clave", "OpenHH"], "timeInfo": {"duration": 4, "bpm": 120.0}}, {"eventList": [{"duration": 0.5, "on": 0.0, "velocity": 95, "tagsIdx": [0], "pitch": 42}, {"duration": 0.5, "on": 0.5, "velocity": 95, "tagsIdx": [0], "pitch": 42}, {"duration": 0.5, "on": 1.0, "velocity": 95, "tagsIdx": [0], "pitch": 42}, {"duration": 0.5, "on": 1.0, "velocity": 95, "tagsIdx": [1], "pitch": 39}, {"duration": 0.5, "on": 1.0, "velocity": 95, "tagsIdx": [2], "pitch": 40}, {"duration": 0.5, "on": 1.5, "velocity": 95, "tagsIdx": [0], "pitch": 42}, {"duration": 0.5, "on": 2.0, "velocity": 95, "tagsIdx": [0], "pitch": 42}, {"duration": 0.5, "on": 2.5, "velocity": 95, "tagsIdx": [0], "pitch": 42}, {"duration": 0.5, "on": 3.0, "velocity": 95, "tagsIdx": [0], "pitch": 42}, {"duration": 0.5, "on": 3.0, "velocity": 95, "tagsIdx": [1], "pitch": 39}, {"duration": 0.5, "on": 3.0, "velocity": 95, "tagsIdx": [2], "pitch": 40}, {"duration": 0.25, "on": 3.5, "velocity": 95, "tagsIdx": [0], "pitch": 42}, {"duration": 0.25, "on": 3.75, "velocity": 95, "tagsIdx": [0], "pitch": 42}], "eventTags": ["ClosedHH", "Clap", "Clave"], "timeInfo": {"duration": 4, "bpm": 120.0}}, {"eventList": [{"duration": 0.5, "on": 0.0, "velocity": 95, "tagsIdx": [0], "pitch": 42}, {"duration": 0.5, "on": 0.5, "velocity": 95, "tagsIdx": [0], "pitch": 42}, {"duration": 0.5, "on": 1.0, "velocity": 95, "tagsIdx": [0], "pitch": 42}, {"duration": 0.5, "on": 1.0, "velocity": 95, "tagsIdx": [1], "pitch": 39}, {"duration": 0.5, "on": 1.0, "velocity": 95, "tagsIdx": [2], "pitch": 40}, {"duration": 0.5, "on": 1.5, "velocity": 95, "tagsIdx": [0], "pitch": 42}, {"duration": 0.5, "on": 2.0, "velocity": 95, "tagsIdx": [0], "pitch": 42}, {"duration": 0.5, "on": 2.5, "velocity": 95, "tagsIdx": [0], "pitch": 42}, {"duration": 0.5, "on": 3.0, "velocity": 95, "tagsIdx": [0], "pitch": 42}, {"duration": 0.5, "on": 3.0, "velocity": 95, "tagsIdx": [1], "pitch": 39}, {"duration": 0.5, "on": 3.0, "velocity": 95, "tagsIdx": [2], "pitch": 40}, {"duration": 0.25, "on": 3.5, "velocity": 95, "tagsIdx": [0], "pitch": 42}, {"duration": 0.25, "on": 3.75, "velocity": 95, "tagsIdx": [0], "pitch": 42}], "eventTags": ["ClosedHH", "Clap", "Clave"], "timeInfo": {"duration": 4, "bpm": 120.0}}, {"eventList": [{"duration": 0.25, "on": 0.0, "velocity": 95, "tagsIdx": [0], "pitch": 38}, {"duration": 0.25, "on": 0.0, "velocity": 95, "tagsIdx": [1], "pitch": 42}, {"duration": 0.25, "on": 0.0, "velocity": 95, "tagsIdx": [2], "pitch": 39}, {"duration": 0.25, "on": 0.25, "velocity": 111, "tagsIdx": [3], "pitch": 36}, {"duration": 0.25, "on": 0.25, "velocity": 95, "tagsIdx": [1], "pitch": 42}, {"duration": 0.25, "on": 1.0, "velocity": 111, "tagsIdx": [3], "pitch": 36}, {"duration": 0.25, "on": 1.0, "velocity": 127, "tagsIdx": [1], "pitch": 42}, {"duration": 0.25, "on": 1.25, "velocity": 127, "tagsIdx": [1], "pitch": 42}, {"duration": 0.25, "on": 2.0, "velocity": 95, "tagsIdx": [0], "pitch": 38}, {"duration": 0.25, "on": 2.0, "velocity": 95, "tagsIdx": [1], "pitch": 42}, {"duration": 0.25, "on": 2.0, "velocity": 63, "tagsIdx": [2], "pitch": 39}, {"duration": 0.25, "on": 2.5, "velocity": 95, "tagsIdx": [1], "pitch": 42}, {"duration": 0.25, "on": 2.75, "velocity": 95, "tagsIdx": [1], "pitch": 42}, {"duration": 0.25, "on": 3.0, "velocity": 95, "tagsIdx": [1], "pitch": 42}, {"duration": 0.25, "on": 3.25, "velocity": 95, "tagsIdx": [1], "pitch": 42}, {"duration": 0.25, "on": 3.5, "velocity": 95, "tagsIdx": [3], "pitch": 36}, {"duration": 0.25, "on": 3.5, "velocity": 95, "tagsIdx": [1], "pitch": 42}, {"duration": 0.25, "on": 3.5, "velocity": 111, "tagsIdx": [4], "pitch": 46}, {"duration": 0.25, "on": 3.75, "velocity": 95, "tagsIdx": [1], "pitch": 42}], "eventTags": ["Snare", "ClosedHH", "Clap", "Kick", "OpenHH"], "timeInfo": {"duration": 4, "bpm": 120.0}}, {"eventList": [{"duration": 0.125, "on": 0.0, "velocity": 100, "tagsIdx": [0], "pitch": 42}, {"duration": 0.125, "on": 0.5, "velocity": 100, "tagsIdx": [0], "pitch": 42}, {"duration": 0.125, "on": 1.0, "velocity": 100, "tagsIdx": [1], "pitch": 36}, {"duration": 0.125, "on": 1.0, "velocity": 100, "tagsIdx": [0], "pitch": 42}, {"duration": 0.125, "on": 1.0, "velocity": 100, "tagsIdx": [2], "pitch": 39}, {"duration": 0.125, "on": 1.5, "velocity": 100, "tagsIdx": [0], "pitch": 42}, {"duration": 0.125, "on": 2.0, "velocity": 100, "tagsIdx": [0], "pitch": 42}, {"duration": 0.125, "on": 2.5, "velocity": 100, "tagsIdx": [0], "pitch": 42}, {"duration": 0.125, "on": 3.0, "velocity": 100, "tagsIdx": [0], "pitch": 42}, {"duration": 0.125, "on": 3.0, "velocity": 100, "tagsIdx": [1], "pitch": 36}, {"duration": 0.125, "on": 3.0, "velocity": 100, "tagsIdx": [2], "pitch": 39}, {"duration": 0.25, "on": 3.5, "velocity": 100, "tagsIdx": [0], "pitch": 42}, {"duration": 0.25, "on": 3.75, "velocity": 100, "tagsIdx": [0], "pitch": 42}], "eventTags": ["ClosedHH", "Kick", "Clap"], "timeInfo": {"duration": 4, "bpm": 120.0}}, {"eventList": [{"duration": 0.25, "on": 0.0, "velocity": 95, "tagsIdx": [0], "pitch": 38}, {"duration": 0.25, "on": 0.0, "velocity": 95, "tagsIdx": [1], "pitch": 42}, {"duration": 0.25, "on": 0.0, "velocity": 63, "tagsIdx": [2], "pitch": 39}, {"duration": 0.25, "on": 0.25, "velocity": 111, "tagsIdx": [3], "pitch": 36}, {"duration": 0.25, "on": 0.25, "velocity": 95, "tagsIdx": [1], "pitch": 42}, {"duration": 0.25, "on": 0.5, "velocity": 95, "tagsIdx": [1], "pitch": 42}, {"duration": 0.25, "on": 0.75, "velocity": 95, "tagsIdx": [1], "pitch": 42}, {"duration": 0.25, "on": 1.0, "velocity": 111, "tagsIdx": [3], "pitch": 36}, {"duration": 0.25, "on": 1.0, "velocity": 127, "tagsIdx": [1], "pitch": 42}, {"duration": 0.25, "on": 1.25, "velocity": 127, "tagsIdx": [1], "pitch": 42}, {"duration": 0.25, "on": 1.5, "velocity": 127, "tagsIdx": [1], "pitch": 42}, {"duration": 0.25, "on": 1.75, "velocity": 95, "tagsIdx": [1], "pitch": 42}, {"duration": 0.25, "on": 2.0, "velocity": 95, "tagsIdx": [0], "pitch": 38}, {"duration": 0.25, "on": 2.0, "velocity": 95, "tagsIdx": [1], "pitch": 42}, {"duration": 0.25, "on": 2.0, "velocity": 63, "tagsIdx": [2], "pitch": 39}, {"duration": 0.25, "on": 2.25, "velocity": 95, "tagsIdx": [1], "pitch": 42}, {"duration": 0.25, "on": 2.5, "velocity": 95, "tagsIdx": [1], "pitch": 42}, {"duration": 0.25, "on": 2.75, "velocity": 95, "tagsIdx": [1], "pitch": 42}, {"duration": 0.25, "on": 3.0, "velocity": 111, "tagsIdx": [3], "pitch": 36}, {"duration": 0.25, "on": 3.0, "velocity": 95, "tagsIdx": [1], "pitch": 42}, {"duration": 0.25, "on": 3.25, "velocity": 95, "tagsIdx": [1], "pitch": 42}, {"duration": 0.25, "on": 3.5, "velocity": 111, "tagsIdx": [3], "pitch": 36}, {"duration": 0.25, "on": 3.5, "velocity": 79, "tagsIdx": [4], "pitch": 49}, {"duration": 0.25, "on": 3.5, "velocity": 111, "tagsIdx": [1], "pitch": 42}, {"duration": 0.25, "on": 3.5, "velocity": 111, "tagsIdx": [5], "pitch": 46}, {"duration": 0.25, "on": 3.75, "velocity": 95, "tagsIdx": [1], "pitch": 42}], "eventTags": ["Snare", "ClosedHH", "Clap", "Kick", "Cymbal", "OpenHH"], "timeInfo": {"duration": 4, "bpm": 120.0}}, {"eventList": [{"duration": 0.125, "on": 0.0, "velocity": 100, "tagsIdx": [0], "pitch": 42}, {"duration": 0.125, "on": 0.5, "velocity": 100, "tagsIdx": [0], "pitch": 42}, {"duration": 0.125, "on": 1.0, "velocity": 100, "tagsIdx": [1], "pitch": 36}, {"duration": 0.125, "on": 1.0, "velocity": 100, "tagsIdx": [0], "pitch": 42}, {"duration": 0.125, "on": 1.0, "velocity": 100, "tagsIdx": [2], "pitch": 39}, {"duration": 0.125, "on": 1.5, "velocity": 100, "tagsIdx": [0], "pitch": 42}, {"duration": 0.125, "on": 2.0, "velocity": 100, "tagsIdx": [0], "pitch": 42}, {"duration": 0.125, "on": 2.5, "velocity": 100, "tagsIdx": [0], "pitch": 42}, {"duration": 0.125, "on": 3.0, "velocity": 100, "tagsIdx": [0], "pitch": 42}, {"duration": 0.125, "on": 3.0, "velocity": 100, "tagsIdx": [1], "pitch": 36}, {"duration": 0.125, "on": 3.0, "velocity": 100, "tagsIdx": [2], "pitch": 39}, {"duration": 0.25, "on": 3.5, "velocity": 100, "tagsIdx": [0], "pitch": 42}, {"duration": 0.25, "on": 3.75, "velocity": 100, "tagsIdx": [0], "pitch": 42}], "eventTags": ["ClosedHH", "Kick", "Clap"], "timeInfo": {"duration": 4, "bpm": 120.0}}, {"eventList": [{"duration": 0.125, "on": 0.0, "velocity": 100, "tagsIdx": [0], "pitch": 42}, {"duration": 0.125, "on": 0.5, "velocity": 100, "tagsIdx": [0], "pitch": 42}, {"duration": 0.125, "on": 1.0, "velocity": 100, "tagsIdx": [1], "pitch": 36}, {"duration": 0.125, "on": 1.0, "velocity": 100, "tagsIdx": [0], "pitch": 42}, {"duration": 0.125, "on": 1.0, "velocity": 100, "tagsIdx": [2], "pitch": 39}, {"duration": 0.125, "on": 1.5, "velocity": 100, "tagsIdx": [0], "pitch": 42}, {"duration": 0.125, "on": 2.0, "velocity": 100, "tagsIdx": [0], "pitch": 42}, {"duration": 0.125, "on": 2.5, "velocity": 100, "tagsIdx": [0], "pitch": 42}, {"duration": 0.125, "on": 3.0, "velocity": 100, "tagsIdx": [0], "pitch": 42}, {"duration": 0.125, "on": 3.0, "velocity": 100, "tagsIdx": [1], "pitch": 36}, {"duration": 0.125, "on": 3.0, "velocity": 100, "tagsIdx": [2], "pitch": 39}, {"duration": 0.125, "on": 3.5, "velocity": 100, "tagsIdx": [0], "pitch": 42}, {"duration": 0.125, "on": 3.75, "velocity": 100, "tagsIdx": [0], "pitch": 42}], "eventTags": ["ClosedHH", "Kick", "Clap"], "timeInfo": {"duration": 4, "bpm": 120.0}}, {"eventList": [{"duration": 0.25, "on": 0.0, "velocity": 95, "tagsIdx": [0], "pitch": 38}, {"duration": 0.25, "on": 0.0, "velocity": 95, "tagsIdx": [1], "pitch": 42}, {"duration": 0.25, "on": 0.0, "velocity": 63, "tagsIdx": [2], "pitch": 39}, {"duration": 0.25, "on": 0.25, "velocity": 111, "tagsIdx": [3], "pitch": 36}, {"duration": 0.25, "on": 0.25, "velocity": 95, "tagsIdx": [1], "pitch": 42}, {"duration": 0.25, "on": 0.5, "velocity": 95, "tagsIdx": [1], "pitch": 42}, {"duration": 0.25, "on": 0.75, "velocity": 95, "tagsIdx": [1], "pitch": 42}, {"duration": 0.25, "on": 1.0, "velocity": 111, "tagsIdx": [3], "pitch": 36}, {"duration": 0.25, "on": 1.0, "velocity": 127, "tagsIdx": [1], "pitch": 42}, {"duration": 0.25, "on": 1.25, "velocity": 127, "tagsIdx": [1], "pitch": 42}, {"duration": 0.25, "on": 1.5, "velocity": 111, "tagsIdx": [1], "pitch": 42}, {"duration": 0.25, "on": 1.75, "velocity": 95, "tagsIdx": [1], "pitch": 42}, {"duration": 0.25, "on": 2.0, "velocity": 95, "tagsIdx": [0], "pitch": 38}, {"duration": 0.25, "on": 2.0, "velocity": 95, "tagsIdx": [1], "pitch": 42}, {"duration": 0.25, "on": 2.0, "velocity": 63, "tagsIdx": [2], "pitch": 39}, {"duration": 0.25, "on": 2.25, "velocity": 63, "tagsIdx": [1], "pitch": 42}, {"duration": 0.25, "on": 2.5, "velocity": 95, "tagsIdx": [1], "pitch": 42}, {"duration": 0.25, "on": 2.75, "velocity": 95, "tagsIdx": [1], "pitch": 42}, {"duration": 0.25, "on": 3.0, "velocity": 95, "tagsIdx": [1], "pitch": 42}, {"duration": 0.25, "on": 3.25, "velocity": 95, "tagsIdx": [1], "pitch": 42}, {"duration": 0.25, "on": 3.5, "velocity": 95, "tagsIdx": [3], "pitch": 36}, {"duration": 0.25, "on": 3.5, "velocity": 95, "tagsIdx": [1], "pitch": 42}, {"duration": 0.25, "on": 3.5, "velocity": 111, "tagsIdx": [4], "pitch": 46}, {"duration": 0.25, "on": 3.75, "velocity": 95, "tagsIdx": [1], "pitch": 42}], "eventTags": ["Snare", "ClosedHH", "Clap", "Kick", "OpenHH"], "timeInfo": {"duration": 4, "bpm": 120.0}}, {"eventList": [{"duration": 0.11250000000000071, "on": 0.0, "velocity": 120, "tagsIdx": [0], "pitch": 36}, {"duration": 0.11250000000000071, "on": 0.0, "velocity": 127, "tagsIdx": [1], "pitch": 44}, {"duration": 0.11250000000000071, "on": 0.5, "velocity": 127, "tagsIdx": [1], "pitch": 44}, {"duration": 0.11249999999999893, "on": 1.0, "velocity": 120, "tagsIdx": [2], "pitch": 39}, {"duration": 0.11249999999999893, "on": 1.0, "velocity": 120, "tagsIdx": [3], "pitch": 40}, {"duration": 0.11249999999999893, "on": 1.0, "velocity": 127, "tagsIdx": [1], "pitch": 44}, {"duration": 0.11249999999999893, "on": 1.5, "velocity": 127, "tagsIdx": [1], "pitch": 44}, {"duration": 0.11249999999999893, "on": 2.0, "velocity": 120, "tagsIdx": [0], "pitch": 36}, {"duration": 0.11249999999999893, "on": 2.0, "velocity": 127, "tagsIdx": [1], "pitch": 44}, {"duration": 0.11249999999999893, "on": 2.5, "velocity": 127, "tagsIdx": [1], "pitch": 44}, {"duration": 0.11249999999999893, "on": 3.0, "velocity": 120, "tagsIdx": [2], "pitch": 39}, {"duration": 0.11249999999999893, "on": 3.0, "velocity": 120, "tagsIdx": [3], "pitch": 40}, {"duration": 0.11249999999999893, "on": 3.0, "velocity": 127, "tagsIdx": [1], "pitch": 44}, {"duration": 1.0, "on": 3.0, "velocity": 120, "tagsIdx": [4], "pitch": 46}], "eventTags": ["Kick", "Shake", "Clap", "Clave", "OpenHH"], "timeInfo": {"duration": 4, "bpm": 120.0}}, {"eventList": [{"duration": 0.25, "on": 0.0, "velocity": 95, "tagsIdx": [0], "pitch": 46}, {"duration": 0.25, "on": 0.25, "velocity": 95, "tagsIdx": [1], "pitch": 42}, {"duration": 0.25, "on": 0.5, "velocity": 95, "tagsIdx": [1], "pitch": 42}, {"duration": 0.25, "on": 0.75, "velocity": 95, "tagsIdx": [1], "pitch": 42}, {"duration": 0.25, "on": 1.0, "velocity": 95, "tagsIdx": [0], "pitch": 46}, {"duration": 0.25, "on": 1.0, "velocity": 95, "tagsIdx": [2], "pitch": 39}, {"duration": 0.25, "on": 1.0, "velocity": 95, "tagsIdx": [3], "pitch": 40}, {"duration": 0.25, "on": 1.25, "velocity": 95, "tagsIdx": [1], "pitch": 42}, {"duration": 0.25, "on": 1.5, "velocity": 95, "tagsIdx": [1], "pitch": 42}, {"duration": 0.25, "on": 1.75, "velocity": 95, "tagsIdx": [1], "pitch": 42}, {"duration": 0.25, "on": 2.0, "velocity": 95, "tagsIdx": [0], "pitch": 46}, {"duration": 0.25, "on": 2.25, "velocity": 95, "tagsIdx": [1], "pitch": 42}, {"duration": 0.25, "on": 2.5, "velocity": 95, "tagsIdx": [1], "pitch": 42}, {"duration": 0.25, "on": 2.75, "velocity": 95, "tagsIdx": [1], "pitch": 42}, {"duration": 0.25, "on": 3.0, "velocity": 95, "tagsIdx": [0], "pitch": 46}, {"duration": 0.25, "on": 3.0, "velocity": 95, "tagsIdx": [2], "pitch": 39}, {"duration": 0.25, "on": 3.0, "velocity": 95, "tagsIdx": [3], "pitch": 40}, {"duration": 0.25, "on": 3.25, "velocity": 95, "tagsIdx": [1], "pitch": 42}, {"duration": 0.25, "on": 3.5, "velocity": 95, "tagsIdx": [1], "pitch": 42}, {"duration": 0.25, "on": 3.75, "velocity": 95, "tagsIdx": [1], "pitch": 42}], "eventTags": ["OpenHH", "ClosedHH", "Clap", "Clave"], "timeInfo": {"duration": 4, "bpm": 120.0}}, {"eventList": [{"duration": 0.25, "on": 0.0, "velocity": 95, "tagsIdx": [0], "pitch": 38}, {"duration": 0.25, "on": 0.0, "velocity": 95, "tagsIdx": [1], "pitch": 42}, {"duration": 0.25, "on": 0.0, "velocity": 63, "tagsIdx": [2], "pitch": 39}, {"duration": 0.25, "on": 0.25, "velocity": 111, "tagsIdx": [3], "pitch": 36}, {"duration": 0.25, "on": 0.25, "velocity": 95, "tagsIdx": [1], "pitch": 42}, {"duration": 0.25, "on": 0.5, "velocity": 95, "tagsIdx": [1], "pitch": 42}, {"duration": 0.25, "on": 0.75, "velocity": 95, "tagsIdx": [1], "pitch": 42}, {"duration": 0.25, "on": 1.0, "velocity": 111, "tagsIdx": [3], "pitch": 36}, {"duration": 0.25, "on": 1.0, "velocity": 127, "tagsIdx": [1], "pitch": 42}, {"duration": 0.25, "on": 1.25, "velocity": 127, "tagsIdx": [1], "pitch": 42}, {"duration": 0.25, "on": 1.5, "velocity": 127, "tagsIdx": [1], "pitch": 42}, {"duration": 0.25, "on": 1.75, "velocity": 95, "tagsIdx": [1], "pitch": 42}, {"duration": 0.25, "on": 2.0, "velocity": 95, "tagsIdx": [0], "pitch": 38}, {"duration": 0.25, "on": 2.0, "velocity": 95, "tagsIdx": [1], "pitch": 42}, {"duration": 0.25, "on": 2.0, "velocity": 63, "tagsIdx": [2], "pitch": 39}, {"duration": 0.25, "on": 2.25, "velocity": 95, "tagsIdx": [1], "pitch": 42}, {"duration": 0.25, "on": 2.5, "velocity": 95, "tagsIdx": [1], "pitch": 42}, {"duration": 0.25, "on": 2.75, "velocity": 95, "tagsIdx": [1], "pitch": 42}, {"duration": 0.25, "on": 3.0, "velocity": 111, "tagsIdx": [3], "pitch": 36}, {"duration": 0.25, "on": 3.0, "velocity": 95, "tagsIdx": [1], "pitch": 42}, {"duration": 0.25, "on": 3.25, "velocity": 95, "tagsIdx": [1], "pitch": 42}, {"duration": 0.25, "on": 3.5, "velocity": 111, "tagsIdx": [3], "pitch": 36}, {"duration": 0.25, "on": 3.5, "velocity": 79, "tagsIdx": [4], "pitch": 49}, {"duration": 0.25, "on": 3.5, "velocity": 111, "tagsIdx": [1], "pitch": 42}, {"duration": 0.25, "on": 3.5, "velocity": 111, "tagsIdx": [5], "pitch": 46}, {"duration": 0.25, "on": 3.75, "velocity": 95, "tagsIdx": [1], "pitch": 42}], "eventTags": ["Snare", "ClosedHH", "Clap", "Kick", "Cymbal", "OpenHH"], "timeInfo": {"duration": 4, "bpm": 120.0}}, {"eventList": [{"duration": 0.11250000000000071, "on": 0.0, "velocity": 120, "tagsIdx": [0], "pitch": 36}, {"duration": 0.11250000000000071, "on": 0.5, "velocity": 120, "tagsIdx": [1], "pitch": 44}, {"duration": 0.11250000000000071, "on": 1.0, "velocity": 120, "tagsIdx": [2], "pitch": 40}, {"duration": 0.11250000000000071, "on": 1.0, "velocity": 120, "tagsIdx": [3], "pitch": 39}, {"duration": 0.11250000000000071, "on": 1.5, "velocity": 120, "tagsIdx": [1], "pitch": 44}, {"duration": 0.11250000000000071, "on": 2.0, "velocity": 120, "tagsIdx": [0], "pitch": 36}, {"duration": 0.11250000000000071, "on": 2.5, "velocity": 120, "tagsIdx": [1], "pitch": 44}, {"duration": 0.11250000000000071, "on": 3.0, "velocity": 120, "tagsIdx": [3], "pitch": 39}, {"duration": 0.11250000000000071, "on": 3.0, "velocity": 120, "tagsIdx": [2], "pitch": 40}, {"duration": 0.11250000000000071, "on": 3.5, "velocity": 120, "tagsIdx": [1], "pitch": 44}], "eventTags": ["Kick", "Shake", "Clave", "Clap"], "timeInfo": {"duration": 4, "bpm": 120.0}}, {"eventList": [{"duration": 0.25, "on": 0.0, "velocity": 95, "tagsIdx": [0], "pitch": 38}, {"duration": 0.25, "on": 0.0, "velocity": 95, "tagsIdx": [1], "pitch": 42}, {"duration": 0.25, "on": 0.0, "velocity": 95, "tagsIdx": [2], "pitch": 39}, {"duration": 0.25, "on": 0.25, "velocity": 111, "tagsIdx": [3], "pitch": 36}, {"duration": 0.25, "on": 0.25, "velocity": 95, "tagsIdx": [1], "pitch": 42}, {"duration": 0.25, "on": 1.0, "velocity": 111, "tagsIdx": [3], "pitch": 36}, {"duration": 0.25, "on": 1.0, "velocity": 127, "tagsIdx": [1], "pitch": 42}, {"duration": 0.25, "on": 1.25, "velocity": 127, "tagsIdx": [1], "pitch": 42}, {"duration": 0.25, "on": 2.0, "velocity": 95, "tagsIdx": [0], "pitch": 38}, {"duration": 0.25, "on": 2.0, "velocity": 95, "tagsIdx": [1], "pitch": 42}, {"duration": 0.25, "on": 2.0, "velocity": 63, "tagsIdx": [2], "pitch": 39}, {"duration": 0.25, "on": 2.5, "velocity": 95, "tagsIdx": [1], "pitch": 42}, {"duration": 0.25, "on": 2.75, "velocity": 95, "tagsIdx": [1], "pitch": 42}, {"duration": 0.25, "on": 3.0, "velocity": 95, "tagsIdx": [1], "pitch": 42}, {"duration": 0.25, "on": 3.25, "velocity": 95, "tagsIdx": [1], "pitch": 42}, {"duration": 0.25, "on": 3.5, "velocity": 95, "tagsIdx": [3], "pitch": 36}, {"duration": 0.25, "on": 3.5, "velocity": 95, "tagsIdx": [1], "pitch": 42}, {"duration": 0.25, "on": 3.5, "velocity": 111, "tagsIdx": [4], "pitch": 46}, {"duration": 0.25, "on": 3.75, "velocity": 95, "tagsIdx": [1], "pitch": 42}], "eventTags": ["Snare", "ClosedHH", "Clap", "Kick", "OpenHH"], "timeInfo": {"duration": 4, "bpm": 120.0}}, {"eventList": [{"duration": 0.25, "on": 0.0, "velocity": 95, "tagsIdx": [0], "pitch": 38}, {"duration": 0.25, "on": 0.0, "velocity": 95, "tagsIdx": [1], "pitch": 42}, {"duration": 0.25, "on": 0.0, "velocity": 63, "tagsIdx": [2], "pitch": 39}, {"duration": 0.25, "on": 0.25, "velocity": 111, "tagsIdx": [3], "pitch": 36}, {"duration": 0.25, "on": 0.25, "velocity": 95, "tagsIdx": [1], "pitch": 42}, {"duration": 0.25, "on": 0.5, "velocity": 95, "tagsIdx": [1], "pitch": 42}, {"duration": 0.25, "on": 0.75, "velocity": 95, "tagsIdx": [1], "pitch": 42}, {"duration": 0.25, "on": 1.0, "velocity": 111, "tagsIdx": [3], "pitch": 36}, {"duration": 0.25, "on": 1.0, "velocity": 127, "tagsIdx": [1], "pitch": 42}, {"duration": 0.25, "on": 1.25, "velocity": 127, "tagsIdx": [1], "pitch": 42}, {"duration": 0.25, "on": 1.5, "velocity": 111, "tagsIdx": [1], "pitch": 42}, {"duration": 0.25, "on": 1.75, "velocity": 95, "tagsIdx": [1], "pitch": 42}, {"duration": 0.25, "on": 2.0, "velocity": 95, "tagsIdx": [0], "pitch": 38}, {"duration": 0.25, "on": 2.0, "velocity": 95, "tagsIdx": [1], "pitch": 42}, {"duration": 0.25, "on": 2.0, "velocity": 63, "tagsIdx": [2], "pitch": 39}, {"duration": 0.25, "on": 2.25, "velocity": 63, "tagsIdx": [1], "pitch": 42}, {"duration": 0.25, "on": 2.5, "velocity": 95, "tagsIdx": [1], "pitch": 42}, {"duration": 0.25, "on": 2.75, "velocity": 95, "tagsIdx": [1], "pitch": 42}, {"duration": 0.25, "on": 3.0, "velocity": 95, "tagsIdx": [1], "pitch": 42}, {"duration": 0.25, "on": 3.25, "velocity": 95, "tagsIdx": [1], "pitch": 42}, {"duration": 0.25, "on": 3.5, "velocity": 95, "tagsIdx": [3], "pitch": 36}, {"duration": 0.25, "on": 3.5, "velocity": 95, "tagsIdx": [1], "pitch": 42}, {"duration": 0.25, "on": 3.5, "velocity": 111, "tagsIdx": [4], "pitch": 46}, {"duration": 0.25, "on": 3.75, "velocity": 95, "tagsIdx": [1], "pitch": 42}], "eventTags": ["Snare", "ClosedHH", "Clap", "Kick", "OpenHH"], "timeInfo": {"duration": 4, "bpm": 120.0}}, {"eventList": [{"duration": 0.125, "on": 0.0, "velocity": 100, "tagsIdx": [0], "pitch": 42}, {"duration": 0.125, "on": 0.5, "velocity": 100, "tagsIdx": [0], "pitch": 42}, {"duration": 0.125, "on": 1.0, "velocity": 100, "tagsIdx": [0], "pitch": 42}, {"duration": 0.125, "on": 1.0, "velocity": 100, "tagsIdx": [1], "pitch": 39}, {"duration": 0.125, "on": 1.5, "velocity": 100, "tagsIdx": [0], "pitch": 42}, {"duration": 0.125, "on": 2.0, "velocity": 100, "tagsIdx": [0], "pitch": 42}, {"duration": 0.125, "on": 2.5, "velocity": 100, "tagsIdx": [0], "pitch": 42}, {"duration": 0.125, "on": 3.0, "velocity": 100, "tagsIdx": [0], "pitch": 42}, {"duration": 0.125, "on": 3.0, "velocity": 100, "tagsIdx": [1], "pitch": 39}, {"duration": 0.125, "on": 3.5, "velocity": 100, "tagsIdx": [0], "pitch": 42}, {"duration": 0.125, "on": 3.75, "velocity": 100, "tagsIdx": [0], "pitch": 42}], "eventTags": ["ClosedHH", "Clap"], "timeInfo": {"duration": 4, "bpm": 120.0}}, {"eventList": [{"duration": 0.25, "on": 0.0, "velocity": 95, "tagsIdx": [0], "pitch": 38}, {"duration": 0.25, "on": 0.0, "velocity": 95, "tagsIdx": [1], "pitch": 42}, {"duration": 0.25, "on": 0.0, "velocity": 95, "tagsIdx": [2], "pitch": 39}, {"duration": 0.25, "on": 0.25, "velocity": 111, "tagsIdx": [3], "pitch": 36}, {"duration": 0.25, "on": 0.25, "velocity": 95, "tagsIdx": [1], "pitch": 42}, {"duration": 0.25, "on": 1.0, "velocity": 111, "tagsIdx": [3], "pitch": 36}, {"duration": 0.25, "on": 1.0, "velocity": 127, "tagsIdx": [1], "pitch": 42}, {"duration": 0.25, "on": 1.25, "velocity": 127, "tagsIdx": [1], "pitch": 42}, {"duration": 0.25, "on": 2.0, "velocity": 95, "tagsIdx": [0], "pitch": 38}, {"duration": 0.25, "on": 2.0, "velocity": 95, "tagsIdx": [1], "pitch": 42}, {"duration": 0.25, "on": 2.0, "velocity": 63, "tagsIdx": [2], "pitch": 39}, {"duration": 0.25, "on": 2.5, "velocity": 95, "tagsIdx": [1], "pitch": 42}, {"duration": 0.25, "on": 2.75, "velocity": 95, "tagsIdx": [1], "pitch": 42}, {"duration": 0.25, "on": 3.0, "velocity": 95, "tagsIdx": [1], "pitch": 42}, {"duration": 0.25, "on": 3.25, "velocity": 95, "tagsIdx": [1], "pitch": 42}, {"duration": 0.25, "on": 3.5, "velocity": 95, "tagsIdx": [3], "pitch": 36}, {"duration": 0.25, "on": 3.5, "velocity": 95, "tagsIdx": [1], "pitch": 42}, {"duration": 0.25, "on": 3.5, "velocity": 111, "tagsIdx": [4], "pitch": 46}, {"duration": 0.25, "on": 3.75, "velocity": 95, "tagsIdx": [1], "pitch": 42}], "eventTags": ["Snare", "ClosedHH", "Clap", "Kick", "OpenHH"], "timeInfo": {"duration": 4, "bpm": 120.0}}, {"eventList": [{"duration": 0.25, "on": 0.0, "velocity": 95, "tagsIdx": [0], "pitch": 38}, {"duration": 0.25, "on": 0.0, "velocity": 95, "tagsIdx": [1], "pitch": 42}, {"duration": 0.25, "on": 0.0, "velocity": 63, "tagsIdx": [2], "pitch": 39}, {"duration": 0.25, "on": 0.25, "velocity": 111, "tagsIdx": [3], "pitch": 36}, {"duration": 0.25, "on": 0.25, "velocity": 95, "tagsIdx": [1], "pitch": 42}, {"duration": 0.25, "on": 0.5, "velocity": 95, "tagsIdx": [1], "pitch": 42}, {"duration": 0.25, "on": 0.75, "velocity": 95, "tagsIdx": [1], "pitch": 42}, {"duration": 0.25, "on": 1.0, "velocity": 111, "tagsIdx": [3], "pitch": 36}, {"duration": 0.25, "on": 1.0, "velocity": 127, "tagsIdx": [1], "pitch": 42}, {"duration": 0.25, "on": 1.25, "velocity": 127, "tagsIdx": [1], "pitch": 42}, {"duration": 0.25, "on": 2.0, "velocity": 95, "tagsIdx": [0], "pitch": 38}, {"duration": 0.25, "on": 2.0, "velocity": 95, "tagsIdx": [1], "pitch": 42}, {"duration": 0.25, "on": 2.0, "velocity": 47, "tagsIdx": [2], "pitch": 39}, {"duration": 0.25, "on": 3.0, "velocity": 95, "tagsIdx": [3], "pitch": 36}, {"duration": 0.25, "on": 3.0, "velocity": 95, "tagsIdx": [1], "pitch": 42}], "eventTags": ["Snare", "ClosedHH", "Clap", "Kick"], "timeInfo": {"duration": 4, "bpm": 120.0}}, {"eventList": [{"duration": 0.5, "on": 0.0, "velocity": 95, "tagsIdx": [0], "pitch": 42}, {"duration": 0.5, "on": 0.5, "velocity": 95, "tagsIdx": [0], "pitch": 42}, {"duration": 0.5, "on": 1.0, "velocity": 95, "tagsIdx": [0], "pitch": 42}, {"duration": 0.5, "on": 1.0, "velocity": 95, "tagsIdx": [1], "pitch": 39}, {"duration": 0.5, "on": 1.0, "velocity": 95, "tagsIdx": [2], "pitch": 40}, {"duration": 0.5, "on": 1.5, "velocity": 95, "tagsIdx": [0], "pitch": 42}, {"duration": 0.5, "on": 2.0, "velocity": 95, "tagsIdx": [0], "pitch": 42}, {"duration": 0.5, "on": 2.5, "velocity": 95, "tagsIdx": [0], "pitch": 42}, {"duration": 0.5, "on": 3.0, "velocity": 95, "tagsIdx": [0], "pitch": 42}, {"duration": 0.5, "on": 3.0, "velocity": 95, "tagsIdx": [1], "pitch": 39}, {"duration": 0.5, "on": 3.0, "velocity": 95, "tagsIdx": [2], "pitch": 40}, {"duration": 0.25, "on": 3.5, "velocity": 95, "tagsIdx": [0], "pitch": 42}, {"duration": 0.25, "on": 3.75, "velocity": 95, "tagsIdx": [0], "pitch": 42}], "eventTags": ["ClosedHH", "Clap", "Clave"], "timeInfo": {"duration": 4, "bpm": 120.0}}, {"eventList": [{"duration": 0.5, "on": 0.0, "velocity": 95, "tagsIdx": [0], "pitch": 42}, {"duration": 0.5, "on": 0.5, "velocity": 95, "tagsIdx": [0], "pitch": 42}, {"duration": 0.5, "on": 1.0, "velocity": 95, "tagsIdx": [0], "pitch": 42}, {"duration": 0.5, "on": 1.0, "velocity": 95, "tagsIdx": [1], "pitch": 39}, {"duration": 0.5, "on": 1.0, "velocity": 95, "tagsIdx": [2], "pitch": 40}, {"duration": 0.5, "on": 1.5, "velocity": 95, "tagsIdx": [0], "pitch": 42}, {"duration": 0.5, "on": 2.0, "velocity": 95, "tagsIdx": [0], "pitch": 42}, {"duration": 0.5, "on": 2.5, "velocity": 95, "tagsIdx": [0], "pitch": 42}, {"duration": 0.5, "on": 3.0, "velocity": 95, "tagsIdx": [0], "pitch": 42}, {"duration": 0.5, "on": 3.0, "velocity": 95, "tagsIdx": [1], "pitch": 39}, {"duration": 0.5, "on": 3.0, "velocity": 95, "tagsIdx": [2], "pitch": 40}, {"duration": 0.25, "on": 3.5, "velocity": 95, "tagsIdx": [0], "pitch": 42}, {"duration": 0.25, "on": 3.75, "velocity": 95, "tagsIdx": [0], "pitch": 42}], "eventTags": ["ClosedHH", "Clap", "Clave"], "timeInfo": {"duration": 4, "bpm": 120.0}}, {"eventList": [{"duration": 0.125, "on": 0.0, "velocity": 100, "tagsIdx": [0], "pitch": 42}, {"duration": 0.125, "on": 0.5, "velocity": 100, "tagsIdx": [0], "pitch": 42}, {"duration": 0.25, "on": 1.0, "velocity": 111, "tagsIdx": [1], "pitch": 36}, {"duration": 0.25, "on": 1.0, "velocity": 127, "tagsIdx": [0], "pitch": 42}, {"duration": 0.25, "on": 1.25, "velocity": 127, "tagsIdx": [0], "pitch": 42}, {"duration": 0.25, "on": 1.5, "velocity": 111, "tagsIdx": [0], "pitch": 42}, {"duration": 0.25, "on": 1.75, "velocity": 95, "tagsIdx": [0], "pitch": 42}, {"duration": 0.25, "on": 2.0, "velocity": 95, "tagsIdx": [2], "pitch": 38}, {"duration": 0.25, "on": 2.0, "velocity": 95, "tagsIdx": [0], "pitch": 42}, {"duration": 0.25, "on": 2.0, "velocity": 63, "tagsIdx": [3], "pitch": 39}, {"duration": 0.25, "on": 2.25, "velocity": 63, "tagsIdx": [0], "pitch": 42}, {"duration": 0.25, "on": 2.5, "velocity": 95, "tagsIdx": [0], "pitch": 42}, {"duration": 0.25, "on": 2.75, "velocity": 95, "tagsIdx": [0], "pitch": 42}, {"duration": 0.25, "on": 3.0, "velocity": 95, "tagsIdx": [0], "pitch": 42}, {"duration": 0.25, "on": 3.25, "velocity": 95, "tagsIdx": [0], "pitch": 42}, {"duration": 0.25, "on": 3.5, "velocity": 95, "tagsIdx": [1], "pitch": 36}, {"duration": 0.25, "on": 3.5, "velocity": 95, "tagsIdx": [0], "pitch": 42}, {"duration": 0.25, "on": 3.5, "velocity": 111, "tagsIdx": [4], "pitch": 46}, {"duration": 0.25, "on": 3.75, "velocity": 95, "tagsIdx": [0], "pitch": 42}], "eventTags": ["ClosedHH", "Kick", "Snare", "Clap", "OpenHH"], "timeInfo": {"duration": 4, "bpm": 120.0}}, {"eventList": [{"duration": 0.125, "on": 0.0, "velocity": 100, "tagsIdx": [0], "pitch": 42}, {"duration": 0.125, "on": 0.5, "velocity": 100, "tagsIdx": [0], "pitch": 42}, {"duration": 0.125, "on": 1.0, "velocity": 100, "tagsIdx": [0], "pitch": 42}, {"duration": 0.125, "on": 1.0, "velocity": 100, "tagsIdx": [1], "pitch": 39}, {"duration": 0.125, "on": 1.5, "velocity": 100, "tagsIdx": [0], "pitch": 42}, {"duration": 0.125, "on": 2.0, "velocity": 100, "tagsIdx": [0], "pitch": 42}, {"duration": 0.125, "on": 2.5, "velocity": 100, "tagsIdx": [0], "pitch": 42}, {"duration": 0.125, "on": 3.0, "velocity": 100, "tagsIdx": [0], "pitch": 42}, {"duration": 0.125, "on": 3.0, "velocity": 100, "tagsIdx": [1], "pitch": 39}, {"duration": 0.125, "on": 3.5, "velocity": 100, "tagsIdx": [0], "pitch": 42}, {"duration": 0.125, "on": 3.75, "velocity": 100, "tagsIdx": [0], "pitch": 42}], "eventTags": ["ClosedHH", "Clap"], "timeInfo": {"duration": 4, "bpm": 120.0}}, {"eventList": [{"duration": 0.25, "on": 0.0, "velocity": 95, "tagsIdx": [0], "pitch": 38}, {"duration": 0.25, "on": 0.0, "velocity": 95, "tagsIdx": [1], "pitch": 42}, {"duration": 0.25, "on": 0.0, "velocity": 63, "tagsIdx": [2], "pitch": 39}, {"duration": 0.25, "on": 0.25, "velocity": 111, "tagsIdx": [3], "pitch": 36}, {"duration": 0.25, "on": 0.25, "velocity": 95, "tagsIdx": [1], "pitch": 42}, {"duration": 0.25, "on": 0.5, "velocity": 95, "tagsIdx": [1], "pitch": 42}, {"duration": 0.25, "on": 0.75, "velocity": 95, "tagsIdx": [1], "pitch": 42}, {"duration": 0.25, "on": 1.0, "velocity": 111, "tagsIdx": [3], "pitch": 36}, {"duration": 0.25, "on": 1.0, "velocity": 127, "tagsIdx": [1], "pitch": 42}, {"duration": 0.25, "on": 1.25, "velocity": 127, "tagsIdx": [1], "pitch": 42}, {"duration": 0.25, "on": 1.5, "velocity": 111, "tagsIdx": [1], "pitch": 42}, {"duration": 0.25, "on": 1.75, "velocity": 95, "tagsIdx": [1], "pitch": 42}, {"duration": 0.25, "on": 2.0, "velocity": 95, "tagsIdx": [0], "pitch": 38}, {"duration": 0.25, "on": 2.0, "velocity": 95, "tagsIdx": [1], "pitch": 42}, {"duration": 0.25, "on": 2.0, "velocity": 63, "tagsIdx": [2], "pitch": 39}, {"duration": 0.25, "on": 2.25, "velocity": 63, "tagsIdx": [1], "pitch": 42}, {"duration": 0.25, "on": 2.5, "velocity": 95, "tagsIdx": [1], "pitch": 42}, {"duration": 0.25, "on": 2.75, "velocity": 95, "tagsIdx": [1], "pitch": 42}, {"duration": 0.25, "on": 3.0, "velocity": 95, "tagsIdx": [1], "pitch": 42}, {"duration": 0.25, "on": 3.25, "velocity": 95, "tagsIdx": [1], "pitch": 42}, {"duration": 0.25, "on": 3.5, "velocity": 95, "tagsIdx": [3], "pitch": 36}, {"duration": 0.25, "on": 3.5, "velocity": 95, "tagsIdx": [1], "pitch": 42}, {"duration": 0.25, "on": 3.5, "velocity": 111, "tagsIdx": [4], "pitch": 46}, {"duration": 0.25, "on": 3.75, "velocity": 95, "tagsIdx": [1], "pitch": 42}], "eventTags": ["Snare", "ClosedHH", "Clap", "Kick", "OpenHH"], "timeInfo": {"duration": 4, "bpm": 120.0}}, {"eventList": [{"duration": 0.25, "on": 0.0, "velocity": 95, "tagsIdx": [0], "pitch": 38}, {"duration": 0.25, "on": 0.0, "velocity": 95, "tagsIdx": [1], "pitch": 42}, {"duration": 0.25, "on": 0.0, "velocity": 63, "tagsIdx": [2], "pitch": 39}, {"duration": 0.25, "on": 0.25, "velocity": 111, "tagsIdx": [3], "pitch": 36}, {"duration": 0.25, "on": 0.25, "velocity": 95, "tagsIdx": [1], "pitch": 42}, {"duration": 0.25, "on": 0.5, "velocity": 95, "tagsIdx": [1], "pitch": 42}, {"duration": 0.25, "on": 0.75, "velocity": 95, "tagsIdx": [1], "pitch": 42}, {"duration": 0.25, "on": 1.0, "velocity": 111, "tagsIdx": [3], "pitch": 36}, {"duration": 0.25, "on": 1.0, "velocity": 127, "tagsIdx": [1], "pitch": 42}, {"duration": 0.25, "on": 1.25, "velocity": 127, "tagsIdx": [1], "pitch": 42}, {"duration": 0.25, "on": 1.5, "velocity": 127, "tagsIdx": [1], "pitch": 42}, {"duration": 0.25, "on": 1.75, "velocity": 95, "tagsIdx": [1], "pitch": 42}, {"duration": 0.25, "on": 2.0, "velocity": 95, "tagsIdx": [0], "pitch": 38}, {"duration": 0.25, "on": 2.0, "velocity": 95, "tagsIdx": [1], "pitch": 42}, {"duration": 0.25, "on": 2.0, "velocity": 63, "tagsIdx": [2], "pitch": 39}, {"duration": 0.25, "on": 2.25, "velocity": 95, "tagsIdx": [1], "pitch": 42}, {"duration": 0.25, "on": 2.5, "velocity": 95, "tagsIdx": [1], "pitch": 42}, {"duration": 0.25, "on": 2.75, "velocity": 95, "tagsIdx": [1], "pitch": 42}, {"duration": 0.25, "on": 3.0, "velocity": 111, "tagsIdx": [3], "pitch": 36}, {"duration": 0.25, "on": 3.0, "velocity": 95, "tagsIdx": [1], "pitch": 42}, {"duration": 0.25, "on": 3.25, "velocity": 95, "tagsIdx": [1], "pitch": 42}, {"duration": 0.25, "on": 3.5, "velocity": 111, "tagsIdx": [3], "pitch": 36}, {"duration": 0.25, "on": 3.5, "velocity": 79, "tagsIdx": [4], "pitch": 49}, {"duration": 0.25, "on": 3.5, "velocity": 111, "tagsIdx": [1], "pitch": 42}, {"duration": 0.25, "on": 3.5, "velocity": 111, "tagsIdx": [5], "pitch": 46}, {"duration": 0.25, "on": 3.75, "velocity": 95, "tagsIdx": [1], "pitch": 42}], "eventTags": ["Snare", "ClosedHH", "Clap", "Kick", "Cymbal", "OpenHH"], "timeInfo": {"duration": 4, "bpm": 120.0}}, {"eventList": [{"duration": 0.5, "on": 0.0, "velocity": 95, "tagsIdx": [0], "pitch": 42}, {"duration": 0.5, "on": 0.5, "velocity": 95, "tagsIdx": [0], "pitch": 42}, {"duration": 0.5, "on": 1.0, "velocity": 95, "tagsIdx": [0], "pitch": 42}, {"duration": 0.5, "on": 1.0, "velocity": 95, "tagsIdx": [1], "pitch": 39}, {"duration": 0.5, "on": 1.0, "velocity": 95, "tagsIdx": [2], "pitch": 40}, {"duration": 0.5, "on": 1.5, "velocity": 95, "tagsIdx": [0], "pitch": 42}, {"duration": 0.5, "on": 2.0, "velocity": 95, "tagsIdx": [0], "pitch": 42}, {"duration": 0.5, "on": 2.5, "velocity": 95, "tagsIdx": [0], "pitch": 42}, {"duration": 0.5, "on": 3.0, "velocity": 95, "tagsIdx": [0], "pitch": 42}, {"duration": 0.5, "on": 3.0, "velocity": 95, "tagsIdx": [1], "pitch": 39}, {"duration": 0.5, "on": 3.0, "velocity": 95, "tagsIdx": [2], "pitch": 40}, {"duration": 0.25, "on": 3.5, "velocity": 95, "tagsIdx": [0], "pitch": 42}, {"duration": 0.25, "on": 3.75, "velocity": 95, "tagsIdx": [0], "pitch": 42}], "eventTags": ["ClosedHH", "Clap", "Clave"], "timeInfo": {"duration": 4, "bpm": 120.0}}, {"eventList": [{"duration": 0.5, "on": 0.0, "velocity": 95, "tagsIdx": [0], "pitch": 42}, {"duration": 0.5, "on": 0.5, "velocity": 95, "tagsIdx": [0], "pitch": 42}, {"duration": 0.5, "on": 1.0, "velocity": 95, "tagsIdx": [0], "pitch": 42}, {"duration": 0.5, "on": 1.0, "velocity": 95, "tagsIdx": [1], "pitch": 39}, {"duration": 0.5, "on": 1.0, "velocity": 95, "tagsIdx": [2], "pitch": 40}, {"duration": 0.5, "on": 1.5, "velocity": 95, "tagsIdx": [0], "pitch": 42}, {"duration": 0.5, "on": 2.0, "velocity": 95, "tagsIdx": [0], "pitch": 42}, {"duration": 0.5, "on": 2.5, "velocity": 95, "tagsIdx": [3], "pitch": 46}, {"duration": 0.25, "on": 3.0, "velocity": 95, "tagsIdx": [1], "pitch": 39}, {"duration": 0.25, "on": 3.0, "velocity": 95, "tagsIdx": [2], "pitch": 40}, {"duration": 0.25, "on": 3.25, "velocity": 95, "tagsIdx": [0], "pitch": 42}, {"duration": 0.5, "on": 3.5, "velocity": 95, "tagsIdx": [3], "pitch": 46}], "eventTags": ["ClosedHH", "Clap", "Clave", "OpenHH"], "timeInfo": {"duration": 4, "bpm": 120.0}}, {"eventList": [{"duration": 0.5, "on": 0.0, "velocity": 95, "tagsIdx": [0], "pitch": 42}, {"duration": 0.5, "on": 0.5, "velocity": 95, "tagsIdx": [0], "pitch": 42}, {"duration": 0.5, "on": 1.0, "velocity": 95, "tagsIdx": [0], "pitch": 42}, {"duration": 0.5, "on": 1.0, "velocity": 95, "tagsIdx": [1], "pitch": 39}, {"duration": 0.5, "on": 1.0, "velocity": 95, "tagsIdx": [2], "pitch": 40}, {"duration": 0.5, "on": 1.5, "velocity": 95, "tagsIdx": [0], "pitch": 42}, {"duration": 0.5, "on": 2.0, "velocity": 95, "tagsIdx": [0], "pitch": 42}, {"duration": 0.5, "on": 2.5, "velocity": 95, "tagsIdx": [0], "pitch": 42}, {"duration": 0.5, "on": 3.0, "velocity": 95, "tagsIdx": [0], "pitch": 42}, {"duration": 0.5, "on": 3.0, "velocity": 95, "tagsIdx": [1], "pitch": 39}, {"duration": 0.5, "on": 3.0, "velocity": 95, "tagsIdx": [2], "pitch": 40}, {"duration": 0.25, "on": 3.5, "velocity": 95, "tagsIdx": [0], "pitch": 42}, {"duration": 0.25, "on": 3.75, "velocity": 95, "tagsIdx": [0], "pitch": 42}], "eventTags": ["ClosedHH", "Clap", "Clave"], "timeInfo": {"duration": 4, "bpm": 120.0}}, {"eventList": [{"duration": 0.5, "on": 0.0, "velocity": 95, "tagsIdx": [0], "pitch": 42}, {"duration": 0.5, "on": 0.5, "velocity": 95, "tagsIdx": [0], "pitch": 42}, {"duration": 0.5, "on": 1.0, "velocity": 95, "tagsIdx": [0], "pitch": 42}, {"duration": 0.5, "on": 1.0, "velocity": 95, "tagsIdx": [1], "pitch": 39}, {"duration": 0.5, "on": 1.0, "velocity": 95, "tagsIdx": [2], "pitch": 40}, {"duration": 0.5, "on": 1.5, "velocity": 95, "tagsIdx": [0], "pitch": 42}, {"duration": 0.5, "on": 2.0, "velocity": 95, "tagsIdx": [0], "pitch": 42}, {"duration": 0.5, "on": 2.5, "velocity": 95, "tagsIdx": [0], "pitch": 42}, {"duration": 0.5, "on": 3.0, "velocity": 95, "tagsIdx": [0], "pitch": 42}, {"duration": 0.5, "on": 3.0, "velocity": 95, "tagsIdx": [1], "pitch": 39}, {"duration": 0.5, "on": 3.0, "velocity": 95, "tagsIdx": [2], "pitch": 40}, {"duration": 0.25, "on": 3.5, "velocity": 95, "tagsIdx": [0], "pitch": 42}, {"duration": 0.25, "on": 3.75, "velocity": 95, "tagsIdx": [0], "pitch": 42}], "eventTags": ["ClosedHH", "Clap", "Clave"], "timeInfo": {"duration": 4, "bpm": 120.0}}, {"eventList": [{"duration": 0.5, "on": 0.0, "velocity": 95, "tagsIdx": [0], "pitch": 42}, {"duration": 0.5, "on": 0.5, "velocity": 95, "tagsIdx": [0], "pitch": 42}, {"duration": 0.5, "on": 1.0, "velocity": 95, "tagsIdx": [0], "pitch": 42}, {"duration": 0.5, "on": 1.0, "velocity": 95, "tagsIdx": [1], "pitch": 39}, {"duration": 0.5, "on": 1.0, "velocity": 95, "tagsIdx": [2], "pitch": 40}, {"duration": 0.5, "on": 1.5, "velocity": 95, "tagsIdx": [0], "pitch": 42}, {"duration": 0.5, "on": 2.0, "velocity": 95, "tagsIdx": [0], "pitch": 42}, {"duration": 0.5, "on": 2.5, "velocity": 95, "tagsIdx": [0], "pitch": 42}, {"duration": 0.5, "on": 3.0, "velocity": 95, "tagsIdx": [0], "pitch": 42}, {"duration": 0.5, "on": 3.0, "velocity": 95, "tagsIdx": [1], "pitch": 39}, {"duration": 0.5, "on": 3.0, "velocity": 95, "tagsIdx": [2], "pitch": 40}, {"duration": 0.25, "on": 3.5, "velocity": 95, "tagsIdx": [0], "pitch": 42}, {"duration": 0.25, "on": 3.75, "velocity": 95, "tagsIdx": [0], "pitch": 42}], "eventTags": ["ClosedHH", "Clap", "Clave"], "timeInfo": {"duration": 4, "bpm": 120.0}}, {"eventList": [{"duration": 0.5, "on": 0.0, "velocity": 95, "tagsIdx": [0], "pitch": 42}, {"duration": 0.5, "on": 0.5, "velocity": 95, "tagsIdx": [0], "pitch": 42}, {"duration": 0.5, "on": 1.0, "velocity": 95, "tagsIdx": [0], "pitch": 42}, {"duration": 0.5, "on": 1.0, "velocity": 95, "tagsIdx": [1], "pitch": 39}, {"duration": 0.5, "on": 1.0, "velocity": 95, "tagsIdx": [2], "pitch": 40}, {"duration": 0.5, "on": 1.5, "velocity": 95, "tagsIdx": [0], "pitch": 42}, {"duration": 0.25, "on": 2.0, "velocity": 47, "tagsIdx": [0], "pitch": 42}, {"duration": 0.25, "on": 2.25, "velocity": 95, "tagsIdx": [0], "pitch": 42}, {"duration": 0.5, "on": 2.5, "velocity": 47, "tagsIdx": [0], "pitch": 42}, {"duration": 0.5, "on": 3.0, "velocity": 95, "tagsIdx": [0], "pitch": 42}, {"duration": 0.5, "on": 3.0, "velocity": 95, "tagsIdx": [1], "pitch": 39}, {"duration": 0.5, "on": 3.0, "velocity": 95, "tagsIdx": [2], "pitch": 40}, {"duration": 0.5, "on": 3.5, "velocity": 95, "tagsIdx": [3], "pitch": 46}], "eventTags": ["ClosedHH", "Clap", "Clave", "OpenHH"], "timeInfo": {"duration": 4, "bpm": 120.0}}, {"eventList": [{"duration": 0.5, "on": 0.0, "velocity": 95, "tagsIdx": [0], "pitch": 49}, {"duration": 0.5, "on": 0.5, "velocity": 95, "tagsIdx": [1], "pitch": 42}, {"duration": 0.5, "on": 1.0, "velocity": 95, "tagsIdx": [1], "pitch": 42}, {"duration": 0.5, "on": 1.0, "velocity": 95, "tagsIdx": [2], "pitch": 39}, {"duration": 0.5, "on": 1.0, "velocity": 95, "tagsIdx": [3], "pitch": 40}, {"duration": 0.5, "on": 1.5, "velocity": 95, "tagsIdx": [1], "pitch": 42}, {"duration": 0.5, "on": 2.0, "velocity": 95, "tagsIdx": [1], "pitch": 42}, {"duration": 0.5, "on": 2.5, "velocity": 95, "tagsIdx": [1], "pitch": 42}, {"duration": 0.5, "on": 3.0, "velocity": 95, "tagsIdx": [1], "pitch": 42}, {"duration": 0.5, "on": 3.0, "velocity": 95, "tagsIdx": [2], "pitch": 39}, {"duration": 0.5, "on": 3.0, "velocity": 95, "tagsIdx": [3], "pitch": 40}, {"duration": 0.25, "on": 3.5, "velocity": 95, "tagsIdx": [1], "pitch": 42}, {"duration": 0.25, "on": 3.75, "velocity": 95, "tagsIdx": [1], "pitch": 42}], "eventTags": ["Cymbal", "ClosedHH", "Clap", "Clave"], "timeInfo": {"duration": 4, "bpm": 120.0}}, {"eventList": [{"duration": 0.5, "on": 0.0, "velocity": 95, "tagsIdx": [0], "pitch": 42}, {"duration": 0.5, "on": 0.5, "velocity": 95, "tagsIdx": [0], "pitch": 42}, {"duration": 0.5, "on": 1.0, "velocity": 95, "tagsIdx": [0], "pitch": 42}, {"duration": 0.5, "on": 1.0, "velocity": 95, "tagsIdx": [1], "pitch": 39}, {"duration": 0.5, "on": 1.0, "velocity": 95, "tagsIdx": [2], "pitch": 40}, {"duration": 0.5, "on": 1.5, "velocity": 95, "tagsIdx": [0], "pitch": 42}, {"duration": 0.5, "on": 2.0, "velocity": 95, "tagsIdx": [0], "pitch": 42}, {"duration": 0.5, "on": 2.5, "velocity": 95, "tagsIdx": [0], "pitch": 42}, {"duration": 0.5, "on": 3.0, "velocity": 95, "tagsIdx": [0], "pitch": 42}, {"duration": 0.5, "on": 3.0, "velocity": 95, "tagsIdx": [1], "pitch": 39}, {"duration": 0.5, "on": 3.0, "velocity": 95, "tagsIdx": [2], "pitch": 40}, {"duration": 0.25, "on": 3.5, "velocity": 95, "tagsIdx": [0], "pitch": 42}, {"duration": 0.25, "on": 3.75, "velocity": 95, "tagsIdx": [0], "pitch": 42}], "eventTags": ["ClosedHH", "Clap", "Clave"], "timeInfo": {"duration": 4, "bpm": 120.0}}, {"eventList": [{"duration": 0.11250000000001137, "on": 0.0, "velocity": 120, "tagsIdx": [0], "pitch": 36}, {"duration": 0.11250000000001137, "on": 0.5, "velocity": 120, "tagsIdx": [1], "pitch": 44}, {"duration": 0.11250000000001137, "on": 1.0, "velocity": 120, "tagsIdx": [2], "pitch": 39}, {"duration": 0.11250000000001137, "on": 1.5, "velocity": 120, "tagsIdx": [1], "pitch": 44}, {"duration": 0.11250000000001137, "on": 2.0, "velocity": 120, "tagsIdx": [0], "pitch": 36}, {"duration": 0.11250000000001137, "on": 2.5, "velocity": 120, "tagsIdx": [1], "pitch": 44}, {"duration": 0.11250000000001137, "on": 3.0, "velocity": 120, "tagsIdx": [2], "pitch": 39}, {"duration": 0.11250000000001137, "on": 3.0, "velocity": 120, "tagsIdx": [3], "pitch": 40}, {"duration": 1.0, "on": 3.0, "velocity": 120, "tagsIdx": [4], "pitch": 46}], "eventTags": ["Kick", "Shake", "Clap", "Clave", "OpenHH"], "timeInfo": {"duration": 4, "bpm": 120.0}}, {"eventList": [{"duration": 0.11250000000001137, "on": 0.0, "velocity": 120, "tagsIdx": [0], "pitch": 36}, {"duration": 0.11250000000001137, "on": 0.5, "velocity": 120, "tagsIdx": [1], "pitch": 44}, {"duration": 0.11250000000001137, "on": 1.0, "velocity": 120, "tagsIdx": [2], "pitch": 39}, {"duration": 0.11250000000001137, "on": 1.5, "velocity": 120, "tagsIdx": [1], "pitch": 44}, {"duration": 0.11250000000001137, "on": 2.0, "velocity": 120, "tagsIdx": [0], "pitch": 36}, {"duration": 0.11250000000001137, "on": 2.5, "velocity": 120, "tagsIdx": [1], "pitch": 44}, {"duration": 0.11250000000001137, "on": 3.0, "velocity": 120, "tagsIdx": [2], "pitch": 39}, {"duration": 0.11250000000001137, "on": 3.5, "velocity": 120, "tagsIdx": [1], "pitch": 44}], "eventTags": ["Kick", "Shake", "Clap"], "timeInfo": {"duration": 4, "bpm": 120.0}}, {"eventList": [{"duration": 0.11250000000001137, "on": 0.0, "velocity": 120, "tagsIdx": [0], "pitch": 36}, {"duration": 0.11250000000001137, "on": 0.5, "velocity": 120, "tagsIdx": [1], "pitch": 44}, {"duration": 0.11250000000001137, "on": 1.0, "velocity": 120, "tagsIdx": [2], "pitch": 39}, {"duration": 0.11250000000001137, "on": 1.5, "velocity": 120, "tagsIdx": [1], "pitch": 44}, {"duration": 0.11250000000001137, "on": 2.0, "velocity": 120, "tagsIdx": [0], "pitch": 36}, {"duration": 0.11250000000001137, "on": 2.5, "velocity": 120, "tagsIdx": [1], "pitch": 44}, {"duration": 0.11250000000001137, "on": 3.0, "velocity": 120, "tagsIdx": [2], "pitch": 39}, {"duration": 0.11250000000001137, "on": 3.5, "velocity": 120, "tagsIdx": [1], "pitch": 44}], "eventTags": ["Kick", "Shake", "Clap"], "timeInfo": {"duration": 4, "bpm": 120.0}}, {"eventList": [{"duration": 0.11250000000001137, "on": 0.0, "velocity": 120, "tagsIdx": [0], "pitch": 36}, {"duration": 0.11250000000001137, "on": 0.5, "velocity": 120, "tagsIdx": [1], "pitch": 44}, {"duration": 0.11250000000001137, "on": 1.0, "velocity": 120, "tagsIdx": [2], "pitch": 39}, {"duration": 0.11250000000001137, "on": 1.5, "velocity": 120, "tagsIdx": [1], "pitch": 44}, {"duration": 0.11250000000001137, "on": 2.0, "velocity": 120, "tagsIdx": [0], "pitch": 36}, {"duration": 0.11250000000001137, "on": 2.5, "velocity": 120, "tagsIdx": [1], "pitch": 44}, {"duration": 0.11250000000001137, "on": 3.0, "velocity": 120, "tagsIdx": [2], "pitch": 39}, {"duration": 0.11250000000001137, "on": 3.5, "velocity": 120, "tagsIdx": [1], "pitch": 44}], "eventTags": ["Kick", "Shake", "Clap"], "timeInfo": {"duration": 4, "bpm": 120.0}}, {"eventList": [{"duration": 0.11249999999999716, "on": 0.0, "velocity": 120, "tagsIdx": [0], "pitch": 36}, {"duration": 0.11249999999999716, "on": 0.5, "velocity": 120, "tagsIdx": [1], "pitch": 44}, {"duration": 0.11249999999999716, "on": 1.0, "velocity": 120, "tagsIdx": [2], "pitch": 40}, {"duration": 0.11249999999999716, "on": 1.0, "velocity": 120, "tagsIdx": [3], "pitch": 39}, {"duration": 0.11249999999999716, "on": 1.5, "velocity": 120, "tagsIdx": [1], "pitch": 44}, {"duration": 0.11249999999999716, "on": 2.0, "velocity": 120, "tagsIdx": [0], "pitch": 36}, {"duration": 0.11249999999999716, "on": 2.5, "velocity": 120, "tagsIdx": [1], "pitch": 44}, {"duration": 0.11249999999999716, "on": 3.0, "velocity": 120, "tagsIdx": [3], "pitch": 39}, {"duration": 0.11249999999999716, "on": 3.0, "velocity": 120, "tagsIdx": [2], "pitch": 40}, {"duration": 0.11249999999999716, "on": 3.5, "velocity": 120, "tagsIdx": [1], "pitch": 44}], "eventTags": ["Kick", "Shake", "Clave", "Clap"], "timeInfo": {"duration": 4, "bpm": 120.0}}, {"eventList": [{"duration": 0.11249999999999716, "on": 0.0, "velocity": 120, "tagsIdx": [0], "pitch": 36}, {"duration": 0.11249999999999716, "on": 0.5, "velocity": 120, "tagsIdx": [1], "pitch": 44}, {"duration": 0.11249999999999716, "on": 1.0, "velocity": 120, "tagsIdx": [2], "pitch": 40}, {"duration": 0.11249999999999716, "on": 1.0, "velocity": 120, "tagsIdx": [3], "pitch": 39}, {"duration": 0.11249999999999716, "on": 1.5, "velocity": 120, "tagsIdx": [1], "pitch": 44}, {"duration": 0.11249999999999716, "on": 2.0, "velocity": 120, "tagsIdx": [0], "pitch": 36}, {"duration": 0.11249999999999716, "on": 2.5, "velocity": 120, "tagsIdx": [1], "pitch": 44}, {"duration": 0.11249999999999716, "on": 3.0, "velocity": 120, "tagsIdx": [3], "pitch": 39}, {"duration": 0.11249999999999716, "on": 3.0, "velocity": 120, "tagsIdx": [2], "pitch": 40}, {"duration": 0.11249999999999716, "on": 3.5, "velocity": 120, "tagsIdx": [1], "pitch": 44}], "eventTags": ["Kick", "Shake", "Clave", "Clap"], "timeInfo": {"duration": 4, "bpm": 120.0}}, {"eventList": [{"duration": 0.11250000000001137, "on": 0.0, "velocity": 120, "tagsIdx": [0], "pitch": 36}, {"duration": 0.11250000000001137, "on": 0.5, "velocity": 120, "tagsIdx": [1], "pitch": 44}, {"duration": 0.11250000000001137, "on": 1.0, "velocity": 120, "tagsIdx": [2], "pitch": 39}, {"duration": 0.11250000000001137, "on": 1.5, "velocity": 120, "tagsIdx": [1], "pitch": 44}, {"duration": 0.11250000000001137, "on": 2.0, "velocity": 120, "tagsIdx": [0], "pitch": 36}, {"duration": 0.11250000000001137, "on": 2.5, "velocity": 120, "tagsIdx": [1], "pitch": 44}, {"duration": 0.11250000000001137, "on": 3.0, "velocity": 120, "tagsIdx": [2], "pitch": 39}, {"duration": 0.11250000000001137, "on": 3.5, "velocity": 120, "tagsIdx": [1], "pitch": 44}], "eventTags": ["Kick", "Shake", "Clap"], "timeInfo": {"duration": 4, "bpm": 120.0}}, {"eventList": [{"duration": 0.11250000000001137, "on": 0.0, "velocity": 120, "tagsIdx": [0], "pitch": 36}, {"duration": 0.11250000000001137, "on": 0.5, "velocity": 120, "tagsIdx": [1], "pitch": 44}, {"duration": 0.11250000000001137, "on": 1.0, "velocity": 120, "tagsIdx": [2], "pitch": 39}, {"duration": 0.11250000000001137, "on": 1.5, "velocity": 120, "tagsIdx": [1], "pitch": 44}, {"duration": 0.11250000000001137, "on": 2.0, "velocity": 120, "tagsIdx": [0], "pitch": 36}, {"duration": 0.11250000000001137, "on": 2.5, "velocity": 120, "tagsIdx": [1], "pitch": 44}, {"duration": 0.11250000000001137, "on": 3.0, "velocity": 120, "tagsIdx": [2], "pitch": 39}, {"duration": 0.11250000000001137, "on": 3.5, "velocity": 120, "tagsIdx": [1], "pitch": 44}], "eventTags": ["Kick", "Shake", "Clap"], "timeInfo": {"duration": 4, "bpm": 120.0}}, {"eventList": [{"duration": 0.11250000000001137, "on": 0.0, "velocity": 120, "tagsIdx": [0], "pitch": 36}, {"duration": 0.11250000000001137, "on": 0.5, "velocity": 120, "tagsIdx": [1], "pitch": 44}, {"duration": 0.11250000000001137, "on": 1.0, "velocity": 120, "tagsIdx": [2], "pitch": 39}, {"duration": 0.11250000000001137, "on": 1.5, "velocity": 120, "tagsIdx": [1], "pitch": 44}, {"duration": 0.11250000000001137, "on": 2.0, "velocity": 120, "tagsIdx": [0], "pitch": 36}, {"duration": 0.11250000000001137, "on": 2.5, "velocity": 120, "tagsIdx": [1], "pitch": 44}, {"duration": 0.11250000000001137, "on": 3.0, "velocity": 120, "tagsIdx": [2], "pitch": 39}, {"duration": 0.11250000000001137, "on": 3.5, "velocity": 120, "tagsIdx": [1], "pitch": 44}], "eventTags": ["Kick", "Shake", "Clap"], "timeInfo": {"duration": 4, "bpm": 120.0}}, {"eventList": [{"duration": 0.11250000000001137, "on": 0.0, "velocity": 120, "tagsIdx": [0], "pitch": 36}, {"duration": 0.11250000000001137, "on": 0.5, "velocity": 120, "tagsIdx": [1], "pitch": 44}, {"duration": 0.11250000000001137, "on": 1.0, "velocity": 120, "tagsIdx": [2], "pitch": 39}, {"duration": 0.11250000000001137, "on": 1.5, "velocity": 120, "tagsIdx": [1], "pitch": 44}, {"duration": 0.11250000000001137, "on": 2.0, "velocity": 120, "tagsIdx": [0], "pitch": 36}, {"duration": 0.11250000000001137, "on": 2.5, "velocity": 120, "tagsIdx": [1], "pitch": 44}, {"duration": 0.11250000000001137, "on": 3.0, "velocity": 120, "tagsIdx": [2], "pitch": 39}, {"duration": 0.11250000000001137, "on": 3.5, "velocity": 120, "tagsIdx": [1], "pitch": 44}], "eventTags": ["Kick", "Shake", "Clap"], "timeInfo": {"duration": 4, "bpm": 120.0}}, {"eventList": [{"duration": 0.25, "on": 0.0, "velocity": 95, "tagsIdx": [0], "pitch": 38}, {"duration": 0.25, "on": 0.0, "velocity": 95, "tagsIdx": [1], "pitch": 42}, {"duration": 0.25, "on": 0.0, "velocity": 63, "tagsIdx": [2], "pitch": 39}, {"duration": 0.25, "on": 0.25, "velocity": 111, "tagsIdx": [3], "pitch": 36}, {"duration": 0.25, "on": 0.25, "velocity": 95, "tagsIdx": [1], "pitch": 42}, {"duration": 0.25, "on": 0.5, "velocity": 95, "tagsIdx": [1], "pitch": 42}, {"duration": 0.25, "on": 0.75, "velocity": 95, "tagsIdx": [1], "pitch": 42}, {"duration": 0.25, "on": 1.0, "velocity": 111, "tagsIdx": [3], "pitch": 36}, {"duration": 0.25, "on": 1.0, "velocity": 127, "tagsIdx": [1], "pitch": 42}, {"duration": 0.25, "on": 1.25, "velocity": 127, "tagsIdx": [1], "pitch": 42}, {"duration": 0.25, "on": 2.0, "velocity": 95, "tagsIdx": [0], "pitch": 38}, {"duration": 0.25, "on": 2.0, "velocity": 95, "tagsIdx": [1], "pitch": 42}, {"duration": 0.25, "on": 2.0, "velocity": 47, "tagsIdx": [2], "pitch": 39}, {"duration": 0.25, "on": 3.0, "velocity": 95, "tagsIdx": [3], "pitch": 36}, {"duration": 0.25, "on": 3.0, "velocity": 95, "tagsIdx": [1], "pitch": 42}], "eventTags": ["Snare", "ClosedHH", "Clap", "Kick"], "timeInfo": {"duration": 4, "bpm": 120.0}}, {"eventList": [{"duration": 0.25, "on": 0.0, "velocity": 95, "tagsIdx": [0], "pitch": 38}, {"duration": 0.25, "on": 0.0, "velocity": 95, "tagsIdx": [1], "pitch": 42}, {"duration": 0.25, "on": 0.0, "velocity": 63, "tagsIdx": [2], "pitch": 39}, {"duration": 0.25, "on": 0.25, "velocity": 111, "tagsIdx": [3], "pitch": 36}, {"duration": 0.25, "on": 0.25, "velocity": 95, "tagsIdx": [1], "pitch": 42}, {"duration": 0.25, "on": 0.5, "velocity": 95, "tagsIdx": [1], "pitch": 42}, {"duration": 0.25, "on": 0.75, "velocity": 95, "tagsIdx": [1], "pitch": 42}, {"duration": 0.25, "on": 1.0, "velocity": 111, "tagsIdx": [3], "pitch": 36}, {"duration": 0.25, "on": 1.0, "velocity": 127, "tagsIdx": [1], "pitch": 42}, {"duration": 0.25, "on": 1.25, "velocity": 127, "tagsIdx": [1], "pitch": 42}, {"duration": 0.25, "on": 1.5, "velocity": 127, "tagsIdx": [1], "pitch": 42}, {"duration": 0.25, "on": 1.75, "velocity": 95, "tagsIdx": [1], "pitch": 42}, {"duration": 0.25, "on": 2.0, "velocity": 95, "tagsIdx": [0], "pitch": 38}, {"duration": 0.25, "on": 2.0, "velocity": 95, "tagsIdx": [1], "pitch": 42}, {"duration": 0.25, "on": 2.0, "velocity": 63, "tagsIdx": [2], "pitch": 39}, {"duration": 0.25, "on": 2.25, "velocity": 95, "tagsIdx": [1], "pitch": 42}, {"duration": 0.25, "on": 2.5, "velocity": 95, "tagsIdx": [1], "pitch": 42}, {"duration": 0.25, "on": 2.75, "velocity": 95, "tagsIdx": [1], "pitch": 42}, {"duration": 0.25, "on": 3.0, "velocity": 111, "tagsIdx": [3], "pitch": 36}, {"duration": 0.25, "on": 3.0, "velocity": 95, "tagsIdx": [1], "pitch": 42}, {"duration": 0.25, "on": 3.25, "velocity": 95, "tagsIdx": [1], "pitch": 42}, {"duration": 0.25, "on": 3.5, "velocity": 111, "tagsIdx": [3], "pitch": 36}, {"duration": 0.25, "on": 3.5, "velocity": 79, "tagsIdx": [4], "pitch": 49}, {"duration": 0.25, "on": 3.5, "velocity": 111, "tagsIdx": [1], "pitch": 42}, {"duration": 0.25, "on": 3.5, "velocity": 111, "tagsIdx": [5], "pitch": 46}, {"duration": 0.25, "on": 3.75, "velocity": 95, "tagsIdx": [1], "pitch": 42}], "eventTags": ["Snare", "ClosedHH", "Clap", "Kick", "Cymbal", "OpenHH"], "timeInfo": {"duration": 4, "bpm": 120.0}}, {"eventList": [{"duration": 0.125, "on": 0.0, "velocity": 100, "tagsIdx": [0], "pitch": 42}, {"duration": 0.125, "on": 0.5, "velocity": 100, "tagsIdx": [0], "pitch": 42}, {"duration": 0.125, "on": 1.0, "velocity": 100, "tagsIdx": [1], "pitch": 36}, {"duration": 0.125, "on": 1.0, "velocity": 100, "tagsIdx": [0], "pitch": 42}, {"duration": 0.125, "on": 1.0, "velocity": 100, "tagsIdx": [2], "pitch": 39}, {"duration": 0.125, "on": 1.5, "velocity": 100, "tagsIdx": [0], "pitch": 42}, {"duration": 0.125, "on": 2.0, "velocity": 100, "tagsIdx": [0], "pitch": 42}, {"duration": 0.125, "on": 2.5, "velocity": 100, "tagsIdx": [0], "pitch": 42}, {"duration": 0.125, "on": 3.0, "velocity": 100, "tagsIdx": [0], "pitch": 42}, {"duration": 0.125, "on": 3.0, "velocity": 100, "tagsIdx": [1], "pitch": 36}, {"duration": 0.125, "on": 3.0, "velocity": 100, "tagsIdx": [2], "pitch": 39}, {"duration": 0.25, "on": 3.5, "velocity": 100, "tagsIdx": [0], "pitch": 42}, {"duration": 0.25, "on": 3.75, "velocity": 100, "tagsIdx": [0], "pitch": 42}], "eventTags": ["ClosedHH", "Kick", "Clap"], "timeInfo": {"duration": 4, "bpm": 120.0}}, {"eventList": [{"duration": 0.125, "on": 0.0, "velocity": 100, "tagsIdx": [0], "pitch": 42}, {"duration": 0.125, "on": 0.5, "velocity": 100, "tagsIdx": [0], "pitch": 42}, {"duration": 0.125, "on": 1.0, "velocity": 100, "tagsIdx": [0], "pitch": 42}, {"duration": 0.125, "on": 1.0, "velocity": 100, "tagsIdx": [1], "pitch": 39}, {"duration": 0.125, "on": 1.5, "velocity": 100, "tagsIdx": [0], "pitch": 42}, {"duration": 0.125, "on": 2.0, "velocity": 100, "tagsIdx": [0], "pitch": 42}, {"duration": 0.125, "on": 2.5, "velocity": 100, "tagsIdx": [0], "pitch": 42}, {"duration": 0.125, "on": 3.0, "velocity": 100, "tagsIdx": [0], "pitch": 42}, {"duration": 0.125, "on": 3.0, "velocity": 100, "tagsIdx": [1], "pitch": 39}, {"duration": 0.125, "on": 3.5, "velocity": 100, "tagsIdx": [0], "pitch": 42}, {"duration": 0.125, "on": 3.75, "velocity": 100, "tagsIdx": [0], "pitch": 42}], "eventTags": ["ClosedHH", "Clap"], "timeInfo": {"duration": 4, "bpm": 120.0}}, {"eventList": [{"duration": 0.25, "on": 0.0, "velocity": 95, "tagsIdx": [0], "pitch": 49}, {"duration": 0.25, "on": 0.0, "velocity": 95, "tagsIdx": [1], "pitch": 46}, {"duration": 0.25, "on": 0.25, "velocity": 95, "tagsIdx": [2], "pitch": 42}, {"duration": 0.25, "on": 0.5, "velocity": 95, "tagsIdx": [2], "pitch": 42}, {"duration": 0.25, "on": 0.75, "velocity": 95, "tagsIdx": [2], "pitch": 42}, {"duration": 0.25, "on": 1.0, "velocity": 95, "tagsIdx": [1], "pitch": 46}, {"duration": 0.25, "on": 1.0, "velocity": 95, "tagsIdx": [3], "pitch": 39}, {"duration": 0.25, "on": 1.0, "velocity": 95, "tagsIdx": [4], "pitch": 40}, {"duration": 0.25, "on": 1.25, "velocity": 95, "tagsIdx": [2], "pitch": 42}, {"duration": 0.25, "on": 1.5, "velocity": 95, "tagsIdx": [2], "pitch": 42}, {"duration": 0.25, "on": 1.75, "velocity": 95, "tagsIdx": [2], "pitch": 42}, {"duration": 0.25, "on": 2.0, "velocity": 95, "tagsIdx": [1], "pitch": 46}, {"duration": 0.25, "on": 2.25, "velocity": 95, "tagsIdx": [2], "pitch": 42}, {"duration": 0.25, "on": 2.5, "velocity": 95, "tagsIdx": [2], "pitch": 42}, {"duration": 0.25, "on": 2.75, "velocity": 95, "tagsIdx": [2], "pitch": 42}, {"duration": 0.25, "on": 3.0, "velocity": 95, "tagsIdx": [1], "pitch": 46}, {"duration": 0.25, "on": 3.0, "velocity": 95, "tagsIdx": [3], "pitch": 39}, {"duration": 0.25, "on": 3.0, "velocity": 95, "tagsIdx": [4], "pitch": 40}, {"duration": 0.25, "on": 3.25, "velocity": 95, "tagsIdx": [2], "pitch": 42}, {"duration": 0.25, "on": 3.5, "velocity": 95, "tagsIdx": [2], "pitch": 42}, {"duration": 0.25, "on": 3.75, "velocity": 95, "tagsIdx": [2], "pitch": 42}], "eventTags": ["Cymbal", "OpenHH", "ClosedHH", "Clap", "Clave"], "timeInfo": {"duration": 4, "bpm": 120.0}}, {"eventList": [{"duration": 0.11249999999998295, "on": 0.0, "velocity": 120, "tagsIdx": [0], "pitch": 36}, {"duration": 0.11249999999998295, "on": 0.5, "velocity": 120, "tagsIdx": [1], "pitch": 44}, {"duration": 0.11249999999998295, "on": 1.0, "velocity": 120, "tagsIdx": [2], "pitch": 39}, {"duration": 0.11249999999998295, "on": 1.0, "velocity": 120, "tagsIdx": [3], "pitch": 40}, {"duration": 0.11249999999998295, "on": 1.5, "velocity": 120, "tagsIdx": [1], "pitch": 44}, {"duration": 0.11249999999998295, "on": 2.0, "velocity": 120, "tagsIdx": [0], "pitch": 36}, {"duration": 0.11249999999998295, "on": 2.5, "velocity": 120, "tagsIdx": [1], "pitch": 44}, {"duration": 0.11249999999998295, "on": 3.0, "velocity": 120, "tagsIdx": [2], "pitch": 39}, {"duration": 0.11249999999998295, "on": 3.0, "velocity": 120, "tagsIdx": [3], "pitch": 40}, {"duration": 0.11249999999998295, "on": 3.5, "velocity": 120, "tagsIdx": [1], "pitch": 44}], "eventTags": ["Kick", "Shake", "Clap", "Clave"], "timeInfo": {"duration": 4, "bpm": 120.0}}, {"eventList": [{"duration": 0.11249999999998295, "on": 0.0, "velocity": 120, "tagsIdx": [0], "pitch": 36}, {"duration": 0.11249999999998295, "on": 0.5, "velocity": 120, "tagsIdx": [1], "pitch": 44}, {"duration": 0.11249999999998295, "on": 1.0, "velocity": 120, "tagsIdx": [2], "pitch": 39}, {"duration": 0.11249999999998295, "on": 1.0, "velocity": 120, "tagsIdx": [3], "pitch": 40}, {"duration": 0.11249999999998295, "on": 1.5, "velocity": 120, "tagsIdx": [1], "pitch": 44}, {"duration": 0.11249999999998295, "on": 2.0, "velocity": 120, "tagsIdx": [0], "pitch": 36}, {"duration": 0.11249999999998295, "on": 2.5, "velocity": 120, "tagsIdx": [1], "pitch": 44}, {"duration": 0.11249999999998295, "on": 3.0, "velocity": 120, "tagsIdx": [2], "pitch": 39}, {"duration": 0.11249999999998295, "on": 3.0, "velocity": 120, "tagsIdx": [3], "pitch": 40}, {"duration": 0.11249999999998295, "on": 3.5, "velocity": 120, "tagsIdx": [1], "pitch": 44}], "eventTags": ["Kick", "Shake", "Clap", "Clave"], "timeInfo": {"duration": 4, "bpm": 120.0}}, {"eventList": [{"duration": 0.11249999999998295, "on": 0.0, "velocity": 120, "tagsIdx": [0], "pitch": 36}, {"duration": 0.11249999999998295, "on": 0.5, "velocity": 120, "tagsIdx": [1], "pitch": 44}, {"duration": 0.11249999999998295, "on": 1.0, "velocity": 120, "tagsIdx": [2], "pitch": 39}, {"duration": 0.11249999999998295, "on": 1.0, "velocity": 120, "tagsIdx": [3], "pitch": 40}, {"duration": 0.11249999999998295, "on": 1.5, "velocity": 120, "tagsIdx": [1], "pitch": 44}, {"duration": 0.11249999999998295, "on": 2.0, "velocity": 120, "tagsIdx": [0], "pitch": 36}, {"duration": 0.11249999999998295, "on": 2.5, "velocity": 120, "tagsIdx": [1], "pitch": 44}, {"duration": 0.11249999999998295, "on": 3.0, "velocity": 120, "tagsIdx": [2], "pitch": 39}, {"duration": 0.11249999999998295, "on": 3.0, "velocity": 120, "tagsIdx": [3], "pitch": 40}, {"duration": 0.11249999999998295, "on": 3.5, "velocity": 120, "tagsIdx": [1], "pitch": 44}], "eventTags": ["Kick", "Shake", "Clap", "Clave"], "timeInfo": {"duration": 4, "bpm": 120.0}}, {"eventList": [{"duration": 0.11249999999998295, "on": 0.0, "velocity": 120, "tagsIdx": [0], "pitch": 36}, {"duration": 0.11249999999998295, "on": 0.5, "velocity": 120, "tagsIdx": [1], "pitch": 44}, {"duration": 0.11249999999998295, "on": 1.0, "velocity": 120, "tagsIdx": [2], "pitch": 39}, {"duration": 0.11249999999998295, "on": 1.0, "velocity": 120, "tagsIdx": [3], "pitch": 40}, {"duration": 0.11249999999998295, "on": 1.5, "velocity": 120, "tagsIdx": [1], "pitch": 44}, {"duration": 0.11249999999998295, "on": 2.0, "velocity": 120, "tagsIdx": [0], "pitch": 36}, {"duration": 0.11249999999998295, "on": 2.5, "velocity": 120, "tagsIdx": [1], "pitch": 44}, {"duration": 0.11249999999998295, "on": 3.0, "velocity": 120, "tagsIdx": [2], "pitch": 39}, {"duration": 0.11249999999998295, "on": 3.0, "velocity": 120, "tagsIdx": [3], "pitch": 40}, {"duration": 1.0, "on": 3.0, "velocity": 120, "tagsIdx": [4], "pitch": 46}], "eventTags": ["Kick", "Shake", "Clap", "Clave", "OpenHH"], "timeInfo": {"duration": 4, "bpm": 120.0}}, {"eventList": [{"duration": 0.11250000000001137, "on": 0.0, "velocity": 120, "tagsIdx": [0], "pitch": 42}, {"duration": 0.11250000000001137, "on": 0.5, "velocity": 120, "tagsIdx": [0], "pitch": 42}, {"duration": 0.11250000000001137, "on": 1.0, "velocity": 120, "tagsIdx": [0], "pitch": 42}, {"duration": 0.11250000000001137, "on": 1.0, "velocity": 120, "tagsIdx": [1], "pitch": 39}, {"duration": 0.11250000000001137, "on": 1.5, "velocity": 120, "tagsIdx": [0], "pitch": 42}, {"duration": 0.11250000000001137, "on": 2.0, "velocity": 120, "tagsIdx": [0], "pitch": 42}, {"duration": 0.11250000000001137, "on": 2.5, "velocity": 120, "tagsIdx": [0], "pitch": 42}, {"duration": 0.11250000000001137, "on": 3.0, "velocity": 120, "tagsIdx": [0], "pitch": 42}, {"duration": 0.11250000000001137, "on": 3.0, "velocity": 120, "tagsIdx": [1], "pitch": 39}, {"duration": 0.11250000000001137, "on": 3.5, "velocity": 120, "tagsIdx": [0], "pitch": 42}], "eventTags": ["ClosedHH", "Clap"], "timeInfo": {"duration": 4, "bpm": 120.0}}, {"eventList": [{"duration": 0.11250000000001137, "on": 0.0, "velocity": 120, "tagsIdx": [0], "pitch": 42}, {"duration": 0.11250000000001137, "on": 0.5, "velocity": 120, "tagsIdx": [0], "pitch": 42}, {"duration": 0.11250000000001137, "on": 1.0, "velocity": 120, "tagsIdx": [0], "pitch": 42}, {"duration": 0.11250000000001137, "on": 1.0, "velocity": 120, "tagsIdx": [1], "pitch": 39}, {"duration": 0.11250000000001137, "on": 1.5, "velocity": 120, "tagsIdx": [0], "pitch": 42}, {"duration": 0.11250000000001137, "on": 2.0, "velocity": 120, "tagsIdx": [0], "pitch": 42}, {"duration": 0.11250000000001137, "on": 2.5, "velocity": 120, "tagsIdx": [0], "pitch": 42}, {"duration": 0.11250000000001137, "on": 3.0, "velocity": 120, "tagsIdx": [0], "pitch": 42}, {"duration": 0.11250000000001137, "on": 3.0, "velocity": 120, "tagsIdx": [1], "pitch": 39}, {"duration": 0.11250000000001137, "on": 3.5, "velocity": 120, "tagsIdx": [0], "pitch": 42}], "eventTags": ["ClosedHH", "Clap"], "timeInfo": {"duration": 4, "bpm": 120.0}}, {"eventList": [{"duration": 0.11250000000001137, "on": 0.0, "velocity": 120, "tagsIdx": [0], "pitch": 42}, {"duration": 0.11250000000001137, "on": 0.5, "velocity": 120, "tagsIdx": [0], "pitch": 42}, {"duration": 0.11250000000001137, "on": 1.0, "velocity": 120, "tagsIdx": [0], "pitch": 42}, {"duration": 0.11250000000001137, "on": 1.0, "velocity": 120, "tagsIdx": [1], "pitch": 39}, {"duration": 0.11250000000001137, "on": 1.5, "velocity": 120, "tagsIdx": [0], "pitch": 42}, {"duration": 0.11250000000001137, "on": 2.0, "velocity": 120, "tagsIdx": [0], "pitch": 42}, {"duration": 0.11250000000001137, "on": 2.5, "velocity": 120, "tagsIdx": [0], "pitch": 42}, {"duration": 0.11250000000001137, "on": 3.0, "velocity": 120, "tagsIdx": [0], "pitch": 42}, {"duration": 0.11250000000001137, "on": 3.0, "velocity": 120, "tagsIdx": [1], "pitch": 39}, {"duration": 0.11250000000001137, "on": 3.5, "velocity": 120, "tagsIdx": [0], "pitch": 42}], "eventTags": ["ClosedHH", "Clap"], "timeInfo": {"duration": 4, "bpm": 120.0}}, {"eventList": [{"duration": 0.11250000000001137, "on": 0.0, "velocity": 120, "tagsIdx": [0], "pitch": 42}, {"duration": 0.11250000000001137, "on": 0.5, "velocity": 120, "tagsIdx": [0], "pitch": 42}, {"duration": 0.11250000000001137, "on": 1.0, "velocity": 120, "tagsIdx": [0], "pitch": 42}, {"duration": 0.11250000000001137, "on": 1.0, "velocity": 120, "tagsIdx": [1], "pitch": 39}, {"duration": 0.11250000000001137, "on": 1.5, "velocity": 120, "tagsIdx": [0], "pitch": 42}, {"duration": 0.11250000000001137, "on": 2.0, "velocity": 120, "tagsIdx": [0], "pitch": 42}, {"duration": 0.11250000000001137, "on": 2.5, "velocity": 120, "tagsIdx": [0], "pitch": 42}, {"duration": 0.11250000000001137, "on": 3.0, "velocity": 120, "tagsIdx": [0], "pitch": 42}, {"duration": 0.11250000000001137, "on": 3.0, "velocity": 120, "tagsIdx": [1], "pitch": 39}, {"duration": 0.11250000000001137, "on": 3.5, "velocity": 120, "tagsIdx": [0], "pitch": 42}], "eventTags": ["ClosedHH", "Clap"], "timeInfo": {"duration": 4, "bpm": 120.0}}, {"eventList": [{"duration": 0.11250000000001137, "on": 0.0, "velocity": 120, "tagsIdx": [0], "pitch": 42}, {"duration": 0.11250000000001137, "on": 0.5, "velocity": 120, "tagsIdx": [0], "pitch": 42}, {"duration": 0.11250000000001137, "on": 1.0, "velocity": 120, "tagsIdx": [0], "pitch": 42}, {"duration": 0.11250000000001137, "on": 1.0, "velocity": 120, "tagsIdx": [1], "pitch": 39}, {"duration": 0.11250000000001137, "on": 1.5, "velocity": 120, "tagsIdx": [0], "pitch": 42}, {"duration": 0.11250000000001137, "on": 2.0, "velocity": 120, "tagsIdx": [0], "pitch": 42}, {"duration": 0.11250000000001137, "on": 2.5, "velocity": 120, "tagsIdx": [0], "pitch": 42}, {"duration": 0.11250000000001137, "on": 3.0, "velocity": 120, "tagsIdx": [0], "pitch": 42}, {"duration": 0.11250000000001137, "on": 3.0, "velocity": 120, "tagsIdx": [1], "pitch": 39}, {"duration": 0.11250000000001137, "on": 3.5, "velocity": 120, "tagsIdx": [0], "pitch": 42}], "eventTags": ["ClosedHH", "Clap"], "timeInfo": {"duration": 4, "bpm": 120.0}}, {"eventList": [{"duration": 0.11250000000001137, "on": 0.0, "velocity": 120, "tagsIdx": [0], "pitch": 42}, {"duration": 0.11250000000001137, "on": 0.5, "velocity": 120, "tagsIdx": [0], "pitch": 42}, {"duration": 0.11250000000001137, "on": 1.0, "velocity": 120, "tagsIdx": [0], "pitch": 42}, {"duration": 0.11250000000001137, "on": 1.0, "velocity": 120, "tagsIdx": [1], "pitch": 39}, {"duration": 0.11250000000001137, "on": 1.5, "velocity": 120, "tagsIdx": [0], "pitch": 42}, {"duration": 0.11250000000001137, "on": 2.0, "velocity": 120, "tagsIdx": [0], "pitch": 42}, {"duration": 0.11250000000001137, "on": 2.5, "velocity": 120, "tagsIdx": [0], "pitch": 42}, {"duration": 0.11250000000001137, "on": 3.0, "velocity": 120, "tagsIdx": [0], "pitch": 42}, {"duration": 0.11250000000001137, "on": 3.0, "velocity": 120, "tagsIdx": [1], "pitch": 39}, {"duration": 0.11250000000001137, "on": 3.5, "velocity": 120, "tagsIdx": [0], "pitch": 42}], "eventTags": ["ClosedHH", "Clap"], "timeInfo": {"duration": 4, "bpm": 120.0}}, {"eventList": [{"duration": 0.25, "on": 0.0, "velocity": 95, "tagsIdx": [0], "pitch": 46}, {"duration": 0.25, "on": 0.25, "velocity": 95, "tagsIdx": [1], "pitch": 42}, {"duration": 0.25, "on": 0.5, "velocity": 95, "tagsIdx": [1], "pitch": 42}, {"duration": 0.25, "on": 0.75, "velocity": 95, "tagsIdx": [1], "pitch": 42}, {"duration": 0.25, "on": 1.0, "velocity": 95, "tagsIdx": [0], "pitch": 46}, {"duration": 0.25, "on": 1.0, "velocity": 95, "tagsIdx": [2], "pitch": 39}, {"duration": 0.25, "on": 1.0, "velocity": 95, "tagsIdx": [3], "pitch": 40}, {"duration": 0.25, "on": 1.25, "velocity": 95, "tagsIdx": [1], "pitch": 42}, {"duration": 0.25, "on": 1.5, "velocity": 95, "tagsIdx": [1], "pitch": 42}, {"duration": 0.25, "on": 1.75, "velocity": 95, "tagsIdx": [1], "pitch": 42}, {"duration": 0.25, "on": 2.0, "velocity": 95, "tagsIdx": [0], "pitch": 46}, {"duration": 0.25, "on": 2.25, "velocity": 95, "tagsIdx": [1], "pitch": 42}, {"duration": 0.25, "on": 2.5, "velocity": 95, "tagsIdx": [1], "pitch": 42}, {"duration": 0.25, "on": 2.75, "velocity": 95, "tagsIdx": [1], "pitch": 42}, {"duration": 0.25, "on": 3.0, "velocity": 95, "tagsIdx": [0], "pitch": 46}, {"duration": 0.25, "on": 3.0, "velocity": 95, "tagsIdx": [2], "pitch": 39}, {"duration": 0.25, "on": 3.0, "velocity": 95, "tagsIdx": [3], "pitch": 40}, {"duration": 0.25, "on": 3.25, "velocity": 95, "tagsIdx": [1], "pitch": 42}, {"duration": 0.5, "on": 3.5, "velocity": 95, "tagsIdx": [0], "pitch": 46}], "eventTags": ["OpenHH", "ClosedHH", "Clap", "Clave"], "timeInfo": {"duration": 4, "bpm": 120.0}}, {"eventList": [{"duration": 0.25, "on": 0.0, "velocity": 95, "tagsIdx": [0], "pitch": 46}, {"duration": 0.25, "on": 0.25, "velocity": 95, "tagsIdx": [1], "pitch": 42}, {"duration": 0.25, "on": 0.5, "velocity": 95, "tagsIdx": [1], "pitch": 42}, {"duration": 0.25, "on": 0.75, "velocity": 95, "tagsIdx": [1], "pitch": 42}, {"duration": 0.25, "on": 1.0, "velocity": 95, "tagsIdx": [0], "pitch": 46}, {"duration": 0.25, "on": 1.0, "velocity": 95, "tagsIdx": [2], "pitch": 39}, {"duration": 0.25, "on": 1.0, "velocity": 95, "tagsIdx": [3], "pitch": 40}, {"duration": 0.25, "on": 1.25, "velocity": 95, "tagsIdx": [1], "pitch": 42}, {"duration": 0.25, "on": 1.5, "velocity": 95, "tagsIdx": [1], "pitch": 42}, {"duration": 0.25, "on": 1.75, "velocity": 95, "tagsIdx": [1], "pitch": 42}, {"duration": 0.25, "on": 2.0, "velocity": 95, "tagsIdx": [0], "pitch": 46}, {"duration": 0.25, "on": 2.25, "velocity": 95, "tagsIdx": [1], "pitch": 42}, {"duration": 0.25, "on": 2.5, "velocity": 95, "tagsIdx": [1], "pitch": 42}, {"duration": 0.25, "on": 2.75, "velocity": 95, "tagsIdx": [1], "pitch": 42}, {"duration": 0.25, "on": 3.0, "velocity": 95, "tagsIdx": [0], "pitch": 46}, {"duration": 0.25, "on": 3.0, "velocity": 95, "tagsIdx": [2], "pitch": 39}, {"duration": 0.25, "on": 3.0, "velocity": 95, "tagsIdx": [3], "pitch": 40}, {"duration": 0.25, "on": 3.25, "velocity": 95, "tagsIdx": [1], "pitch": 42}, {"duration": 0.25, "on": 3.5, "velocity": 95, "tagsIdx": [1], "pitch": 42}, {"duration": 0.25, "on": 3.75, "velocity": 95, "tagsIdx": [1], "pitch": 42}], "eventTags": ["OpenHH", "ClosedHH", "Clap", "Clave"], "timeInfo": {"duration": 4, "bpm": 120.0}}, {"eventList": [{"duration": 0.25, "on": 0.0, "velocity": 95, "tagsIdx": [0], "pitch": 46}, {"duration": 0.25, "on": 0.25, "velocity": 95, "tagsIdx": [1], "pitch": 42}, {"duration": 0.25, "on": 0.5, "velocity": 95, "tagsIdx": [1], "pitch": 42}, {"duration": 0.25, "on": 0.75, "velocity": 95, "tagsIdx": [1], "pitch": 42}, {"duration": 0.25, "on": 1.0, "velocity": 95, "tagsIdx": [0], "pitch": 46}, {"duration": 0.25, "on": 1.0, "velocity": 95, "tagsIdx": [2], "pitch": 39}, {"duration": 0.25, "on": 1.0, "velocity": 95, "tagsIdx": [3], "pitch": 40}, {"duration": 0.25, "on": 1.25, "velocity": 95, "tagsIdx": [1], "pitch": 42}, {"duration": 0.25, "on": 1.5, "velocity": 95, "tagsIdx": [1], "pitch": 42}, {"duration": 0.25, "on": 1.75, "velocity": 95, "tagsIdx": [1], "pitch": 42}, {"duration": 0.25, "on": 2.0, "velocity": 95, "tagsIdx": [0], "pitch": 46}, {"duration": 0.25, "on": 2.25, "velocity": 95, "tagsIdx": [1], "pitch": 42}, {"duration": 0.25, "on": 2.5, "velocity": 95, "tagsIdx": [1], "pitch": 42}, {"duration": 0.25, "on": 2.75, "velocity": 95, "tagsIdx": [1], "pitch": 42}, {"duration": 0.25, "on": 3.0, "velocity": 95, "tagsIdx": [0], "pitch": 46}, {"duration": 0.25, "on": 3.0, "velocity": 95, "tagsIdx": [2], "pitch": 39}, {"duration": 0.25, "on": 3.0, "velocity": 95, "tagsIdx": [3], "pitch": 40}, {"duration": 0.25, "on": 3.25, "velocity": 95, "tagsIdx": [1], "pitch": 42}, {"duration": 0.25, "on": 3.5, "velocity": 95, "tagsIdx": [1], "pitch": 42}, {"duration": 0.25, "on": 3.75, "velocity": 95, "tagsIdx": [1], "pitch": 42}], "eventTags": ["OpenHH", "ClosedHH", "Clap", "Clave"], "timeInfo": {"duration": 4, "bpm": 120.0}}, {"eventList": [{"duration": 0.25, "on": 0.0, "velocity": 95, "tagsIdx": [0], "pitch": 49}, {"duration": 0.25, "on": 0.0, "velocity": 95, "tagsIdx": [1], "pitch": 46}, {"duration": 0.25, "on": 0.25, "velocity": 95, "tagsIdx": [2], "pitch": 42}, {"duration": 0.25, "on": 0.5, "velocity": 95, "tagsIdx": [2], "pitch": 42}, {"duration": 0.25, "on": 0.75, "velocity": 95, "tagsIdx": [2], "pitch": 42}, {"duration": 0.25, "on": 1.0, "velocity": 95, "tagsIdx": [1], "pitch": 46}, {"duration": 0.25, "on": 1.0, "velocity": 95, "tagsIdx": [3], "pitch": 39}, {"duration": 0.25, "on": 1.0, "velocity": 95, "tagsIdx": [4], "pitch": 40}, {"duration": 0.25, "on": 1.25, "velocity": 95, "tagsIdx": [2], "pitch": 42}, {"duration": 0.25, "on": 1.5, "velocity": 95, "tagsIdx": [2], "pitch": 42}, {"duration": 0.25, "on": 1.75, "velocity": 95, "tagsIdx": [2], "pitch": 42}, {"duration": 0.25, "on": 2.0, "velocity": 95, "tagsIdx": [1], "pitch": 46}, {"duration": 0.25, "on": 2.25, "velocity": 95, "tagsIdx": [2], "pitch": 42}, {"duration": 0.25, "on": 2.5, "velocity": 95, "tagsIdx": [2], "pitch": 42}, {"duration": 0.25, "on": 2.75, "velocity": 95, "tagsIdx": [2], "pitch": 42}, {"duration": 0.25, "on": 3.0, "velocity": 95, "tagsIdx": [1], "pitch": 46}, {"duration": 0.25, "on": 3.0, "velocity": 95, "tagsIdx": [3], "pitch": 39}, {"duration": 0.25, "on": 3.0, "velocity": 95, "tagsIdx": [4], "pitch": 40}, {"duration": 0.25, "on": 3.25, "velocity": 95, "tagsIdx": [2], "pitch": 42}, {"duration": 0.25, "on": 3.5, "velocity": 95, "tagsIdx": [2], "pitch": 42}, {"duration": 0.25, "on": 3.75, "velocity": 95, "tagsIdx": [2], "pitch": 42}], "eventTags": ["Cymbal", "OpenHH", "ClosedHH", "Clap", "Clave"], "timeInfo": {"duration": 4, "bpm": 120.0}}, {"eventList": [{"duration": 0.25, "on": 0.0, "velocity": 95, "tagsIdx": [0], "pitch": 46}, {"duration": 0.25, "on": 0.25, "velocity": 95, "tagsIdx": [1], "pitch": 42}, {"duration": 0.25, "on": 0.5, "velocity": 95, "tagsIdx": [1], "pitch": 42}, {"duration": 0.25, "on": 0.75, "velocity": 95, "tagsIdx": [1], "pitch": 42}, {"duration": 0.25, "on": 1.0, "velocity": 95, "tagsIdx": [0], "pitch": 46}, {"duration": 0.25, "on": 1.0, "velocity": 95, "tagsIdx": [2], "pitch": 39}, {"duration": 0.25, "on": 1.0, "velocity": 95, "tagsIdx": [3], "pitch": 40}, {"duration": 0.25, "on": 1.25, "velocity": 95, "tagsIdx": [1], "pitch": 42}, {"duration": 0.25, "on": 1.5, "velocity": 95, "tagsIdx": [1], "pitch": 42}, {"duration": 0.25, "on": 1.75, "velocity": 95, "tagsIdx": [1], "pitch": 42}, {"duration": 0.25, "on": 2.0, "velocity": 95, "tagsIdx": [0], "pitch": 46}, {"duration": 0.25, "on": 2.25, "velocity": 95, "tagsIdx": [1], "pitch": 42}, {"duration": 0.25, "on": 2.5, "velocity": 95, "tagsIdx": [1], "pitch": 42}, {"duration": 0.25, "on": 2.75, "velocity": 95, "tagsIdx": [1], "pitch": 42}, {"duration": 0.25, "on": 3.0, "velocity": 95, "tagsIdx": [0], "pitch": 46}, {"duration": 0.25, "on": 3.0, "velocity": 95, "tagsIdx": [2], "pitch": 39}, {"duration": 0.25, "on": 3.0, "velocity": 95, "tagsIdx": [3], "pitch": 40}, {"duration": 0.25, "on": 3.25, "velocity": 95, "tagsIdx": [1], "pitch": 42}, {"duration": 0.5, "on": 3.5, "velocity": 95, "tagsIdx": [0], "pitch": 46}], "eventTags": ["OpenHH", "ClosedHH", "Clap", "Clave"], "timeInfo": {"duration": 4, "bpm": 120.0}}, {"eventList": [{"duration": 0.25, "on": 0.0, "velocity": 95, "tagsIdx": [0], "pitch": 46}, {"duration": 0.25, "on": 0.25, "velocity": 95, "tagsIdx": [1], "pitch": 42}, {"duration": 0.25, "on": 0.5, "velocity": 95, "tagsIdx": [1], "pitch": 42}, {"duration": 0.25, "on": 0.75, "velocity": 95, "tagsIdx": [1], "pitch": 42}, {"duration": 0.25, "on": 1.0, "velocity": 95, "tagsIdx": [0], "pitch": 46}, {"duration": 0.25, "on": 1.0, "velocity": 95, "tagsIdx": [2], "pitch": 39}, {"duration": 0.25, "on": 1.0, "velocity": 95, "tagsIdx": [3], "pitch": 40}, {"duration": 0.25, "on": 1.25, "velocity": 95, "tagsIdx": [1], "pitch": 42}, {"duration": 0.25, "on": 1.5, "velocity": 95, "tagsIdx": [1], "pitch": 42}, {"duration": 0.25, "on": 1.75, "velocity": 95, "tagsIdx": [1], "pitch": 42}, {"duration": 0.25, "on": 2.0, "velocity": 95, "tagsIdx": [0], "pitch": 46}, {"duration": 0.25, "on": 2.25, "velocity": 95, "tagsIdx": [1], "pitch": 42}, {"duration": 0.25, "on": 2.5, "velocity": 95, "tagsIdx": [1], "pitch": 42}, {"duration": 0.25, "on": 2.75, "velocity": 95, "tagsIdx": [1], "pitch": 42}, {"duration": 0.25, "on": 3.0, "velocity": 95, "tagsIdx": [0], "pitch": 46}, {"duration": 0.25, "on": 3.0, "velocity": 95, "tagsIdx": [2], "pitch": 39}, {"duration": 0.25, "on": 3.0, "velocity": 95, "tagsIdx": [3], "pitch": 40}, {"duration": 0.25, "on": 3.25, "velocity": 95, "tagsIdx": [1], "pitch": 42}, {"duration": 0.25, "on": 3.5, "velocity": 95, "tagsIdx": [1], "pitch": 42}, {"duration": 0.25, "on": 3.75, "velocity": 95, "tagsIdx": [1], "pitch": 42}], "eventTags": ["OpenHH", "ClosedHH", "Clap", "Clave"], "timeInfo": {"duration": 4, "bpm": 120.0}}, {"eventList": [{"duration": 0.125, "on": 0.0, "velocity": 100, "tagsIdx": [0], "pitch": 42}, {"duration": 0.125, "on": 0.5, "velocity": 100, "tagsIdx": [0], "pitch": 42}, {"duration": 0.125, "on": 1.0, "velocity": 100, "tagsIdx": [1], "pitch": 36}, {"duration": 0.125, "on": 1.0, "velocity": 100, "tagsIdx": [0], "pitch": 42}, {"duration": 0.125, "on": 1.0, "velocity": 100, "tagsIdx": [2], "pitch": 39}, {"duration": 0.125, "on": 1.5, "velocity": 100, "tagsIdx": [0], "pitch": 42}, {"duration": 0.125, "on": 2.0, "velocity": 100, "tagsIdx": [0], "pitch": 42}, {"duration": 0.125, "on": 2.5, "velocity": 100, "tagsIdx": [0], "pitch": 42}, {"duration": 0.125, "on": 3.0, "velocity": 100, "tagsIdx": [0], "pitch": 42}, {"duration": 0.125, "on": 3.0, "velocity": 100, "tagsIdx": [1], "pitch": 36}, {"duration": 0.125, "on": 3.0, "velocity": 100, "tagsIdx": [2], "pitch": 39}, {"duration": 0.25, "on": 3.5, "velocity": 100, "tagsIdx": [0], "pitch": 42}, {"duration": 0.25, "on": 3.75, "velocity": 100, "tagsIdx": [0], "pitch": 42}], "eventTags": ["ClosedHH", "Kick", "Clap"], "timeInfo": {"duration": 4, "bpm": 120.0}}, {"eventList": [{"duration": 0.125, "on": 0.0, "velocity": 100, "tagsIdx": [0], "pitch": 42}, {"duration": 0.125, "on": 0.5, "velocity": 100, "tagsIdx": [0], "pitch": 42}, {"duration": 0.125, "on": 1.0, "velocity": 100, "tagsIdx": [0], "pitch": 42}, {"duration": 0.125, "on": 1.0, "velocity": 100, "tagsIdx": [1], "pitch": 39}, {"duration": 0.125, "on": 1.5, "velocity": 100, "tagsIdx": [0], "pitch": 42}, {"duration": 0.125, "on": 2.0, "velocity": 100, "tagsIdx": [0], "pitch": 42}, {"duration": 0.125, "on": 2.5, "velocity": 100, "tagsIdx": [0], "pitch": 42}, {"duration": 0.125, "on": 3.0, "velocity": 100, "tagsIdx": [0], "pitch": 42}, {"duration": 0.125, "on": 3.0, "velocity": 100, "tagsIdx": [1], "pitch": 39}, {"duration": 0.125, "on": 3.5, "velocity": 100, "tagsIdx": [0], "pitch": 42}, {"duration": 0.125, "on": 3.75, "velocity": 100, "tagsIdx": [0], "pitch": 42}], "eventTags": ["ClosedHH", "Clap"], "timeInfo": {"duration": 4, "bpm": 120.0}}, {"eventList": [{"duration": 0.5, "on": 0.0, "velocity": 95, "tagsIdx": [0], "pitch": 42}, {"duration": 0.5, "on": 0.5, "velocity": 95, "tagsIdx": [0], "pitch": 42}, {"duration": 0.5, "on": 1.0, "velocity": 95, "tagsIdx": [0], "pitch": 42}, {"duration": 0.5, "on": 1.0, "velocity": 95, "tagsIdx": [1], "pitch": 39}, {"duration": 0.5, "on": 1.0, "velocity": 95, "tagsIdx": [2], "pitch": 40}, {"duration": 0.5, "on": 1.5, "velocity": 95, "tagsIdx": [0], "pitch": 42}, {"duration": 0.5, "on": 2.0, "velocity": 95, "tagsIdx": [0], "pitch": 42}, {"duration": 0.5, "on": 2.5, "velocity": 95, "tagsIdx": [0], "pitch": 42}, {"duration": 0.5, "on": 3.0, "velocity": 95, "tagsIdx": [0], "pitch": 42}, {"duration": 0.5, "on": 3.0, "velocity": 95, "tagsIdx": [1], "pitch": 39}, {"duration": 0.5, "on": 3.0, "velocity": 95, "tagsIdx": [2], "pitch": 40}, {"duration": 0.25, "on": 3.5, "velocity": 95, "tagsIdx": [0], "pitch": 42}, {"duration": 0.25, "on": 3.75, "velocity": 95, "tagsIdx": [0], "pitch": 42}], "eventTags": ["ClosedHH", "Clap", "Clave"], "timeInfo": {"duration": 4, "bpm": 120.0}}, {"eventList": [{"duration": 0.25, "on": 0.0, "velocity": 95, "tagsIdx": [0], "pitch": 38}, {"duration": 0.25, "on": 0.0, "velocity": 95, "tagsIdx": [1], "pitch": 42}, {"duration": 0.25, "on": 0.0, "velocity": 63, "tagsIdx": [2], "pitch": 39}, {"duration": 0.25, "on": 0.25, "velocity": 111, "tagsIdx": [3], "pitch": 36}, {"duration": 0.25, "on": 0.25, "velocity": 95, "tagsIdx": [1], "pitch": 42}, {"duration": 0.25, "on": 0.5, "velocity": 95, "tagsIdx": [1], "pitch": 42}, {"duration": 0.25, "on": 0.75, "velocity": 95, "tagsIdx": [1], "pitch": 42}, {"duration": 0.25, "on": 1.0, "velocity": 111, "tagsIdx": [3], "pitch": 36}, {"duration": 0.25, "on": 1.0, "velocity": 127, "tagsIdx": [1], "pitch": 42}, {"duration": 0.25, "on": 1.25, "velocity": 127, "tagsIdx": [1], "pitch": 42}, {"duration": 0.25, "on": 1.5, "velocity": 111, "tagsIdx": [1], "pitch": 42}, {"duration": 0.25, "on": 1.75, "velocity": 95, "tagsIdx": [1], "pitch": 42}, {"duration": 0.25, "on": 2.0, "velocity": 95, "tagsIdx": [0], "pitch": 38}, {"duration": 0.25, "on": 2.0, "velocity": 95, "tagsIdx": [1], "pitch": 42}, {"duration": 0.25, "on": 2.0, "velocity": 63, "tagsIdx": [2], "pitch": 39}, {"duration": 0.25, "on": 2.25, "velocity": 63, "tagsIdx": [1], "pitch": 42}, {"duration": 0.25, "on": 2.5, "velocity": 95, "tagsIdx": [1], "pitch": 42}, {"duration": 0.25, "on": 2.75, "velocity": 95, "tagsIdx": [1], "pitch": 42}, {"duration": 0.25, "on": 3.0, "velocity": 95, "tagsIdx": [1], "pitch": 42}, {"duration": 0.25, "on": 3.25, "velocity": 95, "tagsIdx": [1], "pitch": 42}, {"duration": 0.25, "on": 3.5, "velocity": 95, "tagsIdx": [3], "pitch": 36}, {"duration": 0.25, "on": 3.5, "velocity": 95, "tagsIdx": [1], "pitch": 42}, {"duration": 0.25, "on": 3.5, "velocity": 111, "tagsIdx": [4], "pitch": 46}, {"duration": 0.25, "on": 3.75, "velocity": 95, "tagsIdx": [1], "pitch": 42}], "eventTags": ["Snare", "ClosedHH", "Clap", "Kick", "OpenHH"], "timeInfo": {"duration": 4, "bpm": 120.0}}, {"eventList": [{"duration": 0.25, "on": 0.0, "velocity": 95, "tagsIdx": [0], "pitch": 38}, {"duration": 0.25, "on": 0.0, "velocity": 95, "tagsIdx": [1], "pitch": 42}, {"duration": 0.25, "on": 0.0, "velocity": 63, "tagsIdx": [2], "pitch": 39}, {"duration": 0.25, "on": 0.25, "velocity": 111, "tagsIdx": [3], "pitch": 36}, {"duration": 0.25, "on": 0.25, "velocity": 95, "tagsIdx": [1], "pitch": 42}, {"duration": 0.25, "on": 0.5, "velocity": 95, "tagsIdx": [1], "pitch": 42}, {"duration": 0.25, "on": 0.75, "velocity": 95, "tagsIdx": [1], "pitch": 42}, {"duration": 0.25, "on": 1.0, "velocity": 111, "tagsIdx": [3], "pitch": 36}, {"duration": 0.25, "on": 1.0, "velocity": 127, "tagsIdx": [1], "pitch": 42}, {"duration": 0.25, "on": 1.25, "velocity": 127, "tagsIdx": [1], "pitch": 42}, {"duration": 0.25, "on": 2.0, "velocity": 95, "tagsIdx": [0], "pitch": 38}, {"duration": 0.25, "on": 2.0, "velocity": 95, "tagsIdx": [1], "pitch": 42}, {"duration": 0.25, "on": 2.0, "velocity": 47, "tagsIdx": [2], "pitch": 39}, {"duration": 0.25, "on": 3.0, "velocity": 95, "tagsIdx": [3], "pitch": 36}, {"duration": 0.25, "on": 3.0, "velocity": 95, "tagsIdx": [1], "pitch": 42}], "eventTags": ["Snare", "ClosedHH", "Clap", "Kick"], "timeInfo": {"duration": 4, "bpm": 120.0}}, {"eventList": [{"duration": 0.5, "on": 0.0, "velocity": 95, "tagsIdx": [0], "pitch": 42}, {"duration": 0.5, "on": 0.5, "velocity": 95, "tagsIdx": [0], "pitch": 42}, {"duration": 0.5, "on": 1.0, "velocity": 95, "tagsIdx": [0], "pitch": 42}, {"duration": 0.5, "on": 1.0, "velocity": 95, "tagsIdx": [1], "pitch": 39}, {"duration": 0.5, "on": 1.0, "velocity": 95, "tagsIdx": [2], "pitch": 40}, {"duration": 0.5, "on": 1.5, "velocity": 95, "tagsIdx": [0], "pitch": 42}, {"duration": 0.5, "on": 2.0, "velocity": 95, "tagsIdx": [0], "pitch": 42}, {"duration": 0.5, "on": 2.5, "velocity": 95, "tagsIdx": [0], "pitch": 42}, {"duration": 0.5, "on": 3.0, "velocity": 95, "tagsIdx": [0], "pitch": 42}, {"duration": 0.5, "on": 3.0, "velocity": 95, "tagsIdx": [1], "pitch": 39}, {"duration": 0.5, "on": 3.0, "velocity": 95, "tagsIdx": [2], "pitch": 40}, {"duration": 0.25, "on": 3.5, "velocity": 95, "tagsIdx": [0], "pitch": 42}, {"duration": 0.25, "on": 3.75, "velocity": 95, "tagsIdx": [0], "pitch": 42}], "eventTags": ["ClosedHH", "Clap", "Clave"], "timeInfo": {"duration": 4, "bpm": 120.0}}, {"eventList": [{"duration": 0.5, "on": 0.0, "velocity": 95, "tagsIdx": [0], "pitch": 42}, {"duration": 0.5, "on": 0.5, "velocity": 95, "tagsIdx": [0], "pitch": 42}, {"duration": 0.5, "on": 1.0, "velocity": 95, "tagsIdx": [0], "pitch": 42}, {"duration": 0.5, "on": 1.0, "velocity": 95, "tagsIdx": [1], "pitch": 39}, {"duration": 0.5, "on": 1.0, "velocity": 95, "tagsIdx": [2], "pitch": 40}, {"duration": 0.5, "on": 1.5, "velocity": 95, "tagsIdx": [0], "pitch": 42}, {"duration": 0.25, "on": 2.0, "velocity": 47, "tagsIdx": [0], "pitch": 42}, {"duration": 0.25, "on": 2.25, "velocity": 95, "tagsIdx": [0], "pitch": 42}, {"duration": 0.5, "on": 2.5, "velocity": 95, "tagsIdx": [0], "pitch": 42}, {"duration": 0.5, "on": 3.0, "velocity": 95, "tagsIdx": [0], "pitch": 42}, {"duration": 0.5, "on": 3.0, "velocity": 95, "tagsIdx": [1], "pitch": 39}, {"duration": 0.5, "on": 3.0, "velocity": 95, "tagsIdx": [2], "pitch": 40}, {"duration": 0.5, "on": 3.5, "velocity": 95, "tagsIdx": [3], "pitch": 46}], "eventTags": ["ClosedHH", "Clap", "Clave", "OpenHH"], "timeInfo": {"duration": 4, "bpm": 120.0}}, {"eventList": [{"duration": 0.5, "on": 0.0, "velocity": 95, "tagsIdx": [0], "pitch": 49}, {"duration": 0.5, "on": 0.5, "velocity": 95, "tagsIdx": [1], "pitch": 42}, {"duration": 0.5, "on": 1.0, "velocity": 95, "tagsIdx": [1], "pitch": 42}, {"duration": 0.5, "on": 1.0, "velocity": 95, "tagsIdx": [2], "pitch": 39}, {"duration": 0.5, "on": 1.0, "velocity": 95, "tagsIdx": [3], "pitch": 40}, {"duration": 0.5, "on": 1.5, "velocity": 95, "tagsIdx": [1], "pitch": 42}, {"duration": 0.5, "on": 2.0, "velocity": 95, "tagsIdx": [1], "pitch": 42}, {"duration": 0.5, "on": 2.5, "velocity": 95, "tagsIdx": [1], "pitch": 42}, {"duration": 0.5, "on": 3.0, "velocity": 95, "tagsIdx": [1], "pitch": 42}, {"duration": 0.5, "on": 3.0, "velocity": 95, "tagsIdx": [2], "pitch": 39}, {"duration": 0.5, "on": 3.0, "velocity": 95, "tagsIdx": [3], "pitch": 40}, {"duration": 0.25, "on": 3.5, "velocity": 95, "tagsIdx": [1], "pitch": 42}, {"duration": 0.25, "on": 3.75, "velocity": 95, "tagsIdx": [1], "pitch": 42}], "eventTags": ["Cymbal", "ClosedHH", "Clap", "Clave"], "timeInfo": {"duration": 4, "bpm": 120.0}}, {"eventList": [{"duration": 0.11250000000000071, "on": 0.0, "velocity": 120, "tagsIdx": [0], "pitch": 36}, {"duration": 0.11250000000000071, "on": 0.0, "velocity": 127, "tagsIdx": [1], "pitch": 44}, {"duration": 0.11250000000000071, "on": 0.5, "velocity": 127, "tagsIdx": [1], "pitch": 44}, {"duration": 0.11250000000000071, "on": 1.0, "velocity": 120, "tagsIdx": [2], "pitch": 39}, {"duration": 0.11250000000000071, "on": 1.0, "velocity": 120, "tagsIdx": [3], "pitch": 40}, {"duration": 0.11250000000000071, "on": 1.0, "velocity": 127, "tagsIdx": [1], "pitch": 44}, {"duration": 0.11250000000000071, "on": 1.5, "velocity": 127, "tagsIdx": [1], "pitch": 44}, {"duration": 0.11250000000000071, "on": 2.0, "velocity": 120, "tagsIdx": [0], "pitch": 36}, {"duration": 0.11250000000000071, "on": 2.0, "velocity": 127, "tagsIdx": [1], "pitch": 44}, {"duration": 0.11250000000000071, "on": 2.5, "velocity": 127, "tagsIdx": [1], "pitch": 44}, {"duration": 0.11250000000000071, "on": 3.0, "velocity": 120, "tagsIdx": [2], "pitch": 39}, {"duration": 0.11250000000000071, "on": 3.0, "velocity": 120, "tagsIdx": [3], "pitch": 40}, {"duration": 0.11250000000000071, "on": 3.0, "velocity": 127, "tagsIdx": [1], "pitch": 44}, {"duration": 0.11250000000000071, "on": 3.5, "velocity": 127, "tagsIdx": [1], "pitch": 44}], "eventTags": ["Kick", "Shake", "Clap", "Clave"], "timeInfo": {"duration": 4, "bpm": 120.0}}, {"eventList": [{"duration": 0.25, "on": 0.0, "velocity": 95, "tagsIdx": [0], "pitch": 46}, {"duration": 0.25, "on": 0.25, "velocity": 95, "tagsIdx": [1], "pitch": 42}, {"duration": 0.25, "on": 0.5, "velocity": 95, "tagsIdx": [1], "pitch": 42}, {"duration": 0.25, "on": 0.75, "velocity": 95, "tagsIdx": [1], "pitch": 42}, {"duration": 0.25, "on": 1.0, "velocity": 95, "tagsIdx": [0], "pitch": 46}, {"duration": 0.25, "on": 1.0, "velocity": 95, "tagsIdx": [2], "pitch": 39}, {"duration": 0.25, "on": 1.0, "velocity": 95, "tagsIdx": [3], "pitch": 40}, {"duration": 0.25, "on": 1.25, "velocity": 95, "tagsIdx": [1], "pitch": 42}, {"duration": 0.25, "on": 1.5, "velocity": 95, "tagsIdx": [1], "pitch": 42}, {"duration": 0.25, "on": 1.75, "velocity": 95, "tagsIdx": [1], "pitch": 42}, {"duration": 0.25, "on": 2.0, "velocity": 95, "tagsIdx": [0], "pitch": 46}, {"duration": 0.25, "on": 2.25, "velocity": 95, "tagsIdx": [1], "pitch": 42}, {"duration": 0.25, "on": 2.5, "velocity": 95, "tagsIdx": [1], "pitch": 42}, {"duration": 0.25, "on": 2.75, "velocity": 95, "tagsIdx": [1], "pitch": 42}, {"duration": 0.25, "on": 3.0, "velocity": 95, "tagsIdx": [0], "pitch": 46}, {"duration": 0.25, "on": 3.0, "velocity": 95, "tagsIdx": [2], "pitch": 39}, {"duration": 0.25, "on": 3.0, "velocity": 95, "tagsIdx": [3], "pitch": 40}, {"duration": 0.25, "on": 3.25, "velocity": 95, "tagsIdx": [1], "pitch": 42}, {"duration": 0.25, "on": 3.5, "velocity": 95, "tagsIdx": [1], "pitch": 42}, {"duration": 0.25, "on": 3.75, "velocity": 95, "tagsIdx": [1], "pitch": 42}], "eventTags": ["OpenHH", "ClosedHH", "Clap", "Clave"], "timeInfo": {"duration": 4, "bpm": 120.0}}, {"eventList": [{"duration": 0.5, "on": 0.0, "velocity": 95, "tagsIdx": [0], "pitch": 42}, {"duration": 0.5, "on": 0.5, "velocity": 95, "tagsIdx": [0], "pitch": 42}, {"duration": 0.5, "on": 1.0, "velocity": 95, "tagsIdx": [0], "pitch": 42}, {"duration": 0.5, "on": 1.0, "velocity": 95, "tagsIdx": [1], "pitch": 39}, {"duration": 0.5, "on": 1.0, "velocity": 95, "tagsIdx": [2], "pitch": 40}, {"duration": 0.5, "on": 1.5, "velocity": 95, "tagsIdx": [0], "pitch": 42}, {"duration": 0.5, "on": 2.0, "velocity": 95, "tagsIdx": [0], "pitch": 42}, {"duration": 0.5, "on": 2.5, "velocity": 95, "tagsIdx": [3], "pitch": 46}, {"duration": 0.25, "on": 3.0, "velocity": 95, "tagsIdx": [1], "pitch": 39}, {"duration": 0.25, "on": 3.0, "velocity": 95, "tagsIdx": [2], "pitch": 40}, {"duration": 0.25, "on": 3.25, "velocity": 95, "tagsIdx": [0], "pitch": 42}, {"duration": 0.5, "on": 3.5, "velocity": 95, "tagsIdx": [3], "pitch": 46}], "eventTags": ["ClosedHH", "Clap", "Clave", "OpenHH"], "timeInfo": {"duration": 4, "bpm": 120.0}}, {"eventList": [{"duration": 0.5, "on": 0.0, "velocity": 95, "tagsIdx": [0], "pitch": 42}, {"duration": 0.5, "on": 0.5, "velocity": 95, "tagsIdx": [0], "pitch": 42}, {"duration": 0.5, "on": 1.0, "velocity": 95, "tagsIdx": [0], "pitch": 42}, {"duration": 0.5, "on": 1.0, "velocity": 95, "tagsIdx": [1], "pitch": 39}, {"duration": 0.5, "on": 1.0, "velocity": 95, "tagsIdx": [2], "pitch": 40}, {"duration": 0.5, "on": 1.5, "velocity": 95, "tagsIdx": [0], "pitch": 42}, {"duration": 0.5, "on": 2.0, "velocity": 95, "tagsIdx": [0], "pitch": 42}, {"duration": 0.5, "on": 2.5, "velocity": 95, "tagsIdx": [0], "pitch": 42}, {"duration": 0.5, "on": 3.0, "velocity": 95, "tagsIdx": [0], "pitch": 42}, {"duration": 0.5, "on": 3.0, "velocity": 95, "tagsIdx": [1], "pitch": 39}, {"duration": 0.5, "on": 3.0, "velocity": 95, "tagsIdx": [2], "pitch": 40}, {"duration": 0.25, "on": 3.5, "velocity": 95, "tagsIdx": [0], "pitch": 42}, {"duration": 0.25, "on": 3.75, "velocity": 95, "tagsIdx": [0], "pitch": 42}], "eventTags": ["ClosedHH", "Clap", "Clave"], "timeInfo": {"duration": 4, "bpm": 120.0}}, {"eventList": [{"duration": 0.11250000000000071, "on": 0.0, "velocity": 120, "tagsIdx": [0], "pitch": 36}, {"duration": 0.11250000000000071, "on": 0.5, "velocity": 120, "tagsIdx": [1], "pitch": 44}, {"duration": 0.11250000000000071, "on": 1.0, "velocity": 120, "tagsIdx": [2], "pitch": 40}, {"duration": 0.11250000000000071, "on": 1.0, "velocity": 120, "tagsIdx": [3], "pitch": 39}, {"duration": 0.11250000000000071, "on": 1.5, "velocity": 120, "tagsIdx": [1], "pitch": 44}, {"duration": 0.11250000000000071, "on": 2.0, "velocity": 120, "tagsIdx": [0], "pitch": 36}, {"duration": 0.11250000000000071, "on": 2.5, "velocity": 120, "tagsIdx": [1], "pitch": 44}, {"duration": 0.11250000000000071, "on": 3.0, "velocity": 120, "tagsIdx": [3], "pitch": 39}, {"duration": 0.11250000000000071, "on": 3.0, "velocity": 120, "tagsIdx": [2], "pitch": 40}, {"duration": 0.11250000000000071, "on": 3.5, "velocity": 120, "tagsIdx": [1], "pitch": 44}], "eventTags": ["Kick", "Shake", "Clave", "Clap"], "timeInfo": {"duration": 4, "bpm": 120.0}}, {"eventList": [{"duration": 0.125, "on": 0.0, "velocity": 100, "tagsIdx": [0], "pitch": 42}, {"duration": 0.125, "on": 0.5, "velocity": 100, "tagsIdx": [0], "pitch": 42}, {"duration": 0.125, "on": 1.0, "velocity": 100, "tagsIdx": [1], "pitch": 36}, {"duration": 0.125, "on": 1.0, "velocity": 100, "tagsIdx": [0], "pitch": 42}, {"duration": 0.125, "on": 1.0, "velocity": 100, "tagsIdx": [2], "pitch": 39}, {"duration": 0.125, "on": 1.5, "velocity": 100, "tagsIdx": [0], "pitch": 42}, {"duration": 0.125, "on": 2.0, "velocity": 100, "tagsIdx": [0], "pitch": 42}, {"duration": 0.125, "on": 2.5, "velocity": 100, "tagsIdx": [0], "pitch": 42}, {"duration": 0.125, "on": 3.0, "velocity": 100, "tagsIdx": [0], "pitch": 42}, {"duration": 0.125, "on": 3.0, "velocity": 100, "tagsIdx": [1], "pitch": 36}, {"duration": 0.125, "on": 3.0, "velocity": 100, "tagsIdx": [2], "pitch": 39}, {"duration": 0.125, "on": 3.5, "velocity": 100, "tagsIdx": [0], "pitch": 42}, {"duration": 0.125, "on": 3.75, "velocity": 100, "tagsIdx": [0], "pitch": 42}], "eventTags": ["ClosedHH", "Kick", "Clap"], "timeInfo": {"duration": 4, "bpm": 120.0}}, {"eventList": [{"duration": 0.5, "on": 0.0, "velocity": 95, "tagsIdx": [0], "pitch": 42}, {"duration": 0.5, "on": 0.5, "velocity": 95, "tagsIdx": [0], "pitch": 42}, {"duration": 0.5, "on": 1.0, "velocity": 95, "tagsIdx": [0], "pitch": 42}, {"duration": 0.5, "on": 1.0, "velocity": 95, "tagsIdx": [1], "pitch": 39}, {"duration": 0.5, "on": 1.0, "velocity": 95, "tagsIdx": [2], "pitch": 40}, {"duration": 0.5, "on": 1.5, "velocity": 95, "tagsIdx": [0], "pitch": 42}, {"duration": 0.5, "on": 2.0, "velocity": 95, "tagsIdx": [0], "pitch": 42}, {"duration": 0.5, "on": 2.5, "velocity": 95, "tagsIdx": [0], "pitch": 42}, {"duration": 0.5, "on": 3.0, "velocity": 95, "tagsIdx": [0], "pitch": 42}, {"duration": 0.5, "on": 3.0, "velocity": 95, "tagsIdx": [1], "pitch": 39}, {"duration": 0.5, "on": 3.0, "velocity": 95, "tagsIdx": [2], "pitch": 40}, {"duration": 0.25, "on": 3.5, "velocity": 95, "tagsIdx": [0], "pitch": 42}, {"duration": 0.25, "on": 3.75, "velocity": 95, "tagsIdx": [0], "pitch": 42}], "eventTags": ["ClosedHH", "Clap", "Clave"], "timeInfo": {"duration": 4, "bpm": 120.0}}, {"eventList": [{"duration": 0.5, "on": 0.0, "velocity": 95, "tagsIdx": [0], "pitch": 49}, {"duration": 0.5, "on": 0.5, "velocity": 95, "tagsIdx": [1], "pitch": 42}, {"duration": 0.5, "on": 1.0, "velocity": 95, "tagsIdx": [1], "pitch": 42}, {"duration": 0.5, "on": 1.0, "velocity": 95, "tagsIdx": [2], "pitch": 39}, {"duration": 0.5, "on": 1.0, "velocity": 95, "tagsIdx": [3], "pitch": 40}, {"duration": 0.5, "on": 1.5, "velocity": 95, "tagsIdx": [1], "pitch": 42}, {"duration": 0.5, "on": 2.0, "velocity": 95, "tagsIdx": [1], "pitch": 42}, {"duration": 0.5, "on": 2.5, "velocity": 95, "tagsIdx": [1], "pitch": 42}, {"duration": 0.5, "on": 3.0, "velocity": 95, "tagsIdx": [1], "pitch": 42}, {"duration": 0.5, "on": 3.0, "velocity": 95, "tagsIdx": [2], "pitch": 39}, {"duration": 0.5, "on": 3.0, "velocity": 95, "tagsIdx": [3], "pitch": 40}, {"duration": 0.25, "on": 3.5, "velocity": 95, "tagsIdx": [1], "pitch": 42}, {"duration": 0.25, "on": 3.75, "velocity": 95, "tagsIdx": [1], "pitch": 42}], "eventTags": ["Cymbal", "ClosedHH", "Clap", "Clave"], "timeInfo": {"duration": 4, "bpm": 120.0}}, {"eventList": [{"duration": 0.5, "on": 0.0, "velocity": 95, "tagsIdx": [0], "pitch": 42}, {"duration": 0.5, "on": 0.5, "velocity": 95, "tagsIdx": [0], "pitch": 42}, {"duration": 0.5, "on": 1.0, "velocity": 95, "tagsIdx": [0], "pitch": 42}, {"duration": 0.5, "on": 1.0, "velocity": 95, "tagsIdx": [1], "pitch": 39}, {"duration": 0.5, "on": 1.0, "velocity": 95, "tagsIdx": [2], "pitch": 40}, {"duration": 0.5, "on": 1.5, "velocity": 95, "tagsIdx": [0], "pitch": 42}, {"duration": 0.5, "on": 2.0, "velocity": 95, "tagsIdx": [0], "pitch": 42}, {"duration": 0.5, "on": 2.5, "velocity": 95, "tagsIdx": [0], "pitch": 42}, {"duration": 0.5, "on": 3.0, "velocity": 95, "tagsIdx": [0], "pitch": 42}, {"duration": 0.5, "on": 3.0, "velocity": 95, "tagsIdx": [1], "pitch": 39}, {"duration": 0.5, "on": 3.0, "velocity": 95, "tagsIdx": [2], "pitch": 40}, {"duration": 0.25, "on": 3.5, "velocity": 95, "tagsIdx": [0], "pitch": 42}, {"duration": 0.25, "on": 3.75, "velocity": 95, "tagsIdx": [0], "pitch": 42}], "eventTags": ["ClosedHH", "Clap", "Clave"], "timeInfo": {"duration": 4, "bpm": 120.0}}, {"eventList": [{"duration": 0.125, "on": 0.0, "velocity": 100, "tagsIdx": [0], "pitch": 42}, {"duration": 0.125, "on": 0.5, "velocity": 100, "tagsIdx": [0], "pitch": 42}, {"duration": 0.125, "on": 1.0, "velocity": 100, "tagsIdx": [1], "pitch": 36}, {"duration": 0.125, "on": 1.0, "velocity": 100, "tagsIdx": [0], "pitch": 42}, {"duration": 0.125, "on": 1.0, "velocity": 100, "tagsIdx": [2], "pitch": 39}, {"duration": 0.125, "on": 1.5, "velocity": 100, "tagsIdx": [0], "pitch": 42}, {"duration": 0.125, "on": 2.0, "velocity": 100, "tagsIdx": [0], "pitch": 42}, {"duration": 0.125, "on": 2.5, "velocity": 100, "tagsIdx": [0], "pitch": 42}, {"duration": 0.125, "on": 3.0, "velocity": 100, "tagsIdx": [0], "pitch": 42}, {"duration": 0.125, "on": 3.0, "velocity": 100, "tagsIdx": [1], "pitch": 36}, {"duration": 0.125, "on": 3.0, "velocity": 100, "tagsIdx": [2], "pitch": 39}, {"duration": 0.25, "on": 3.5, "velocity": 100, "tagsIdx": [0], "pitch": 42}, {"duration": 0.25, "on": 3.75, "velocity": 100, "tagsIdx": [0], "pitch": 42}], "eventTags": ["ClosedHH", "Kick", "Clap"], "timeInfo": {"duration": 4, "bpm": 120.0}}, {"eventList": [{"duration": 0.125, "on": 0.0, "velocity": 100, "tagsIdx": [0], "pitch": 42}, {"duration": 0.125, "on": 0.5, "velocity": 100, "tagsIdx": [0], "pitch": 42}, {"duration": 0.125, "on": 1.0, "velocity": 100, "tagsIdx": [1], "pitch": 36}, {"duration": 0.125, "on": 1.0, "velocity": 100, "tagsIdx": [0], "pitch": 42}, {"duration": 0.125, "on": 1.0, "velocity": 100, "tagsIdx": [2], "pitch": 39}, {"duration": 0.125, "on": 1.5, "velocity": 100, "tagsIdx": [0], "pitch": 42}, {"duration": 0.125, "on": 2.0, "velocity": 100, "tagsIdx": [0], "pitch": 42}, {"duration": 0.125, "on": 2.5, "velocity": 100, "tagsIdx": [0], "pitch": 42}, {"duration": 0.125, "on": 3.0, "velocity": 100, "tagsIdx": [0], "pitch": 42}, {"duration": 0.125, "on": 3.0, "velocity": 100, "tagsIdx": [1], "pitch": 36}, {"duration": 0.125, "on": 3.0, "velocity": 100, "tagsIdx": [2], "pitch": 39}, {"duration": 0.25, "on": 3.5, "velocity": 100, "tagsIdx": [0], "pitch": 42}, {"duration": 0.25, "on": 3.75, "velocity": 100, "tagsIdx": [0], "pitch": 42}], "eventTags": ["ClosedHH", "Kick", "Clap"], "timeInfo": {"duration": 4, "bpm": 120.0}}, {"eventList": [{"duration": 0.125, "on": 0.0, "velocity": 100, "tagsIdx": [0], "pitch": 42}, {"duration": 0.125, "on": 0.5, "velocity": 100, "tagsIdx": [0], "pitch": 42}, {"duration": 0.125, "on": 1.0, "velocity": 100, "tagsIdx": [1], "pitch": 36}, {"duration": 0.125, "on": 1.0, "velocity": 100, "tagsIdx": [0], "pitch": 42}, {"duration": 0.125, "on": 1.0, "velocity": 100, "tagsIdx": [2], "pitch": 39}, {"duration": 0.125, "on": 1.5, "velocity": 100, "tagsIdx": [0], "pitch": 42}, {"duration": 0.125, "on": 2.0, "velocity": 100, "tagsIdx": [0], "pitch": 42}, {"duration": 0.125, "on": 2.5, "velocity": 100, "tagsIdx": [0], "pitch": 42}, {"duration": 0.125, "on": 3.0, "velocity": 100, "tagsIdx": [0], "pitch": 42}, {"duration": 0.125, "on": 3.0, "velocity": 100, "tagsIdx": [1], "pitch": 36}, {"duration": 0.125, "on": 3.0, "velocity": 100, "tagsIdx": [2], "pitch": 39}, {"duration": 0.125, "on": 3.5, "velocity": 100, "tagsIdx": [0], "pitch": 42}, {"duration": 0.125, "on": 3.75, "velocity": 100, "tagsIdx": [0], "pitch": 42}], "eventTags": ["ClosedHH", "Kick", "Clap"], "timeInfo": {"duration": 4, "bpm": 120.0}}, {"eventList": [{"duration": 0.5, "on": 0.0, "velocity": 95, "tagsIdx": [0], "pitch": 42}, {"duration": 0.5, "on": 0.5, "velocity": 95, "tagsIdx": [0], "pitch": 42}, {"duration": 0.5, "on": 1.0, "velocity": 95, "tagsIdx": [0], "pitch": 42}, {"duration": 0.5, "on": 1.0, "velocity": 95, "tagsIdx": [1], "pitch": 39}, {"duration": 0.5, "on": 1.0, "velocity": 95, "tagsIdx": [2], "pitch": 40}, {"duration": 0.5, "on": 1.5, "velocity": 95, "tagsIdx": [0], "pitch": 42}, {"duration": 0.5, "on": 2.0, "velocity": 95, "tagsIdx": [0], "pitch": 42}, {"duration": 0.5, "on": 2.5, "velocity": 95, "tagsIdx": [0], "pitch": 42}, {"duration": 0.5, "on": 3.0, "velocity": 95, "tagsIdx": [0], "pitch": 42}, {"duration": 0.5, "on": 3.0, "velocity": 95, "tagsIdx": [1], "pitch": 39}, {"duration": 0.5, "on": 3.0, "velocity": 95, "tagsIdx": [2], "pitch": 40}, {"duration": 0.25, "on": 3.5, "velocity": 95, "tagsIdx": [0], "pitch": 42}, {"duration": 0.25, "on": 3.75, "velocity": 95, "tagsIdx": [0], "pitch": 42}], "eventTags": ["ClosedHH", "Clap", "Clave"], "timeInfo": {"duration": 4, "bpm": 120.0}}, {"eventList": [{"duration": 0.5, "on": 0.0, "velocity": 95, "tagsIdx": [0], "pitch": 42}, {"duration": 0.5, "on": 0.5, "velocity": 95, "tagsIdx": [0], "pitch": 42}, {"duration": 0.5, "on": 1.0, "velocity": 95, "tagsIdx": [0], "pitch": 42}, {"duration": 0.5, "on": 1.0, "velocity": 95, "tagsIdx": [1], "pitch": 39}, {"duration": 0.5, "on": 1.0, "velocity": 95, "tagsIdx": [2], "pitch": 40}, {"duration": 0.5, "on": 1.5, "velocity": 95, "tagsIdx": [0], "pitch": 42}, {"duration": 0.25, "on": 2.0, "velocity": 47, "tagsIdx": [0], "pitch": 42}, {"duration": 0.25, "on": 2.25, "velocity": 95, "tagsIdx": [0], "pitch": 42}, {"duration": 0.5, "on": 2.5, "velocity": 47, "tagsIdx": [0], "pitch": 42}, {"duration": 0.5, "on": 3.0, "velocity": 95, "tagsIdx": [0], "pitch": 42}, {"duration": 0.5, "on": 3.0, "velocity": 95, "tagsIdx": [1], "pitch": 39}, {"duration": 0.5, "on": 3.0, "velocity": 95, "tagsIdx": [2], "pitch": 40}, {"duration": 0.5, "on": 3.5, "velocity": 95, "tagsIdx": [3], "pitch": 46}], "eventTags": ["ClosedHH", "Clap", "Clave", "OpenHH"], "timeInfo": {"duration": 4, "bpm": 120.0}}, {"eventList": [{"duration": 0.5, "on": 0.0, "velocity": 95, "tagsIdx": [0], "pitch": 42}, {"duration": 0.5, "on": 0.5, "velocity": 95, "tagsIdx": [0], "pitch": 42}, {"duration": 0.5, "on": 1.0, "velocity": 95, "tagsIdx": [0], "pitch": 42}, {"duration": 0.5, "on": 1.0, "velocity": 95, "tagsIdx": [1], "pitch": 39}, {"duration": 0.5, "on": 1.0, "velocity": 95, "tagsIdx": [2], "pitch": 40}, {"duration": 0.5, "on": 1.5, "velocity": 95, "tagsIdx": [0], "pitch": 42}, {"duration": 0.5, "on": 2.0, "velocity": 95, "tagsIdx": [0], "pitch": 42}, {"duration": 0.5, "on": 2.5, "velocity": 95, "tagsIdx": [0], "pitch": 42}, {"duration": 0.5, "on": 3.0, "velocity": 95, "tagsIdx": [0], "pitch": 42}, {"duration": 0.5, "on": 3.0, "velocity": 95, "tagsIdx": [1], "pitch": 39}, {"duration": 0.5, "on": 3.0, "velocity": 95, "tagsIdx": [2], "pitch": 40}, {"duration": 0.25, "on": 3.5, "velocity": 95, "tagsIdx": [0], "pitch": 42}, {"duration": 0.25, "on": 3.75, "velocity": 95, "tagsIdx": [0], "pitch": 42}], "eventTags": ["ClosedHH", "Clap", "Clave"], "timeInfo": {"duration": 4, "bpm": 120.0}}, {"eventList": [{"duration": 0.25, "on": 0.0, "velocity": 95, "tagsIdx": [0], "pitch": 46}, {"duration": 0.25, "on": 0.25, "velocity": 95, "tagsIdx": [1], "pitch": 42}, {"duration": 0.25, "on": 0.5, "velocity": 95, "tagsIdx": [1], "pitch": 42}, {"duration": 0.25, "on": 0.75, "velocity": 95, "tagsIdx": [1], "pitch": 42}, {"duration": 0.25, "on": 1.0, "velocity": 95, "tagsIdx": [0], "pitch": 46}, {"duration": 0.25, "on": 1.0, "velocity": 95, "tagsIdx": [2], "pitch": 39}, {"duration": 0.25, "on": 1.0, "velocity": 95, "tagsIdx": [3], "pitch": 40}, {"duration": 0.25, "on": 1.25, "velocity": 95, "tagsIdx": [1], "pitch": 42}, {"duration": 0.25, "on": 1.5, "velocity": 95, "tagsIdx": [1], "pitch": 42}, {"duration": 0.25, "on": 1.75, "velocity": 95, "tagsIdx": [1], "pitch": 42}, {"duration": 0.25, "on": 2.0, "velocity": 95, "tagsIdx": [0], "pitch": 46}, {"duration": 0.25, "on": 2.25, "velocity": 95, "tagsIdx": [1], "pitch": 42}, {"duration": 0.25, "on": 2.5, "velocity": 95, "tagsIdx": [1], "pitch": 42}, {"duration": 0.25, "on": 2.75, "velocity": 95, "tagsIdx": [1], "pitch": 42}, {"duration": 0.25, "on": 3.0, "velocity": 95, "tagsIdx": [0], "pitch": 46}, {"duration": 0.25, "on": 3.0, "velocity": 95, "tagsIdx": [2], "pitch": 39}, {"duration": 0.25, "on": 3.0, "velocity": 95, "tagsIdx": [3], "pitch": 40}, {"duration": 0.25, "on": 3.25, "velocity": 95, "tagsIdx": [1], "pitch": 42}, {"duration": 0.25, "on": 3.5, "velocity": 95, "tagsIdx": [1], "pitch": 42}, {"duration": 0.25, "on": 3.75, "velocity": 95, "tagsIdx": [1], "pitch": 42}], "eventTags": ["OpenHH", "ClosedHH", "Clap", "Clave"], "timeInfo": {"duration": 4, "bpm": 120.0}}, {"eventList": [{"duration": 0.25, "on": 0.0, "velocity": 95, "tagsIdx": [0], "pitch": 46}, {"duration": 0.25, "on": 0.25, "velocity": 95, "tagsIdx": [1], "pitch": 42}, {"duration": 0.25, "on": 0.5, "velocity": 95, "tagsIdx": [1], "pitch": 42}, {"duration": 0.25, "on": 0.75, "velocity": 95, "tagsIdx": [1], "pitch": 42}, {"duration": 0.25, "on": 1.0, "velocity": 95, "tagsIdx": [0], "pitch": 46}, {"duration": 0.25, "on": 1.0, "velocity": 95, "tagsIdx": [2], "pitch": 39}, {"duration": 0.25, "on": 1.0, "velocity": 95, "tagsIdx": [3], "pitch": 40}, {"duration": 0.25, "on": 1.25, "velocity": 95, "tagsIdx": [1], "pitch": 42}, {"duration": 0.25, "on": 1.5, "velocity": 95, "tagsIdx": [1], "pitch": 42}, {"duration": 0.25, "on": 1.75, "velocity": 95, "tagsIdx": [1], "pitch": 42}, {"duration": 0.25, "on": 2.0, "velocity": 95, "tagsIdx": [0], "pitch": 46}, {"duration": 0.25, "on": 2.25, "velocity": 95, "tagsIdx": [1], "pitch": 42}, {"duration": 0.25, "on": 2.5, "velocity": 95, "tagsIdx": [1], "pitch": 42}, {"duration": 0.25, "on": 2.75, "velocity": 95, "tagsIdx": [1], "pitch": 42}, {"duration": 0.25, "on": 3.0, "velocity": 95, "tagsIdx": [0], "pitch": 46}, {"duration": 0.25, "on": 3.0, "velocity": 95, "tagsIdx": [2], "pitch": 39}, {"duration": 0.25, "on": 3.0, "velocity": 95, "tagsIdx": [3], "pitch": 40}, {"duration": 0.25, "on": 3.25, "velocity": 95, "tagsIdx": [1], "pitch": 42}, {"duration": 0.25, "on": 3.5, "velocity": 95, "tagsIdx": [1], "pitch": 42}, {"duration": 0.25, "on": 3.75, "velocity": 95, "tagsIdx": [1], "pitch": 42}], "eventTags": ["OpenHH", "ClosedHH", "Clap", "Clave"], "timeInfo": {"duration": 4, "bpm": 120.0}}, {"eventList": [{"duration": 0.125, "on": 0.0, "velocity": 100, "tagsIdx": [0], "pitch": 42}, {"duration": 0.125, "on": 0.5, "velocity": 100, "tagsIdx": [0], "pitch": 42}, {"duration": 0.125, "on": 1.0, "velocity": 100, "tagsIdx": [1], "pitch": 36}, {"duration": 0.125, "on": 1.0, "velocity": 100, "tagsIdx": [0], "pitch": 42}, {"duration": 0.125, "on": 1.0, "velocity": 100, "tagsIdx": [2], "pitch": 39}, {"duration": 0.125, "on": 1.5, "velocity": 100, "tagsIdx": [0], "pitch": 42}, {"duration": 0.125, "on": 2.0, "velocity": 100, "tagsIdx": [0], "pitch": 42}, {"duration": 0.125, "on": 2.5, "velocity": 100, "tagsIdx": [0], "pitch": 42}, {"duration": 0.125, "on": 3.0, "velocity": 100, "tagsIdx": [0], "pitch": 42}, {"duration": 0.125, "on": 3.0, "velocity": 100, "tagsIdx": [1], "pitch": 36}, {"duration": 0.125, "on": 3.0, "velocity": 100, "tagsIdx": [2], "pitch": 39}, {"duration": 0.125, "on": 3.5, "velocity": 100, "tagsIdx": [0], "pitch": 42}, {"duration": 0.125, "on": 3.75, "velocity": 100, "tagsIdx": [0], "pitch": 42}], "eventTags": ["ClosedHH", "Kick", "Clap"], "timeInfo": {"duration": 4, "bpm": 120.0}}, {"eventList": [{"duration": 0.125, "on": 0.0, "velocity": 100, "tagsIdx": [0], "pitch": 42}, {"duration": 0.125, "on": 0.5, "velocity": 100, "tagsIdx": [0], "pitch": 42}, {"duration": 0.125, "on": 1.0, "velocity": 100, "tagsIdx": [1], "pitch": 36}, {"duration": 0.125, "on": 1.0, "velocity": 100, "tagsIdx": [0], "pitch": 42}, {"duration": 0.125, "on": 1.0, "velocity": 100, "tagsIdx": [2], "pitch": 39}, {"duration": 0.125, "on": 1.5, "velocity": 100, "tagsIdx": [0], "pitch": 42}, {"duration": 0.125, "on": 2.0, "velocity": 100, "tagsIdx": [0], "pitch": 42}, {"duration": 0.125, "on": 2.5, "velocity": 100, "tagsIdx": [0], "pitch": 42}, {"duration": 0.125, "on": 3.0, "velocity": 100, "tagsIdx": [0], "pitch": 42}, {"duration": 0.125, "on": 3.0, "velocity": 100, "tagsIdx": [1], "pitch": 36}, {"duration": 0.125, "on": 3.0, "velocity": 100, "tagsIdx": [2], "pitch": 39}, {"duration": 0.125, "on": 3.5, "velocity": 100, "tagsIdx": [0], "pitch": 42}, {"duration": 0.125, "on": 3.75, "velocity": 100, "tagsIdx": [0], "pitch": 42}], "eventTags": ["ClosedHH", "Kick", "Clap"], "timeInfo": {"duration": 4, "bpm": 120.0}}, {"eventList": [{"duration": 0.5, "on": 0.0, "velocity": 95, "tagsIdx": [0], "pitch": 42}, {"duration": 0.5, "on": 0.5, "velocity": 95, "tagsIdx": [0], "pitch": 42}, {"duration": 0.5, "on": 1.0, "velocity": 95, "tagsIdx": [0], "pitch": 42}, {"duration": 0.5, "on": 1.0, "velocity": 95, "tagsIdx": [1], "pitch": 39}, {"duration": 0.5, "on": 1.0, "velocity": 95, "tagsIdx": [2], "pitch": 40}, {"duration": 0.5, "on": 1.5, "velocity": 95, "tagsIdx": [0], "pitch": 42}, {"duration": 0.25, "on": 2.0, "velocity": 47, "tagsIdx": [0], "pitch": 42}, {"duration": 0.25, "on": 2.25, "velocity": 95, "tagsIdx": [0], "pitch": 42}, {"duration": 0.5, "on": 2.5, "velocity": 47, "tagsIdx": [0], "pitch": 42}, {"duration": 0.5, "on": 3.0, "velocity": 95, "tagsIdx": [0], "pitch": 42}, {"duration": 0.5, "on": 3.0, "velocity": 95, "tagsIdx": [1], "pitch": 39}, {"duration": 0.5, "on": 3.0, "velocity": 95, "tagsIdx": [2], "pitch": 40}, {"duration": 0.5, "on": 3.5, "velocity": 95, "tagsIdx": [3], "pitch": 46}], "eventTags": ["ClosedHH", "Clap", "Clave", "OpenHH"], "timeInfo": {"duration": 4, "bpm": 120.0}}, {"eventList": [{"duration": 0.5, "on": 0.0, "velocity": 95, "tagsIdx": [0], "pitch": 42}, {"duration": 0.5, "on": 0.5, "velocity": 95, "tagsIdx": [0], "pitch": 42}, {"duration": 0.5, "on": 1.0, "velocity": 95, "tagsIdx": [0], "pitch": 42}, {"duration": 0.5, "on": 1.0, "velocity": 95, "tagsIdx": [1], "pitch": 39}, {"duration": 0.5, "on": 1.0, "velocity": 95, "tagsIdx": [2], "pitch": 40}, {"duration": 0.5, "on": 1.5, "velocity": 95, "tagsIdx": [0], "pitch": 42}, {"duration": 0.5, "on": 2.0, "velocity": 95, "tagsIdx": [0], "pitch": 42}, {"duration": 0.5, "on": 2.5, "velocity": 95, "tagsIdx": [0], "pitch": 42}, {"duration": 0.5, "on": 3.0, "velocity": 95, "tagsIdx": [0], "pitch": 42}, {"duration": 0.5, "on": 3.0, "velocity": 95, "tagsIdx": [1], "pitch": 39}, {"duration": 0.5, "on": 3.0, "velocity": 95, "tagsIdx": [2], "pitch": 40}, {"duration": 0.25, "on": 3.5, "velocity": 95, "tagsIdx": [0], "pitch": 42}, {"duration": 0.25, "on": 3.75, "velocity": 95, "tagsIdx": [0], "pitch": 42}], "eventTags": ["ClosedHH", "Clap", "Clave"], "timeInfo": {"duration": 4, "bpm": 120.0}}, {"eventList": [{"duration": 0.5, "on": 0.0, "velocity": 95, "tagsIdx": [0], "pitch": 42}, {"duration": 0.5, "on": 0.5, "velocity": 95, "tagsIdx": [0], "pitch": 42}, {"duration": 0.5, "on": 1.0, "velocity": 95, "tagsIdx": [0], "pitch": 42}, {"duration": 0.5, "on": 1.0, "velocity": 95, "tagsIdx": [1], "pitch": 39}, {"duration": 0.5, "on": 1.0, "velocity": 95, "tagsIdx": [2], "pitch": 40}, {"duration": 0.5, "on": 1.5, "velocity": 95, "tagsIdx": [0], "pitch": 42}, {"duration": 0.5, "on": 2.0, "velocity": 95, "tagsIdx": [0], "pitch": 42}, {"duration": 0.5, "on": 2.5, "velocity": 95, "tagsIdx": [0], "pitch": 42}, {"duration": 0.5, "on": 3.0, "velocity": 95, "tagsIdx": [0], "pitch": 42}, {"duration": 0.5, "on": 3.0, "velocity": 95, "tagsIdx": [1], "pitch": 39}, {"duration": 0.5, "on": 3.0, "velocity": 95, "tagsIdx": [2], "pitch": 40}, {"duration": 0.25, "on": 3.5, "velocity": 95, "tagsIdx": [0], "pitch": 42}, {"duration": 0.25, "on": 3.75, "velocity": 95, "tagsIdx": [0], "pitch": 42}], "eventTags": ["ClosedHH", "Clap", "Clave"], "timeInfo": {"duration": 4, "bpm": 120.0}}, {"eventList": [{"duration": 0.5, "on": 0.0, "velocity": 95, "tagsIdx": [0], "pitch": 42}, {"duration": 0.5, "on": 0.5, "velocity": 95, "tagsIdx": [0], "pitch": 42}, {"duration": 0.5, "on": 1.0, "velocity": 95, "tagsIdx": [0], "pitch": 42}, {"duration": 0.5, "on": 1.0, "velocity": 95, "tagsIdx": [1], "pitch": 39}, {"duration": 0.5, "on": 1.0, "velocity": 95, "tagsIdx": [2], "pitch": 40}, {"duration": 0.5, "on": 1.5, "velocity": 95, "tagsIdx": [0], "pitch": 42}, {"duration": 0.5, "on": 2.0, "velocity": 95, "tagsIdx": [0], "pitch": 42}, {"duration": 0.5, "on": 2.5, "velocity": 95, "tagsIdx": [0], "pitch": 42}, {"duration": 0.5, "on": 3.0, "velocity": 95, "tagsIdx": [0], "pitch": 42}, {"duration": 0.5, "on": 3.0, "velocity": 95, "tagsIdx": [1], "pitch": 39}, {"duration": 0.5, "on": 3.0, "velocity": 95, "tagsIdx": [2], "pitch": 40}, {"duration": 0.25, "on": 3.5, "velocity": 95, "tagsIdx": [0], "pitch": 42}, {"duration": 0.25, "on": 3.75, "velocity": 95, "tagsIdx": [0], "pitch": 42}], "eventTags": ["ClosedHH", "Clap", "Clave"], "timeInfo": {"duration": 4, "bpm": 120.0}}, {"eventList": [{"duration": 0.5, "on": 0.0, "velocity": 95, "tagsIdx": [0], "pitch": 42}, {"duration": 0.5, "on": 0.5, "velocity": 95, "tagsIdx": [0], "pitch": 42}, {"duration": 0.5, "on": 1.0, "velocity": 95, "tagsIdx": [0], "pitch": 42}, {"duration": 0.5, "on": 1.0, "velocity": 95, "tagsIdx": [1], "pitch": 39}, {"duration": 0.5, "on": 1.0, "velocity": 95, "tagsIdx": [2], "pitch": 40}, {"duration": 0.5, "on": 1.5, "velocity": 95, "tagsIdx": [0], "pitch": 42}, {"duration": 0.5, "on": 2.0, "velocity": 95, "tagsIdx": [0], "pitch": 42}, {"duration": 0.5, "on": 2.5, "velocity": 95, "tagsIdx": [3], "pitch": 46}, {"duration": 0.25, "on": 3.0, "velocity": 95, "tagsIdx": [1], "pitch": 39}, {"duration": 0.25, "on": 3.0, "velocity": 95, "tagsIdx": [2], "pitch": 40}, {"duration": 0.25, "on": 3.25, "velocity": 95, "tagsIdx": [0], "pitch": 42}, {"duration": 0.5, "on": 3.5, "velocity": 95, "tagsIdx": [3], "pitch": 46}], "eventTags": ["ClosedHH", "Clap", "Clave", "OpenHH"], "timeInfo": {"duration": 4, "bpm": 120.0}}, {"eventList": [{"duration": 0.5, "on": 0.0, "velocity": 95, "tagsIdx": [0], "pitch": 42}, {"duration": 0.5, "on": 0.5, "velocity": 95, "tagsIdx": [0], "pitch": 42}, {"duration": 0.5, "on": 1.0, "velocity": 95, "tagsIdx": [0], "pitch": 42}, {"duration": 0.5, "on": 1.0, "velocity": 95, "tagsIdx": [1], "pitch": 39}, {"duration": 0.5, "on": 1.0, "velocity": 95, "tagsIdx": [2], "pitch": 40}, {"duration": 0.5, "on": 1.5, "velocity": 95, "tagsIdx": [0], "pitch": 42}, {"duration": 0.5, "on": 2.0, "velocity": 95, "tagsIdx": [0], "pitch": 42}, {"duration": 0.5, "on": 2.5, "velocity": 95, "tagsIdx": [0], "pitch": 42}, {"duration": 0.5, "on": 3.0, "velocity": 95, "tagsIdx": [0], "pitch": 42}, {"duration": 0.5, "on": 3.0, "velocity": 95, "tagsIdx": [1], "pitch": 39}, {"duration": 0.5, "on": 3.0, "velocity": 95, "tagsIdx": [2], "pitch": 40}, {"duration": 0.25, "on": 3.5, "velocity": 95, "tagsIdx": [0], "pitch": 42}, {"duration": 0.25, "on": 3.75, "velocity": 95, "tagsIdx": [0], "pitch": 42}], "eventTags": ["ClosedHH", "Clap", "Clave"], "timeInfo": {"duration": 4, "bpm": 120.0}}, {"eventList": [{"duration": 0.5, "on": 0.0, "velocity": 95, "tagsIdx": [0], "pitch": 42}, {"duration": 0.5, "on": 0.5, "velocity": 95, "tagsIdx": [0], "pitch": 42}, {"duration": 0.5, "on": 1.0, "velocity": 95, "tagsIdx": [0], "pitch": 42}, {"duration": 0.5, "on": 1.0, "velocity": 95, "tagsIdx": [1], "pitch": 39}, {"duration": 0.5, "on": 1.0, "velocity": 95, "tagsIdx": [2], "pitch": 40}, {"duration": 0.5, "on": 1.5, "velocity": 95, "tagsIdx": [0], "pitch": 42}, {"duration": 0.5, "on": 2.0, "velocity": 95, "tagsIdx": [0], "pitch": 42}, {"duration": 0.5, "on": 2.5, "velocity": 95, "tagsIdx": [0], "pitch": 42}, {"duration": 0.5, "on": 3.0, "velocity": 95, "tagsIdx": [0], "pitch": 42}, {"duration": 0.5, "on": 3.0, "velocity": 95, "tagsIdx": [1], "pitch": 39}, {"duration": 0.5, "on": 3.0, "velocity": 95, "tagsIdx": [2], "pitch": 40}, {"duration": 0.25, "on": 3.5, "velocity": 95, "tagsIdx": [0], "pitch": 42}, {"duration": 0.25, "on": 3.75, "velocity": 95, "tagsIdx": [0], "pitch": 42}], "eventTags": ["ClosedHH", "Clap", "Clave"], "timeInfo": {"duration": 4, "bpm": 120.0}}, {"eventList": [{"duration": 0.5, "on": 0.0, "velocity": 95, "tagsIdx": [0], "pitch": 49}, {"duration": 0.5, "on": 0.5, "velocity": 95, "tagsIdx": [1], "pitch": 42}, {"duration": 0.5, "on": 1.0, "velocity": 95, "tagsIdx": [1], "pitch": 42}, {"duration": 0.5, "on": 1.0, "velocity": 95, "tagsIdx": [2], "pitch": 39}, {"duration": 0.5, "on": 1.0, "velocity": 95, "tagsIdx": [3], "pitch": 40}, {"duration": 0.5, "on": 1.5, "velocity": 95, "tagsIdx": [1], "pitch": 42}, {"duration": 0.5, "on": 2.0, "velocity": 95, "tagsIdx": [1], "pitch": 42}, {"duration": 0.5, "on": 2.5, "velocity": 95, "tagsIdx": [1], "pitch": 42}, {"duration": 0.5, "on": 3.0, "velocity": 95, "tagsIdx": [1], "pitch": 42}, {"duration": 0.5, "on": 3.0, "velocity": 95, "tagsIdx": [2], "pitch": 39}, {"duration": 0.5, "on": 3.0, "velocity": 95, "tagsIdx": [3], "pitch": 40}, {"duration": 0.25, "on": 3.5, "velocity": 95, "tagsIdx": [1], "pitch": 42}, {"duration": 0.25, "on": 3.75, "velocity": 95, "tagsIdx": [1], "pitch": 42}], "eventTags": ["Cymbal", "ClosedHH", "Clap", "Clave"], "timeInfo": {"duration": 4, "bpm": 120.0}}, {"eventList": [{"duration": 0.11249999999999716, "on": 0.0, "velocity": 120, "tagsIdx": [0], "pitch": 36}, {"duration": 0.11249999999999716, "on": 0.5, "velocity": 120, "tagsIdx": [1], "pitch": 44}, {"duration": 0.11249999999999716, "on": 1.0, "velocity": 120, "tagsIdx": [2], "pitch": 40}, {"duration": 0.11249999999999716, "on": 1.0, "velocity": 120, "tagsIdx": [3], "pitch": 39}, {"duration": 0.11249999999999716, "on": 1.5, "velocity": 120, "tagsIdx": [1], "pitch": 44}, {"duration": 0.11249999999999716, "on": 2.0, "velocity": 120, "tagsIdx": [0], "pitch": 36}, {"duration": 0.11249999999999716, "on": 2.5, "velocity": 120, "tagsIdx": [1], "pitch": 44}, {"duration": 0.11249999999999716, "on": 3.0, "velocity": 120, "tagsIdx": [3], "pitch": 39}, {"duration": 0.11249999999999716, "on": 3.0, "velocity": 120, "tagsIdx": [2], "pitch": 40}, {"duration": 0.11249999999999716, "on": 3.5, "velocity": 120, "tagsIdx": [1], "pitch": 44}], "eventTags": ["Kick", "Shake", "Clave", "Clap"], "timeInfo": {"duration": 4, "bpm": 120.0}}, {"eventList": [{"duration": 0.11249999999999716, "on": 0.0, "velocity": 120, "tagsIdx": [0], "pitch": 36}, {"duration": 0.11249999999999716, "on": 0.5, "velocity": 120, "tagsIdx": [1], "pitch": 44}, {"duration": 0.11249999999999716, "on": 1.0, "velocity": 120, "tagsIdx": [2], "pitch": 40}, {"duration": 0.11249999999999716, "on": 1.0, "velocity": 120, "tagsIdx": [3], "pitch": 39}, {"duration": 0.11249999999999716, "on": 1.5, "velocity": 120, "tagsIdx": [1], "pitch": 44}, {"duration": 0.11249999999999716, "on": 2.0, "velocity": 120, "tagsIdx": [0], "pitch": 36}, {"duration": 0.11249999999999716, "on": 2.5, "velocity": 120, "tagsIdx": [1], "pitch": 44}, {"duration": 0.11249999999999716, "on": 3.0, "velocity": 120, "tagsIdx": [3], "pitch": 39}, {"duration": 0.11249999999999716, "on": 3.0, "velocity": 120, "tagsIdx": [2], "pitch": 40}, {"duration": 0.11249999999999716, "on": 3.5, "velocity": 120, "tagsIdx": [1], "pitch": 44}], "eventTags": ["Kick", "Shake", "Clave", "Clap"], "timeInfo": {"duration": 4, "bpm": 120.0}}, {"eventList": [{"duration": 0.11249999999999716, "on": 0.0, "velocity": 120, "tagsIdx": [0], "pitch": 36}, {"duration": 0.11249999999999716, "on": 0.5, "velocity": 120, "tagsIdx": [1], "pitch": 44}, {"duration": 0.11249999999999716, "on": 1.0, "velocity": 120, "tagsIdx": [2], "pitch": 40}, {"duration": 0.11249999999999716, "on": 1.0, "velocity": 120, "tagsIdx": [3], "pitch": 39}, {"duration": 0.11249999999999716, "on": 1.5, "velocity": 120, "tagsIdx": [1], "pitch": 44}, {"duration": 0.11249999999999716, "on": 2.0, "velocity": 120, "tagsIdx": [0], "pitch": 36}, {"duration": 0.11249999999999716, "on": 2.5, "velocity": 120, "tagsIdx": [1], "pitch": 44}, {"duration": 0.11249999999999716, "on": 3.0, "velocity": 120, "tagsIdx": [3], "pitch": 39}, {"duration": 0.11249999999999716, "on": 3.0, "velocity": 120, "tagsIdx": [2], "pitch": 40}, {"duration": 0.11249999999999716, "on": 3.5, "velocity": 120, "tagsIdx": [1], "pitch": 44}], "eventTags": ["Kick", "Shake", "Clave", "Clap"], "timeInfo": {"duration": 4, "bpm": 120.0}}, {"eventList": [{"duration": 0.11249999999999716, "on": 0.0, "velocity": 120, "tagsIdx": [0], "pitch": 36}, {"duration": 0.11249999999999716, "on": 0.5, "velocity": 120, "tagsIdx": [1], "pitch": 44}, {"duration": 0.11249999999999716, "on": 1.0, "velocity": 120, "tagsIdx": [2], "pitch": 40}, {"duration": 0.11249999999999716, "on": 1.0, "velocity": 120, "tagsIdx": [3], "pitch": 39}, {"duration": 0.11249999999999716, "on": 1.5, "velocity": 120, "tagsIdx": [1], "pitch": 44}, {"duration": 0.11249999999999716, "on": 2.0, "velocity": 120, "tagsIdx": [0], "pitch": 36}, {"duration": 0.11249999999999716, "on": 2.5, "velocity": 120, "tagsIdx": [1], "pitch": 44}, {"duration": 0.11249999999999716, "on": 3.0, "velocity": 120, "tagsIdx": [3], "pitch": 39}, {"duration": 0.11249999999999716, "on": 3.0, "velocity": 120, "tagsIdx": [2], "pitch": 40}, {"duration": 0.11249999999999716, "on": 3.5, "velocity": 120, "tagsIdx": [1], "pitch": 44}], "eventTags": ["Kick", "Shake", "Clave", "Clap"], "timeInfo": {"duration": 4, "bpm": 120.0}}, {"eventList": [{"duration": 0.11249999999999716, "on": 0.0, "velocity": 120, "tagsIdx": [0], "pitch": 36}, {"duration": 0.11249999999999716, "on": 0.5, "velocity": 120, "tagsIdx": [1], "pitch": 44}, {"duration": 0.11249999999999716, "on": 1.0, "velocity": 120, "tagsIdx": [2], "pitch": 40}, {"duration": 0.11249999999999716, "on": 1.0, "velocity": 120, "tagsIdx": [3], "pitch": 39}, {"duration": 0.11249999999999716, "on": 1.5, "velocity": 120, "tagsIdx": [1], "pitch": 44}, {"duration": 0.11249999999999716, "on": 2.0, "velocity": 120, "tagsIdx": [0], "pitch": 36}, {"duration": 0.11249999999999716, "on": 2.5, "velocity": 120, "tagsIdx": [1], "pitch": 44}, {"duration": 0.11249999999999716, "on": 3.0, "velocity": 120, "tagsIdx": [3], "pitch": 39}, {"duration": 0.11249999999999716, "on": 3.0, "velocity": 120, "tagsIdx": [2], "pitch": 40}, {"duration": 0.11249999999999716, "on": 3.5, "velocity": 120, "tagsIdx": [1], "pitch": 44}], "eventTags": ["Kick", "Shake", "Clave", "Clap"], "timeInfo": {"duration": 4, "bpm": 120.0}}, {"eventList": [{"duration": 0.11249999999999716, "on": 0.0, "velocity": 120, "tagsIdx": [0], "pitch": 36}, {"duration": 0.11249999999999716, "on": 0.5, "velocity": 120, "tagsIdx": [1], "pitch": 44}, {"duration": 0.11249999999999716, "on": 1.0, "velocity": 120, "tagsIdx": [2], "pitch": 40}, {"duration": 0.11249999999999716, "on": 1.0, "velocity": 120, "tagsIdx": [3], "pitch": 39}, {"duration": 0.11249999999999716, "on": 1.5, "velocity": 120, "tagsIdx": [1], "pitch": 44}, {"duration": 0.11249999999999716, "on": 2.0, "velocity": 120, "tagsIdx": [0], "pitch": 36}, {"duration": 0.11249999999999716, "on": 2.5, "velocity": 120, "tagsIdx": [1], "pitch": 44}, {"duration": 0.11249999999999716, "on": 3.0, "velocity": 120, "tagsIdx": [3], "pitch": 39}, {"duration": 0.11249999999999716, "on": 3.0, "velocity": 120, "tagsIdx": [2], "pitch": 40}, {"duration": 0.11249999999999716, "on": 3.5, "velocity": 120, "tagsIdx": [1], "pitch": 44}], "eventTags": ["Kick", "Shake", "Clave", "Clap"], "timeInfo": {"duration": 4, "bpm": 120.0}}, {"eventList": [{"duration": 0.11249999999999716, "on": 0.0, "velocity": 120, "tagsIdx": [0], "pitch": 36}, {"duration": 0.11249999999999716, "on": 0.5, "velocity": 120, "tagsIdx": [1], "pitch": 44}, {"duration": 0.11249999999999716, "on": 1.0, "velocity": 120, "tagsIdx": [2], "pitch": 40}, {"duration": 0.11249999999999716, "on": 1.0, "velocity": 120, "tagsIdx": [3], "pitch": 39}, {"duration": 0.11249999999999716, "on": 1.5, "velocity": 120, "tagsIdx": [1], "pitch": 44}, {"duration": 0.11249999999999716, "on": 2.0, "velocity": 120, "tagsIdx": [0], "pitch": 36}, {"duration": 0.11249999999999716, "on": 2.5, "velocity": 120, "tagsIdx": [1], "pitch": 44}, {"duration": 0.11249999999999716, "on": 3.0, "velocity": 120, "tagsIdx": [3], "pitch": 39}, {"duration": 0.11249999999999716, "on": 3.0, "velocity": 120, "tagsIdx": [2], "pitch": 40}, {"duration": 0.11249999999999716, "on": 3.5, "velocity": 120, "tagsIdx": [1], "pitch": 44}], "eventTags": ["Kick", "Shake", "Clave", "Clap"], "timeInfo": {"duration": 4, "bpm": 120.0}}, {"eventList": [{"duration": 0.11249999999999716, "on": 0.0, "velocity": 120, "tagsIdx": [0], "pitch": 36}, {"duration": 0.11249999999999716, "on": 0.5, "velocity": 120, "tagsIdx": [1], "pitch": 44}, {"duration": 0.11249999999999716, "on": 1.0, "velocity": 120, "tagsIdx": [2], "pitch": 40}, {"duration": 0.11249999999999716, "on": 1.0, "velocity": 120, "tagsIdx": [3], "pitch": 39}, {"duration": 0.11249999999999716, "on": 1.5, "velocity": 120, "tagsIdx": [1], "pitch": 44}, {"duration": 0.11249999999999716, "on": 2.0, "velocity": 120, "tagsIdx": [0], "pitch": 36}, {"duration": 0.11249999999999716, "on": 2.5, "velocity": 120, "tagsIdx": [1], "pitch": 44}, {"duration": 0.11249999999999716, "on": 3.0, "velocity": 120, "tagsIdx": [3], "pitch": 39}, {"duration": 0.11249999999999716, "on": 3.0, "velocity": 120, "tagsIdx": [2], "pitch": 40}, {"duration": 0.11249999999999716, "on": 3.5, "velocity": 120, "tagsIdx": [1], "pitch": 44}], "eventTags": ["Kick", "Shake", "Clave", "Clap"], "timeInfo": {"duration": 4, "bpm": 120.0}}, {"eventList": [{"duration": 0.11249999999999716, "on": 0.0, "velocity": 120, "tagsIdx": [0], "pitch": 36}, {"duration": 0.11249999999999716, "on": 0.5, "velocity": 120, "tagsIdx": [1], "pitch": 44}, {"duration": 0.11249999999999716, "on": 1.0, "velocity": 120, "tagsIdx": [2], "pitch": 40}, {"duration": 0.11249999999999716, "on": 1.0, "velocity": 120, "tagsIdx": [3], "pitch": 39}, {"duration": 0.11249999999999716, "on": 1.5, "velocity": 120, "tagsIdx": [1], "pitch": 44}, {"duration": 0.11249999999999716, "on": 2.0, "velocity": 120, "tagsIdx": [0], "pitch": 36}, {"duration": 0.11249999999999716, "on": 2.5, "velocity": 120, "tagsIdx": [1], "pitch": 44}, {"duration": 0.11249999999999716, "on": 3.0, "velocity": 120, "tagsIdx": [3], "pitch": 39}, {"duration": 0.11249999999999716, "on": 3.0, "velocity": 120, "tagsIdx": [2], "pitch": 40}, {"duration": 0.11249999999999716, "on": 3.5, "velocity": 120, "tagsIdx": [1], "pitch": 44}], "eventTags": ["Kick", "Shake", "Clave", "Clap"], "timeInfo": {"duration": 4, "bpm": 120.0}}, {"eventList": [{"duration": 0.11249999999999716, "on": 0.0, "velocity": 120, "tagsIdx": [0], "pitch": 36}, {"duration": 0.11249999999999716, "on": 0.5, "velocity": 120, "tagsIdx": [1], "pitch": 44}, {"duration": 0.11249999999999716, "on": 1.0, "velocity": 120, "tagsIdx": [2], "pitch": 40}, {"duration": 0.11249999999999716, "on": 1.0, "velocity": 120, "tagsIdx": [3], "pitch": 39}, {"duration": 0.11249999999999716, "on": 1.5, "velocity": 120, "tagsIdx": [1], "pitch": 44}, {"duration": 0.11249999999999716, "on": 2.0, "velocity": 120, "tagsIdx": [0], "pitch": 36}, {"duration": 0.11249999999999716, "on": 2.5, "velocity": 120, "tagsIdx": [1], "pitch": 44}, {"duration": 0.11249999999999716, "on": 3.0, "velocity": 120, "tagsIdx": [3], "pitch": 39}, {"duration": 0.11249999999999716, "on": 3.0, "velocity": 120, "tagsIdx": [2], "pitch": 40}, {"duration": 0.11249999999999716, "on": 3.5, "velocity": 120, "tagsIdx": [1], "pitch": 44}], "eventTags": ["Kick", "Shake", "Clave", "Clap"], "timeInfo": {"duration": 4, "bpm": 120.0}}, {"eventList": [{"duration": 0.5, "on": 0.0, "velocity": 95, "tagsIdx": [0], "pitch": 42}, {"duration": 0.5, "on": 0.5, "velocity": 95, "tagsIdx": [0], "pitch": 42}, {"duration": 0.5, "on": 1.0, "velocity": 95, "tagsIdx": [0], "pitch": 42}, {"duration": 0.5, "on": 1.0, "velocity": 95, "tagsIdx": [1], "pitch": 39}, {"duration": 0.5, "on": 1.0, "velocity": 95, "tagsIdx": [2], "pitch": 40}, {"duration": 0.5, "on": 1.5, "velocity": 95, "tagsIdx": [0], "pitch": 42}, {"duration": 0.5, "on": 2.0, "velocity": 95, "tagsIdx": [0], "pitch": 42}, {"duration": 0.5, "on": 2.5, "velocity": 95, "tagsIdx": [0], "pitch": 42}, {"duration": 0.5, "on": 3.0, "velocity": 95, "tagsIdx": [0], "pitch": 42}, {"duration": 0.5, "on": 3.0, "velocity": 95, "tagsIdx": [1], "pitch": 39}, {"duration": 0.5, "on": 3.0, "velocity": 95, "tagsIdx": [2], "pitch": 40}, {"duration": 0.25, "on": 3.5, "velocity": 95, "tagsIdx": [0], "pitch": 42}, {"duration": 0.25, "on": 3.75, "velocity": 95, "tagsIdx": [0], "pitch": 42}], "eventTags": ["ClosedHH", "Clap", "Clave"], "timeInfo": {"duration": 4, "bpm": 120.0}}, {"eventList": [{"duration": 0.25, "on": 0.0, "velocity": 95, "tagsIdx": [0], "pitch": 38}, {"duration": 0.25, "on": 0.0, "velocity": 95, "tagsIdx": [1], "pitch": 42}, {"duration": 0.25, "on": 0.0, "velocity": 63, "tagsIdx": [2], "pitch": 39}, {"duration": 0.25, "on": 0.25, "velocity": 111, "tagsIdx": [3], "pitch": 36}, {"duration": 0.25, "on": 0.25, "velocity": 95, "tagsIdx": [1], "pitch": 42}, {"duration": 0.25, "on": 0.5, "velocity": 95, "tagsIdx": [1], "pitch": 42}, {"duration": 0.25, "on": 0.75, "velocity": 95, "tagsIdx": [1], "pitch": 42}, {"duration": 0.25, "on": 1.0, "velocity": 111, "tagsIdx": [3], "pitch": 36}, {"duration": 0.25, "on": 1.0, "velocity": 127, "tagsIdx": [1], "pitch": 42}, {"duration": 0.25, "on": 1.25, "velocity": 127, "tagsIdx": [1], "pitch": 42}, {"duration": 0.25, "on": 2.0, "velocity": 95, "tagsIdx": [0], "pitch": 38}, {"duration": 0.25, "on": 2.0, "velocity": 95, "tagsIdx": [1], "pitch": 42}, {"duration": 0.25, "on": 2.0, "velocity": 47, "tagsIdx": [2], "pitch": 39}, {"duration": 0.25, "on": 3.0, "velocity": 95, "tagsIdx": [3], "pitch": 36}, {"duration": 0.25, "on": 3.0, "velocity": 95, "tagsIdx": [1], "pitch": 42}], "eventTags": ["Snare", "ClosedHH", "Clap", "Kick"], "timeInfo": {"duration": 4, "bpm": 120.0}}, {"eventList": [{"duration": 0.5, "on": 0.0, "velocity": 95, "tagsIdx": [0], "pitch": 42}, {"duration": 0.5, "on": 0.5, "velocity": 95, "tagsIdx": [0], "pitch": 42}, {"duration": 0.5, "on": 1.0, "velocity": 95, "tagsIdx": [0], "pitch": 42}, {"duration": 0.5, "on": 1.0, "velocity": 95, "tagsIdx": [1], "pitch": 39}, {"duration": 0.5, "on": 1.0, "velocity": 95, "tagsIdx": [2], "pitch": 40}, {"duration": 0.5, "on": 1.5, "velocity": 95, "tagsIdx": [0], "pitch": 42}, {"duration": 0.5, "on": 2.0, "velocity": 95, "tagsIdx": [0], "pitch": 42}, {"duration": 0.5, "on": 2.5, "velocity": 95, "tagsIdx": [0], "pitch": 42}, {"duration": 0.5, "on": 3.0, "velocity": 95, "tagsIdx": [0], "pitch": 42}, {"duration": 0.5, "on": 3.0, "velocity": 95, "tagsIdx": [1], "pitch": 39}, {"duration": 0.5, "on": 3.0, "velocity": 95, "tagsIdx": [2], "pitch": 40}, {"duration": 0.25, "on": 3.5, "velocity": 95, "tagsIdx": [0], "pitch": 42}, {"duration": 0.25, "on": 3.75, "velocity": 95, "tagsIdx": [0], "pitch": 42}], "eventTags": ["ClosedHH", "Clap", "Clave"], "timeInfo": {"duration": 4, "bpm": 120.0}}, {"eventList": [{"duration": 0.125, "on": 0.0, "velocity": 100, "tagsIdx": [0], "pitch": 42}, {"duration": 0.125, "on": 0.5, "velocity": 100, "tagsIdx": [0], "pitch": 42}, {"duration": 0.125, "on": 1.0, "velocity": 100, "tagsIdx": [1], "pitch": 36}, {"duration": 0.125, "on": 1.0, "velocity": 100, "tagsIdx": [0], "pitch": 42}, {"duration": 0.125, "on": 1.0, "velocity": 100, "tagsIdx": [2], "pitch": 39}, {"duration": 0.125, "on": 1.5, "velocity": 100, "tagsIdx": [0], "pitch": 42}, {"duration": 0.125, "on": 2.0, "velocity": 100, "tagsIdx": [0], "pitch": 42}, {"duration": 0.125, "on": 2.5, "velocity": 100, "tagsIdx": [0], "pitch": 42}, {"duration": 0.125, "on": 3.0, "velocity": 100, "tagsIdx": [0], "pitch": 42}, {"duration": 0.125, "on": 3.0, "velocity": 100, "tagsIdx": [1], "pitch": 36}, {"duration": 0.125, "on": 3.0, "velocity": 100, "tagsIdx": [2], "pitch": 39}, {"duration": 0.25, "on": 3.5, "velocity": 100, "tagsIdx": [0], "pitch": 42}, {"duration": 0.25, "on": 3.75, "velocity": 100, "tagsIdx": [0], "pitch": 42}], "eventTags": ["ClosedHH", "Kick", "Clap"], "timeInfo": {"duration": 4, "bpm": 120.0}}, {"eventList": [{"duration": 0.25, "on": 0.0, "velocity": 95, "tagsIdx": [0], "pitch": 46}, {"duration": 0.25, "on": 0.25, "velocity": 95, "tagsIdx": [1], "pitch": 42}, {"duration": 0.25, "on": 0.5, "velocity": 95, "tagsIdx": [1], "pitch": 42}, {"duration": 0.25, "on": 0.75, "velocity": 95, "tagsIdx": [1], "pitch": 42}, {"duration": 0.25, "on": 1.0, "velocity": 95, "tagsIdx": [0], "pitch": 46}, {"duration": 0.25, "on": 1.0, "velocity": 95, "tagsIdx": [2], "pitch": 39}, {"duration": 0.25, "on": 1.0, "velocity": 95, "tagsIdx": [3], "pitch": 40}, {"duration": 0.25, "on": 1.25, "velocity": 95, "tagsIdx": [1], "pitch": 42}, {"duration": 0.25, "on": 1.5, "velocity": 95, "tagsIdx": [1], "pitch": 42}, {"duration": 0.25, "on": 1.75, "velocity": 95, "tagsIdx": [1], "pitch": 42}, {"duration": 0.25, "on": 2.0, "velocity": 95, "tagsIdx": [0], "pitch": 46}, {"duration": 0.25, "on": 2.25, "velocity": 95, "tagsIdx": [1], "pitch": 42}, {"duration": 0.25, "on": 2.5, "velocity": 95, "tagsIdx": [1], "pitch": 42}, {"duration": 0.25, "on": 2.75, "velocity": 95, "tagsIdx": [1], "pitch": 42}, {"duration": 0.25, "on": 3.0, "velocity": 95, "tagsIdx": [0], "pitch": 46}, {"duration": 0.25, "on": 3.0, "velocity": 95, "tagsIdx": [2], "pitch": 39}, {"duration": 0.25, "on": 3.0, "velocity": 95, "tagsIdx": [3], "pitch": 40}, {"duration": 0.25, "on": 3.25, "velocity": 95, "tagsIdx": [1], "pitch": 42}, {"duration": 0.5, "on": 3.5, "velocity": 95, "tagsIdx": [0], "pitch": 46}], "eventTags": ["OpenHH", "ClosedHH", "Clap", "Clave"], "timeInfo": {"duration": 4, "bpm": 120.0}}, {"eventList": [{"duration": 0.25, "on": 0.0, "velocity": 95, "tagsIdx": [0], "pitch": 46}, {"duration": 0.25, "on": 0.25, "velocity": 95, "tagsIdx": [1], "pitch": 42}, {"duration": 0.25, "on": 0.5, "velocity": 95, "tagsIdx": [1], "pitch": 42}, {"duration": 0.25, "on": 0.75, "velocity": 95, "tagsIdx": [1], "pitch": 42}, {"duration": 0.25, "on": 1.0, "velocity": 95, "tagsIdx": [0], "pitch": 46}, {"duration": 0.25, "on": 1.0, "velocity": 95, "tagsIdx": [2], "pitch": 39}, {"duration": 0.25, "on": 1.0, "velocity": 95, "tagsIdx": [3], "pitch": 40}, {"duration": 0.25, "on": 1.25, "velocity": 95, "tagsIdx": [1], "pitch": 42}, {"duration": 0.25, "on": 1.5, "velocity": 95, "tagsIdx": [1], "pitch": 42}, {"duration": 0.25, "on": 1.75, "velocity": 95, "tagsIdx": [1], "pitch": 42}, {"duration": 0.25, "on": 2.0, "velocity": 95, "tagsIdx": [0], "pitch": 46}, {"duration": 0.25, "on": 2.25, "velocity": 95, "tagsIdx": [1], "pitch": 42}, {"duration": 0.25, "on": 2.5, "velocity": 95, "tagsIdx": [1], "pitch": 42}, {"duration": 0.25, "on": 2.75, "velocity": 95, "tagsIdx": [1], "pitch": 42}, {"duration": 0.25, "on": 3.0, "velocity": 95, "tagsIdx": [0], "pitch": 46}, {"duration": 0.25, "on": 3.0, "velocity": 95, "tagsIdx": [2], "pitch": 39}, {"duration": 0.25, "on": 3.0, "velocity": 95, "tagsIdx": [3], "pitch": 40}, {"duration": 0.25, "on": 3.25, "velocity": 95, "tagsIdx": [1], "pitch": 42}, {"duration": 0.25, "on": 3.5, "velocity": 95, "tagsIdx": [1], "pitch": 42}, {"duration": 0.25, "on": 3.75, "velocity": 95, "tagsIdx": [1], "pitch": 42}], "eventTags": ["OpenHH", "ClosedHH", "Clap", "Clave"], "timeInfo": {"duration": 4, "bpm": 120.0}}, {"eventList": [{"duration": 0.25, "on": 0.0, "velocity": 95, "tagsIdx": [0], "pitch": 46}, {"duration": 0.25, "on": 0.25, "velocity": 95, "tagsIdx": [1], "pitch": 42}, {"duration": 0.25, "on": 0.5, "velocity": 95, "tagsIdx": [1], "pitch": 42}, {"duration": 0.25, "on": 0.75, "velocity": 95, "tagsIdx": [1], "pitch": 42}, {"duration": 0.25, "on": 1.0, "velocity": 95, "tagsIdx": [0], "pitch": 46}, {"duration": 0.25, "on": 1.0, "velocity": 95, "tagsIdx": [2], "pitch": 39}, {"duration": 0.25, "on": 1.0, "velocity": 95, "tagsIdx": [3], "pitch": 40}, {"duration": 0.25, "on": 1.25, "velocity": 95, "tagsIdx": [1], "pitch": 42}, {"duration": 0.25, "on": 1.5, "velocity": 95, "tagsIdx": [1], "pitch": 42}, {"duration": 0.25, "on": 1.75, "velocity": 95, "tagsIdx": [1], "pitch": 42}, {"duration": 0.25, "on": 2.0, "velocity": 95, "tagsIdx": [0], "pitch": 46}, {"duration": 0.25, "on": 2.25, "velocity": 95, "tagsIdx": [1], "pitch": 42}, {"duration": 0.25, "on": 2.5, "velocity": 95, "tagsIdx": [1], "pitch": 42}, {"duration": 0.25, "on": 2.75, "velocity": 95, "tagsIdx": [1], "pitch": 42}, {"duration": 0.25, "on": 3.0, "velocity": 95, "tagsIdx": [0], "pitch": 46}, {"duration": 0.25, "on": 3.0, "velocity": 95, "tagsIdx": [2], "pitch": 39}, {"duration": 0.25, "on": 3.0, "velocity": 95, "tagsIdx": [3], "pitch": 40}, {"duration": 0.25, "on": 3.25, "velocity": 95, "tagsIdx": [1], "pitch": 42}, {"duration": 0.25, "on": 3.5, "velocity": 95, "tagsIdx": [1], "pitch": 42}, {"duration": 0.25, "on": 3.75, "velocity": 95, "tagsIdx": [1], "pitch": 42}], "eventTags": ["OpenHH", "ClosedHH", "Clap", "Clave"], "timeInfo": {"duration": 4, "bpm": 120.0}}, {"eventList": [{"duration": 0.25, "on": 0.0, "velocity": 95, "tagsIdx": [0], "pitch": 49}, {"duration": 0.25, "on": 0.0, "velocity": 95, "tagsIdx": [1], "pitch": 46}, {"duration": 0.25, "on": 0.25, "velocity": 95, "tagsIdx": [2], "pitch": 42}, {"duration": 0.25, "on": 0.5, "velocity": 95, "tagsIdx": [2], "pitch": 42}, {"duration": 0.25, "on": 0.75, "velocity": 95, "tagsIdx": [2], "pitch": 42}, {"duration": 0.25, "on": 1.0, "velocity": 95, "tagsIdx": [1], "pitch": 46}, {"duration": 0.25, "on": 1.0, "velocity": 95, "tagsIdx": [3], "pitch": 39}, {"duration": 0.25, "on": 1.0, "velocity": 95, "tagsIdx": [4], "pitch": 40}, {"duration": 0.25, "on": 1.25, "velocity": 95, "tagsIdx": [2], "pitch": 42}, {"duration": 0.25, "on": 1.5, "velocity": 95, "tagsIdx": [2], "pitch": 42}, {"duration": 0.25, "on": 1.75, "velocity": 95, "tagsIdx": [2], "pitch": 42}, {"duration": 0.25, "on": 2.0, "velocity": 95, "tagsIdx": [1], "pitch": 46}, {"duration": 0.25, "on": 2.25, "velocity": 95, "tagsIdx": [2], "pitch": 42}, {"duration": 0.25, "on": 2.5, "velocity": 95, "tagsIdx": [2], "pitch": 42}, {"duration": 0.25, "on": 2.75, "velocity": 95, "tagsIdx": [2], "pitch": 42}, {"duration": 0.25, "on": 3.0, "velocity": 95, "tagsIdx": [1], "pitch": 46}, {"duration": 0.25, "on": 3.0, "velocity": 95, "tagsIdx": [3], "pitch": 39}, {"duration": 0.25, "on": 3.0, "velocity": 95, "tagsIdx": [4], "pitch": 40}, {"duration": 0.25, "on": 3.25, "velocity": 95, "tagsIdx": [2], "pitch": 42}, {"duration": 0.25, "on": 3.5, "velocity": 95, "tagsIdx": [2], "pitch": 42}, {"duration": 0.25, "on": 3.75, "velocity": 95, "tagsIdx": [2], "pitch": 42}], "eventTags": ["Cymbal", "OpenHH", "ClosedHH", "Clap", "Clave"], "timeInfo": {"duration": 4, "bpm": 120.0}}, {"eventList": [{"duration": 0.25, "on": 0.0, "velocity": 95, "tagsIdx": [0], "pitch": 46}, {"duration": 0.25, "on": 0.25, "velocity": 95, "tagsIdx": [1], "pitch": 42}, {"duration": 0.25, "on": 0.5, "velocity": 95, "tagsIdx": [1], "pitch": 42}, {"duration": 0.25, "on": 0.75, "velocity": 95, "tagsIdx": [1], "pitch": 42}, {"duration": 0.25, "on": 1.0, "velocity": 95, "tagsIdx": [0], "pitch": 46}, {"duration": 0.25, "on": 1.0, "velocity": 95, "tagsIdx": [2], "pitch": 39}, {"duration": 0.25, "on": 1.0, "velocity": 95, "tagsIdx": [3], "pitch": 40}, {"duration": 0.25, "on": 1.25, "velocity": 95, "tagsIdx": [1], "pitch": 42}, {"duration": 0.25, "on": 1.5, "velocity": 95, "tagsIdx": [1], "pitch": 42}, {"duration": 0.25, "on": 1.75, "velocity": 95, "tagsIdx": [1], "pitch": 42}, {"duration": 0.25, "on": 2.0, "velocity": 95, "tagsIdx": [0], "pitch": 46}, {"duration": 0.25, "on": 2.25, "velocity": 95, "tagsIdx": [1], "pitch": 42}, {"duration": 0.25, "on": 2.5, "velocity": 95, "tagsIdx": [1], "pitch": 42}, {"duration": 0.25, "on": 2.75, "velocity": 95, "tagsIdx": [1], "pitch": 42}, {"duration": 0.25, "on": 3.0, "velocity": 95, "tagsIdx": [0], "pitch": 46}, {"duration": 0.25, "on": 3.0, "velocity": 95, "tagsIdx": [2], "pitch": 39}, {"duration": 0.25, "on": 3.0, "velocity": 95, "tagsIdx": [3], "pitch": 40}, {"duration": 0.25, "on": 3.25, "velocity": 95, "tagsIdx": [1], "pitch": 42}, {"duration": 0.5, "on": 3.5, "velocity": 95, "tagsIdx": [0], "pitch": 46}], "eventTags": ["OpenHH", "ClosedHH", "Clap", "Clave"], "timeInfo": {"duration": 4, "bpm": 120.0}}, {"eventList": [{"duration": 0.25, "on": 0.0, "velocity": 95, "tagsIdx": [0], "pitch": 46}, {"duration": 0.25, "on": 0.25, "velocity": 95, "tagsIdx": [1], "pitch": 42}, {"duration": 0.25, "on": 0.5, "velocity": 95, "tagsIdx": [1], "pitch": 42}, {"duration": 0.25, "on": 0.75, "velocity": 95, "tagsIdx": [1], "pitch": 42}, {"duration": 0.25, "on": 1.0, "velocity": 95, "tagsIdx": [0], "pitch": 46}, {"duration": 0.25, "on": 1.0, "velocity": 95, "tagsIdx": [2], "pitch": 39}, {"duration": 0.25, "on": 1.0, "velocity": 95, "tagsIdx": [3], "pitch": 40}, {"duration": 0.25, "on": 1.25, "velocity": 95, "tagsIdx": [1], "pitch": 42}, {"duration": 0.25, "on": 1.5, "velocity": 95, "tagsIdx": [1], "pitch": 42}, {"duration": 0.25, "on": 1.75, "velocity": 95, "tagsIdx": [1], "pitch": 42}, {"duration": 0.25, "on": 2.0, "velocity": 95, "tagsIdx": [0], "pitch": 46}, {"duration": 0.25, "on": 2.25, "velocity": 95, "tagsIdx": [1], "pitch": 42}, {"duration": 0.25, "on": 2.5, "velocity": 95, "tagsIdx": [1], "pitch": 42}, {"duration": 0.25, "on": 2.75, "velocity": 95, "tagsIdx": [1], "pitch": 42}, {"duration": 0.25, "on": 3.0, "velocity": 95, "tagsIdx": [0], "pitch": 46}, {"duration": 0.25, "on": 3.0, "velocity": 95, "tagsIdx": [2], "pitch": 39}, {"duration": 0.25, "on": 3.0, "velocity": 95, "tagsIdx": [3], "pitch": 40}, {"duration": 0.25, "on": 3.25, "velocity": 95, "tagsIdx": [1], "pitch": 42}, {"duration": 0.25, "on": 3.5, "velocity": 95, "tagsIdx": [1], "pitch": 42}, {"duration": 0.25, "on": 3.75, "velocity": 95, "tagsIdx": [1], "pitch": 42}], "eventTags": ["OpenHH", "ClosedHH", "Clap", "Clave"], "timeInfo": {"duration": 4, "bpm": 120.0}}, {"eventList": [{"duration": 0.25, "on": 0.0, "velocity": 95, "tagsIdx": [0], "pitch": 46}, {"duration": 0.25, "on": 0.25, "velocity": 95, "tagsIdx": [1], "pitch": 42}, {"duration": 0.25, "on": 0.5, "velocity": 95, "tagsIdx": [1], "pitch": 42}, {"duration": 0.25, "on": 0.75, "velocity": 95, "tagsIdx": [1], "pitch": 42}, {"duration": 0.25, "on": 1.0, "velocity": 95, "tagsIdx": [0], "pitch": 46}, {"duration": 0.25, "on": 1.0, "velocity": 95, "tagsIdx": [2], "pitch": 39}, {"duration": 0.25, "on": 1.0, "velocity": 95, "tagsIdx": [3], "pitch": 40}, {"duration": 0.25, "on": 1.25, "velocity": 95, "tagsIdx": [1], "pitch": 42}, {"duration": 0.25, "on": 1.5, "velocity": 95, "tagsIdx": [1], "pitch": 42}, {"duration": 0.25, "on": 1.75, "velocity": 95, "tagsIdx": [1], "pitch": 42}, {"duration": 0.25, "on": 2.0, "velocity": 95, "tagsIdx": [0], "pitch": 46}, {"duration": 0.25, "on": 2.25, "velocity": 95, "tagsIdx": [1], "pitch": 42}, {"duration": 0.25, "on": 2.5, "velocity": 95, "tagsIdx": [1], "pitch": 42}, {"duration": 0.25, "on": 2.75, "velocity": 95, "tagsIdx": [1], "pitch": 42}, {"duration": 0.25, "on": 3.0, "velocity": 95, "tagsIdx": [0], "pitch": 46}, {"duration": 0.25, "on": 3.0, "velocity": 95, "tagsIdx": [2], "pitch": 39}, {"duration": 0.25, "on": 3.0, "velocity": 95, "tagsIdx": [3], "pitch": 40}, {"duration": 0.25, "on": 3.25, "velocity": 95, "tagsIdx": [1], "pitch": 42}, {"duration": 0.25, "on": 3.5, "velocity": 95, "tagsIdx": [1], "pitch": 42}, {"duration": 0.25, "on": 3.75, "velocity": 95, "tagsIdx": [1], "pitch": 42}], "eventTags": ["OpenHH", "ClosedHH", "Clap", "Clave"], "timeInfo": {"duration": 4, "bpm": 120.0}}, {"eventList": [{"duration": 0.25, "on": 0.0, "velocity": 95, "tagsIdx": [0], "pitch": 49}, {"duration": 0.25, "on": 0.0, "velocity": 95, "tagsIdx": [1], "pitch": 46}, {"duration": 0.25, "on": 0.25, "velocity": 95, "tagsIdx": [2], "pitch": 42}, {"duration": 0.25, "on": 0.5, "velocity": 95, "tagsIdx": [2], "pitch": 42}, {"duration": 0.25, "on": 0.75, "velocity": 95, "tagsIdx": [2], "pitch": 42}, {"duration": 0.25, "on": 1.0, "velocity": 95, "tagsIdx": [1], "pitch": 46}, {"duration": 0.25, "on": 1.0, "velocity": 95, "tagsIdx": [3], "pitch": 39}, {"duration": 0.25, "on": 1.0, "velocity": 95, "tagsIdx": [4], "pitch": 40}, {"duration": 0.25, "on": 1.25, "velocity": 95, "tagsIdx": [2], "pitch": 42}, {"duration": 0.25, "on": 1.5, "velocity": 95, "tagsIdx": [2], "pitch": 42}, {"duration": 0.25, "on": 1.75, "velocity": 95, "tagsIdx": [2], "pitch": 42}, {"duration": 0.25, "on": 2.0, "velocity": 95, "tagsIdx": [1], "pitch": 46}, {"duration": 0.25, "on": 2.25, "velocity": 95, "tagsIdx": [2], "pitch": 42}, {"duration": 0.25, "on": 2.5, "velocity": 95, "tagsIdx": [2], "pitch": 42}, {"duration": 0.25, "on": 2.75, "velocity": 95, "tagsIdx": [2], "pitch": 42}, {"duration": 0.25, "on": 3.0, "velocity": 95, "tagsIdx": [1], "pitch": 46}, {"duration": 0.25, "on": 3.0, "velocity": 95, "tagsIdx": [3], "pitch": 39}, {"duration": 0.25, "on": 3.0, "velocity": 95, "tagsIdx": [4], "pitch": 40}, {"duration": 0.25, "on": 3.25, "velocity": 95, "tagsIdx": [2], "pitch": 42}, {"duration": 0.25, "on": 3.5, "velocity": 95, "tagsIdx": [2], "pitch": 42}, {"duration": 0.25, "on": 3.75, "velocity": 95, "tagsIdx": [2], "pitch": 42}], "eventTags": ["Cymbal", "OpenHH", "ClosedHH", "Clap", "Clave"], "timeInfo": {"duration": 4, "bpm": 120.0}}, {"eventList": [{"duration": 0.25, "on": 0.0, "velocity": 95, "tagsIdx": [0], "pitch": 46}, {"duration": 0.25, "on": 0.25, "velocity": 95, "tagsIdx": [1], "pitch": 42}, {"duration": 0.25, "on": 0.5, "velocity": 95, "tagsIdx": [1], "pitch": 42}, {"duration": 0.25, "on": 0.75, "velocity": 95, "tagsIdx": [1], "pitch": 42}, {"duration": 0.25, "on": 1.0, "velocity": 95, "tagsIdx": [0], "pitch": 46}, {"duration": 0.25, "on": 1.0, "velocity": 95, "tagsIdx": [2], "pitch": 39}, {"duration": 0.25, "on": 1.0, "velocity": 95, "tagsIdx": [3], "pitch": 40}, {"duration": 0.25, "on": 1.25, "velocity": 95, "tagsIdx": [1], "pitch": 42}, {"duration": 0.25, "on": 1.5, "velocity": 95, "tagsIdx": [1], "pitch": 42}, {"duration": 0.25, "on": 1.75, "velocity": 95, "tagsIdx": [1], "pitch": 42}, {"duration": 0.25, "on": 2.0, "velocity": 95, "tagsIdx": [0], "pitch": 46}, {"duration": 0.25, "on": 2.25, "velocity": 95, "tagsIdx": [1], "pitch": 42}, {"duration": 0.25, "on": 2.5, "velocity": 95, "tagsIdx": [1], "pitch": 42}, {"duration": 0.25, "on": 2.75, "velocity": 95, "tagsIdx": [1], "pitch": 42}, {"duration": 0.25, "on": 3.0, "velocity": 95, "tagsIdx": [0], "pitch": 46}, {"duration": 0.25, "on": 3.0, "velocity": 95, "tagsIdx": [2], "pitch": 39}, {"duration": 0.25, "on": 3.0, "velocity": 95, "tagsIdx": [3], "pitch": 40}, {"duration": 0.25, "on": 3.25, "velocity": 95, "tagsIdx": [1], "pitch": 42}, {"duration": 0.5, "on": 3.5, "velocity": 95, "tagsIdx": [0], "pitch": 46}], "eventTags": ["OpenHH", "ClosedHH", "Clap", "Clave"], "timeInfo": {"duration": 4, "bpm": 120.0}}, {"eventList": [{"duration": 0.25, "on": 0.0, "velocity": 95, "tagsIdx": [0], "pitch": 46}, {"duration": 0.25, "on": 0.25, "velocity": 95, "tagsIdx": [1], "pitch": 42}, {"duration": 0.25, "on": 0.5, "velocity": 95, "tagsIdx": [1], "pitch": 42}, {"duration": 0.25, "on": 0.75, "velocity": 95, "tagsIdx": [1], "pitch": 42}, {"duration": 0.25, "on": 1.0, "velocity": 95, "tagsIdx": [0], "pitch": 46}, {"duration": 0.25, "on": 1.0, "velocity": 95, "tagsIdx": [2], "pitch": 39}, {"duration": 0.25, "on": 1.0, "velocity": 95, "tagsIdx": [3], "pitch": 40}, {"duration": 0.25, "on": 1.25, "velocity": 95, "tagsIdx": [1], "pitch": 42}, {"duration": 0.25, "on": 1.5, "velocity": 95, "tagsIdx": [1], "pitch": 42}, {"duration": 0.25, "on": 1.75, "velocity": 95, "tagsIdx": [1], "pitch": 42}, {"duration": 0.25, "on": 2.0, "velocity": 95, "tagsIdx": [0], "pitch": 46}, {"duration": 0.25, "on": 2.25, "velocity": 95, "tagsIdx": [1], "pitch": 42}, {"duration": 0.25, "on": 2.5, "velocity": 95, "tagsIdx": [1], "pitch": 42}, {"duration": 0.25, "on": 2.75, "velocity": 95, "tagsIdx": [1], "pitch": 42}, {"duration": 0.25, "on": 3.0, "velocity": 95, "tagsIdx": [0], "pitch": 46}, {"duration": 0.25, "on": 3.0, "velocity": 95, "tagsIdx": [2], "pitch": 39}, {"duration": 0.25, "on": 3.0, "velocity": 95, "tagsIdx": [3], "pitch": 40}, {"duration": 0.25, "on": 3.25, "velocity": 95, "tagsIdx": [1], "pitch": 42}, {"duration": 0.25, "on": 3.5, "velocity": 95, "tagsIdx": [1], "pitch": 42}, {"duration": 0.25, "on": 3.75, "velocity": 95, "tagsIdx": [1], "pitch": 42}], "eventTags": ["OpenHH", "ClosedHH", "Clap", "Clave"], "timeInfo": {"duration": 4, "bpm": 120.0}}, {"eventList": [{"duration": 0.125, "on": 0.0, "velocity": 100, "tagsIdx": [0], "pitch": 42}, {"duration": 0.125, "on": 0.5, "velocity": 100, "tagsIdx": [0], "pitch": 42}, {"duration": 0.125, "on": 1.0, "velocity": 100, "tagsIdx": [1], "pitch": 36}, {"duration": 0.125, "on": 1.0, "velocity": 100, "tagsIdx": [0], "pitch": 42}, {"duration": 0.125, "on": 1.0, "velocity": 100, "tagsIdx": [2], "pitch": 39}, {"duration": 0.125, "on": 1.5, "velocity": 100, "tagsIdx": [0], "pitch": 42}, {"duration": 0.125, "on": 2.0, "velocity": 100, "tagsIdx": [0], "pitch": 42}, {"duration": 0.125, "on": 2.5, "velocity": 100, "tagsIdx": [0], "pitch": 42}, {"duration": 0.125, "on": 3.0, "velocity": 100, "tagsIdx": [0], "pitch": 42}, {"duration": 0.125, "on": 3.0, "velocity": 100, "tagsIdx": [1], "pitch": 36}, {"duration": 0.125, "on": 3.0, "velocity": 100, "tagsIdx": [2], "pitch": 39}, {"duration": 0.125, "on": 3.5, "velocity": 100, "tagsIdx": [0], "pitch": 42}, {"duration": 0.125, "on": 3.75, "velocity": 100, "tagsIdx": [0], "pitch": 42}], "eventTags": ["ClosedHH", "Kick", "Clap"], "timeInfo": {"duration": 4, "bpm": 120.0}}, {"eventList": [{"duration": 0.125, "on": 0.0, "velocity": 100, "tagsIdx": [0], "pitch": 42}, {"duration": 0.125, "on": 0.5, "velocity": 100, "tagsIdx": [0], "pitch": 42}, {"duration": 0.125, "on": 1.0, "velocity": 100, "tagsIdx": [0], "pitch": 42}, {"duration": 0.125, "on": 1.0, "velocity": 100, "tagsIdx": [1], "pitch": 39}, {"duration": 0.125, "on": 1.5, "velocity": 100, "tagsIdx": [0], "pitch": 42}, {"duration": 0.125, "on": 2.0, "velocity": 100, "tagsIdx": [0], "pitch": 42}, {"duration": 0.125, "on": 2.5, "velocity": 100, "tagsIdx": [0], "pitch": 42}, {"duration": 0.125, "on": 3.0, "velocity": 100, "tagsIdx": [0], "pitch": 42}, {"duration": 0.125, "on": 3.0, "velocity": 100, "tagsIdx": [1], "pitch": 39}, {"duration": 0.125, "on": 3.5, "velocity": 100, "tagsIdx": [0], "pitch": 42}, {"duration": 0.125, "on": 3.75, "velocity": 100, "tagsIdx": [0], "pitch": 42}], "eventTags": ["ClosedHH", "Clap"], "timeInfo": {"duration": 4, "bpm": 120.0}}, {"eventList": [{"duration": 0.125, "on": 0.0, "velocity": 100, "tagsIdx": [0], "pitch": 42}, {"duration": 0.125, "on": 0.5, "velocity": 100, "tagsIdx": [0], "pitch": 42}, {"duration": 0.125, "on": 1.0, "velocity": 100, "tagsIdx": [0], "pitch": 42}, {"duration": 0.125, "on": 1.0, "velocity": 100, "tagsIdx": [1], "pitch": 39}, {"duration": 0.125, "on": 1.5, "velocity": 100, "tagsIdx": [0], "pitch": 42}, {"duration": 0.125, "on": 2.0, "velocity": 100, "tagsIdx": [0], "pitch": 42}, {"duration": 0.125, "on": 2.5, "velocity": 100, "tagsIdx": [0], "pitch": 42}, {"duration": 0.125, "on": 3.0, "velocity": 100, "tagsIdx": [0], "pitch": 42}, {"duration": 0.125, "on": 3.0, "velocity": 100, "tagsIdx": [1], "pitch": 39}, {"duration": 0.125, "on": 3.5, "velocity": 100, "tagsIdx": [0], "pitch": 42}, {"duration": 0.125, "on": 3.75, "velocity": 100, "tagsIdx": [0], "pitch": 42}], "eventTags": ["ClosedHH", "Clap"], "timeInfo": {"duration": 4, "bpm": 120.0}}, {"eventList": [{"duration": 0.125, "on": 0.0, "velocity": 100, "tagsIdx": [0], "pitch": 42}, {"duration": 0.125, "on": 0.5, "velocity": 100, "tagsIdx": [0], "pitch": 42}, {"duration": 0.125, "on": 1.0, "velocity": 100, "tagsIdx": [1], "pitch": 36}, {"duration": 0.125, "on": 1.0, "velocity": 100, "tagsIdx": [0], "pitch": 42}, {"duration": 0.125, "on": 1.0, "velocity": 100, "tagsIdx": [2], "pitch": 39}, {"duration": 0.125, "on": 1.5, "velocity": 100, "tagsIdx": [0], "pitch": 42}, {"duration": 0.125, "on": 2.0, "velocity": 100, "tagsIdx": [0], "pitch": 42}, {"duration": 0.125, "on": 2.5, "velocity": 100, "tagsIdx": [0], "pitch": 42}, {"duration": 0.125, "on": 3.0, "velocity": 100, "tagsIdx": [0], "pitch": 42}, {"duration": 0.125, "on": 3.0, "velocity": 100, "tagsIdx": [1], "pitch": 36}, {"duration": 0.125, "on": 3.0, "velocity": 100, "tagsIdx": [2], "pitch": 39}, {"duration": 0.125, "on": 3.5, "velocity": 100, "tagsIdx": [0], "pitch": 42}, {"duration": 0.125, "on": 3.75, "velocity": 100, "tagsIdx": [0], "pitch": 42}], "eventTags": ["ClosedHH", "Kick", "Clap"], "timeInfo": {"duration": 4, "bpm": 120.0}}, {"eventList": [{"duration": 0.125, "on": 0.0, "velocity": 100, "tagsIdx": [0], "pitch": 42}, {"duration": 0.125, "on": 0.5, "velocity": 100, "tagsIdx": [0], "pitch": 42}, {"duration": 0.125, "on": 1.0, "velocity": 100, "tagsIdx": [1], "pitch": 36}, {"duration": 0.125, "on": 1.0, "velocity": 100, "tagsIdx": [0], "pitch": 42}, {"duration": 0.125, "on": 1.0, "velocity": 100, "tagsIdx": [2], "pitch": 39}, {"duration": 0.125, "on": 1.5, "velocity": 100, "tagsIdx": [0], "pitch": 42}, {"duration": 0.125, "on": 2.0, "velocity": 100, "tagsIdx": [0], "pitch": 42}, {"duration": 0.125, "on": 2.5, "velocity": 100, "tagsIdx": [0], "pitch": 42}, {"duration": 0.125, "on": 3.0, "velocity": 100, "tagsIdx": [0], "pitch": 42}, {"duration": 0.125, "on": 3.0, "velocity": 100, "tagsIdx": [1], "pitch": 36}, {"duration": 0.125, "on": 3.0, "velocity": 100, "tagsIdx": [2], "pitch": 39}, {"duration": 0.125, "on": 3.5, "velocity": 100, "tagsIdx": [0], "pitch": 42}, {"duration": 0.125, "on": 3.75, "velocity": 100, "tagsIdx": [0], "pitch": 42}], "eventTags": ["ClosedHH", "Kick", "Clap"], "timeInfo": {"duration": 4, "bpm": 120.0}}, {"eventList": [{"duration": 0.125, "on": 0.0, "velocity": 100, "tagsIdx": [0], "pitch": 42}, {"duration": 0.125, "on": 0.5, "velocity": 100, "tagsIdx": [0], "pitch": 42}, {"duration": 0.125, "on": 1.0, "velocity": 100, "tagsIdx": [1], "pitch": 36}, {"duration": 0.125, "on": 1.0, "velocity": 100, "tagsIdx": [0], "pitch": 42}, {"duration": 0.125, "on": 1.0, "velocity": 100, "tagsIdx": [2], "pitch": 39}, {"duration": 0.125, "on": 1.5, "velocity": 100, "tagsIdx": [0], "pitch": 42}, {"duration": 0.125, "on": 2.0, "velocity": 100, "tagsIdx": [0], "pitch": 42}, {"duration": 0.125, "on": 2.5, "velocity": 100, "tagsIdx": [0], "pitch": 42}, {"duration": 0.125, "on": 3.0, "velocity": 100, "tagsIdx": [0], "pitch": 42}, {"duration": 0.125, "on": 3.0, "velocity": 100, "tagsIdx": [1], "pitch": 36}, {"duration": 0.125, "on": 3.0, "velocity": 100, "tagsIdx": [2], "pitch": 39}, {"duration": 0.125, "on": 3.5, "velocity": 100, "tagsIdx": [0], "pitch": 42}, {"duration": 0.125, "on": 3.75, "velocity": 100, "tagsIdx": [0], "pitch": 42}], "eventTags": ["ClosedHH", "Kick", "Clap"], "timeInfo": {"duration": 4, "bpm": 120.0}}, {"eventList": [{"duration": 0.125, "on": 0.0, "velocity": 100, "tagsIdx": [0], "pitch": 42}, {"duration": 0.125, "on": 0.5, "velocity": 100, "tagsIdx": [0], "pitch": 42}, {"duration": 0.125, "on": 1.0, "velocity": 100, "tagsIdx": [1], "pitch": 36}, {"duration": 0.125, "on": 1.0, "velocity": 100, "tagsIdx": [0], "pitch": 42}, {"duration": 0.125, "on": 1.0, "velocity": 100, "tagsIdx": [2], "pitch": 39}, {"duration": 0.125, "on": 1.5, "velocity": 100, "tagsIdx": [0], "pitch": 42}, {"duration": 0.125, "on": 2.0, "velocity": 100, "tagsIdx": [0], "pitch": 42}, {"duration": 0.125, "on": 2.5, "velocity": 100, "tagsIdx": [0], "pitch": 42}, {"duration": 0.125, "on": 3.0, "velocity": 100, "tagsIdx": [0], "pitch": 42}, {"duration": 0.125, "on": 3.0, "velocity": 100, "tagsIdx": [1], "pitch": 36}, {"duration": 0.125, "on": 3.0, "velocity": 100, "tagsIdx": [2], "pitch": 39}, {"duration": 0.125, "on": 3.5, "velocity": 100, "tagsIdx": [0], "pitch": 42}, {"duration": 0.125, "on": 3.75, "velocity": 100, "tagsIdx": [0], "pitch": 42}], "eventTags": ["ClosedHH", "Kick", "Clap"], "timeInfo": {"duration": 4, "bpm": 120.0}}, {"eventList": [{"duration": 0.125, "on": 0.0, "velocity": 100, "tagsIdx": [0], "pitch": 42}, {"duration": 0.125, "on": 0.5, "velocity": 100, "tagsIdx": [0], "pitch": 42}, {"duration": 0.125, "on": 1.0, "velocity": 100, "tagsIdx": [1], "pitch": 36}, {"duration": 0.125, "on": 1.0, "velocity": 100, "tagsIdx": [0], "pitch": 42}, {"duration": 0.125, "on": 1.0, "velocity": 100, "tagsIdx": [2], "pitch": 39}, {"duration": 0.125, "on": 1.5, "velocity": 100, "tagsIdx": [0], "pitch": 42}, {"duration": 0.125, "on": 2.0, "velocity": 100, "tagsIdx": [0], "pitch": 42}, {"duration": 0.125, "on": 2.5, "velocity": 100, "tagsIdx": [0], "pitch": 42}, {"duration": 0.125, "on": 3.0, "velocity": 100, "tagsIdx": [0], "pitch": 42}, {"duration": 0.125, "on": 3.0, "velocity": 100, "tagsIdx": [1], "pitch": 36}, {"duration": 0.125, "on": 3.0, "velocity": 100, "tagsIdx": [2], "pitch": 39}, {"duration": 0.125, "on": 3.5, "velocity": 100, "tagsIdx": [0], "pitch": 42}, {"duration": 0.125, "on": 3.75, "velocity": 100, "tagsIdx": [0], "pitch": 42}], "eventTags": ["ClosedHH", "Kick", "Clap"], "timeInfo": {"duration": 4, "bpm": 120.0}}, {"eventList": [{"duration": 0.125, "on": 0.0, "velocity": 100, "tagsIdx": [0], "pitch": 42}, {"duration": 0.125, "on": 0.5, "velocity": 100, "tagsIdx": [0], "pitch": 42}, {"duration": 0.125, "on": 1.0, "velocity": 100, "tagsIdx": [1], "pitch": 36}, {"duration": 0.125, "on": 1.0, "velocity": 100, "tagsIdx": [0], "pitch": 42}, {"duration": 0.125, "on": 1.0, "velocity": 100, "tagsIdx": [2], "pitch": 39}, {"duration": 0.125, "on": 1.5, "velocity": 100, "tagsIdx": [0], "pitch": 42}, {"duration": 0.125, "on": 2.0, "velocity": 100, "tagsIdx": [0], "pitch": 42}, {"duration": 0.125, "on": 2.5, "velocity": 100, "tagsIdx": [0], "pitch": 42}, {"duration": 0.125, "on": 3.0, "velocity": 100, "tagsIdx": [0], "pitch": 42}, {"duration": 0.125, "on": 3.0, "velocity": 100, "tagsIdx": [1], "pitch": 36}, {"duration": 0.125, "on": 3.0, "velocity": 100, "tagsIdx": [2], "pitch": 39}, {"duration": 0.125, "on": 3.5, "velocity": 100, "tagsIdx": [0], "pitch": 42}, {"duration": 0.125, "on": 3.75, "velocity": 100, "tagsIdx": [0], "pitch": 42}], "eventTags": ["ClosedHH", "Kick", "Clap"], "timeInfo": {"duration": 4, "bpm": 120.0}}, {"eventList": [{"duration": 0.125, "on": 0.0, "velocity": 100, "tagsIdx": [0], "pitch": 42}, {"duration": 0.125, "on": 0.5, "velocity": 100, "tagsIdx": [0], "pitch": 42}, {"duration": 0.125, "on": 1.0, "velocity": 100, "tagsIdx": [1], "pitch": 36}, {"duration": 0.125, "on": 1.0, "velocity": 100, "tagsIdx": [0], "pitch": 42}, {"duration": 0.125, "on": 1.0, "velocity": 100, "tagsIdx": [2], "pitch": 39}, {"duration": 0.125, "on": 1.5, "velocity": 100, "tagsIdx": [0], "pitch": 42}, {"duration": 0.125, "on": 2.0, "velocity": 100, "tagsIdx": [0], "pitch": 42}, {"duration": 0.125, "on": 2.5, "velocity": 100, "tagsIdx": [0], "pitch": 42}, {"duration": 0.125, "on": 3.0, "velocity": 100, "tagsIdx": [0], "pitch": 42}, {"duration": 0.125, "on": 3.0, "velocity": 100, "tagsIdx": [1], "pitch": 36}, {"duration": 0.125, "on": 3.0, "velocity": 100, "tagsIdx": [2], "pitch": 39}, {"duration": 0.125, "on": 3.5, "velocity": 100, "tagsIdx": [0], "pitch": 42}, {"duration": 0.125, "on": 3.75, "velocity": 100, "tagsIdx": [0], "pitch": 42}], "eventTags": ["ClosedHH", "Kick", "Clap"], "timeInfo": {"duration": 4, "bpm": 120.0}}, {"eventList": [{"duration": 0.125, "on": 0.0, "velocity": 100, "tagsIdx": [0], "pitch": 42}, {"duration": 0.125, "on": 0.5, "velocity": 100, "tagsIdx": [0], "pitch": 42}, {"duration": 0.125, "on": 1.0, "velocity": 100, "tagsIdx": [1], "pitch": 36}, {"duration": 0.125, "on": 1.0, "velocity": 100, "tagsIdx": [0], "pitch": 42}, {"duration": 0.125, "on": 1.0, "velocity": 100, "tagsIdx": [2], "pitch": 39}, {"duration": 0.125, "on": 1.5, "velocity": 100, "tagsIdx": [0], "pitch": 42}, {"duration": 0.125, "on": 2.0, "velocity": 100, "tagsIdx": [0], "pitch": 42}, {"duration": 0.125, "on": 2.5, "velocity": 100, "tagsIdx": [0], "pitch": 42}, {"duration": 0.125, "on": 3.0, "velocity": 100, "tagsIdx": [0], "pitch": 42}, {"duration": 0.125, "on": 3.0, "velocity": 100, "tagsIdx": [1], "pitch": 36}, {"duration": 0.125, "on": 3.0, "velocity": 100, "tagsIdx": [2], "pitch": 39}, {"duration": 0.125, "on": 3.5, "velocity": 100, "tagsIdx": [0], "pitch": 42}, {"duration": 0.125, "on": 3.75, "velocity": 100, "tagsIdx": [0], "pitch": 42}], "eventTags": ["ClosedHH", "Kick", "Clap"], "timeInfo": {"duration": 4, "bpm": 120.0}}, {"eventList": [{"duration": 0.125, "on": 0.0, "velocity": 100, "tagsIdx": [0], "pitch": 42}, {"duration": 0.125, "on": 0.5, "velocity": 100, "tagsIdx": [0], "pitch": 42}, {"duration": 0.125, "on": 1.0, "velocity": 100, "tagsIdx": [0], "pitch": 42}, {"duration": 0.125, "on": 1.0, "velocity": 100, "tagsIdx": [1], "pitch": 39}, {"duration": 0.125, "on": 1.5, "velocity": 100, "tagsIdx": [0], "pitch": 42}, {"duration": 0.125, "on": 2.0, "velocity": 100, "tagsIdx": [0], "pitch": 42}, {"duration": 0.125, "on": 2.5, "velocity": 100, "tagsIdx": [0], "pitch": 42}, {"duration": 0.125, "on": 3.0, "velocity": 100, "tagsIdx": [0], "pitch": 42}, {"duration": 0.125, "on": 3.0, "velocity": 100, "tagsIdx": [1], "pitch": 39}, {"duration": 0.125, "on": 3.5, "velocity": 100, "tagsIdx": [0], "pitch": 42}, {"duration": 0.125, "on": 3.75, "velocity": 100, "tagsIdx": [0], "pitch": 42}], "eventTags": ["ClosedHH", "Clap"], "timeInfo": {"duration": 4, "bpm": 120.0}}, {"eventList": [{"duration": 0.11250000000001137, "on": 0.0, "velocity": 120, "tagsIdx": [0], "pitch": 36}, {"duration": 0.11250000000001137, "on": 0.5, "velocity": 120, "tagsIdx": [1], "pitch": 44}, {"duration": 0.11250000000001137, "on": 1.0, "velocity": 120, "tagsIdx": [2], "pitch": 40}, {"duration": 0.11250000000001137, "on": 1.0, "velocity": 120, "tagsIdx": [3], "pitch": 39}, {"duration": 0.11250000000001137, "on": 1.5, "velocity": 120, "tagsIdx": [1], "pitch": 44}, {"duration": 0.11250000000001137, "on": 2.0, "velocity": 120, "tagsIdx": [0], "pitch": 36}, {"duration": 0.11250000000001137, "on": 2.5, "velocity": 120, "tagsIdx": [1], "pitch": 44}, {"duration": 0.11250000000001137, "on": 3.0, "velocity": 120, "tagsIdx": [3], "pitch": 39}, {"duration": 0.11250000000001137, "on": 3.0, "velocity": 120, "tagsIdx": [2], "pitch": 40}, {"duration": 0.11250000000001137, "on": 3.5, "velocity": 120, "tagsIdx": [1], "pitch": 44}], "eventTags": ["Kick", "Shake", "Clave", "Clap"], "timeInfo": {"duration": 4, "bpm": 120.0}}, {"eventList": [{"duration": 0.11250000000001137, "on": 0.0, "velocity": 120, "tagsIdx": [0], "pitch": 36}, {"duration": 0.11250000000001137, "on": 0.5, "velocity": 120, "tagsIdx": [1], "pitch": 44}, {"duration": 0.11250000000001137, "on": 1.0, "velocity": 120, "tagsIdx": [2], "pitch": 40}, {"duration": 0.11250000000001137, "on": 1.0, "velocity": 120, "tagsIdx": [3], "pitch": 39}, {"duration": 0.11250000000001137, "on": 1.5, "velocity": 120, "tagsIdx": [1], "pitch": 44}, {"duration": 0.11250000000001137, "on": 2.0, "velocity": 120, "tagsIdx": [0], "pitch": 36}, {"duration": 0.11250000000001137, "on": 2.5, "velocity": 120, "tagsIdx": [1], "pitch": 44}, {"duration": 0.11250000000001137, "on": 3.0, "velocity": 120, "tagsIdx": [3], "pitch": 39}, {"duration": 0.11250000000001137, "on": 3.0, "velocity": 120, "tagsIdx": [2], "pitch": 40}, {"duration": 0.11250000000001137, "on": 3.5, "velocity": 120, "tagsIdx": [1], "pitch": 44}], "eventTags": ["Kick", "Shake", "Clave", "Clap"], "timeInfo": {"duration": 4, "bpm": 120.0}}, {"eventList": [{"duration": 0.11250000000001137, "on": 0.0, "velocity": 120, "tagsIdx": [0], "pitch": 36}, {"duration": 0.11250000000001137, "on": 0.5, "velocity": 120, "tagsIdx": [1], "pitch": 44}, {"duration": 0.11250000000001137, "on": 1.0, "velocity": 120, "tagsIdx": [2], "pitch": 40}, {"duration": 0.11250000000001137, "on": 1.0, "velocity": 120, "tagsIdx": [3], "pitch": 39}, {"duration": 0.11250000000001137, "on": 1.5, "velocity": 120, "tagsIdx": [1], "pitch": 44}, {"duration": 0.11250000000001137, "on": 2.0, "velocity": 120, "tagsIdx": [0], "pitch": 36}, {"duration": 0.11250000000001137, "on": 2.5, "velocity": 120, "tagsIdx": [1], "pitch": 44}, {"duration": 0.11250000000001137, "on": 3.0, "velocity": 120, "tagsIdx": [3], "pitch": 39}, {"duration": 0.11250000000001137, "on": 3.0, "velocity": 120, "tagsIdx": [2], "pitch": 40}, {"duration": 0.11250000000001137, "on": 3.5, "velocity": 120, "tagsIdx": [1], "pitch": 44}], "eventTags": ["Kick", "Shake", "Clave", "Clap"], "timeInfo": {"duration": 4, "bpm": 120.0}}, {"eventList": [{"duration": 0.11250000000001137, "on": 0.0, "velocity": 120, "tagsIdx": [0], "pitch": 36}, {"duration": 0.11250000000001137, "on": 0.5, "velocity": 120, "tagsIdx": [1], "pitch": 44}, {"duration": 0.11250000000001137, "on": 1.0, "velocity": 120, "tagsIdx": [2], "pitch": 40}, {"duration": 0.11250000000001137, "on": 1.0, "velocity": 120, "tagsIdx": [3], "pitch": 39}, {"duration": 0.11250000000001137, "on": 1.5, "velocity": 120, "tagsIdx": [1], "pitch": 44}, {"duration": 0.11250000000001137, "on": 2.0, "velocity": 120, "tagsIdx": [0], "pitch": 36}, {"duration": 0.11250000000001137, "on": 2.5, "velocity": 120, "tagsIdx": [1], "pitch": 44}, {"duration": 0.11250000000001137, "on": 3.0, "velocity": 120, "tagsIdx": [3], "pitch": 39}, {"duration": 0.11250000000001137, "on": 3.0, "velocity": 120, "tagsIdx": [2], "pitch": 40}, {"duration": 0.11250000000001137, "on": 3.5, "velocity": 120, "tagsIdx": [1], "pitch": 44}], "eventTags": ["Kick", "Shake", "Clave", "Clap"], "timeInfo": {"duration": 4, "bpm": 120.0}}, {"eventList": [{"duration": 0.11250000000001137, "on": 0.0, "velocity": 120, "tagsIdx": [0], "pitch": 36}, {"duration": 0.11250000000001137, "on": 0.5, "velocity": 120, "tagsIdx": [1], "pitch": 44}, {"duration": 0.11250000000001137, "on": 1.0, "velocity": 120, "tagsIdx": [2], "pitch": 40}, {"duration": 0.11250000000001137, "on": 1.0, "velocity": 120, "tagsIdx": [3], "pitch": 39}, {"duration": 0.11250000000001137, "on": 1.5, "velocity": 120, "tagsIdx": [1], "pitch": 44}, {"duration": 0.11250000000001137, "on": 2.0, "velocity": 120, "tagsIdx": [0], "pitch": 36}, {"duration": 0.11250000000001137, "on": 2.5, "velocity": 120, "tagsIdx": [1], "pitch": 44}, {"duration": 0.11250000000001137, "on": 3.0, "velocity": 120, "tagsIdx": [3], "pitch": 39}, {"duration": 0.11250000000001137, "on": 3.0, "velocity": 120, "tagsIdx": [2], "pitch": 40}, {"duration": 0.11250000000001137, "on": 3.5, "velocity": 120, "tagsIdx": [1], "pitch": 44}], "eventTags": ["Kick", "Shake", "Clave", "Clap"], "timeInfo": {"duration": 4, "bpm": 120.0}}, {"eventList": [{"duration": 0.11250000000001137, "on": 0.0, "velocity": 120, "tagsIdx": [0], "pitch": 36}, {"duration": 0.11250000000001137, "on": 0.5, "velocity": 120, "tagsIdx": [1], "pitch": 44}, {"duration": 0.11250000000001137, "on": 1.0, "velocity": 120, "tagsIdx": [2], "pitch": 40}, {"duration": 0.11250000000001137, "on": 1.0, "velocity": 120, "tagsIdx": [3], "pitch": 39}, {"duration": 0.11250000000001137, "on": 1.5, "velocity": 120, "tagsIdx": [1], "pitch": 44}, {"duration": 0.11250000000001137, "on": 2.0, "velocity": 120, "tagsIdx": [0], "pitch": 36}, {"duration": 0.11250000000001137, "on": 2.5, "velocity": 120, "tagsIdx": [1], "pitch": 44}, {"duration": 0.11250000000001137, "on": 3.0, "velocity": 120, "tagsIdx": [3], "pitch": 39}, {"duration": 0.11250000000001137, "on": 3.0, "velocity": 120, "tagsIdx": [2], "pitch": 40}, {"duration": 0.11250000000001137, "on": 3.5, "velocity": 120, "tagsIdx": [1], "pitch": 44}], "eventTags": ["Kick", "Shake", "Clave", "Clap"], "timeInfo": {"duration": 4, "bpm": 120.0}}, {"eventList": [{"duration": 0.11250000000001137, "on": 0.0, "velocity": 120, "tagsIdx": [0], "pitch": 36}, {"duration": 0.11250000000001137, "on": 0.5, "velocity": 120, "tagsIdx": [1], "pitch": 44}, {"duration": 0.11250000000001137, "on": 1.0, "velocity": 120, "tagsIdx": [2], "pitch": 40}, {"duration": 0.11250000000001137, "on": 1.0, "velocity": 120, "tagsIdx": [3], "pitch": 39}, {"duration": 0.11250000000001137, "on": 1.5, "velocity": 120, "tagsIdx": [1], "pitch": 44}, {"duration": 0.11250000000001137, "on": 2.0, "velocity": 120, "tagsIdx": [0], "pitch": 36}, {"duration": 0.11250000000001137, "on": 2.5, "velocity": 120, "tagsIdx": [1], "pitch": 44}, {"duration": 0.11250000000001137, "on": 3.0, "velocity": 120, "tagsIdx": [3], "pitch": 39}, {"duration": 0.11250000000001137, "on": 3.0, "velocity": 120, "tagsIdx": [2], "pitch": 40}, {"duration": 0.11250000000001137, "on": 3.5, "velocity": 120, "tagsIdx": [1], "pitch": 44}], "eventTags": ["Kick", "Shake", "Clave", "Clap"], "timeInfo": {"duration": 4, "bpm": 120.0}}, {"eventList": [{"duration": 0.11250000000001137, "on": 0.0, "velocity": 120, "tagsIdx": [0], "pitch": 36}, {"duration": 0.11250000000001137, "on": 0.5, "velocity": 120, "tagsIdx": [1], "pitch": 44}, {"duration": 0.11250000000001137, "on": 1.0, "velocity": 120, "tagsIdx": [2], "pitch": 40}, {"duration": 0.11250000000001137, "on": 1.0, "velocity": 120, "tagsIdx": [3], "pitch": 39}, {"duration": 0.11250000000001137, "on": 1.5, "velocity": 120, "tagsIdx": [1], "pitch": 44}, {"duration": 0.11250000000001137, "on": 2.0, "velocity": 120, "tagsIdx": [0], "pitch": 36}, {"duration": 0.11250000000001137, "on": 2.5, "velocity": 120, "tagsIdx": [1], "pitch": 44}, {"duration": 0.11250000000001137, "on": 3.0, "velocity": 120, "tagsIdx": [3], "pitch": 39}, {"duration": 0.11250000000001137, "on": 3.0, "velocity": 120, "tagsIdx": [2], "pitch": 40}, {"duration": 0.11250000000001137, "on": 3.5, "velocity": 120, "tagsIdx": [1], "pitch": 44}], "eventTags": ["Kick", "Shake", "Clave", "Clap"], "timeInfo": {"duration": 4, "bpm": 120.0}}, {"eventList": [{"duration": 0.11250000000001137, "on": 0.0, "velocity": 120, "tagsIdx": [0], "pitch": 36}, {"duration": 0.11250000000001137, "on": 0.5, "velocity": 120, "tagsIdx": [1], "pitch": 44}, {"duration": 0.11250000000001137, "on": 1.0, "velocity": 120, "tagsIdx": [2], "pitch": 40}, {"duration": 0.11250000000001137, "on": 1.0, "velocity": 120, "tagsIdx": [3], "pitch": 39}, {"duration": 0.11250000000001137, "on": 1.5, "velocity": 120, "tagsIdx": [1], "pitch": 44}, {"duration": 0.11250000000001137, "on": 2.0, "velocity": 120, "tagsIdx": [0], "pitch": 36}, {"duration": 0.11250000000001137, "on": 2.5, "velocity": 120, "tagsIdx": [1], "pitch": 44}, {"duration": 0.11250000000001137, "on": 3.0, "velocity": 120, "tagsIdx": [3], "pitch": 39}, {"duration": 0.11250000000001137, "on": 3.0, "velocity": 120, "tagsIdx": [2], "pitch": 40}, {"duration": 0.11250000000001137, "on": 3.5, "velocity": 120, "tagsIdx": [1], "pitch": 44}], "eventTags": ["Kick", "Shake", "Clave", "Clap"], "timeInfo": {"duration": 4, "bpm": 120.0}}, {"eventList": [{"duration": 0.11250000000001137, "on": 0.0, "velocity": 120, "tagsIdx": [0], "pitch": 36}, {"duration": 0.11250000000001137, "on": 0.5, "velocity": 120, "tagsIdx": [1], "pitch": 44}, {"duration": 0.11250000000001137, "on": 1.0, "velocity": 120, "tagsIdx": [2], "pitch": 40}, {"duration": 0.11250000000001137, "on": 1.0, "velocity": 120, "tagsIdx": [3], "pitch": 39}, {"duration": 0.11250000000001137, "on": 1.5, "velocity": 120, "tagsIdx": [1], "pitch": 44}, {"duration": 0.11250000000001137, "on": 2.0, "velocity": 120, "tagsIdx": [0], "pitch": 36}, {"duration": 0.11250000000001137, "on": 2.5, "velocity": 120, "tagsIdx": [1], "pitch": 44}, {"duration": 0.11250000000001137, "on": 3.0, "velocity": 120, "tagsIdx": [3], "pitch": 39}, {"duration": 0.11250000000001137, "on": 3.0, "velocity": 120, "tagsIdx": [2], "pitch": 40}, {"duration": 0.11250000000001137, "on": 3.5, "velocity": 120, "tagsIdx": [1], "pitch": 44}], "eventTags": ["Kick", "Shake", "Clave", "Clap"], "timeInfo": {"duration": 4, "bpm": 120.0}}, {"eventList": [{"duration": 0.11249999999999982, "on": 0.0, "velocity": 120, "tagsIdx": [0], "pitch": 36}, {"duration": 0.11249999999999982, "on": 0.0, "velocity": 127, "tagsIdx": [1], "pitch": 44}, {"duration": 0.11249999999999982, "on": 0.5, "velocity": 127, "tagsIdx": [1], "pitch": 44}, {"duration": 0.11249999999999982, "on": 1.0, "velocity": 120, "tagsIdx": [2], "pitch": 39}, {"duration": 0.11249999999999982, "on": 1.0, "velocity": 120, "tagsIdx": [3], "pitch": 40}, {"duration": 0.11249999999999982, "on": 1.0, "velocity": 127, "tagsIdx": [1], "pitch": 44}, {"duration": 0.11249999999999982, "on": 1.5, "velocity": 127, "tagsIdx": [1], "pitch": 44}, {"duration": 0.11249999999999982, "on": 2.0, "velocity": 120, "tagsIdx": [0], "pitch": 36}, {"duration": 0.11249999999999982, "on": 2.0, "velocity": 127, "tagsIdx": [1], "pitch": 44}, {"duration": 0.11249999999999982, "on": 2.5, "velocity": 127, "tagsIdx": [1], "pitch": 44}, {"duration": 0.11249999999999982, "on": 3.0, "velocity": 120, "tagsIdx": [2], "pitch": 39}, {"duration": 0.11249999999999982, "on": 3.0, "velocity": 120, "tagsIdx": [3], "pitch": 40}, {"duration": 0.11249999999999982, "on": 3.0, "velocity": 127, "tagsIdx": [1], "pitch": 44}, {"duration": 0.11249999999999982, "on": 3.5, "velocity": 127, "tagsIdx": [1], "pitch": 44}], "eventTags": ["Kick", "Shake", "Clap", "Clave"], "timeInfo": {"duration": 4, "bpm": 120.0}}, {"eventList": [{"duration": 0.11250000000000071, "on": 0.0, "velocity": 120, "tagsIdx": [0], "pitch": 36}, {"duration": 0.11250000000000071, "on": 0.5, "velocity": 120, "tagsIdx": [1], "pitch": 44}, {"duration": 0.11250000000000071, "on": 1.0, "velocity": 120, "tagsIdx": [2], "pitch": 40}, {"duration": 0.11250000000000071, "on": 1.0, "velocity": 120, "tagsIdx": [3], "pitch": 39}, {"duration": 0.11250000000000071, "on": 1.5, "velocity": 120, "tagsIdx": [1], "pitch": 44}, {"duration": 0.11250000000000071, "on": 2.0, "velocity": 120, "tagsIdx": [0], "pitch": 36}, {"duration": 0.11250000000000071, "on": 2.5, "velocity": 120, "tagsIdx": [1], "pitch": 44}, {"duration": 0.11250000000000071, "on": 3.0, "velocity": 120, "tagsIdx": [3], "pitch": 39}, {"duration": 0.11250000000000071, "on": 3.0, "velocity": 120, "tagsIdx": [2], "pitch": 40}, {"duration": 0.11250000000000071, "on": 3.5, "velocity": 120, "tagsIdx": [1], "pitch": 44}], "eventTags": ["Kick", "Shake", "Clave", "Clap"], "timeInfo": {"duration": 4, "bpm": 120.0}}, {"eventList": [{"duration": 0.11249999999999716, "on": 0.0, "velocity": 120, "tagsIdx": [0], "pitch": 36}, {"duration": 0.11249999999999716, "on": 0.5, "velocity": 120, "tagsIdx": [1], "pitch": 44}, {"duration": 0.11249999999999716, "on": 1.0, "velocity": 120, "tagsIdx": [2], "pitch": 40}, {"duration": 0.11249999999999716, "on": 1.0, "velocity": 120, "tagsIdx": [3], "pitch": 39}, {"duration": 0.11249999999999716, "on": 1.5, "velocity": 120, "tagsIdx": [1], "pitch": 44}, {"duration": 0.11249999999999716, "on": 2.0, "velocity": 120, "tagsIdx": [0], "pitch": 36}, {"duration": 0.11249999999999716, "on": 2.5, "velocity": 120, "tagsIdx": [1], "pitch": 44}, {"duration": 0.11249999999999716, "on": 3.0, "velocity": 120, "tagsIdx": [3], "pitch": 39}, {"duration": 0.11249999999999716, "on": 3.0, "velocity": 120, "tagsIdx": [2], "pitch": 40}, {"duration": 0.11249999999999716, "on": 3.5, "velocity": 120, "tagsIdx": [1], "pitch": 44}], "eventTags": ["Kick", "Shake", "Clave", "Clap"], "timeInfo": {"duration": 4, "bpm": 120.0}}, {"eventList": [{"duration": 0.25, "on": 0.0, "velocity": 95, "tagsIdx": [0], "pitch": 46}, {"duration": 0.25, "on": 0.25, "velocity": 95, "tagsIdx": [1], "pitch": 42}, {"duration": 0.25, "on": 0.5, "velocity": 95, "tagsIdx": [1], "pitch": 42}, {"duration": 0.25, "on": 0.75, "velocity": 95, "tagsIdx": [1], "pitch": 42}, {"duration": 0.25, "on": 1.0, "velocity": 95, "tagsIdx": [0], "pitch": 46}, {"duration": 0.25, "on": 1.0, "velocity": 95, "tagsIdx": [2], "pitch": 39}, {"duration": 0.25, "on": 1.0, "velocity": 95, "tagsIdx": [3], "pitch": 40}, {"duration": 0.25, "on": 1.25, "velocity": 95, "tagsIdx": [1], "pitch": 42}, {"duration": 0.25, "on": 1.5, "velocity": 95, "tagsIdx": [1], "pitch": 42}, {"duration": 0.25, "on": 1.75, "velocity": 95, "tagsIdx": [1], "pitch": 42}, {"duration": 0.25, "on": 2.0, "velocity": 95, "tagsIdx": [0], "pitch": 46}, {"duration": 0.25, "on": 2.25, "velocity": 95, "tagsIdx": [1], "pitch": 42}, {"duration": 0.25, "on": 2.5, "velocity": 95, "tagsIdx": [1], "pitch": 42}, {"duration": 0.25, "on": 2.75, "velocity": 95, "tagsIdx": [1], "pitch": 42}, {"duration": 0.25, "on": 3.0, "velocity": 95, "tagsIdx": [0], "pitch": 46}, {"duration": 0.25, "on": 3.0, "velocity": 95, "tagsIdx": [2], "pitch": 39}, {"duration": 0.25, "on": 3.0, "velocity": 95, "tagsIdx": [3], "pitch": 40}, {"duration": 0.25, "on": 3.25, "velocity": 95, "tagsIdx": [1], "pitch": 42}, {"duration": 0.25, "on": 3.5, "velocity": 95, "tagsIdx": [1], "pitch": 42}, {"duration": 0.25, "on": 3.75, "velocity": 95, "tagsIdx": [1], "pitch": 42}], "eventTags": ["OpenHH", "ClosedHH", "Clap", "Clave"], "timeInfo": {"duration": 4, "bpm": 120.0}}, {"eventList": [{"duration": 0.25, "on": 0.0, "velocity": 95, "tagsIdx": [0], "pitch": 46}, {"duration": 0.25, "on": 0.25, "velocity": 95, "tagsIdx": [1], "pitch": 42}, {"duration": 0.25, "on": 0.5, "velocity": 95, "tagsIdx": [1], "pitch": 42}, {"duration": 0.25, "on": 0.75, "velocity": 95, "tagsIdx": [1], "pitch": 42}, {"duration": 0.25, "on": 1.0, "velocity": 95, "tagsIdx": [0], "pitch": 46}, {"duration": 0.25, "on": 1.0, "velocity": 95, "tagsIdx": [2], "pitch": 39}, {"duration": 0.25, "on": 1.0, "velocity": 95, "tagsIdx": [3], "pitch": 40}, {"duration": 0.25, "on": 1.25, "velocity": 95, "tagsIdx": [1], "pitch": 42}, {"duration": 0.25, "on": 1.5, "velocity": 95, "tagsIdx": [1], "pitch": 42}, {"duration": 0.25, "on": 1.75, "velocity": 95, "tagsIdx": [1], "pitch": 42}, {"duration": 0.25, "on": 2.0, "velocity": 95, "tagsIdx": [0], "pitch": 46}, {"duration": 0.25, "on": 2.25, "velocity": 95, "tagsIdx": [1], "pitch": 42}, {"duration": 0.25, "on": 2.5, "velocity": 95, "tagsIdx": [1], "pitch": 42}, {"duration": 0.25, "on": 2.75, "velocity": 95, "tagsIdx": [1], "pitch": 42}, {"duration": 0.25, "on": 3.0, "velocity": 95, "tagsIdx": [0], "pitch": 46}, {"duration": 0.25, "on": 3.0, "velocity": 95, "tagsIdx": [2], "pitch": 39}, {"duration": 0.25, "on": 3.0, "velocity": 95, "tagsIdx": [3], "pitch": 40}, {"duration": 0.25, "on": 3.25, "velocity": 95, "tagsIdx": [1], "pitch": 42}, {"duration": 0.5, "on": 3.5, "velocity": 95, "tagsIdx": [0], "pitch": 46}], "eventTags": ["OpenHH", "ClosedHH", "Clap", "Clave"], "timeInfo": {"duration": 4, "bpm": 120.0}}, {"eventList": [{"duration": 0.25, "on": 0.0, "velocity": 95, "tagsIdx": [0], "pitch": 49}, {"duration": 0.25, "on": 0.0, "velocity": 95, "tagsIdx": [1], "pitch": 46}, {"duration": 0.25, "on": 0.25, "velocity": 95, "tagsIdx": [2], "pitch": 42}, {"duration": 0.25, "on": 0.5, "velocity": 95, "tagsIdx": [2], "pitch": 42}, {"duration": 0.25, "on": 0.75, "velocity": 95, "tagsIdx": [2], "pitch": 42}, {"duration": 0.25, "on": 1.0, "velocity": 95, "tagsIdx": [1], "pitch": 46}, {"duration": 0.25, "on": 1.0, "velocity": 95, "tagsIdx": [3], "pitch": 39}, {"duration": 0.25, "on": 1.0, "velocity": 95, "tagsIdx": [4], "pitch": 40}, {"duration": 0.25, "on": 1.25, "velocity": 95, "tagsIdx": [2], "pitch": 42}, {"duration": 0.25, "on": 1.5, "velocity": 95, "tagsIdx": [2], "pitch": 42}, {"duration": 0.25, "on": 1.75, "velocity": 95, "tagsIdx": [2], "pitch": 42}, {"duration": 0.25, "on": 2.0, "velocity": 95, "tagsIdx": [1], "pitch": 46}, {"duration": 0.25, "on": 2.25, "velocity": 95, "tagsIdx": [2], "pitch": 42}, {"duration": 0.25, "on": 2.5, "velocity": 95, "tagsIdx": [2], "pitch": 42}, {"duration": 0.25, "on": 2.75, "velocity": 95, "tagsIdx": [2], "pitch": 42}, {"duration": 0.25, "on": 3.0, "velocity": 95, "tagsIdx": [1], "pitch": 46}, {"duration": 0.25, "on": 3.0, "velocity": 95, "tagsIdx": [3], "pitch": 39}, {"duration": 0.25, "on": 3.0, "velocity": 95, "tagsIdx": [4], "pitch": 40}, {"duration": 0.25, "on": 3.25, "velocity": 95, "tagsIdx": [2], "pitch": 42}, {"duration": 0.25, "on": 3.5, "velocity": 95, "tagsIdx": [2], "pitch": 42}, {"duration": 0.25, "on": 3.75, "velocity": 95, "tagsIdx": [2], "pitch": 42}], "eventTags": ["Cymbal", "OpenHH", "ClosedHH", "Clap", "Clave"], "timeInfo": {"duration": 4, "bpm": 120.0}}, {"eventList": [{"duration": 0.25, "on": 0.0, "velocity": 95, "tagsIdx": [0], "pitch": 46}, {"duration": 0.25, "on": 0.25, "velocity": 95, "tagsIdx": [1], "pitch": 42}, {"duration": 0.25, "on": 0.5, "velocity": 95, "tagsIdx": [1], "pitch": 42}, {"duration": 0.25, "on": 0.75, "velocity": 95, "tagsIdx": [1], "pitch": 42}, {"duration": 0.25, "on": 1.0, "velocity": 95, "tagsIdx": [0], "pitch": 46}, {"duration": 0.25, "on": 1.0, "velocity": 95, "tagsIdx": [2], "pitch": 39}, {"duration": 0.25, "on": 1.0, "velocity": 95, "tagsIdx": [3], "pitch": 40}, {"duration": 0.25, "on": 1.25, "velocity": 95, "tagsIdx": [1], "pitch": 42}, {"duration": 0.25, "on": 1.5, "velocity": 95, "tagsIdx": [1], "pitch": 42}, {"duration": 0.25, "on": 1.75, "velocity": 95, "tagsIdx": [1], "pitch": 42}, {"duration": 0.25, "on": 2.0, "velocity": 95, "tagsIdx": [0], "pitch": 46}, {"duration": 0.25, "on": 2.25, "velocity": 95, "tagsIdx": [1], "pitch": 42}, {"duration": 0.25, "on": 2.5, "velocity": 95, "tagsIdx": [1], "pitch": 42}, {"duration": 0.25, "on": 2.75, "velocity": 95, "tagsIdx": [1], "pitch": 42}, {"duration": 0.25, "on": 3.0, "velocity": 95, "tagsIdx": [0], "pitch": 46}, {"duration": 0.25, "on": 3.0, "velocity": 95, "tagsIdx": [2], "pitch": 39}, {"duration": 0.25, "on": 3.0, "velocity": 95, "tagsIdx": [3], "pitch": 40}, {"duration": 0.25, "on": 3.25, "velocity": 95, "tagsIdx": [1], "pitch": 42}, {"duration": 0.25, "on": 3.5, "velocity": 95, "tagsIdx": [1], "pitch": 42}, {"duration": 0.25, "on": 3.75, "velocity": 95, "tagsIdx": [1], "pitch": 42}], "eventTags": ["OpenHH", "ClosedHH", "Clap", "Clave"], "timeInfo": {"duration": 4, "bpm": 120.0}}, {"eventList": [{"duration": 0.25, "on": 0.0, "velocity": 95, "tagsIdx": [0], "pitch": 46}, {"duration": 0.25, "on": 0.25, "velocity": 95, "tagsIdx": [1], "pitch": 42}, {"duration": 0.25, "on": 0.5, "velocity": 95, "tagsIdx": [1], "pitch": 42}, {"duration": 0.25, "on": 0.75, "velocity": 95, "tagsIdx": [1], "pitch": 42}, {"duration": 0.25, "on": 1.0, "velocity": 95, "tagsIdx": [0], "pitch": 46}, {"duration": 0.25, "on": 1.0, "velocity": 95, "tagsIdx": [2], "pitch": 39}, {"duration": 0.25, "on": 1.0, "velocity": 95, "tagsIdx": [3], "pitch": 40}, {"duration": 0.25, "on": 1.25, "velocity": 95, "tagsIdx": [1], "pitch": 42}, {"duration": 0.25, "on": 1.5, "velocity": 95, "tagsIdx": [1], "pitch": 42}, {"duration": 0.25, "on": 1.75, "velocity": 95, "tagsIdx": [1], "pitch": 42}, {"duration": 0.25, "on": 2.0, "velocity": 95, "tagsIdx": [0], "pitch": 46}, {"duration": 0.25, "on": 2.25, "velocity": 95, "tagsIdx": [1], "pitch": 42}, {"duration": 0.25, "on": 2.5, "velocity": 95, "tagsIdx": [1], "pitch": 42}, {"duration": 0.25, "on": 2.75, "velocity": 95, "tagsIdx": [1], "pitch": 42}, {"duration": 0.25, "on": 3.0, "velocity": 95, "tagsIdx": [0], "pitch": 46}, {"duration": 0.25, "on": 3.0, "velocity": 95, "tagsIdx": [2], "pitch": 39}, {"duration": 0.25, "on": 3.0, "velocity": 95, "tagsIdx": [3], "pitch": 40}, {"duration": 0.25, "on": 3.25, "velocity": 95, "tagsIdx": [1], "pitch": 42}, {"duration": 0.25, "on": 3.5, "velocity": 95, "tagsIdx": [1], "pitch": 42}, {"duration": 0.25, "on": 3.75, "velocity": 95, "tagsIdx": [1], "pitch": 42}], "eventTags": ["OpenHH", "ClosedHH", "Clap", "Clave"], "timeInfo": {"duration": 4, "bpm": 120.0}}, {"eventList": [{"duration": 0.25, "on": 0.0, "velocity": 95, "tagsIdx": [0], "pitch": 46}, {"duration": 0.25, "on": 0.25, "velocity": 95, "tagsIdx": [1], "pitch": 42}, {"duration": 0.25, "on": 0.5, "velocity": 95, "tagsIdx": [1], "pitch": 42}, {"duration": 0.25, "on": 0.75, "velocity": 95, "tagsIdx": [1], "pitch": 42}, {"duration": 0.25, "on": 1.0, "velocity": 95, "tagsIdx": [0], "pitch": 46}, {"duration": 0.25, "on": 1.0, "velocity": 95, "tagsIdx": [2], "pitch": 39}, {"duration": 0.25, "on": 1.0, "velocity": 95, "tagsIdx": [3], "pitch": 40}, {"duration": 0.25, "on": 1.25, "velocity": 95, "tagsIdx": [1], "pitch": 42}, {"duration": 0.25, "on": 1.5, "velocity": 95, "tagsIdx": [1], "pitch": 42}, {"duration": 0.25, "on": 1.75, "velocity": 95, "tagsIdx": [1], "pitch": 42}, {"duration": 0.25, "on": 2.0, "velocity": 95, "tagsIdx": [0], "pitch": 46}, {"duration": 0.25, "on": 2.25, "velocity": 95, "tagsIdx": [1], "pitch": 42}, {"duration": 0.25, "on": 2.5, "velocity": 95, "tagsIdx": [1], "pitch": 42}, {"duration": 0.25, "on": 2.75, "velocity": 95, "tagsIdx": [1], "pitch": 42}, {"duration": 0.25, "on": 3.0, "velocity": 95, "tagsIdx": [0], "pitch": 46}, {"duration": 0.25, "on": 3.0, "velocity": 95, "tagsIdx": [2], "pitch": 39}, {"duration": 0.25, "on": 3.0, "velocity": 95, "tagsIdx": [3], "pitch": 40}, {"duration": 0.25, "on": 3.25, "velocity": 95, "tagsIdx": [1], "pitch": 42}, {"duration": 0.5, "on": 3.5, "velocity": 95, "tagsIdx": [0], "pitch": 46}], "eventTags": ["OpenHH", "ClosedHH", "Clap", "Clave"], "timeInfo": {"duration": 4, "bpm": 120.0}}, {"eventList": [{"duration": 0.25, "on": 0.0, "velocity": 95, "tagsIdx": [0], "pitch": 49}, {"duration": 0.25, "on": 0.0, "velocity": 95, "tagsIdx": [1], "pitch": 46}, {"duration": 0.25, "on": 0.25, "velocity": 95, "tagsIdx": [2], "pitch": 42}, {"duration": 0.25, "on": 0.5, "velocity": 95, "tagsIdx": [2], "pitch": 42}, {"duration": 0.25, "on": 0.75, "velocity": 95, "tagsIdx": [2], "pitch": 42}, {"duration": 0.25, "on": 1.0, "velocity": 95, "tagsIdx": [1], "pitch": 46}, {"duration": 0.25, "on": 1.0, "velocity": 95, "tagsIdx": [3], "pitch": 39}, {"duration": 0.25, "on": 1.0, "velocity": 95, "tagsIdx": [4], "pitch": 40}, {"duration": 0.25, "on": 1.25, "velocity": 95, "tagsIdx": [2], "pitch": 42}, {"duration": 0.25, "on": 1.5, "velocity": 95, "tagsIdx": [2], "pitch": 42}, {"duration": 0.25, "on": 1.75, "velocity": 95, "tagsIdx": [2], "pitch": 42}, {"duration": 0.25, "on": 2.0, "velocity": 95, "tagsIdx": [1], "pitch": 46}, {"duration": 0.25, "on": 2.25, "velocity": 95, "tagsIdx": [2], "pitch": 42}, {"duration": 0.25, "on": 2.5, "velocity": 95, "tagsIdx": [2], "pitch": 42}, {"duration": 0.25, "on": 2.75, "velocity": 95, "tagsIdx": [2], "pitch": 42}, {"duration": 0.25, "on": 3.0, "velocity": 95, "tagsIdx": [1], "pitch": 46}, {"duration": 0.25, "on": 3.0, "velocity": 95, "tagsIdx": [3], "pitch": 39}, {"duration": 0.25, "on": 3.0, "velocity": 95, "tagsIdx": [4], "pitch": 40}, {"duration": 0.25, "on": 3.25, "velocity": 95, "tagsIdx": [2], "pitch": 42}, {"duration": 0.25, "on": 3.5, "velocity": 95, "tagsIdx": [2], "pitch": 42}, {"duration": 0.25, "on": 3.75, "velocity": 95, "tagsIdx": [2], "pitch": 42}], "eventTags": ["Cymbal", "OpenHH", "ClosedHH", "Clap", "Clave"], "timeInfo": {"duration": 4, "bpm": 120.0}}, {"eventList": [{"duration": 0.25, "on": 0.0, "velocity": 95, "tagsIdx": [0], "pitch": 46}, {"duration": 0.25, "on": 0.25, "velocity": 95, "tagsIdx": [1], "pitch": 42}, {"duration": 0.25, "on": 0.5, "velocity": 95, "tagsIdx": [1], "pitch": 42}, {"duration": 0.25, "on": 0.75, "velocity": 95, "tagsIdx": [1], "pitch": 42}, {"duration": 0.25, "on": 1.0, "velocity": 95, "tagsIdx": [0], "pitch": 46}, {"duration": 0.25, "on": 1.0, "velocity": 95, "tagsIdx": [2], "pitch": 39}, {"duration": 0.25, "on": 1.0, "velocity": 95, "tagsIdx": [3], "pitch": 40}, {"duration": 0.25, "on": 1.25, "velocity": 95, "tagsIdx": [1], "pitch": 42}, {"duration": 0.25, "on": 1.5, "velocity": 95, "tagsIdx": [1], "pitch": 42}, {"duration": 0.25, "on": 1.75, "velocity": 95, "tagsIdx": [1], "pitch": 42}, {"duration": 0.25, "on": 2.0, "velocity": 95, "tagsIdx": [0], "pitch": 46}, {"duration": 0.25, "on": 2.25, "velocity": 95, "tagsIdx": [1], "pitch": 42}, {"duration": 0.25, "on": 2.5, "velocity": 95, "tagsIdx": [1], "pitch": 42}, {"duration": 0.25, "on": 2.75, "velocity": 95, "tagsIdx": [1], "pitch": 42}, {"duration": 0.25, "on": 3.0, "velocity": 95, "tagsIdx": [0], "pitch": 46}, {"duration": 0.25, "on": 3.0, "velocity": 95, "tagsIdx": [2], "pitch": 39}, {"duration": 0.25, "on": 3.0, "velocity": 95, "tagsIdx": [3], "pitch": 40}, {"duration": 0.25, "on": 3.25, "velocity": 95, "tagsIdx": [1], "pitch": 42}, {"duration": 0.25, "on": 3.5, "velocity": 95, "tagsIdx": [1], "pitch": 42}, {"duration": 0.25, "on": 3.75, "velocity": 95, "tagsIdx": [1], "pitch": 42}], "eventTags": ["OpenHH", "ClosedHH", "Clap", "Clave"], "timeInfo": {"duration": 4, "bpm": 120.0}}, {"eventList": [{"duration": 0.125, "on": 0.0, "velocity": 100, "tagsIdx": [0], "pitch": 42}, {"duration": 0.125, "on": 0.5, "velocity": 100, "tagsIdx": [0], "pitch": 42}, {"duration": 0.125, "on": 1.0, "velocity": 100, "tagsIdx": [1], "pitch": 36}, {"duration": 0.125, "on": 1.0, "velocity": 100, "tagsIdx": [0], "pitch": 42}, {"duration": 0.125, "on": 1.0, "velocity": 100, "tagsIdx": [2], "pitch": 39}, {"duration": 0.125, "on": 1.5, "velocity": 100, "tagsIdx": [0], "pitch": 42}, {"duration": 0.125, "on": 2.0, "velocity": 100, "tagsIdx": [0], "pitch": 42}, {"duration": 0.125, "on": 2.5, "velocity": 100, "tagsIdx": [0], "pitch": 42}, {"duration": 0.125, "on": 3.0, "velocity": 100, "tagsIdx": [0], "pitch": 42}, {"duration": 0.125, "on": 3.0, "velocity": 100, "tagsIdx": [1], "pitch": 36}, {"duration": 0.125, "on": 3.0, "velocity": 100, "tagsIdx": [2], "pitch": 39}, {"duration": 0.125, "on": 3.5, "velocity": 100, "tagsIdx": [0], "pitch": 42}, {"duration": 0.125, "on": 3.75, "velocity": 100, "tagsIdx": [0], "pitch": 42}], "eventTags": ["ClosedHH", "Kick", "Clap"], "timeInfo": {"duration": 4, "bpm": 120.0}}, {"eventList": [{"duration": 0.125, "on": 0.0, "velocity": 100, "tagsIdx": [0], "pitch": 42}, {"duration": 0.125, "on": 0.5, "velocity": 100, "tagsIdx": [0], "pitch": 42}, {"duration": 0.125, "on": 1.0, "velocity": 100, "tagsIdx": [1], "pitch": 36}, {"duration": 0.125, "on": 1.0, "velocity": 100, "tagsIdx": [0], "pitch": 42}, {"duration": 0.125, "on": 1.0, "velocity": 100, "tagsIdx": [2], "pitch": 39}, {"duration": 0.125, "on": 1.5, "velocity": 100, "tagsIdx": [0], "pitch": 42}, {"duration": 0.125, "on": 2.0, "velocity": 100, "tagsIdx": [0], "pitch": 42}, {"duration": 0.125, "on": 2.5, "velocity": 100, "tagsIdx": [0], "pitch": 42}, {"duration": 0.125, "on": 3.0, "velocity": 100, "tagsIdx": [0], "pitch": 42}, {"duration": 0.125, "on": 3.0, "velocity": 100, "tagsIdx": [1], "pitch": 36}, {"duration": 0.125, "on": 3.0, "velocity": 100, "tagsIdx": [2], "pitch": 39}, {"duration": 0.125, "on": 3.5, "velocity": 100, "tagsIdx": [0], "pitch": 42}, {"duration": 0.125, "on": 3.75, "velocity": 100, "tagsIdx": [0], "pitch": 42}], "eventTags": ["ClosedHH", "Kick", "Clap"], "timeInfo": {"duration": 4, "bpm": 120.0}}, {"eventList": [{"duration": 0.25, "on": 0.0, "velocity": 95, "tagsIdx": [0], "pitch": 49}, {"duration": 0.25, "on": 0.0, "velocity": 95, "tagsIdx": [1], "pitch": 46}, {"duration": 0.25, "on": 0.25, "velocity": 95, "tagsIdx": [2], "pitch": 42}, {"duration": 0.25, "on": 0.5, "velocity": 95, "tagsIdx": [2], "pitch": 42}, {"duration": 0.25, "on": 0.75, "velocity": 95, "tagsIdx": [2], "pitch": 42}, {"duration": 0.25, "on": 1.0, "velocity": 95, "tagsIdx": [1], "pitch": 46}, {"duration": 0.25, "on": 1.0, "velocity": 95, "tagsIdx": [3], "pitch": 39}, {"duration": 0.25, "on": 1.0, "velocity": 95, "tagsIdx": [4], "pitch": 40}, {"duration": 0.25, "on": 1.25, "velocity": 95, "tagsIdx": [2], "pitch": 42}, {"duration": 0.25, "on": 1.5, "velocity": 95, "tagsIdx": [2], "pitch": 42}, {"duration": 0.25, "on": 1.75, "velocity": 95, "tagsIdx": [2], "pitch": 42}, {"duration": 0.25, "on": 2.0, "velocity": 95, "tagsIdx": [1], "pitch": 46}, {"duration": 0.25, "on": 2.25, "velocity": 95, "tagsIdx": [2], "pitch": 42}, {"duration": 0.25, "on": 2.5, "velocity": 95, "tagsIdx": [2], "pitch": 42}, {"duration": 0.25, "on": 2.75, "velocity": 95, "tagsIdx": [2], "pitch": 42}, {"duration": 0.25, "on": 3.0, "velocity": 95, "tagsIdx": [1], "pitch": 46}, {"duration": 0.25, "on": 3.0, "velocity": 95, "tagsIdx": [3], "pitch": 39}, {"duration": 0.25, "on": 3.0, "velocity": 95, "tagsIdx": [4], "pitch": 40}, {"duration": 0.25, "on": 3.25, "velocity": 95, "tagsIdx": [2], "pitch": 42}, {"duration": 0.25, "on": 3.5, "velocity": 95, "tagsIdx": [2], "pitch": 42}, {"duration": 0.25, "on": 3.75, "velocity": 95, "tagsIdx": [2], "pitch": 42}], "eventTags": ["Cymbal", "OpenHH", "ClosedHH", "Clap", "Clave"], "timeInfo": {"duration": 4, "bpm": 120.0}}, {"eventList": [{"duration": 0.25, "on": 0.0, "velocity": 95, "tagsIdx": [0], "pitch": 46}, {"duration": 0.25, "on": 0.25, "velocity": 95, "tagsIdx": [1], "pitch": 42}, {"duration": 0.25, "on": 0.5, "velocity": 95, "tagsIdx": [1], "pitch": 42}, {"duration": 0.25, "on": 0.75, "velocity": 95, "tagsIdx": [1], "pitch": 42}, {"duration": 0.25, "on": 1.0, "velocity": 95, "tagsIdx": [0], "pitch": 46}, {"duration": 0.25, "on": 1.0, "velocity": 95, "tagsIdx": [2], "pitch": 39}, {"duration": 0.25, "on": 1.0, "velocity": 95, "tagsIdx": [3], "pitch": 40}, {"duration": 0.25, "on": 1.25, "velocity": 95, "tagsIdx": [1], "pitch": 42}, {"duration": 0.25, "on": 1.5, "velocity": 95, "tagsIdx": [1], "pitch": 42}, {"duration": 0.25, "on": 1.75, "velocity": 95, "tagsIdx": [1], "pitch": 42}, {"duration": 0.25, "on": 2.0, "velocity": 95, "tagsIdx": [0], "pitch": 46}, {"duration": 0.25, "on": 2.25, "velocity": 95, "tagsIdx": [1], "pitch": 42}, {"duration": 0.25, "on": 2.5, "velocity": 95, "tagsIdx": [1], "pitch": 42}, {"duration": 0.25, "on": 2.75, "velocity": 95, "tagsIdx": [1], "pitch": 42}, {"duration": 0.25, "on": 3.0, "velocity": 95, "tagsIdx": [0], "pitch": 46}, {"duration": 0.25, "on": 3.0, "velocity": 95, "tagsIdx": [2], "pitch": 39}, {"duration": 0.25, "on": 3.0, "velocity": 95, "tagsIdx": [3], "pitch": 40}, {"duration": 0.25, "on": 3.25, "velocity": 95, "tagsIdx": [1], "pitch": 42}, {"duration": 0.25, "on": 3.5, "velocity": 95, "tagsIdx": [1], "pitch": 42}, {"duration": 0.25, "on": 3.75, "velocity": 95, "tagsIdx": [1], "pitch": 42}], "eventTags": ["OpenHH", "ClosedHH", "Clap", "Clave"], "timeInfo": {"duration": 4, "bpm": 120.0}}, {"eventList": [{"duration": 0.11250000000001137, "on": 0.0, "velocity": 120, "tagsIdx": [0], "pitch": 36}, {"duration": 0.11250000000001137, "on": 0.5, "velocity": 120, "tagsIdx": [1], "pitch": 44}, {"duration": 0.11250000000001137, "on": 1.0, "velocity": 120, "tagsIdx": [2], "pitch": 39}, {"duration": 0.11250000000001137, "on": 1.0, "velocity": 120, "tagsIdx": [3], "pitch": 40}, {"duration": 0.11250000000001137, "on": 1.5, "velocity": 120, "tagsIdx": [1], "pitch": 44}, {"duration": 0.11250000000001137, "on": 2.0, "velocity": 120, "tagsIdx": [0], "pitch": 36}, {"duration": 0.11250000000001137, "on": 2.5, "velocity": 120, "tagsIdx": [1], "pitch": 44}, {"duration": 0.11250000000001137, "on": 3.0, "velocity": 120, "tagsIdx": [2], "pitch": 39}, {"duration": 0.11250000000001137, "on": 3.0, "velocity": 120, "tagsIdx": [3], "pitch": 40}, {"duration": 0.11250000000001137, "on": 3.5, "velocity": 120, "tagsIdx": [1], "pitch": 44}], "eventTags": ["Kick", "Shake", "Clap", "Clave"], "timeInfo": {"duration": 4, "bpm": 120.0}}, {"eventList": [{"duration": 0.11250000000001137, "on": 0.0, "velocity": 120, "tagsIdx": [0], "pitch": 36}, {"duration": 0.11250000000001137, "on": 0.5, "velocity": 120, "tagsIdx": [1], "pitch": 44}, {"duration": 0.11250000000001137, "on": 1.0, "velocity": 120, "tagsIdx": [2], "pitch": 39}, {"duration": 0.11250000000001137, "on": 1.0, "velocity": 120, "tagsIdx": [3], "pitch": 40}, {"duration": 0.11250000000001137, "on": 1.5, "velocity": 120, "tagsIdx": [1], "pitch": 44}, {"duration": 0.11250000000001137, "on": 2.0, "velocity": 120, "tagsIdx": [0], "pitch": 36}, {"duration": 0.11250000000001137, "on": 2.5, "velocity": 120, "tagsIdx": [1], "pitch": 44}, {"duration": 0.11250000000001137, "on": 3.0, "velocity": 120, "tagsIdx": [2], "pitch": 39}, {"duration": 0.11250000000001137, "on": 3.0, "velocity": 120, "tagsIdx": [3], "pitch": 40}, {"duration": 0.11250000000001137, "on": 3.5, "velocity": 120, "tagsIdx": [1], "pitch": 44}], "eventTags": ["Kick", "Shake", "Clap", "Clave"], "timeInfo": {"duration": 4, "bpm": 120.0}}, {"eventList": [{"duration": 0.11250000000001137, "on": 0.0, "velocity": 120, "tagsIdx": [0], "pitch": 36}, {"duration": 0.11250000000001137, "on": 0.5, "velocity": 120, "tagsIdx": [1], "pitch": 44}, {"duration": 0.11250000000001137, "on": 1.0, "velocity": 120, "tagsIdx": [2], "pitch": 39}, {"duration": 0.11250000000001137, "on": 1.0, "velocity": 120, "tagsIdx": [3], "pitch": 40}, {"duration": 0.11250000000001137, "on": 1.5, "velocity": 120, "tagsIdx": [1], "pitch": 44}, {"duration": 0.11250000000001137, "on": 2.0, "velocity": 120, "tagsIdx": [0], "pitch": 36}, {"duration": 0.11250000000001137, "on": 2.5, "velocity": 120, "tagsIdx": [1], "pitch": 44}, {"duration": 0.11250000000001137, "on": 3.0, "velocity": 120, "tagsIdx": [2], "pitch": 39}, {"duration": 0.11250000000001137, "on": 3.0, "velocity": 120, "tagsIdx": [3], "pitch": 40}, {"duration": 0.11250000000001137, "on": 3.5, "velocity": 120, "tagsIdx": [1], "pitch": 44}], "eventTags": ["Kick", "Shake", "Clap", "Clave"], "timeInfo": {"duration": 4, "bpm": 120.0}}, {"eventList": [{"duration": 0.11250000000001137, "on": 0.0, "velocity": 120, "tagsIdx": [0], "pitch": 36}, {"duration": 0.11250000000001137, "on": 0.5, "velocity": 120, "tagsIdx": [1], "pitch": 44}, {"duration": 0.11250000000001137, "on": 1.0, "velocity": 120, "tagsIdx": [2], "pitch": 39}, {"duration": 0.11250000000001137, "on": 1.0, "velocity": 120, "tagsIdx": [3], "pitch": 40}, {"duration": 0.11250000000001137, "on": 1.5, "velocity": 120, "tagsIdx": [1], "pitch": 44}, {"duration": 0.11250000000001137, "on": 2.0, "velocity": 120, "tagsIdx": [0], "pitch": 36}, {"duration": 0.11250000000001137, "on": 2.5, "velocity": 120, "tagsIdx": [1], "pitch": 44}, {"duration": 0.11250000000001137, "on": 3.0, "velocity": 120, "tagsIdx": [2], "pitch": 39}, {"duration": 0.11250000000001137, "on": 3.0, "velocity": 120, "tagsIdx": [3], "pitch": 40}, {"duration": 0.11250000000001137, "on": 3.5, "velocity": 120, "tagsIdx": [1], "pitch": 44}], "eventTags": ["Kick", "Shake", "Clap", "Clave"], "timeInfo": {"duration": 4, "bpm": 120.0}}, {"eventList": [{"duration": 0.11250000000001137, "on": 0.0, "velocity": 120, "tagsIdx": [0], "pitch": 36}, {"duration": 0.11250000000001137, "on": 0.5, "velocity": 120, "tagsIdx": [1], "pitch": 44}, {"duration": 0.11250000000001137, "on": 1.0, "velocity": 120, "tagsIdx": [2], "pitch": 39}, {"duration": 0.11250000000001137, "on": 1.0, "velocity": 120, "tagsIdx": [3], "pitch": 40}, {"duration": 0.11250000000001137, "on": 1.5, "velocity": 120, "tagsIdx": [1], "pitch": 44}, {"duration": 0.11250000000001137, "on": 2.0, "velocity": 120, "tagsIdx": [0], "pitch": 36}, {"duration": 0.11250000000001137, "on": 2.5, "velocity": 120, "tagsIdx": [1], "pitch": 44}, {"duration": 0.11250000000001137, "on": 3.0, "velocity": 120, "tagsIdx": [2], "pitch": 39}, {"duration": 0.11250000000001137, "on": 3.0, "velocity": 120, "tagsIdx": [3], "pitch": 40}, {"duration": 0.11250000000001137, "on": 3.5, "velocity": 120, "tagsIdx": [1], "pitch": 44}], "eventTags": ["Kick", "Shake", "Clap", "Clave"], "timeInfo": {"duration": 4, "bpm": 120.0}}, {"eventList": [{"duration": 0.11250000000001137, "on": 0.0, "velocity": 120, "tagsIdx": [0], "pitch": 36}, {"duration": 0.11250000000001137, "on": 0.5, "velocity": 120, "tagsIdx": [1], "pitch": 44}, {"duration": 0.11250000000001137, "on": 1.0, "velocity": 120, "tagsIdx": [2], "pitch": 39}, {"duration": 0.11250000000001137, "on": 1.0, "velocity": 120, "tagsIdx": [3], "pitch": 40}, {"duration": 0.11250000000001137, "on": 1.5, "velocity": 120, "tagsIdx": [1], "pitch": 44}, {"duration": 0.11250000000001137, "on": 2.0, "velocity": 120, "tagsIdx": [0], "pitch": 36}, {"duration": 0.11250000000001137, "on": 2.5, "velocity": 120, "tagsIdx": [1], "pitch": 44}, {"duration": 0.11250000000001137, "on": 3.0, "velocity": 120, "tagsIdx": [2], "pitch": 39}, {"duration": 0.11250000000001137, "on": 3.0, "velocity": 120, "tagsIdx": [3], "pitch": 40}, {"duration": 0.11250000000001137, "on": 3.5, "velocity": 120, "tagsIdx": [1], "pitch": 44}], "eventTags": ["Kick", "Shake", "Clap", "Clave"], "timeInfo": {"duration": 4, "bpm": 120.0}}, {"eventList": [{"duration": 0.11250000000001137, "on": 0.0, "velocity": 120, "tagsIdx": [0], "pitch": 42}, {"duration": 0.11250000000001137, "on": 0.5, "velocity": 120, "tagsIdx": [0], "pitch": 42}, {"duration": 0.11250000000001137, "on": 1.0, "velocity": 120, "tagsIdx": [0], "pitch": 42}, {"duration": 0.11250000000001137, "on": 1.0, "velocity": 120, "tagsIdx": [1], "pitch": 39}, {"duration": 0.11250000000001137, "on": 1.5, "velocity": 120, "tagsIdx": [0], "pitch": 42}, {"duration": 0.11250000000001137, "on": 2.0, "velocity": 120, "tagsIdx": [0], "pitch": 42}, {"duration": 0.11250000000001137, "on": 2.5, "velocity": 120, "tagsIdx": [0], "pitch": 42}, {"duration": 0.11250000000001137, "on": 3.0, "velocity": 120, "tagsIdx": [1], "pitch": 39}, {"duration": 1.0, "on": 3.0, "velocity": 120, "tagsIdx": [2], "pitch": 46}, {"duration": 0.11250000000001137, "on": 3.0, "velocity": 120, "tagsIdx": [3], "pitch": 40}], "eventTags": ["ClosedHH", "Clap", "OpenHH", "Clave"], "timeInfo": {"duration": 4, "bpm": 120.0}}, {"eventList": [{"duration": 0.11250000000001137, "on": 0.0, "velocity": 120, "tagsIdx": [0], "pitch": 42}, {"duration": 0.11250000000001137, "on": 0.5, "velocity": 120, "tagsIdx": [0], "pitch": 42}, {"duration": 0.11250000000001137, "on": 1.0, "velocity": 120, "tagsIdx": [0], "pitch": 42}, {"duration": 0.11250000000001137, "on": 1.0, "velocity": 120, "tagsIdx": [1], "pitch": 39}, {"duration": 0.11250000000001137, "on": 1.5, "velocity": 120, "tagsIdx": [0], "pitch": 42}, {"duration": 0.11250000000001137, "on": 2.0, "velocity": 120, "tagsIdx": [0], "pitch": 42}, {"duration": 0.11250000000001137, "on": 2.5, "velocity": 120, "tagsIdx": [0], "pitch": 42}, {"duration": 0.11250000000001137, "on": 3.0, "velocity": 120, "tagsIdx": [0], "pitch": 42}, {"duration": 0.11250000000001137, "on": 3.0, "velocity": 120, "tagsIdx": [1], "pitch": 39}, {"duration": 0.11250000000001137, "on": 3.5, "velocity": 120, "tagsIdx": [0], "pitch": 42}], "eventTags": ["ClosedHH", "Clap"], "timeInfo": {"duration": 4, "bpm": 120.0}}, {"eventList": [{"duration": 0.11250000000001137, "on": 0.0, "velocity": 120, "tagsIdx": [0], "pitch": 36}, {"duration": 0.11250000000001137, "on": 0.5, "velocity": 120, "tagsIdx": [1], "pitch": 44}, {"duration": 0.11250000000001137, "on": 1.0, "velocity": 120, "tagsIdx": [2], "pitch": 39}, {"duration": 0.11250000000001137, "on": 1.0, "velocity": 120, "tagsIdx": [3], "pitch": 40}, {"duration": 0.11250000000001137, "on": 1.5, "velocity": 120, "tagsIdx": [1], "pitch": 44}, {"duration": 0.11250000000001137, "on": 2.0, "velocity": 120, "tagsIdx": [0], "pitch": 36}, {"duration": 0.11250000000001137, "on": 2.5, "velocity": 120, "tagsIdx": [1], "pitch": 44}, {"duration": 0.11250000000001137, "on": 3.0, "velocity": 120, "tagsIdx": [2], "pitch": 39}, {"duration": 0.11250000000001137, "on": 3.0, "velocity": 120, "tagsIdx": [3], "pitch": 40}, {"duration": 0.11250000000001137, "on": 3.5, "velocity": 120, "tagsIdx": [1], "pitch": 44}], "eventTags": ["Kick", "Shake", "Clap", "Clave"], "timeInfo": {"duration": 4, "bpm": 120.0}}, {"eventList": [{"duration": 0.11250000000001137, "on": 0.0, "velocity": 120, "tagsIdx": [0], "pitch": 36}, {"duration": 0.11250000000001137, "on": 0.5, "velocity": 120, "tagsIdx": [1], "pitch": 44}, {"duration": 0.11250000000001137, "on": 1.0, "velocity": 120, "tagsIdx": [2], "pitch": 39}, {"duration": 0.11250000000001137, "on": 1.0, "velocity": 120, "tagsIdx": [3], "pitch": 40}, {"duration": 0.11250000000001137, "on": 1.5, "velocity": 120, "tagsIdx": [1], "pitch": 44}, {"duration": 0.11250000000001137, "on": 2.0, "velocity": 120, "tagsIdx": [0], "pitch": 36}, {"duration": 0.11250000000001137, "on": 2.5, "velocity": 120, "tagsIdx": [1], "pitch": 44}, {"duration": 0.11250000000001137, "on": 3.0, "velocity": 120, "tagsIdx": [2], "pitch": 39}, {"duration": 0.11250000000001137, "on": 3.0, "velocity": 120, "tagsIdx": [3], "pitch": 40}, {"duration": 0.11250000000001137, "on": 3.5, "velocity": 120, "tagsIdx": [1], "pitch": 44}], "eventTags": ["Kick", "Shake", "Clap", "Clave"], "timeInfo": {"duration": 4, "bpm": 120.0}}, {"eventList": [{"duration": 0.25, "on": 0.0, "velocity": 95, "tagsIdx": [0], "pitch": 38}, {"duration": 0.25, "on": 0.0, "velocity": 95, "tagsIdx": [1], "pitch": 42}, {"duration": 0.25, "on": 0.0, "velocity": 63, "tagsIdx": [2], "pitch": 39}, {"duration": 0.25, "on": 0.25, "velocity": 111, "tagsIdx": [3], "pitch": 36}, {"duration": 0.25, "on": 0.25, "velocity": 95, "tagsIdx": [1], "pitch": 42}, {"duration": 0.25, "on": 0.5, "velocity": 95, "tagsIdx": [1], "pitch": 42}, {"duration": 0.25, "on": 0.75, "velocity": 95, "tagsIdx": [1], "pitch": 42}, {"duration": 0.25, "on": 1.0, "velocity": 111, "tagsIdx": [3], "pitch": 36}, {"duration": 0.25, "on": 1.0, "velocity": 127, "tagsIdx": [1], "pitch": 42}, {"duration": 0.25, "on": 1.25, "velocity": 127, "tagsIdx": [1], "pitch": 42}, {"duration": 0.25, "on": 1.5, "velocity": 111, "tagsIdx": [1], "pitch": 42}, {"duration": 0.25, "on": 1.75, "velocity": 95, "tagsIdx": [1], "pitch": 42}, {"duration": 0.25, "on": 2.0, "velocity": 95, "tagsIdx": [0], "pitch": 38}, {"duration": 0.25, "on": 2.0, "velocity": 95, "tagsIdx": [1], "pitch": 42}, {"duration": 0.25, "on": 2.0, "velocity": 63, "tagsIdx": [2], "pitch": 39}, {"duration": 0.25, "on": 2.25, "velocity": 63, "tagsIdx": [1], "pitch": 42}, {"duration": 0.25, "on": 2.5, "velocity": 95, "tagsIdx": [1], "pitch": 42}, {"duration": 0.25, "on": 2.75, "velocity": 95, "tagsIdx": [1], "pitch": 42}, {"duration": 0.25, "on": 3.0, "velocity": 95, "tagsIdx": [1], "pitch": 42}, {"duration": 0.25, "on": 3.25, "velocity": 95, "tagsIdx": [1], "pitch": 42}, {"duration": 0.25, "on": 3.5, "velocity": 95, "tagsIdx": [3], "pitch": 36}, {"duration": 0.25, "on": 3.5, "velocity": 95, "tagsIdx": [1], "pitch": 42}, {"duration": 0.25, "on": 3.5, "velocity": 111, "tagsIdx": [4], "pitch": 46}, {"duration": 0.25, "on": 3.75, "velocity": 95, "tagsIdx": [1], "pitch": 42}], "eventTags": ["Snare", "ClosedHH", "Clap", "Kick", "OpenHH"], "timeInfo": {"duration": 4, "bpm": 120.0}}, {"eventList": [{"duration": 0.25, "on": 0.0, "velocity": 95, "tagsIdx": [0], "pitch": 38}, {"duration": 0.25, "on": 0.0, "velocity": 95, "tagsIdx": [1], "pitch": 42}, {"duration": 0.25, "on": 0.0, "velocity": 95, "tagsIdx": [2], "pitch": 39}, {"duration": 0.25, "on": 0.25, "velocity": 111, "tagsIdx": [3], "pitch": 36}, {"duration": 0.25, "on": 0.25, "velocity": 95, "tagsIdx": [1], "pitch": 42}, {"duration": 0.25, "on": 1.0, "velocity": 111, "tagsIdx": [3], "pitch": 36}, {"duration": 0.25, "on": 1.0, "velocity": 127, "tagsIdx": [1], "pitch": 42}, {"duration": 0.25, "on": 1.25, "velocity": 127, "tagsIdx": [1], "pitch": 42}, {"duration": 0.25, "on": 2.0, "velocity": 95, "tagsIdx": [0], "pitch": 38}, {"duration": 0.25, "on": 2.0, "velocity": 95, "tagsIdx": [1], "pitch": 42}, {"duration": 0.25, "on": 2.0, "velocity": 63, "tagsIdx": [2], "pitch": 39}, {"duration": 0.25, "on": 2.5, "velocity": 95, "tagsIdx": [1], "pitch": 42}, {"duration": 0.25, "on": 2.75, "velocity": 95, "tagsIdx": [1], "pitch": 42}, {"duration": 0.25, "on": 3.0, "velocity": 95, "tagsIdx": [1], "pitch": 42}, {"duration": 0.25, "on": 3.25, "velocity": 95, "tagsIdx": [1], "pitch": 42}, {"duration": 0.25, "on": 3.5, "velocity": 95, "tagsIdx": [3], "pitch": 36}, {"duration": 0.25, "on": 3.5, "velocity": 95, "tagsIdx": [1], "pitch": 42}, {"duration": 0.25, "on": 3.5, "velocity": 111, "tagsIdx": [4], "pitch": 46}, {"duration": 0.25, "on": 3.75, "velocity": 95, "tagsIdx": [1], "pitch": 42}], "eventTags": ["Snare", "ClosedHH", "Clap", "Kick", "OpenHH"], "timeInfo": {"duration": 4, "bpm": 120.0}}, {"eventList": [{"duration": 0.25, "on": 0.0, "velocity": 95, "tagsIdx": [0], "pitch": 38}, {"duration": 0.25, "on": 0.0, "velocity": 95, "tagsIdx": [1], "pitch": 42}, {"duration": 0.25, "on": 0.0, "velocity": 63, "tagsIdx": [2], "pitch": 39}, {"duration": 0.25, "on": 0.25, "velocity": 111, "tagsIdx": [3], "pitch": 36}, {"duration": 0.25, "on": 0.25, "velocity": 95, "tagsIdx": [1], "pitch": 42}, {"duration": 0.25, "on": 0.5, "velocity": 95, "tagsIdx": [1], "pitch": 42}, {"duration": 0.25, "on": 0.75, "velocity": 95, "tagsIdx": [1], "pitch": 42}, {"duration": 0.25, "on": 1.0, "velocity": 111, "tagsIdx": [3], "pitch": 36}, {"duration": 0.25, "on": 1.0, "velocity": 127, "tagsIdx": [1], "pitch": 42}, {"duration": 0.25, "on": 1.25, "velocity": 127, "tagsIdx": [1], "pitch": 42}, {"duration": 0.25, "on": 1.5, "velocity": 127, "tagsIdx": [1], "pitch": 42}, {"duration": 0.25, "on": 1.75, "velocity": 95, "tagsIdx": [1], "pitch": 42}, {"duration": 0.25, "on": 2.0, "velocity": 95, "tagsIdx": [0], "pitch": 38}, {"duration": 0.25, "on": 2.0, "velocity": 95, "tagsIdx": [1], "pitch": 42}, {"duration": 0.25, "on": 2.0, "velocity": 63, "tagsIdx": [2], "pitch": 39}, {"duration": 0.25, "on": 2.25, "velocity": 95, "tagsIdx": [1], "pitch": 42}, {"duration": 0.25, "on": 2.5, "velocity": 95, "tagsIdx": [1], "pitch": 42}, {"duration": 0.25, "on": 2.75, "velocity": 95, "tagsIdx": [1], "pitch": 42}, {"duration": 0.25, "on": 3.0, "velocity": 111, "tagsIdx": [3], "pitch": 36}, {"duration": 0.25, "on": 3.0, "velocity": 95, "tagsIdx": [1], "pitch": 42}, {"duration": 0.25, "on": 3.25, "velocity": 95, "tagsIdx": [1], "pitch": 42}, {"duration": 0.25, "on": 3.5, "velocity": 111, "tagsIdx": [3], "pitch": 36}, {"duration": 0.25, "on": 3.5, "velocity": 79, "tagsIdx": [4], "pitch": 49}, {"duration": 0.25, "on": 3.5, "velocity": 111, "tagsIdx": [1], "pitch": 42}, {"duration": 0.25, "on": 3.5, "velocity": 111, "tagsIdx": [5], "pitch": 46}, {"duration": 0.25, "on": 3.75, "velocity": 95, "tagsIdx": [1], "pitch": 42}], "eventTags": ["Snare", "ClosedHH", "Clap", "Kick", "Cymbal", "OpenHH"], "timeInfo": {"duration": 4, "bpm": 120.0}}, {"eventList": [{"duration": 0.125, "on": 0.0, "velocity": 100, "tagsIdx": [0], "pitch": 42}, {"duration": 0.125, "on": 0.5, "velocity": 100, "tagsIdx": [0], "pitch": 42}, {"duration": 0.125, "on": 1.0, "velocity": 100, "tagsIdx": [1], "pitch": 36}, {"duration": 0.125, "on": 1.0, "velocity": 100, "tagsIdx": [0], "pitch": 42}, {"duration": 0.125, "on": 1.0, "velocity": 100, "tagsIdx": [2], "pitch": 39}, {"duration": 0.125, "on": 1.5, "velocity": 100, "tagsIdx": [0], "pitch": 42}, {"duration": 0.125, "on": 2.0, "velocity": 100, "tagsIdx": [0], "pitch": 42}, {"duration": 0.125, "on": 2.5, "velocity": 100, "tagsIdx": [0], "pitch": 42}, {"duration": 0.125, "on": 3.0, "velocity": 100, "tagsIdx": [0], "pitch": 42}, {"duration": 0.125, "on": 3.0, "velocity": 100, "tagsIdx": [1], "pitch": 36}, {"duration": 0.125, "on": 3.0, "velocity": 100, "tagsIdx": [2], "pitch": 39}, {"duration": 0.125, "on": 3.5, "velocity": 100, "tagsIdx": [0], "pitch": 42}, {"duration": 0.125, "on": 3.75, "velocity": 100, "tagsIdx": [0], "pitch": 42}], "eventTags": ["ClosedHH", "Kick", "Clap"], "timeInfo": {"duration": 4, "bpm": 120.0}}, {"eventList": [{"duration": 0.25, "on": 0.0, "velocity": 95, "tagsIdx": [0], "pitch": 38}, {"duration": 0.25, "on": 0.0, "velocity": 95, "tagsIdx": [1], "pitch": 42}, {"duration": 0.25, "on": 0.0, "velocity": 63, "tagsIdx": [2], "pitch": 39}, {"duration": 0.25, "on": 0.25, "velocity": 111, "tagsIdx": [3], "pitch": 36}, {"duration": 0.25, "on": 0.25, "velocity": 95, "tagsIdx": [1], "pitch": 42}, {"duration": 0.25, "on": 0.5, "velocity": 95, "tagsIdx": [1], "pitch": 42}, {"duration": 0.25, "on": 0.75, "velocity": 95, "tagsIdx": [1], "pitch": 42}, {"duration": 0.25, "on": 1.0, "velocity": 111, "tagsIdx": [3], "pitch": 36}, {"duration": 0.25, "on": 1.0, "velocity": 127, "tagsIdx": [1], "pitch": 42}, {"duration": 0.25, "on": 1.25, "velocity": 127, "tagsIdx": [1], "pitch": 42}, {"duration": 0.25, "on": 1.5, "velocity": 111, "tagsIdx": [1], "pitch": 42}, {"duration": 0.25, "on": 1.75, "velocity": 95, "tagsIdx": [1], "pitch": 42}, {"duration": 0.25, "on": 2.0, "velocity": 95, "tagsIdx": [0], "pitch": 38}, {"duration": 0.25, "on": 2.0, "velocity": 95, "tagsIdx": [1], "pitch": 42}, {"duration": 0.25, "on": 2.0, "velocity": 63, "tagsIdx": [2], "pitch": 39}, {"duration": 0.25, "on": 2.25, "velocity": 63, "tagsIdx": [1], "pitch": 42}, {"duration": 0.25, "on": 2.5, "velocity": 95, "tagsIdx": [1], "pitch": 42}, {"duration": 0.25, "on": 2.75, "velocity": 95, "tagsIdx": [1], "pitch": 42}, {"duration": 0.25, "on": 3.0, "velocity": 95, "tagsIdx": [1], "pitch": 42}, {"duration": 0.25, "on": 3.25, "velocity": 95, "tagsIdx": [1], "pitch": 42}, {"duration": 0.25, "on": 3.5, "velocity": 95, "tagsIdx": [3], "pitch": 36}, {"duration": 0.25, "on": 3.5, "velocity": 95, "tagsIdx": [1], "pitch": 42}, {"duration": 0.25, "on": 3.5, "velocity": 111, "tagsIdx": [4], "pitch": 46}, {"duration": 0.25, "on": 3.75, "velocity": 95, "tagsIdx": [1], "pitch": 42}], "eventTags": ["Snare", "ClosedHH", "Clap", "Kick", "OpenHH"], "timeInfo": {"duration": 4, "bpm": 120.0}}, {"eventList": [{"duration": 0.25, "on": 0.0, "velocity": 95, "tagsIdx": [0], "pitch": 38}, {"duration": 0.25, "on": 0.0, "velocity": 95, "tagsIdx": [1], "pitch": 42}, {"duration": 0.25, "on": 0.0, "velocity": 63, "tagsIdx": [2], "pitch": 39}, {"duration": 0.25, "on": 0.25, "velocity": 111, "tagsIdx": [3], "pitch": 36}, {"duration": 0.25, "on": 0.25, "velocity": 95, "tagsIdx": [1], "pitch": 42}, {"duration": 0.25, "on": 0.5, "velocity": 95, "tagsIdx": [1], "pitch": 42}, {"duration": 0.25, "on": 0.75, "velocity": 95, "tagsIdx": [1], "pitch": 42}, {"duration": 0.25, "on": 1.0, "velocity": 111, "tagsIdx": [3], "pitch": 36}, {"duration": 0.25, "on": 1.0, "velocity": 127, "tagsIdx": [1], "pitch": 42}, {"duration": 0.25, "on": 1.25, "velocity": 127, "tagsIdx": [1], "pitch": 42}, {"duration": 0.25, "on": 1.5, "velocity": 127, "tagsIdx": [1], "pitch": 42}, {"duration": 0.25, "on": 1.75, "velocity": 95, "tagsIdx": [1], "pitch": 42}, {"duration": 0.25, "on": 2.0, "velocity": 95, "tagsIdx": [0], "pitch": 38}, {"duration": 0.25, "on": 2.0, "velocity": 95, "tagsIdx": [1], "pitch": 42}, {"duration": 0.25, "on": 2.0, "velocity": 63, "tagsIdx": [2], "pitch": 39}, {"duration": 0.25, "on": 2.25, "velocity": 95, "tagsIdx": [1], "pitch": 42}, {"duration": 0.25, "on": 2.5, "velocity": 95, "tagsIdx": [1], "pitch": 42}, {"duration": 0.25, "on": 2.75, "velocity": 95, "tagsIdx": [1], "pitch": 42}, {"duration": 0.25, "on": 3.0, "velocity": 111, "tagsIdx": [3], "pitch": 36}, {"duration": 0.25, "on": 3.0, "velocity": 95, "tagsIdx": [1], "pitch": 42}, {"duration": 0.25, "on": 3.25, "velocity": 95, "tagsIdx": [1], "pitch": 42}, {"duration": 0.25, "on": 3.5, "velocity": 111, "tagsIdx": [3], "pitch": 36}, {"duration": 0.25, "on": 3.5, "velocity": 79, "tagsIdx": [4], "pitch": 49}, {"duration": 0.25, "on": 3.5, "velocity": 111, "tagsIdx": [1], "pitch": 42}, {"duration": 0.25, "on": 3.5, "velocity": 111, "tagsIdx": [5], "pitch": 46}, {"duration": 0.25, "on": 3.75, "velocity": 95, "tagsIdx": [1], "pitch": 42}], "eventTags": ["Snare", "ClosedHH", "Clap", "Kick", "Cymbal", "OpenHH"], "timeInfo": {"duration": 4, "bpm": 120.0}}, {"eventList": [{"duration": 0.25, "on": 0.0, "velocity": 95, "tagsIdx": [0], "pitch": 38}, {"duration": 0.25, "on": 0.0, "velocity": 95, "tagsIdx": [1], "pitch": 42}, {"duration": 0.25, "on": 0.0, "velocity": 63, "tagsIdx": [2], "pitch": 39}, {"duration": 0.25, "on": 0.25, "velocity": 111, "tagsIdx": [3], "pitch": 36}, {"duration": 0.25, "on": 0.25, "velocity": 95, "tagsIdx": [1], "pitch": 42}, {"duration": 0.25, "on": 0.5, "velocity": 95, "tagsIdx": [1], "pitch": 42}, {"duration": 0.25, "on": 0.75, "velocity": 95, "tagsIdx": [1], "pitch": 42}, {"duration": 0.25, "on": 1.0, "velocity": 111, "tagsIdx": [3], "pitch": 36}, {"duration": 0.25, "on": 1.0, "velocity": 127, "tagsIdx": [1], "pitch": 42}, {"duration": 0.25, "on": 1.25, "velocity": 127, "tagsIdx": [1], "pitch": 42}, {"duration": 0.25, "on": 1.5, "velocity": 111, "tagsIdx": [1], "pitch": 42}, {"duration": 0.25, "on": 1.75, "velocity": 95, "tagsIdx": [1], "pitch": 42}, {"duration": 0.25, "on": 2.0, "velocity": 95, "tagsIdx": [0], "pitch": 38}, {"duration": 0.25, "on": 2.0, "velocity": 95, "tagsIdx": [1], "pitch": 42}, {"duration": 0.25, "on": 2.0, "velocity": 63, "tagsIdx": [2], "pitch": 39}, {"duration": 0.25, "on": 2.25, "velocity": 63, "tagsIdx": [1], "pitch": 42}, {"duration": 0.25, "on": 2.5, "velocity": 95, "tagsIdx": [1], "pitch": 42}, {"duration": 0.25, "on": 2.75, "velocity": 95, "tagsIdx": [1], "pitch": 42}, {"duration": 0.25, "on": 3.0, "velocity": 95, "tagsIdx": [1], "pitch": 42}, {"duration": 0.25, "on": 3.25, "velocity": 95, "tagsIdx": [1], "pitch": 42}, {"duration": 0.25, "on": 3.5, "velocity": 95, "tagsIdx": [3], "pitch": 36}, {"duration": 0.25, "on": 3.5, "velocity": 95, "tagsIdx": [1], "pitch": 42}, {"duration": 0.25, "on": 3.5, "velocity": 111, "tagsIdx": [4], "pitch": 46}, {"duration": 0.125, "on": 3.75, "velocity": 95, "tagsIdx": [1], "pitch": 42}], "eventTags": ["Snare", "ClosedHH", "Clap", "Kick", "OpenHH"], "timeInfo": {"duration": 4, "bpm": 120.0}}, {"eventList": [{"duration": 0.25, "on": 0.0, "velocity": 95, "tagsIdx": [0], "pitch": 38}, {"duration": 0.25, "on": 0.0, "velocity": 95, "tagsIdx": [1], "pitch": 42}, {"duration": 0.25, "on": 0.0, "velocity": 63, "tagsIdx": [2], "pitch": 39}, {"duration": 0.25, "on": 0.25, "velocity": 111, "tagsIdx": [3], "pitch": 36}, {"duration": 0.25, "on": 0.25, "velocity": 95, "tagsIdx": [1], "pitch": 42}, {"duration": 0.25, "on": 0.5, "velocity": 95, "tagsIdx": [1], "pitch": 42}, {"duration": 0.25, "on": 0.75, "velocity": 95, "tagsIdx": [1], "pitch": 42}, {"duration": 0.25, "on": 1.0, "velocity": 111, "tagsIdx": [3], "pitch": 36}, {"duration": 0.25, "on": 1.0, "velocity": 127, "tagsIdx": [1], "pitch": 42}, {"duration": 0.25, "on": 1.25, "velocity": 127, "tagsIdx": [1], "pitch": 42}, {"duration": 0.25, "on": 1.5, "velocity": 127, "tagsIdx": [1], "pitch": 42}, {"duration": 0.25, "on": 1.75, "velocity": 95, "tagsIdx": [1], "pitch": 42}, {"duration": 0.25, "on": 2.0, "velocity": 95, "tagsIdx": [0], "pitch": 38}, {"duration": 0.25, "on": 2.0, "velocity": 95, "tagsIdx": [1], "pitch": 42}, {"duration": 0.25, "on": 2.0, "velocity": 63, "tagsIdx": [2], "pitch": 39}, {"duration": 0.25, "on": 2.25, "velocity": 95, "tagsIdx": [1], "pitch": 42}, {"duration": 0.25, "on": 2.5, "velocity": 95, "tagsIdx": [1], "pitch": 42}, {"duration": 0.25, "on": 2.75, "velocity": 95, "tagsIdx": [1], "pitch": 42}, {"duration": 0.25, "on": 3.0, "velocity": 111, "tagsIdx": [3], "pitch": 36}, {"duration": 0.25, "on": 3.0, "velocity": 95, "tagsIdx": [1], "pitch": 42}, {"duration": 0.25, "on": 3.25, "velocity": 95, "tagsIdx": [1], "pitch": 42}, {"duration": 0.25, "on": 3.5, "velocity": 111, "tagsIdx": [3], "pitch": 36}, {"duration": 0.25, "on": 3.5, "velocity": 79, "tagsIdx": [4], "pitch": 49}, {"duration": 0.25, "on": 3.5, "velocity": 111, "tagsIdx": [1], "pitch": 42}, {"duration": 0.25, "on": 3.5, "velocity": 111, "tagsIdx": [5], "pitch": 46}, {"duration": 0.25, "on": 3.75, "velocity": 95, "tagsIdx": [1], "pitch": 42}], "eventTags": ["Snare", "ClosedHH", "Clap", "Kick", "Cymbal", "OpenHH"], "timeInfo": {"duration": 4, "bpm": 120.0}}]}
